<svg transform="scale(1)" version="1.1" id="Layer_1" xmlns="http://www.w3.org/2000/svg" xmlns:xlink="http://www.w3.org/1999/xlink" x="0px" y="0px" viewBox="0 0 500 500" xml:space="preserve" class="show_show__wrapper__graphic__5Waiy "><title>React</title><style type="text/css">
	.st0{fill:#FFFFFF;}
	.st1{fill:#111111;}
	.st2{fill:#128FFF;}
</style><g id="shadow"><path class="st0" d="M92.4,456.3c-5.7,1.2-12.2,3.6-13.4,9.3c-1.1,5.3,3.5,10.1,8.1,12.9c14.8,9.1,33.5,9.1,50.7,6.1
		s33.7-8.9,51-10.6c20.4-2,40.8,1.6,61.2,3.9c52.2,5.7,105,1.9,155.8-11.3c5.6-1.5,11.4-3.1,15.7-7s6.7-10.6,3.9-15.6
		c-3.2-5.9-11.2-6.9-18-7c-83.8-2.4-172.4-2.7-255.3,11.5C132.4,451.7,112.2,452.2,92.4,456.3z"></path><path class="st1" d="M118.7,487.1c-12.6,0-23.3-2.7-32-8c-2.3-1.4-9.9-6.6-8.4-13.7c1-4.8,5.7-8.1,14-9.9l0.2,0.7l-0.2-0.7
		c11-2.3,22.3-3.5,33.3-4.6c8.7-0.9,17.7-1.8,26.4-3.3c82.4-14.1,171.5-13.8,255.5-11.5c6.9,0.2,15.2,1.2,18.6,7.4
		c3.1,5.6,0.2,12.7-4.1,16.5s-10.1,5.6-16,7.1c-50.9,13.2-103.8,17.1-156.1,11.3c-4.1-0.5-8.3-1-12.3-1.5c-16-2-32.5-4-48.7-2.4
		c-10.2,1-20.4,3.5-30.3,6c-6.8,1.7-13.7,3.4-20.7,4.6C131.5,486.4,125.1,487,118.7,487.1z M331.1,436.4
		c-60.2,0-121.2,2.8-178.8,12.7c-8.8,1.5-17.8,2.4-26.5,3.3c-10.9,1.1-22.2,2.3-33.2,4.6c-7.7,1.6-12,4.5-12.8,8.7
		c-1.2,6.1,5.6,10.8,7.7,12.1c12.5,7.6,29.4,9.6,50.1,6c6.9-1.2,13.9-2.9,20.6-4.6c9.9-2.4,20.1-5,30.5-6c16.4-1.6,33,0.4,49.1,2.4
		c4,0.5,8.2,1,12.3,1.5c52.1,5.8,104.8,2,155.6-11.2c5.8-1.5,11.3-3.1,15.4-6.8c3.8-3.4,6.5-9.7,3.8-14.7c-3-5.5-10.5-6.5-17.3-6.6
		C382.3,437,356.8,436.5,331.1,436.4L331.1,436.4z"></path></g><g id="bookshelf"><path class="st0" d="M403,109.3c-1.4,106.8-2.8,213.6-4.2,320.4c-0.1,8.3-1,18-8,22.4c-3.8,2.4-8.6,2.5-13.1,2.6l-165.5,2.7
		c-7.4,0.1-15.3,0.1-21.3-4.2c-9.1-6.5-9.9-19.5-9.8-30.6l2-322.8c0-5.3,0.2-11.1,3.3-15.4c4.8-6.7,14.3-7.3,22.5-7.3
		c44.7,0,166.3-2.1,178,0.3C404.9,81.2,403.2,94.2,403,109.3z"></path><path class="st1" d="M209,458.2c-6,0-13.1-0.5-18.6-4.4c-9.1-6.4-10.2-18.8-10.2-31.2l2-322.7c0-6.1,0.3-11.5,3.4-15.8
		c4.8-6.7,13.9-7.6,23-7.6h1.2c13,0,32.5-0.2,53-0.3c51.6-0.4,115.7-1,124.1,0.7c17.3,3.6,17.1,15.5,16.8,29.3c0,1.1,0,2.2-0.1,3.2
		l-4.2,320.4c-0.1,8.9-1.2,18.6-8.4,23c-4.1,2.6-9.3,2.6-13.5,2.7l-165.5,2.7C211.2,458.2,210.1,458.2,209,458.2z M208.8,77.9
		c-8.7,0-17.4,0.9-21.8,7c-2.9,4-3.1,9.1-3.2,15l-2,322.7c-0.1,12,1,24,9.5,30c5.6,4,12.8,4.2,20.9,4.1l165.5-2.7
		c4-0.1,8.9-0.1,12.7-2.5c6.5-4.1,7.5-13.3,7.7-21.8l4.2-320.4l0,0c0-1.1,0-2.2,0.1-3.3c0.3-13.7,0.5-24.5-15.6-27.8
		c-8.2-1.7-72.3-1.1-123.8-0.7c-21.1,0.2-41,0.3-54.1,0.3L208.8,77.9z"></path><path class="st1" d="M216.1,94.1c40.3,0,150.1-1.6,160.6,0.3c16.3,2.9,14.7,13.2,14.6,25.1c-1.3,84.3-2.5,168.5-3.8,252.8
		c-0.1,6.5-0.9,14.2-7.2,17.7c-3.5,1.9-7.7,2-11.8,2.1L219.1,394c-6.7,0.1-13.8,0.1-19.2-3.3c-8.2-5.1-8.9-15.4-8.9-24.2l1.8-254.6
		c0-4.2,0.2-8.7,3-12.2C200.1,94.6,208.7,94.1,216.1,94.1"></path><path class="st0" d="M382.8,210c-47,0.6-94,1-141.1,1.3l-33.6,0.2c-4.9,0-9.9,0-14.3-2.2s-7.5-7.4-5.9-12c2.1-5.7,9.6-6.8,15.7-6.8
		l149.6-1.6c7.8-0.1,15.5-0.2,23.3,0c5.1,0.1,14.5-1.2,18.7,2.4c3.2,2.8,3.3,9.3,1.6,12.9C394.2,209.4,387.9,209.9,382.8,210z"></path><path class="st1" d="M206.3,212.3c-4.2,0-8.9-0.2-12.9-2.3c-4.5-2.3-8.1-7.8-6.2-12.9c1.8-4.8,7.1-7.2,16.4-7.3l149.9-1.6
		c7.5-0.1,15.3-0.2,23,0c1.1,0,2.4,0,3.8-0.1c5.3-0.2,11.8-0.4,15.4,2.7c3.4,2.9,3.7,9.8,1.8,13.8c-3,6-10.6,6.1-14.6,6.2l0,0
		c-47.1,0.6-94.9,1-141.1,1.3l-33.6,0.2L206.3,212.3z M366.5,189.6c-4.4,0-8.7,0-13,0.1l-149.9,1.6c-8.6,0.1-13.5,2.2-15,6.3
		s1.7,9.1,5.5,11.1c4.3,2.2,9.4,2.1,13.9,2.1l33.6-0.2c46.2-0.3,94-0.7,141.1-1.3l0,0c5.2-0.1,11-0.5,13.3-5.3
		c1.7-3.4,1.4-9.5-1.4-12c-3.1-2.7-9.3-2.5-14.3-2.3c-1.4,0-2.7,0.1-3.9,0.1C373.2,189.6,369.9,189.6,366.5,189.6L366.5,189.6z
		 M382.8,210L382.8,210z"></path><path class="st0" d="M382.8,318.4c-47,0.6-94,1-141.1,1.3l-33.6,0.2c-4.9,0-9.9,0-14.3-2.2s-7.5-7.4-5.9-12
		c2.1-5.7,9.6-6.8,15.7-6.8l149.6-1.6c7.8-0.1,15.5-0.2,23.3,0c5.1,0.1,14.5-1.2,18.7,2.4c3.2,2.8,3.3,9.3,1.6,12.9
		C394.2,317.9,387.9,318.3,382.8,318.4z"></path><path class="st1" d="M206.3,320.7c-4.2,0-8.9-0.2-12.9-2.3c-4.5-2.3-8.1-7.8-6.2-12.9c1.8-4.8,7.1-7.2,16.4-7.3l149.9-1.6
		c7.5-0.1,15.3-0.2,23,0c1.1,0,2.4,0,3.8-0.1c5.3-0.2,11.8-0.4,15.4,2.7c3.4,2.9,3.7,9.8,1.8,13.8c-3,6-10.6,6.1-14.6,6.2l0,0
		c-47.1,0.6-94.9,1-141.1,1.3l-33.6,0.2L206.3,320.7z M366.5,298c-4.4,0-8.7,0-13,0.1l-149.9,1.6c-8.6,0.1-13.5,2.2-15,6.3
		s1.7,9.1,5.5,11c4.3,2.2,9.4,2.1,13.9,2.1l33.6-0.2c46.2-0.3,94-0.7,141.1-1.3l0,0c5.2-0.1,11-0.5,13.3-5.3c1.7-3.4,1.4-9.5-1.4-12
		c-3.1-2.7-9.3-2.5-14.3-2.3c-1.4,0-2.7,0.1-3.9,0.1C373.2,298,369.9,298,366.5,298z M382.8,318.4L382.8,318.4z"></path><path class="st1" d="M375.2,441.7c-55.3,5.3-111,3.6-166.5,1.9c-2.9-0.1-5.9-0.2-8.3-1.7c-5.1-3.1-5.5-10.2-5.3-16.2
		c0.1-3,0.4-6.2,2.5-8.3c2-1.9,5-2.2,7.7-2.3c31.4-1.8,62.9-2.8,94.3-3c15.6-0.1,31.1-0.1,46.7,0.2c7.9,0.1,15.9,0.3,23.8,0.5
		c4.8,0.1,10.6-0.2,14.4,3.5c3.4,3.4,3.9,9.1,3.3,13.6C386.9,437.4,382.5,441,375.2,441.7z"></path><path class="st2" d="M224.6,183.6c0.2,2.1-1.3,4-3.4,4.4c-2.1,0.5-4.2,1.3-6.2,2.2c-3.2,1.3-7.2,2-9.8-0.2
		c-1.9-1.6-2.4-4.3-2.8-6.8c-2.8-17.6-4.8-35.3-6.1-53.1c-0.2-2.3,1.6-4.3,3.9-4.5c0,0,0.1,0,0.1,0c4.8-0.1,9.6-1,14.2-2.6
		c2.2-0.8,4.6,0.3,5.4,2.5c0.2,0.4,0.2,0.9,0.3,1.3c0.2,8.5,1.4,17.2,2.1,25.7L224.6,183.6z"></path><path class="st0" d="M248.1,185.7c-0.1,2.1-1.9,3.8-4,3.9c-2.2,0.2-4.3,0.7-6.4,1.3c-3.4,0.8-7.4,1-9.7-1.6
		c-1.6-1.9-1.8-4.6-1.8-7.1c-0.3-17.8,0.1-35.6,1.4-53.4c0.2-2.3,2.1-4.1,4.5-3.9c0.1,0,0.1,0,0.2,0c4.8,0.6,9.7,0.4,14.4-0.5
		c2.3-0.5,4.5,1,5,3.2c0.1,0.5,0.1,0.9,0.1,1.4c-1,8.5-1,17.2-1.5,25.8L248.1,185.7z"></path><path class="st1" d="M233.5,192.2c-2.3,0.1-4.5-0.7-6.1-2.4c-1.8-2-2-4.9-2-7.6c-0.3-17.8,0.1-35.7,1.4-53.5
		c0.1-1.4,0.7-2.6,1.8-3.5c1-0.9,2.3-1.3,3.7-1.1c4.7,0.6,9.5,0.4,14.2-0.5c1.6-0.3,3.2,0.2,4.4,1.2c1.2,1.1,1.7,2.6,1.5,4.2
		c-0.6,5.4-0.9,10.9-1.1,16.3c-0.1,3.1-0.2,6.3-0.4,9.4l-2,30.9l0,0c-0.2,2.5-2.2,4.5-4.7,4.6c-1.7,0.2-3.4,0.5-5,1l-1.3,0.3
		C236.5,192,235,192.2,233.5,192.2z M231.6,125.7c-0.8,0-1.5,0.3-2.1,0.8c-0.7,0.6-1.2,1.5-1.2,2.5c-1.2,17.7-1.7,35.6-1.4,53.3
		c0,2.6,0.2,5,1.6,6.6c2.1,2.4,6,2,9,1.3l1.3-0.3c1.7-0.5,3.5-0.8,5.3-1c1.7-0.1,3.1-1.5,3.3-3.2l2-30.9c0.2-3.1,0.3-6.3,0.4-9.4
		c0.2-5.4,0.4-11,1.1-16.4c0.1-1.1-0.3-2.2-1.1-2.9c-0.8-0.8-2-1.1-3.1-0.9c-4.8,0.9-9.8,1.1-14.6,0.6L231.6,125.7z M248.1,185.7
		L248.1,185.7z"></path><path class="st2" d="M280,183.8c0.1,2.1-1.3,4-3.4,4.4c-2.1,0.5-4.2,1.2-6.2,2.1c-3.2,1.2-7.2,2-9.8-0.2c-1.9-1.6-2.4-4.2-2.8-6.6
		c-2.8-17.2-4.8-34.6-6.1-52c-0.1-2.3,1.6-4.3,3.9-4.4c0.1,0,0.1,0,0.2,0c4.8-0.1,9.6-0.9,14.2-2.5c2.2-0.8,4.6,0.3,5.4,2.5
		c0.2,0.4,0.2,0.8,0.3,1.3c0.2,8.4,1.5,16.9,2.1,25.2L280,183.8z"></path><path class="st0" d="M306.2,184.3c0.2,2.1-1.3,4-3.4,4.4c-2.1,0.5-4.2,1.3-6.2,2.2c-3.2,1.3-7.2,2-9.8-0.2
		c-1.9-1.6-2.4-4.3-2.8-6.8c-2.8-17.6-4.8-35.3-6.1-53.1c-0.2-2.3,1.6-4.3,3.9-4.5c0,0,0.1,0,0.1,0c4.8-0.1,9.6-1,14.2-2.6
		c2.2-0.8,4.6,0.3,5.4,2.5c0.2,0.4,0.2,0.9,0.3,1.3c0.2,8.5,1.5,17.2,2.1,25.7L306.2,184.3z"></path><path class="st1" d="M291.1,192.9c-1.7,0.1-3.4-0.5-4.8-1.6c-2-1.8-2.6-4.5-3.1-7.2c-2.8-17.5-4.9-35.4-6.1-53.1
		c-0.1-1.4,0.4-2.7,1.3-3.7c0.9-1,2.2-1.6,3.5-1.6c4.8-0.1,9.5-0.9,14-2.5c1.5-0.5,3.2-0.3,4.6,0.6c1.3,0.9,2.1,2.4,2.1,3.9
		c0.1,5.4,0.7,11,1.2,16.3c0.3,3.1,0.6,6.3,0.9,9.4l2.3,30.9c0.2,2.5-1.5,4.7-4,5.2c-1.7,0.4-3.3,0.9-4.9,1.6l-1.2,0.5
		C295.1,192.4,293.1,192.9,291.1,192.9z M297.6,124.4c-0.4,0-0.8,0.1-1.2,0.2c-4.6,1.6-9.5,2.5-14.4,2.6c-0.9,0-1.8,0.4-2.4,1.1
		c-0.6,0.7-1,1.6-0.9,2.6c1.3,17.7,3.3,35.5,6.1,53c0.4,2.5,0.9,4.9,2.5,6.3c2.4,2.1,6.3,1.2,9.1,0.1l1.2-0.5
		c1.7-0.8,3.4-1.3,5.1-1.7c1.7-0.3,2.9-1.9,2.8-3.7l0,0l-2.3-30.9c-0.2-3.1-0.5-6.2-0.9-9.3c-0.5-5.4-1.1-11-1.2-16.4
		c0-1.1-0.6-2.1-1.5-2.7C299.1,124.6,298.3,124.4,297.6,124.4L297.6,124.4z"></path><path class="st0" d="M306.4,288.6c0.2,2.1-1.3,4-3.4,4.4c-2.1,0.5-4.2,1.3-6.2,2.2c-3.2,1.3-7.2,2-9.8-0.2
		c-1.9-1.6-2.4-4.3-2.8-6.8c-2.8-17.6-4.8-35.3-6.1-53.1c-0.2-2.3,1.6-4.3,3.9-4.5c0.1,0,0.1,0,0.2,0c4.8-0.1,9.6-1,14.2-2.6
		c2.2-0.8,4.6,0.3,5.4,2.5c0.2,0.4,0.2,0.9,0.3,1.3c0.2,8.6,1.5,17.2,2.1,25.7L306.4,288.6z"></path><path class="st1" d="M291.3,297.2c-1.7,0.1-3.4-0.5-4.8-1.6c-2-1.8-2.6-4.5-3.1-7.2c-2.8-17.5-4.9-35.4-6.1-53.1
		c-0.1-1.4,0.4-2.7,1.3-3.7c0.9-1,2.2-1.6,3.5-1.6c4.8-0.1,9.5-1,14-2.5c1.5-0.5,3.2-0.3,4.6,0.6c1.3,0.9,2.1,2.4,2.1,3.9
		c0.1,5.4,0.7,10.9,1.2,16.3c0.3,3.1,0.6,6.2,0.9,9.4l2.3,30.9c0.2,2.5-1.5,4.7-4,5.2c-1.7,0.4-3.3,0.9-4.9,1.6l-1.2,0.5
		C295.3,296.7,293.3,297.2,291.3,297.2z M297.8,228.7c-0.4,0-0.8,0.1-1.2,0.2c-4.6,1.6-9.5,2.5-14.4,2.6c-0.9,0-1.8,0.4-2.4,1.1
		c-0.6,0.7-1,1.6-0.9,2.6c1.2,17.7,3.3,35.5,6.1,53c0.4,2.5,0.9,4.9,2.6,6.3c2.4,2.1,6.3,1.2,9,0.1l1.2-0.5c1.7-0.8,3.4-1.3,5.1-1.7
		c1.7-0.3,2.9-1.9,2.8-3.7l0,0l-2.3-30.9c-0.2-3.1-0.5-6.3-0.9-9.3c-0.5-5.4-1.1-11-1.2-16.4c0-1.1-0.6-2.1-1.5-2.7
		C299.2,228.9,298.5,228.7,297.8,228.7z"></path><path class="st2" d="M329.9,290.7c-0.1,2.1-1.9,3.8-4,3.9c-2.2,0.2-4.3,0.7-6.5,1.3c-3.4,0.8-7.4,1-9.7-1.6
		c-1.6-1.9-1.8-4.6-1.8-7.1c-0.3-17.8,0.1-35.6,1.4-53.4c0.2-2.3,2.2-4.1,4.5-3.9c0.1,0,0.1,0,0.2,0c4.8,0.6,9.7,0.4,14.4-0.5
		c2.3-0.5,4.5,1,5,3.2c0.1,0.4,0.1,0.9,0.1,1.4c-1,8.5-1,17.2-1.5,25.8L329.9,290.7z"></path><path class="st2" d="M361.8,288.8c0.1,2.1-1.3,4-3.4,4.4c-2.1,0.5-4.2,1.3-6.2,2.1c-3.2,1.2-7.2,2-9.8-0.2
		c-1.9-1.6-2.4-4.2-2.8-6.6c-2.8-17.2-4.8-34.5-6.1-51.9c-0.1-2.3,1.6-4.3,3.9-4.4c0.1,0,0.1,0,0.2,0c4.8-0.1,9.6-0.9,14.2-2.5
		c2.2-0.8,4.6,0.3,5.4,2.5c0.2,0.4,0.2,0.8,0.3,1.3c0.2,8.4,1.5,16.9,2.1,25.2L361.8,288.8z"></path><path class="st0" d="M225.3,290c0.2,2.1-1.3,4-3.4,4.4c-2.1,0.5-4.2,1.3-6.2,2.2c-3.2,1.3-7.2,2-9.8-0.2c-1.9-1.6-2.4-4.3-2.8-6.8
		c-2.8-17.6-4.8-35.3-6.1-53.1c-0.2-2.3,1.6-4.3,3.9-4.5c0,0,0.1,0,0.1,0c4.8-0.1,9.6-1,14.2-2.6c2.2-0.8,4.6,0.3,5.4,2.5
		c0.2,0.4,0.2,0.9,0.3,1.3c0.2,8.6,1.4,17.2,2.1,25.7L225.3,290z"></path><path class="st1" d="M210.2,298.7c-1.7,0.1-3.4-0.5-4.8-1.6c-2-1.8-2.6-4.5-3.1-7.2c-2.8-17.5-4.9-35.4-6.1-53.1
		c-0.1-1.4,0.4-2.7,1.3-3.7c0.9-1,2.2-1.6,3.5-1.6c4.8-0.1,9.5-1,14-2.5c1.5-0.5,3.2-0.3,4.6,0.6c1.3,0.9,2.1,2.4,2.1,3.9
		c0.1,5.4,0.7,11,1.2,16.3c0.3,3.1,0.6,6.3,0.9,9.4l2.3,30.9c0.2,2.5-1.5,4.7-4,5.2c-1.7,0.4-3.3,0.9-4.9,1.6l-1.2,0.5
		C214.1,298.2,212.2,298.6,210.2,298.7z M216.7,230.1c-0.4,0-0.8,0.1-1.2,0.2c-4.6,1.6-9.5,2.5-14.4,2.6c-0.9,0-1.8,0.4-2.4,1.1
		c-0.6,0.7-1,1.6-0.9,2.6c1.2,17.7,3.3,35.5,6.1,53c0.4,2.5,0.9,4.9,2.6,6.3c2.4,2.1,6.3,1.2,9.1,0.1l1.2-0.5
		c1.7-0.8,3.4-1.3,5.1-1.7c1.7-0.3,2.9-1.9,2.8-3.7l0,0l-2.3-30.9c-0.2-3.1-0.6-6.2-0.9-9.3c-0.6-5.4-1.1-11-1.2-16.4
		c0-1.1-0.6-2.1-1.4-2.7C218.1,230.3,217.4,230.1,216.7,230.1z"></path><path class="st0" d="M248.8,292.1c-0.1,2.1-1.9,3.8-4,3.9c-2.2,0.2-4.3,0.7-6.4,1.3c-3.4,0.8-7.4,1-9.7-1.6
		c-1.7-1.9-1.8-4.6-1.8-7.1c-0.3-17.8,0.1-35.6,1.4-53.4c0.2-2.3,2.2-4.1,4.5-3.9c0.1,0,0.1,0,0.2,0c4.8,0.6,9.7,0.4,14.4-0.5
		c2.3-0.5,4.5,1,5,3.2c0.1,0.4,0.1,0.9,0.1,1.4c-1,8.5-1,17.2-1.5,25.8L248.8,292.1z"></path><path class="st1" d="M234.2,298.7c-2.3,0.1-4.5-0.7-6.1-2.4c-1.8-2-2-4.9-2-7.6c-0.3-17.8,0.1-35.7,1.4-53.5
		c0.1-1.4,0.7-2.6,1.8-3.5c1-0.9,2.4-1.3,3.7-1.1c4.7,0.6,9.5,0.4,14.2-0.5c1.6-0.3,3.2,0.2,4.4,1.2c1.2,1.1,1.7,2.6,1.5,4.2
		c-0.6,5.4-0.9,10.9-1.1,16.3c-0.1,3.1-0.2,6.3-0.4,9.4l-2,30.9l0,0c-0.2,2.5-2.2,4.5-4.7,4.6c-1.7,0.2-3.4,0.5-5,1l-1.3,0.3
		C237.2,298.5,235.7,298.7,234.2,298.7z M232.3,232.1c-0.8,0-1.5,0.3-2.1,0.8c-0.7,0.6-1.2,1.5-1.3,2.4c-1.2,17.7-1.7,35.6-1.4,53.3
		c0,2.5,0.2,5,1.6,6.6c2.1,2.4,6,2,8.9,1.3l1.3-0.3c1.7-0.5,3.5-0.8,5.3-1c1.7-0.1,3.2-1.5,3.3-3.2l2-30.9c0.2-3.1,0.3-6.3,0.4-9.4
		c0.2-5.4,0.4-11,1.1-16.4c0.1-1.1-0.3-2.2-1.1-2.9c-0.8-0.8-2-1.1-3.1-0.9c-4.8,0.9-9.8,1.1-14.6,0.6L232.3,232.1z M248.8,292.1
		L248.8,292.1z"></path><path class="st2" d="M280.7,290.2c0.1,2.1-1.3,4-3.4,4.4c-2.1,0.5-4.2,1.2-6.2,2.1c-3.2,1.2-7.2,2-9.8-0.2
		c-1.9-1.6-2.4-4.2-2.8-6.6c-2.8-17.2-4.8-34.5-6.1-51.9c-0.2-2.3,1.6-4.3,3.9-4.4c0,0,0.1,0,0.1,0c4.8-0.1,9.7-1,14.2-2.5
		c2.2-0.8,4.6,0.3,5.4,2.5c0.2,0.4,0.2,0.8,0.3,1.3c0.2,8.4,1.5,16.9,2.1,25.2L280.7,290.2z"></path><path class="st2" d="M306.4,332c0.2-2.1-1.3-4-3.4-4.5c-2.1-0.5-4.2-1.3-6.2-2.2c-3.2-1.3-7.2-2-9.8,0.2c-1.9,1.6-2.4,4.3-2.8,6.8
		c-2.8,17.6-4.8,35.3-6.1,53.1c-0.2,2.3,1.5,4.3,3.9,4.5c0.1,0,0.1,0,0.2,0c4.8,0.1,9.6,1,14.2,2.5c2.2,0.8,4.6-0.3,5.4-2.5
		c0.2-0.4,0.2-0.9,0.3-1.3c0.2-8.5,1.5-17.2,2.1-25.7L306.4,332z"></path><path class="st0" d="M329.9,329.9c-0.1-2.1-1.9-3.8-4-3.9c-2.2-0.2-4.3-0.7-6.5-1.3c-3.4-0.8-7.4-1-9.7,1.6
		c-1.6,1.9-1.8,4.6-1.8,7.1c-0.3,17.8,0.1,35.6,1.4,53.4c0.2,2.3,2.2,4.1,4.5,3.9c0.1,0,0.1,0,0.2,0c4.8-0.6,9.7-0.4,14.4,0.5
		c2.3,0.5,4.5-1,5-3.3c0.1-0.4,0.1-0.9,0.1-1.3c-1-8.5-1-17.2-1.5-25.8L329.9,329.9z"></path><path class="st1" d="M329.2,392c-0.3,0-0.7,0-1-0.1c-4.7-0.9-9.5-1.1-14.2-0.5c-1.3,0.2-2.7-0.2-3.7-1.1c-1-0.9-1.7-2.1-1.8-3.5
		c-1.2-17.7-1.7-35.7-1.4-53.5c0-2.7,0.2-5.5,2-7.6c2.6-3,7.1-2.6,10.4-1.8l1.3,0.3c1.6,0.5,3.3,0.8,5,1c2.5,0.2,4.5,2.1,4.7,4.6
		l0,0l2,30.9c0.2,3.1,0.3,6.3,0.5,9.4c0.2,5.4,0.4,11,1.1,16.3c0.2,1.6-0.4,3.1-1.5,4.2C331.6,391.5,330.4,392,329.2,392z
		 M319.4,389.5c3.1,0,6.1,0.3,9.1,0.9c1.1,0.2,2.3-0.1,3.1-0.9c0.8-0.7,1.2-1.8,1.1-2.9c-0.6-5.4-0.9-11-1.1-16.5
		c-0.1-3.1-0.2-6.3-0.5-9.3l-2-30.9c-0.1-1.7-1.5-3.1-3.3-3.2c-1.8-0.2-3.6-0.5-5.3-1l-1.3-0.3c-2.9-0.7-6.8-1.1-9,1.3
		c-1.5,1.6-1.6,4.1-1.6,6.6c-0.3,17.7,0.1,35.7,1.4,53.3c0.1,1,0.5,1.8,1.3,2.4c0.7,0.6,1.6,0.9,2.5,0.8
		C315.7,389.7,317.5,389.5,319.4,389.5L319.4,389.5z"></path><path class="st2" d="M361.8,331.8c0.1-2.1-1.3-4-3.4-4.4c-2.1-0.5-4.2-1.2-6.2-2.1c-3.2-1.2-7.2-2-9.8,0.2
		c-1.9,1.6-2.4,4.2-2.8,6.6c-2.8,17.2-4.8,34.6-6.1,52c-0.1,2.3,1.6,4.3,3.9,4.4c0.1,0,0.1,0,0.2,0c4.8,0.1,9.6,1,14.2,2.5
		c2.2,0.8,4.6-0.3,5.4-2.5c0.1-0.4,0.2-0.8,0.3-1.3c0.2-8.4,1.5-16.9,2.1-25.2L361.8,331.8z"></path><path class="st0" d="M225.3,330.5c0.2-2.1-1.3-4-3.4-4.5c-2.1-0.5-4.2-1.3-6.2-2.2c-3.2-1.3-7.2-2-9.8,0.2
		c-1.9,1.6-2.4,4.3-2.8,6.8c-2.8,17.6-4.8,35.3-6.1,53.1c-0.2,2.3,1.6,4.3,3.9,4.5c0,0,0.1,0,0.1,0c4.9,0.1,9.7,1,14.2,2.6
		c2.2,0.8,4.6-0.3,5.4-2.5c0.2-0.4,0.2-0.9,0.3-1.3c0.2-8.5,1.4-17.2,2.1-25.7L225.3,330.5z"></path><path class="st1" d="M216.7,392c-0.6,0-1.1-0.1-1.7-0.3c-4.5-1.6-9.2-2.4-14-2.5c-1.3,0-2.6-0.6-3.5-1.6c-0.9-1-1.4-2.3-1.3-3.7
		c1.3-17.7,3.3-35.6,6.1-53.1c0.4-2.7,1-5.5,3.1-7.2c3-2.6,7.4-1.6,10.6-0.3l1.2,0.5c1.6,0.7,3.2,1.3,4.9,1.6c2.5,0.5,4.2,2.7,4,5.2
		l-2.3,30.9c-0.2,3.1-0.6,6.3-0.9,9.4c-0.6,5.4-1.1,10.9-1.2,16.3c0,1.6-0.8,3-2.1,3.9C218.7,391.7,217.7,392,216.7,392z
		 M210.2,323.5c-1.4-0.1-2.7,0.4-3.8,1.2c-1.7,1.4-2.2,3.8-2.6,6.3c-2.8,17.5-4.8,35.3-6.1,53c-0.1,1,0.3,1.9,0.9,2.6
		c0.6,0.7,1.5,1.1,2.4,1.1c4.9,0.1,9.8,1,14.4,2.6c1.1,0.4,2.3,0.2,3.2-0.4c0.9-0.6,1.4-1.6,1.4-2.7c0.1-5.5,0.7-11,1.2-16.4
		c0.3-3.1,0.6-6.2,0.9-9.3l2.3-30.9l0,0c0.1-1.7-1.1-3.3-2.8-3.6c-1.8-0.4-3.5-1-5.1-1.7l-1.2-0.5
		C213.8,323.9,212,323.5,210.2,323.5L210.2,323.5z"></path><path class="st2" d="M248.8,328.4c-0.1-2.1-1.9-3.8-4-3.9c-2.2-0.2-4.3-0.7-6.4-1.3c-3.4-0.8-7.4-1-9.7,1.6
		c-1.7,1.9-1.8,4.6-1.8,7.1c-0.3,17.8,0.1,35.6,1.4,53.4c0.2,2.3,2.2,4.1,4.5,3.9c0.1,0,0.1,0,0.2,0c4.8-0.6,9.7-0.4,14.4,0.5
		c2.3,0.5,4.5-1,5-3.3c0.1-0.4,0.1-0.9,0.1-1.3c-1-8.5-1-17.2-1.5-25.8L248.8,328.4z"></path><path class="st0" d="M280.7,330.4c0.1-2.1-1.3-4-3.4-4.4c-2.1-0.5-4.2-1.3-6.2-2.1c-3.2-1.2-7.2-2-9.8,0.2
		c-1.9,1.6-2.4,4.2-2.8,6.6c-2.8,17.2-4.8,34.6-6.1,52c-0.2,2.3,1.6,4.3,3.9,4.4c0,0,0.1,0,0.1,0c4.8,0.1,9.6,0.9,14.2,2.5
		c2.2,0.8,4.6-0.3,5.4-2.5c0.2-0.4,0.2-0.8,0.3-1.3c0.2-8.4,1.5-16.9,2.1-25.2L280.7,330.4z"></path><path class="st1" d="M272,390.5c-0.6,0-1.1-0.1-1.7-0.3c-4.5-1.5-9.2-2.4-14-2.5c-2.7-0.1-4.8-2.3-4.8-5c0-0.1,0-0.1,0-0.2
		c1.3-17.4,3.3-34.9,6.1-52c0.4-2.6,1-5.4,3.1-7.1c3-2.5,7.4-1.5,10.6-0.3l1.2,0.5c1.6,0.7,3.2,1.2,4.9,1.6c2.5,0.4,4.2,2.7,4,5.1
		l-2.3,30.2c-0.2,3-0.6,6.1-0.9,9.2c-0.5,5.2-1.1,10.7-1.2,16c0,1.5-0.8,2.9-2,3.8C274.1,390.2,273.1,390.5,272,390.5z M265.5,323.4
		c-1.4-0.1-2.7,0.4-3.8,1.2c-1.7,1.4-2.1,3.7-2.5,6.2c-2.8,17.1-4.8,34.6-6.1,51.9c-0.1,0.9,0.2,1.8,0.9,2.5
		c0.6,0.7,1.5,1.1,2.4,1.1c4.9,0.1,9.8,1,14.4,2.5c1.1,0.4,2.3,0.2,3.3-0.5c0.9-0.6,1.4-1.6,1.4-2.6c0.1-5.4,0.7-10.8,1.2-16.1
		c0.3-3,0.6-6.1,0.9-9.1l2.3-30.2l0,0c0.1-1.7-1.1-3.3-2.8-3.6c-1.8-0.4-3.5-1-5.1-1.7l-1.2-0.5
		C269.1,323.8,267.3,323.5,265.5,323.4L265.5,323.4z"></path><path class="st2" d="M388,289.3c0.2,2.1-1.3,4-3.4,4.4c-2.1,0.5-4.2,1.3-6.2,2.2c-3.2,1.3-7.2,2-9.8-0.2c-1.9-1.6-2.4-4.3-2.8-6.8
		c-2.8-17.6-4.8-35.3-6.1-53.1c-0.2-2.3,1.6-4.3,3.9-4.5c0.1,0,0.1,0,0.2,0c4.8-0.1,9.6-1,14.2-2.6c2.2-0.8,4.6,0.3,5.4,2.5
		c0.2,0.4,0.2,0.9,0.3,1.3c0.2,8.6,1.5,17.2,2.1,25.7L388,289.3z"></path><path class="st2" d="M379.4,185.4c-0.4,2.1-2.4,3.5-4.5,3.3c-2.2-0.1-4.4,0-6.6,0.4c-3.4,0.3-7.5-0.1-9.4-3
		c-1.4-2.1-1.1-4.8-0.8-7.3c2.3-17.7,5.3-35.2,9.1-52.6c0.5-2.3,2.7-3.7,5-3.2c0.1,0,0.1,0,0.2,0c4.7,1.3,9.5,1.8,14.3,1.6
		c2.3-0.1,4.3,1.6,4.5,4c0,0.4,0,0.9-0.1,1.3c-2.2,8.2-3.5,16.9-5.3,25.3L379.4,185.4z"></path><path class="st0" d="M301.9,423.3c2.1,5.1,0.1,10.9-4.7,13.6c-3.3,1.7-7.2,1.3-10.1-1c-2.8-2.5-3.4-6.8-3-10.6
		C285.1,415.4,298.1,414.9,301.9,423.3z"></path><path class="st1" d="M292.9,438.7c-2.3,0-4.5-0.8-6.2-2.3c-3.5-3.1-3.5-8.4-3.3-11.2c0.2-4.3,3.4-7.8,7.6-8.5
		c4.8-0.8,9.6,1.8,11.6,6.2l0,0c2.3,5.4,0.1,11.7-5,14.5C296.1,438.3,294.5,438.7,292.9,438.7z M292.7,418.1c-0.5,0-1,0-1.4,0.1
		c-3.6,0.5-6.2,3.5-6.4,7.1c-0.2,2.6-0.2,7.2,2.8,10c2.6,2.1,6.3,2.5,9.2,0.9c4.4-2.5,6.3-7.9,4.3-12.6l0,0
		C299.7,420.3,296.4,418.1,292.7,418.1z"></path></g><g id="plant"><path class="st1" d="M362.9,57.1h-0.2c-0.3,0-0.5-0.2-0.5-0.5s0.2-0.5,0.5-0.5h0.2c0.3,0,0.5,0.2,0.5,0.5S363.1,57.1,362.9,57.1z"></path><path class="st1" d="M379.8,58.3c0.8,2,0.3,4.2-0.3,6.2c-0.9,3.4-2,6.7-3.2,10c-0.9,2.6-2.1,5.4-4.5,6.8c-1.9,1.1-4.2,1.1-6.4,1.1
		l-11.4-0.1c-3.4,0-7-0.1-9.8-2.2c-2.5-1.9-3.7-5-4.7-8c-1.2-3.7-2.2-7.4-3.1-11.1c-0.4-1.8-0.8-3.9,0.4-5.4
		c0.9-1.1,2.5-1.5,3.9-1.7c7.7-1.1,15.6-1.1,23.4-0.1C369.1,54.4,377.5,52.3,379.8,58.3z"></path><path class="st2" d="M367.5,21.6c-0.1-2-0.7-3.9-1.7-5.6c-1.1-1.7-3-2.6-5-2.3c-2.4,0.6-3.6,3.2-4.3,5.5
		c-2.9,9.4-3.3,19.4-1.2,28.9c-0.7-4-1.8-7.9-3.4-11.6c-1.6-3.7-4.5-6.9-8-8.9c-1.8-1-4.1-1.5-5.8-0.3c-2.3,1.7-1.6,5.2-0.6,7.8
		c2.6,6.5,6,12.7,10.3,18.2c1.9,2.5,4.1,4.9,7,5.8c4.8,1.5,9.8-1.5,14-4.4c4.8-3.3,9.6-6.7,12.8-11.5c1.3-2,2.3-4.6,1-6.5
		c-1.1-1.4-2.9-2-4.7-1.5c-1.7,0.5-3.2,1.3-4.5,2.5c-2,1.6-3.8,3.3-5.5,5.2c-1.5,1.6-2.9,4.4-4.7,5.4
		C366.4,39.6,368.6,31.2,367.5,21.6z"></path><path class="st0" d="M352.2,62.7c-1.1,0-2.1-0.1-3.2-0.4c-1.8-0.4-3.3-1.5-4.1-3.1c-0.1-0.1-0.1-0.3,0-0.4c0.1-0.1,0.2-0.2,0.3-0.3
		l3.1-0.8c0.3-0.1,0.5,0.1,0.6,0.4c0,0,0,0,0,0c0.1,0.3-0.1,0.5-0.4,0.6c0,0,0,0,0,0l-2.5,0.6c0.8,1,1.9,1.8,3.1,2.1
		c1.6,0.3,3.1,0.4,4.7,0.3c3.5-0.2,7.1-0.4,10.6-0.8c2.4-0.2,4.9-0.7,6.2-2.3l-2.5-1c-0.3-0.1-0.4-0.4-0.3-0.6
		c0.1-0.3,0.4-0.4,0.6-0.3c0,0,0.1,0,0.1,0l3,1.2c0.1,0.1,0.2,0.2,0.3,0.3c0,0.1,0,0.3,0,0.4c-1.5,2.4-4.5,3-7.3,3.3
		c-3.5,0.4-7.1,0.6-10.7,0.8C353.4,62.7,352.8,62.7,352.2,62.7z"></path><path class="st1" d="M357.7,55.4h-0.1c-0.3-0.1-0.4-0.4-0.3-0.6c3.6-12.2,4.9-25,4-37.7c0-0.3,0.2-0.5,0.5-0.5s0.5,0.2,0.5,0.5
		c0.9,12.8-0.5,25.7-4.1,38C358.1,55.2,357.9,55.3,357.7,55.4z"></path><path class="st1" d="M353.4,53.2c-0.2,0-0.4-0.2-0.5-0.4c-2.1-7.2-5.9-13.7-11-19.1c-0.2-0.2-0.2-0.5,0-0.7c0,0,0,0,0,0
		c0.2-0.2,0.5-0.2,0.7,0c0,0,0,0,0,0c5.3,5.5,9.1,12.2,11.3,19.5c0.1,0.3-0.1,0.5-0.3,0.6c0,0,0,0,0,0
		C353.5,53.2,353.5,53.2,353.4,53.2z"></path><path class="st1" d="M363.7,52.9c-0.2,0-0.3-0.1-0.4-0.2c-0.1-0.2-0.1-0.5,0.2-0.7c5.3-3.2,9.8-7.5,13.5-12.5
		c0.2-0.2,0.5-0.3,0.7-0.1c0.2,0.2,0.3,0.5,0.1,0.7c-3.7,5.1-8.4,9.4-13.7,12.7C363.9,52.9,363.8,52.9,363.7,52.9z"></path></g><g id="character"><path class="st1" d="M129.8,228l7.7,14.6c-0.9-1.8-24.9,16.9-27,18.2c-1.7-4.8,3.6-13.9,6-18C119.9,237,124.4,232,129.8,228z"></path><path class="st1" d="M134.1,451c-0.9,1.4-2.1,2.6-3.5,3.4c-1.5,0.8-3.8,0.9-5-0.1c15.5-35.2,31.4-71.3,31.3-108.8
		c-14.4,3.2-26.6,12.4-31.9,23.9c-5.2,11.8-3.4,25.5,4.7,35.5c1.9,2.4,4.2,4.7,5.4,7.4s1.3,6-1,8.2c-8.1-7.9-16.2-15.9-21.7-25.1
		s-8.1-20.2-4.5-30.1c3.5-9.8,12.5-17.4,22-23.9c7.6-5.2,16-10,25.5-12.2c7.9-1.9,22.7-2.9,27.1,4.6c4.1,6.9-1.1,17.9-3,24.8
		c-6,21-14.4,41.3-25,60.4C148.5,430,141.6,440.7,134.1,451z"></path><path class="st2" d="M120.6,273c-6.2,3.1-13,5.3-17.8,10.7s-6.4,15.5-1.1,20.7s13.5,2.4,19.2-1.7c16.8-12,28.1-31.3,38.5-50.4
		c2-3.7,7.9-13.3,2.8-17c-4.4-3.2-9,2.6-11.1,5.9C142.8,254.8,134.3,266.1,120.6,273z"></path><path class="st0" d="M182.4,214.8c-0.8,2.9-2.1,5.6-3.8,8c-1.8,2.4-4.6,3.9-7.6,4c-5.3-0.1-8.9-5.4-11.1-10.3
		c-7.7-17.2-10.4-36.2-13-54.9c-0.4-3-0.7-6.4,1.2-8.7s5-2.5,7.9-2.6c7.3-0.2,14.6,0,21.9,0.6c2.4,0.2,4.9,0.5,7,1.8
		c4.2,2.6,3.1,8,3.1,12.2c0,5.7,0,11.4-0.3,17.1C187.2,193.1,185.8,204.2,182.4,214.8z"></path><path class="st1" d="M171.1,227.5H171c-4.6-0.1-8.6-3.8-11.8-10.7c-7.8-17.5-10.5-36.6-13.1-55.1c-0.4-3.2-0.7-6.8,1.4-9.2
		c2-2.3,5.2-2.7,8.4-2.8c7.3-0.2,14.7,0,22,0.6c2.6,0.2,5.1,0.6,7.3,1.9c3.9,2.4,3.7,6.7,3.5,10.6c0,0.8-0.1,1.6-0.1,2.3
		c0,5,0,11-0.3,17.1c-0.6,13-2.3,23.5-5.3,32.9l0,0c-0.8,3-2.2,5.7-4,8.2C177.3,225.7,174.3,227.3,171.1,227.5z M161.9,151
		c-1.9,0-3.9,0-5.9,0.1c-2.8,0.1-5.7,0.4-7.3,2.3c-1.8,2-1.5,5.2-1.1,8.1c2.6,18.4,5.2,37.4,12.9,54.7c2,4.5,5.4,9.8,10.4,9.9h0.1
		c2.7-0.1,5.3-1.5,6.9-3.7c1.7-2.3,2.9-4.9,3.7-7.7l0,0c3-9.3,4.6-19.6,5.2-32.5c0.3-6.1,0.3-12,0.3-17c0-0.8,0-1.6,0.1-2.4
		c0.1-3.6,0.3-7.3-2.8-9.2c-1.9-1.2-4.2-1.5-6.6-1.7C172.6,151.2,167.2,151,161.9,151z M182.4,214.8L182.4,214.8z"></path><path class="st1" d="M140.9,155.2c-9.6-3.9-17.7-10.8-23-19.7c-1.8-3.2-3.2-7.4-1-11c1.5-2.5,4.4-4,7.1-4.9
		c6-1.9,12.3-1.7,18.3-0.7c16.7,2.9,31.7,12.1,42,25.6c5.1-0.6,10.4-1.3,15.5-0.5s10.2,3.5,11.4,7.7c1.1,3.8-1,7.9-3.2,11.6
		c-5.2,8.9-11.9,17.8-22.4,21.3c-1.7-4.2-3-8.5-4-12.9c-0.5-2.2-0.9-4.4-1.2-6.5c-0.2-1.4,0.1-3.9-1.1-4.9
		c-2.1-1.7-9.3-0.1-12.1-0.1c-4.5,0-9-0.4-13.4-1.2C149.5,158.2,145.1,156.9,140.9,155.2z"></path><path class="st1" d="M172.1,184.7c-0.2,0.6-0.8,1-1.4,1.1c-0.9,0-1.5-1-1.8-1.9c-0.4-1.4-1.9-7.3,0.9-6.5
		C172.1,178.1,172.7,183.1,172.1,184.7z"></path><path class="st1" d="M159.9,185.4c-0.6,0.3-1.3,0.3-1.9-0.1c-0.5-0.4-1-0.9-1.3-1.4c-1-1.6-3.7-7.3,0.4-6.3
		C159.6,178.1,162.3,183.9,159.9,185.4z"></path><path class="st1" d="M177.8,209.6c-0.9,2.1-3.1,3.5-5.4,3.4c-1.5-0.2-2.9-0.9-4-2c-0.3-0.2-0.6-0.6-0.7-1c0-0.6,0.6-1.1,1.2-1.4
		c1.6-1,3.1-2.3,4.2-3.9c0.6-0.8,1.7-3.9,3-4.1C179,200.3,178.6,207.9,177.8,209.6z"></path><path class="st0" d="M184.5,181.9c1.6-1.1,3.4-2.2,5.4-2c1.4,0.2,2.7,1.1,3.3,2.4c0.7,1.3,0.9,2.7,0.6,4.1c-0.4,2-1.7,3.7-3.5,4.6
		c-1.8,0.9-4,0.6-5.6-0.6"></path><path class="st1" d="M188,192.2c-1.4,0-2.7-0.4-3.8-1.3c-0.3-0.3-0.4-0.7-0.1-1.1c0.3-0.3,0.7-0.3,1-0.1c1.4,1,3.3,1.2,4.8,0.5
		c1.6-0.8,2.7-2.3,3.1-4c0.3-1.2,0.1-2.5-0.5-3.6c-0.6-1.1-1.6-1.8-2.8-2c-1.6-0.2-3.2,0.8-4.9,1.9c-0.3,0.2-0.8,0.1-1-0.2
		c-0.2-0.3-0.1-0.8,0.2-1c1.4-1,3.6-2.4,5.9-2.1c1.7,0.3,3.1,1.3,3.9,2.7c0.8,1.4,1,3.1,0.6,4.6c-0.4,2.2-1.9,4.1-3.9,5.1
		C189.8,192,188.9,192.2,188,192.2z"></path><path class="st2" d="M184.3,249.6c-2.2-5.6-4.9-11.3-9.4-14.7s-11-3.8-14.6,0.8c-2.4,3.1-3,7.5-3.5,11.6
		c-3.3,26.7-10,52.5-15.2,78.8c-0.6,3.2-1.2,6.8,0.4,9.5c1.2,2.1,27.4,5.8,36.7,5c5-0.4,17.6,1.5,20-6.4c2.1-7,0.1-17.1-0.6-24.3
		c-0.9-9.9-2.4-19.7-4.5-29.4C191.5,270,188.3,259.7,184.3,249.6z"></path><path class="st1" d="M188.2,188.8c-0.2,0-0.4-0.1-0.5-0.4c-0.1-0.3,0-0.6,0.3-0.7c0,0,0,0,0,0c1-0.3,1.8-1,2.3-1.8
		c0.5-0.8,0.4-1.8-0.2-2.5c-0.3-0.3-0.8-0.4-1.2-0.3c-0.3,0-0.6,0.2-0.8,0.5c-0.1,0.3-0.5,0.4-0.7,0.3c-0.3-0.1-0.4-0.5-0.3-0.7
		c0,0,0,0,0,0c0.3-0.6,0.9-1.1,1.6-1.2c0.8-0.2,1.6,0.1,2.2,0.6c1,1,1.1,2.6,0.4,3.8c-0.7,1.1-1.7,1.9-2.9,2.3
		C188.4,188.8,188.3,188.8,188.2,188.8z"></path><path class="st2" d="M228,278.1c2.2,2.8,4,5.8,5.3,9.1c1.3,3.3,1.4,7,0.3,10.4c-1.7,4.7-6.2,7.9-10.9,9.7c-7,2.8-14.7,3.4-22.2,3.2
		c-6.9-0.2-13.8-1.1-20.6-2.6c-1.4-0.3-3-0.8-3.6-2.1c-0.3-0.8-0.4-1.8-0.2-2.6c0.5-3.7,0.9-7.4,1.4-11.1l25.8,0.7
		c2.4,0.1,5.1,0,6.7-1.7c2.1-2.2,1.3-5.8,0-8.5c-4.1-8.3-11.5-14.3-18.4-20.5c-7-6.3-13.6-13-19.7-20.1c-3.2-3.7-1.9-7.5,3.1-5.7
		c4.8,1.7,9.3,5.2,13.5,7.9c9.5,5.9,18.5,12.6,26.8,20.1C220,268.5,224.2,273.2,228,278.1z"></path><path class="st1" d="M189.4,260.6c-0.1,0-0.3-0.1-0.4-0.1c-6.3-5.6-12.1-11.7-17.5-18.2c-0.2-0.2-0.2-0.6,0.1-0.8
		c0.2-0.2,0.6-0.2,0.8,0c5.4,6.4,11.2,12.5,17.4,18.1c0.2,0.2,0.2,0.6,0,0.8C189.7,260.6,189.6,260.6,189.4,260.6z"></path><path class="st1" d="M199.5,311.3L199.5,311.3c-6.6-0.3-13.2-1.3-19.6-2.9c-1.6-0.4-3.3-0.9-4-2.4c-0.3-0.9-0.4-2-0.2-2.9L177,292
		c0-0.3,0.3-0.5,0.6-0.5l0,0c4.3,0.1,7.3,0.3,10.1,0.5s5.8,0.4,10.1,0.5c0.3,0,0.5,0.3,0.5,0.6c0,0.3-0.2,0.5-0.5,0.5c0,0,0,0-0.1,0
		c-4.3-0.1-7.2-0.3-10.1-0.5s-5.5-0.4-9.6-0.5l-1.3,10.6c-0.2,0.8-0.1,1.6,0.1,2.3c0.5,1.1,1.8,1.5,3.2,1.8
		c6.4,1.6,12.9,2.6,19.4,2.9c0.3,0,0.6,0.3,0.6,0.6C200,311.1,199.7,311.3,199.5,311.3L199.5,311.3z"></path><path class="st0" d="M132,457.6c-1.7,3.2-4.1,6-6.9,8.3c-2.8,2.3-6.3,3.6-10,3.7c-1.1,0.1-2.1-0.3-2.9-1c-0.9-1-0.6-2.6-0.2-3.9
		c2.1-6.4,6.9-10,12.6-13c1.8-1,4.4-3.1,6.6-2.3C134.6,450.7,133.4,455.3,132,457.6z"></path><path class="st1" d="M115.2,470.4L115.2,470.4c-1.3,0.1-2.6-0.3-3.5-1.3c-0.9-1-1-2.6-0.3-4.6c2.3-6.9,7.6-10.6,12.9-13.5
		c0.4-0.2,0.8-0.4,1.2-0.7c1.8-1.1,3.9-2.5,6-1.7c1.1,0.4,2,1.3,2.4,2.4c0.8,2.2-0.1,5.1-1.1,6.9l0,0c-1.8,3.3-4.2,6.2-7.1,8.5
		C122.7,468.9,119,470.3,115.2,470.4z M130.1,450c-1.3,0-2.7,0.9-3.9,1.7c-0.4,0.3-0.9,0.5-1.2,0.7c-5.1,2.8-10.1,6.2-12.2,12.6
		c-0.5,1.5-0.5,2.5,0.1,3.1c0.6,0.6,1.5,0.8,2.4,0.7l0,0c3.5-0.1,6.8-1.3,9.5-3.5c2.7-2.2,5-5,6.7-8.1l0,0c0.9-1.6,1.6-4,1-5.6
		c-0.3-0.7-0.8-1.3-1.6-1.5C130.6,450.1,130.3,450,130.1,450z M132,457.6L132,457.6z"></path><path class="st0" d="M140.1,423.2l-5.9,11.8c-0.4,1-1.1,2-1.8,2.8c-0.8,0.8-2,1.1-3.1,0.9c-1.8-0.6-2.2-2.9-2.2-4.7
		c0-5.9,0.5-16.9,5.3-21.3c2.1-1.7,5.2-1.8,7.4-0.1C143.5,415.2,141.8,419.8,140.1,423.2z"></path><path class="st1" d="M130.1,439.5c-0.3,0-0.7,0-1-0.1c-1.8-0.6-2.7-2.5-2.7-5.4c-0.1-7.6,0.8-17.6,5.5-21.8c2.4-1.9,5.8-2,8.3-0.2
		c4.6,3.4,1.7,9.4,0.6,11.6l0,0l-5.8,11.8c-0.5,1.1-1.2,2.1-2,3C132.2,439,131.2,439.4,130.1,439.5z M136.1,412
		c-1.2,0-2.3,0.4-3.2,1.1c-4.5,4.1-5.1,14.7-5,20.7c0,1.3,0.2,3.5,1.7,4c0.8,0.2,1.7-0.1,2.3-0.7c0.7-0.8,1.3-1.6,1.7-2.6l5.9-11.8
		c2.4-4.9,2.4-7.9-0.1-9.8C138.5,412.4,137.3,412,136.1,412L136.1,412z M140.1,423.2L140.1,423.2z"></path><path class="st2" d="M89.6,237.4c4.3,0.6,7.8,3.7,10.9,6.7c4.1,4.1,7.9,8.6,11.2,13.4c9.3-11.2,21.7-19.4,35.6-23.6
		c2.1,13.4,2.7,27,1.6,40.5c-0.4,5.5-1.2,11.2-4.2,15.9c-5.9,9.4-19.3,11.9-29.6,7.8s-17.8-13.2-22.9-23c-4.2-8-7.2-16.5-10.6-24.8
		C79,244,80.6,236.1,89.6,237.4z"></path><path class="st0" d="M108.8,261.1c0.8,0.6,1.7,1.1,2.8,1.3c1.7,0.2,3.1-1.1,4.4-2.2c11.5-10,25.1-17.1,39.8-20.9
		c1.5-0.4,3.1,0.5,3.5,2c0,0.2,0.1,0.4,0.1,0.6l3.4,67.6c0.1,1.6-1.1,2.9-2.7,3c-14.8,1.2-29.1,5.8-41.8,13.5
		c-1.2,0.8-2.8,0.5-3.7-0.6c-7.4-9.4-17.3-16.4-28.6-20.2c-1.2-0.4-2-1.4-2-2.7c-0.1-11.2-0.9-22.4-2.3-33.6
		c-0.7-5.7-1.6-11.4-2.7-17.1c-0.5-2.5-1.5-5.3-2.1-8.1c-0.3-1.5,0.6-3,2.2-3.4c0.9-0.2,1.9,0.1,2.5,0.7c2,1.8,3.9,4,5.5,5.3
		C94.1,251.4,101.6,256.1,108.8,261.1z"></path><path class="st1" d="M116.8,327.1c-1.1,0-2.1-0.5-2.8-1.3c-7.3-9.3-17.1-16.2-28.3-20c-1.5-0.5-2.5-1.8-2.5-3.4
		c-0.1-11.2-0.9-22.3-2.3-33.4c-0.7-5.7-1.7-11.5-2.7-17.1c-0.2-1.3-0.7-2.7-1.1-4.3c-0.3-1.3-0.7-2.6-1-3.9
		c-0.4-1.5,0.3-3.1,1.7-3.9c1.4-0.8,3.1-0.6,4.3,0.5c0.8,0.7,1.5,1.5,2.3,2.2c1,1.1,2,2.1,3.2,3c4.7,3.5,9.7,6.8,14.5,10
		c2.4,1.6,4.8,3.2,7.2,4.8l0,0c0.7,0.6,1.5,1,2.4,1.1c1.3,0.1,2.5-0.8,3.8-2c11.6-10,25.3-17.3,40.1-21.1c1-0.3,2.1,0,3,0.6
		c0.9,0.6,1.4,1.6,1.4,2.7l3.4,67.6c0.1,2-1.4,3.6-3.4,3.8c-14.7,1.2-28.9,5.7-41.4,13.4C118.2,326.9,117.5,327.1,116.8,327.1z
		 M79.7,240.9c-0.4,0-0.8,0.1-1.1,0.3c-0.8,0.4-1.2,1.3-1,2.2c0.3,1.3,0.6,2.6,1,3.8c0.4,1.5,0.8,3,1.1,4.4c1.1,5.7,2,11.4,2.8,17.2
		c1.4,11.2,2.2,22.4,2.3,33.6c0,0.9,0.6,1.7,1.5,2c11.4,3.9,21.5,11,29,20.5c0.7,0.8,1.8,1,2.7,0.5c12.8-7.8,27.2-12.4,42.1-13.6
		c1.2-0.1,2.1-1,2-2.2l-3.4-67.5c0-0.6-0.3-1.2-0.9-1.6c-0.5-0.4-1.2-0.5-1.8-0.4c-14.6,3.7-28.1,10.8-39.5,20.8
		c-1.2,1.1-2.9,2.5-5,2.4c-1.1-0.2-2.2-0.7-3.1-1.4l0,0c-2.4-1.6-4.8-3.2-7.2-4.8c-4.8-3.2-9.8-6.6-14.6-10.1c-1.2-1-2.3-2-3.3-3.1
		c-0.7-0.7-1.5-1.5-2.2-2.2C80.7,241.1,80.2,240.9,79.7,240.9z"></path><path class="st0" d="M89.1,263.5c1.7,1.6,2.9,3.6,3.4,5.9c0.5,2.3-0.3,4.7-2.1,6.2c-1.9,1.4-4.9,1.1-6.1-0.8
		c1.4,2.9,4.1,4.9,5.9,7.6s2.3,6.8-0.3,8.7c-1.6,1-3.6,1.1-5.3,0.2c-1.6-0.9-3.1-2.1-4.1-3.6c-5.2-6.6-7.7-15-7-23.4
		C74.4,254.2,83.7,258.1,89.1,263.5z"></path><path class="st1" d="M87.2,292.6c-1,0-2-0.2-2.9-0.6c-1.7-0.9-3.3-2.2-4.4-3.8c-5.3-6.8-7.9-15.3-7.2-23.9c0.4-4.4,2.4-6,3.9-6.6
		c3.8-1.4,9.3,1.7,12.9,5.4l0,0c1.8,1.7,3.1,3.9,3.7,6.3c0.6,2.6-0.4,5.3-2.4,7c-1.2,0.9-2.7,1.2-4.1,0.9c0.4,0.5,0.9,1.1,1.4,1.6
		c0.9,1,1.8,2.1,2.6,3.2c2.1,3.1,2.5,7.6-0.4,9.7C89.4,292.3,88.3,292.7,87.2,292.6z M78.8,258.8c-0.5,0-1,0.1-1.5,0.2
		c-1.7,0.6-2.7,2.4-3,5.3c-0.7,8.2,1.8,16.4,6.8,22.9c1,1.4,2.3,2.6,3.9,3.4c1.4,0.7,3.1,0.7,4.5-0.2c2.2-1.6,1.7-5.2,0.1-7.7
		c-0.8-1.1-1.6-2.1-2.5-3c-1.4-1.4-2.5-2.9-3.4-4.6c-0.2-0.4,0-0.8,0.4-1c0.3-0.2,0.7,0,0.9,0.3c0.5,0.7,1.3,1.2,2.1,1.3
		c1,0.2,2.1,0,3-0.6c1.6-1.3,2.3-3.5,1.8-5.5c-0.5-2.1-1.6-4.1-3.2-5.5l0,0C85.8,261.2,81.8,258.8,78.8,258.8z"></path><path class="st0" d="M184.5,285.1c0.5-5.4-0.2-11-2.8-15.8s-7.3-8.6-12.7-9.1c-4.7-0.5-9.3,1.4-13.4,3.6
		c-6.1,3.3-11.6,7.6-16.4,12.6c-1.1,1-1.9,2.2-2.5,3.6c-0.6,1.4-0.3,3,0.7,4.1c1.1,0.9,2.5,1.3,3.8,1.2c4.2,0,8.4-1,12.1-3.1
		c-1,2.1-2,4.4-1.9,6.8s1.5,4.9,3.9,5.3s4.6-1.4,7-1.4c6.5-0.1,8.3,12.2,15.1,9.5C183.1,300.1,184.1,290.2,184.5,285.1z"></path><path class="st1" d="M175.6,303.5c-2.9,0-5-2.6-6.8-5s-3.7-4.9-6.4-4.9h-0.1c-1,0.1-2,0.3-2.9,0.7c-1.3,0.6-2.8,0.8-4.3,0.7
		c-2.8-0.5-4.4-3.5-4.5-6c0-1.8,0.4-3.6,1.1-5.2c-3.3,1.5-6.9,2.3-10.6,2.2c-1.6,0.1-3.1-0.4-4.4-1.4c-1.2-1.3-1.5-3.2-0.9-4.9
		c0.6-1.5,1.5-2.8,2.6-3.8c4.8-5.1,10.4-9.4,16.6-12.8c3.4-1.9,8.6-4.3,13.9-3.7s10.4,4.2,13.3,9.5c2.4,4.4,3.4,10,2.9,16.2l0,0
		c-0.4,4.6-1.3,15.4-7.6,17.9C177,303.4,176.3,303.5,175.6,303.5z M162.4,292.1c3.4,0,5.5,2.8,7.6,5.5c2.6,3.3,4.3,5.3,7.2,4.1
		c5.4-2.1,6.3-12.3,6.6-16.6l0,0c0.5-5.9-0.4-11.2-2.7-15.4c-2.6-4.9-7.3-8.2-12.1-8.8s-9.7,1.8-13,3.5c-6,3.3-11.5,7.5-16.2,12.5
		c-1,0.9-1.8,2.1-2.3,3.3c-0.5,1.1-0.3,2.4,0.5,3.3c0.9,0.7,2.1,1.1,3.3,0.9c4.1,0,8.1-1,11.7-3c0.3-0.2,0.6-0.1,0.9,0.1
		c0.2,0.2,0.3,0.6,0.2,0.9c-0.9,2-1.9,4.2-1.9,6.4c0.1,2,1.3,4.2,3.2,4.6c1.2,0.1,2.4-0.1,3.5-0.6
		C160,292.4,161.1,292.1,162.4,292.1L162.4,292.1z M184.5,285.1L184.5,285.1z"></path><path class="st1" d="M152.4,283.1c-0.1,0-0.3,0-0.4-0.1c-0.2-0.2-0.3-0.5-0.1-0.8c0,0,0,0,0,0c5.4-6.1,12.9-10,21-10.7
		c0.3,0,0.6,0.2,0.6,0.5c0,0.3-0.2,0.6-0.5,0.6c0,0,0,0,0,0c-7.8,0.7-15.1,4.4-20.2,10.3C152.7,283.1,152.6,283.1,152.4,283.1z"></path><path class="st1" d="M115.2,322.6c-2.8-18.3-3.8-36.8-2.9-55.3l1,0c-0.9,18.4,0.1,36.9,2.9,55.1L115.2,322.6z"></path></g></svg>