<svg width="3154" height="2638" viewBox="0 0 3154 2638" fill="none" xmlns="http://www.w3.org/2000/svg">
<path d="M122.097 540.213C238.858 472.801 388.166 512.809 455.578 629.57L968.519 1518.03L1116.3 1261.43L1398.3 1750.11L957.399 2515.67C890.113 2632.5 740.85 2672.67 624.016 2605.38C507.181 2538.1 467.016 2388.83 534.303 2272L686.986 2006.88L32.747 873.686C-34.6637 756.925 5.33695 607.626 122.097 540.213ZM2697.79 122.327C2765.08 5.49559 2914.33 -34.6697 3031.16 32.6144C3148 99.901 3188.17 249.164 3120.88 365.998L1882.86 2515.67C1815.57 2632.5 1666.31 2672.67 1549.47 2605.38C1432.64 2538.1 1392.47 2388.83 1459.76 2272L1612.44 2006.88L958.204 873.686C890.793 756.925 930.793 607.626 1047.55 540.213C1164.31 472.801 1313.62 512.809 1381.03 629.57L1893.98 1518.03L2697.79 122.327ZM1772.33 122.327C1839.62 5.49578 1988.87 -34.6697 2105.71 32.6144C2222.54 99.9009 2262.71 249.164 2195.43 365.998L1740.03 1156.74L1458.03 668.065L1772.33 122.327Z" fill="white"/>
</svg>
