<svg width="198" height="142" viewBox="0 0 198 142" fill="none" xmlns="http://www.w3.org/2000/svg">
<path fill-rule="evenodd" clip-rule="evenodd" d="M167.6 25.8762C173.943 25.8762 179.826 27.8446 184.671 31.2038C186.602 32.5418 186.978 35.1578 185.803 37.1916L128.205 136.955C127.037 138.978 125.27 141.143 122.934 141.143H68.0704C65.7342 141.143 63.9676 138.978 62.7995 136.955L0.669873 29.3436C0.231031 28.5835 0 27.7213 0 26.8436V25.8762C0 11.5852 11.5851 0 25.8762 0H67.0429C74.1884 0 79.9809 5.79258 79.9809 12.9381C79.9809 20.0836 85.7735 25.8762 92.919 25.8762H167.6ZM167.6 141.143H150.745C146.896 141.143 144.49 136.976 146.415 133.643L191.923 54.8212C193.591 51.9315 197.6 52.5394 197.6 55.8762V111.143C197.6 127.711 184.169 141.143 167.6 141.143ZM9.33013 72.5722C6.77237 68.142 0 69.9566 0 75.0722V111.143C0 127.711 13.4314 141.143 30 141.143H40.2592C44.1082 141.143 46.5138 136.976 44.5893 133.643L9.33013 72.5722ZM82.9873 65.6086C79.1383 65.6086 76.7327 69.7753 78.6572 73.1086L94.4699 100.497C96.3944 103.83 101.206 103.83 103.13 100.497L118.943 73.1086C120.867 69.7753 118.462 65.6086 114.613 65.6086L82.9873 65.6086Z" fill="#3836FE"/>
</svg>
