<svg width="198" height="142" viewBox="0 0 198 142" fill="none" xmlns="http://www.w3.org/2000/svg">
<path fill-rule="evenodd" clip-rule="evenodd" d="M177.6 25.8762C180.681 25.8762 183.6 26.573 186.207 27.8176C188.457 28.8919 188.969 31.7082 187.723 33.8675L128.205 136.955C127.037 138.978 125.27 141.143 122.934 141.143H68.0704C65.7342 141.143 63.9676 138.978 62.7995 136.955L0.669873 29.3436C0.231031 28.5835 0 27.7213 0 26.8436V25.8762V20C0 8.95431 8.9543 0 20 0H67.0429C74.1884 0 79.9809 5.79258 79.9809 12.9381C79.9809 20.0836 85.7735 25.8762 92.919 25.8762H177.6ZM177.6 141.143H150.745C146.896 141.143 144.49 136.976 146.415 133.643L197.153 45.7616C197.278 45.5455 197.6 45.6267 197.6 45.8762V121.143C197.6 132.189 188.646 141.143 177.6 141.143ZM9.33013 72.5722C6.77237 68.142 0 69.9566 0 75.0722V121.143C0 132.189 8.95429 141.143 20 141.143H40.2592C44.1082 141.143 46.5138 136.976 44.5893 133.643L9.33013 72.5722ZM82.9873 65.6086C79.1383 65.6086 76.7327 69.7753 78.6572 73.1086L94.4699 100.497C96.3944 103.83 101.206 103.83 103.13 100.497L118.943 73.1086C120.867 69.7753 118.462 65.6086 114.613 65.6086L82.9873 65.6086Z" fill="white"/>
</svg>
