<svg transform="scale(1)" version="1.1" id="Layer_1" xmlns="http://www.w3.org/2000/svg" xmlns:xlink="http://www.w3.org/1999/xlink" x="0px" y="0px" viewBox="0 0 500 500" xml:space="preserve" class="show_show__wrapper__graphic__5Waiy "><title>React</title><style type="text/css">
	.st0{fill:#ffffff;}
	.st1{fill:#111111;}
	.st2{fill:#128FFF;}
</style><g id="shadow"><path class="st0" d="M94,121.7c-18.9,24.8-29.6,54.6-40,83.9c-8.3,23.6-16.8,47.4-20.2,72.1s-1.7,50.9,9.5,73.2
		c17.3,34.5,53.7,54.7,88.2,72.5c29.6,15.2,60.3,30.4,93.5,32.9c34.9,2.6,69.1-9.1,102.2-20.6c22.7-7.9,46.1-16.2,64.1-32
		c20.4-17.9,32-44.1,37-70.6s3.8-53.8,2.5-80.7c-0.9-18-2-36.1-7-53.4s-14.4-33.9-29.1-44.4c-30.5-21.7-73.7-12.1-108.7-25.6
		c-15.1-5.8-28.1-15.8-39.4-27.3c-10.8-11-18.6-24.3-29-35.4c-8.7-9.4-28.6-2.6-39.4,0.2c-15.6,4-30.5,10.5-44.1,19
		C118.6,95,105.1,107.3,94,121.7z"></path><path class="st1" d="M235,457.4c-3.3,0-6.6-0.1-9.9-0.4c-32.2-2.4-61.5-16.4-93.8-33c-36.9-19-71.5-38.9-88.6-72.8
		c-10.2-20.3-13.5-45.7-9.6-73.6c3.5-24.9,12-49,20.3-72.3c10.3-29,20.9-59,40.1-84.1l0,0c11.1-14.5,24.7-26.9,40.3-36.5
		c13.7-8.6,28.6-15,44.3-19.1l3.5-0.9c11.3-3.1,28.5-7.8,36.6,1c4.8,5.3,9.3,10.9,13.5,16.7c4.7,6.6,9.9,12.8,15.5,18.8
		c12.8,13,25.6,21.9,39.1,27.1c14.7,5.7,31.2,7.3,47.1,8.8c21.6,2.1,44,4.3,61.8,16.9c17.1,12.2,25.5,31.1,29.4,44.8
		c5.2,17.9,6.1,36.9,7,53.6c1.2,23.7,2.7,53.2-2.5,80.9c-3.9,21-13.5,50.3-37.2,71.1c-18.4,16.2-42.8,24.6-64.4,32.1
		C299.1,446.3,267.2,457.4,235,457.4z M94,121.7l0.6,0.5c-19,24.9-29.6,54.8-39.8,83.7c-8.2,23.2-16.7,47.2-20.2,72
		c-3.9,27.6-0.6,52.7,9.4,72.7c16.8,33.5,51.2,53.2,87.9,72.1c32.2,16.5,61.3,30.4,93.2,32.8c35.3,2.6,70.7-9.7,101.9-20.5
		c21.4-7.5,45.7-15.9,63.9-31.8c23.4-20.5,32.9-49.5,36.7-70.2c5.1-27.5,3.6-56.9,2.5-80.5c-0.8-16.7-1.8-35.6-6.9-53.3
		c-3.9-13.5-12.1-32-28.9-44c-17.4-12.4-38.6-14.5-61.1-16.6c-16-1.6-32.5-3.2-47.5-8.9c-13.7-5.3-26.7-14.3-39.7-27.5
		c-5.8-5.9-10.8-12.5-15.6-18.9c-4.2-5.7-8.7-11.3-13.4-16.6c-7.5-8.1-24.1-3.6-35.1-0.6l-3.5,0.9c-15.5,4-30.3,10.4-43.9,18.9
		c-15.4,9.5-28.9,21.8-39.9,36.1L94,121.7z"></path><path class="st0" d="M298.3,115.1c5.1,2.6,10.5,5,16.3,5.7s12-0.6,16.2-4.5c5-4.5,6.6-11.7,5.4-18.3s-4.7-12.4-8.7-17.6
		c-15.6-20.2-39.1-32.8-64.6-34.7c-8.3-0.5-24.8-2.1-22.9,10.2c1.8,11.3,13.1,22.9,20.6,30.9C271.6,98.2,284.3,107.8,298.3,115.1z"></path><path class="st1" d="M317.5,121.6c-1,0-2-0.1-3-0.2c-6.1-0.7-11.8-3.3-16.5-5.7l0,0c-14.1-7.3-26.9-16.9-37.8-28.5l-0.8-0.9
		c-7.7-8.1-18.2-19.3-20-30.4c-0.5-3.1,0.1-5.7,1.8-7.5c4.3-4.7,14.2-4,20.8-3.6l1,0.1c25.7,1.8,49.4,14.6,65.1,34.9
		c5,6.6,7.8,12.3,8.8,18c1.3,7.4-0.9,14.6-5.7,18.9C327.5,120.1,322.5,121.8,317.5,121.6z M298.7,114.4c4.6,2.4,10.1,4.9,16,5.6
		c6.1,0.7,11.9-0.9,15.6-4.3c4.4-4,6.4-10.7,5.2-17.6c-1-5.4-3.7-10.9-8.5-17.3c-15.5-20-38.7-32.5-64-34.4l-1-0.1
		c-5.9-0.4-15.9-1.1-19.6,3.1c-1.4,1.5-1.9,3.6-1.5,6.3c1.7,10.7,12,21.7,19.6,29.6l0.8,0.9C272.1,97.7,284.7,107.2,298.7,114.4
		L298.7,114.4z"></path></g><g id="book-2"><path class="st0" d="M421,184.9c-15.7,16.6-35.1,29-54.4,41.2c-3.9,2.4-7.8,4.9-12.3,5.7s-9.7-0.6-12.1-4.4c-1.9-3-1.8-7-0.4-10.3
		s3.8-6.1,6.2-8.6c9.2-9.6,20.1-17.4,31.6-24.2c5.9-3.5,11.9-6.6,18-9.7c5-2.5,12-7.5,17.6-8.3c4.3-0.6,4,2.7,4.4,6.2
		C419.8,174.3,422.1,183.8,421,184.9z"></path><path class="st1" d="M351.9,232.8c-3.9,0-8-1.4-10.3-5c-1.9-3-2-7.1-0.5-11c1.4-3.4,3.9-6.3,6.4-8.9c8.4-8.7,18.8-16.6,31.7-24.3
		c5.3-3.1,11.2-6.3,18-9.7c1.4-0.7,3-1.6,4.7-2.6c4.2-2.4,9-5.2,13.1-5.8c1.2-0.3,2.4,0,3.4,0.7c1.3,1,1.5,2.9,1.7,4.9
		c0,0.4,0.1,0.9,0.1,1.3s0.2,1.3,0.4,2.4c1.2,6.3,1.7,9.5,0.8,10.5l0,0c-15.8,16.8-35.5,29.3-54.5,41.4c-3.7,2.4-7.9,5-12.6,5.8
		C353.6,232.7,352.8,232.8,351.9,232.8z M416.1,167c-0.3,0-0.5,0-0.8,0.1c-3.9,0.5-8.5,3.2-12.6,5.6c-1.7,1-3.3,1.9-4.8,2.6
		c-6.8,3.4-12.7,6.6-17.9,9.7c-12.8,7.6-23.1,15.4-31.4,24c-2.4,2.5-4.8,5.2-6.1,8.4c-1.4,3.4-1.3,7,0.3,9.6
		c2.4,3.8,7.4,4.8,11.3,4.1c4.4-0.8,8.5-3.3,12-5.6c18.9-12,38.5-24.5,54.2-41.1c0.5-1-0.7-6.9-1.1-9.2c-0.2-1.2-0.4-2.1-0.5-2.5
		s-0.1-0.9-0.1-1.3c-0.1-1.8-0.3-3.2-1.1-3.9C417.2,167.1,416.6,167,416.1,167z M421,184.9L421,184.9z"></path><path class="st0" d="M303,109.4c-10.8,6.6-22.6,14.6-25.4,26.9c-2.4,10.7,2.8,21.6,8.6,30.9c13.2,20.9,30.4,38.9,47.5,56.8
		c4.2,4.4,8.9,9,14.9,9.7s11.8-2.8,17-6.1l62.4-40.5l-7.2-5.2c-18,18-38.6,33-61.1,44.7c-2.3,1.4-4.8,2.3-7.5,2.6
		c-2.6,0.2-5.5-0.9-6.8-3.3c-2.2-4.3,2.2-8.9,6.1-11.8c24.8-17.9,50.1-35.1,75.9-51.6c-25.5-26.3-47.2-56.1-64.5-88.4
		c4.8-2.7-22,11.9-24.9,13.8L303,109.4z"></path><path class="st1" d="M350.3,234.7c-0.6,0-1.2,0-1.8-0.1c-6.1-0.7-10.7-5.1-15.3-10c-16.9-17.6-34.3-35.8-47.6-56.9
		c-5.4-8.6-11.3-20-8.7-31.5c2.8-12.5,14.3-20.4,25.8-27.4l35.1-21.5c1.6-1,10.2-5.7,13.8-7.7c6.8-3.7,9.7-5.3,11.1-6h0.1l0.5-0.3
		l0,0c0.5-0.2,0.6-0.2,0.8-0.1c0.2,0.1,0.4,0.4,0.4,0.7c0,0.3-0.1,0.5-0.3,0.6c17.2,32.1,38.7,61.6,64.1,87.7
		c0.2,0.2,0.2,0.4,0.2,0.6c0,0.2-0.2,0.4-0.4,0.6c-25.6,16.4-51.2,33.8-75.9,51.6c-2.5,1.8-8.1,6.5-5.9,10.8c1.1,2.2,3.8,3,6,2.9
		c2.4-0.2,4.7-1.2,7.2-2.5c22.5-11.6,43.1-26.7,61-44.6c0.3-0.3,0.7-0.3,1-0.1l7.2,5.2c0.2,0.1,0.3,0.4,0.3,0.6
		c0,0.2-0.1,0.5-0.3,0.6L366,228.4C360.8,231.7,355.8,234.7,350.3,234.7z M303,109.4l0.4,0.6c-11.2,6.9-22.4,14.6-25.1,26.5
		c-2.5,11,3.3,22,8.5,30.4c13.2,20.9,30.6,39.1,47.4,56.7c4.4,4.6,8.9,8.8,14.4,9.5s11-2.4,16.5-6l61.5-39.9l-5.8-4.2
		c-17.9,17.8-38.4,32.8-60.8,44.4c-2.5,1.3-5,2.5-7.8,2.7s-6-0.9-7.5-3.7c-2.7-5.4,3.5-10.7,6.4-12.7c24.5-17.6,49.8-34.8,75.2-51.1
		c-25.2-26-46.6-55.4-63.6-87.3c-4.7,2.6-21.8,12-24.2,13.4l-35.1,21.5L303,109.4z"></path><path class="st1" d="M353.4,210.5c-4.3,1.4-8.7,3.4-11.2,7s-2.3,9.5,1.5,11.8c-17.4-16.3-33.6-33-47.4-50.9
		c-5.9-7.6-11.4-15.6-13.9-24.7c-2.2-7.8-2-16.9,2.2-24.3c2.3-4.1,2.8-2.8,4.3,0.4c1.8,3.8,4.4,7.1,6.8,10.5
		c10.7,15.3,22.4,30.3,35.1,45.1C337.9,194,345.5,202.3,353.4,210.5z"></path><path class="st0" d="M358.5,220.4c-0.3,0-0.5-0.2-0.5-0.5c0-0.2,0.1-0.3,0.2-0.4c18.2-14.2,37.5-26.9,57.8-37.9
		c0.2-0.1,0.5,0,0.7,0.2c0,0,0,0,0,0c0.1,0.2,0.1,0.5-0.2,0.7c0,0,0,0,0,0c-20.2,11-39.5,23.6-57.6,37.8
		C358.7,220.4,358.6,220.4,358.5,220.4z"></path><path class="st1" d="M358.5,221.1c-0.4,0-0.8-0.2-1-0.5c-0.4-0.5-0.3-1.3,0.2-1.8c18.2-14.2,37.6-26.9,57.9-37.9
		c0.6-0.3,1.4-0.1,1.7,0.5c0.2,0.3,0.2,0.6,0.1,0.9c-0.1,0.3-0.3,0.6-0.6,0.8c-20.2,11-39.4,23.6-57.5,37.7
		C359,221.1,358.7,221.2,358.5,221.1z"></path><path class="st0" d="M374,202.2c-0.2,0-0.3-0.1-0.4-0.2c-0.1-0.2-0.1-0.5,0.1-0.7l15.5-9.7c0.2-0.1,0.5-0.1,0.7,0.2
		c0.1,0.2,0.1,0.5-0.1,0.7c0,0,0,0,0,0l-15.5,9.7C374.2,202.2,374.1,202.2,374,202.2z"></path><path class="st1" d="M374,203c-0.7,0-1.2-0.6-1.2-1.3c0-0.4,0.2-0.8,0.6-1.1l15.5-9.7c0.3-0.2,0.6-0.2,0.9-0.2
		c0.7,0.2,1.1,0.8,0.9,1.5c-0.1,0.3-0.3,0.6-0.6,0.8l-15.5,9.7C374.5,202.9,374.2,203,374,203z"></path></g><g id="book-1"><path class="st0" d="M425.5,152c-12.5,19.1-29.4,34.8-46.2,50.2c-3.4,3.1-6.8,6.2-11.1,7.8s-9.6,1.1-12.7-2.2
		c-2.4-2.6-3-6.6-2.2-10.1c0.9-3.5,2.5-6.7,4.6-9.6c7.4-11.1,16.7-20.7,26.8-29.4c5.2-4.4,10.5-8.6,16-12.7
		c4.5-3.4,10.5-9.5,15.8-11.3c4.1-1.3,4.4,2,5.4,5.4C422.4,141.8,426.4,150.7,425.5,152z"></path><path class="st1" d="M363.3,211.7c-3.1,0.1-6.1-1.1-8.3-3.3c-2.4-2.6-3.3-6.6-2.4-10.7c0.8-3.6,2.7-6.9,4.7-9.8
		c6.7-10.1,15.5-19.8,26.9-29.5c4.6-4,9.9-8.2,16-12.8c1.3-1,2.7-2.1,4.1-3.4c3.7-3.1,7.9-6.7,11.9-8c1.1-0.5,2.4-0.5,3.5,0
		c1.5,0.8,2,2.6,2.5,4.6c0.1,0.4,0.2,0.8,0.4,1.3s0.5,1.3,0.9,2.3c2.4,6,3.3,9.1,2.6,10.1l0,0c-12.6,19.3-29.7,35.1-46.3,50.4
		c-3.2,3-6.9,6.3-11.4,8C366.8,211.3,365,211.7,363.3,211.7z M418.2,135.2c-0.5,0-1,0.1-1.4,0.3c-3.7,1.2-7.8,4.7-11.4,7.7
		c-1.5,1.3-2.9,2.4-4.2,3.4c-6.1,4.6-11.3,8.7-15.9,12.7c-11.3,9.7-20,19.3-26.6,29.2c-1.9,2.9-3.8,5.9-4.5,9.3
		c-0.8,3.6,0,7.1,2,9.4c3,3.3,8.1,3.4,11.9,2c4.2-1.5,7.7-4.8,10.8-7.6c16.5-15.2,33.6-30.9,46.1-50.1c0.3-1-1.9-6.7-2.8-8.8
		c-0.4-1.1-0.8-2-0.9-2.4s-0.2-0.9-0.4-1.3c-0.5-1.7-0.9-3.1-1.8-3.6C418.8,135.3,418.5,135.2,418.2,135.2L418.2,135.2z"></path><path class="st1" d="M296,98.7c-9.5,8.4-19.7,18.3-20.2,31c-0.5,11,6.5,20.8,14,28.9c16.7,18.3,36.8,32.9,56.8,47.5
		c4.9,3.6,10.3,7.3,16.4,6.9s11.1-4.8,15.6-9l54.2-51l-8-3.9c-14.5,20.9-32.1,39.4-52.2,54.8c-2,1.8-4.3,3.1-6.9,3.9
		c-2.6,0.6-5.6,0.1-7.2-2c-2.9-3.9,0.6-9.2,4-12.7c21.3-22,43.1-43.4,65.6-64.2c-29.8-21.4-56.5-46.8-79.1-75.6
		c4.3-3.5-19.5,15.7-22.1,18L296,98.7z"></path><path class="st2" d="M363.5,189.2c-4,2.2-8,4.9-9.8,8.9s-0.6,9.7,3.6,11.4c-20-12.9-38.9-26.5-55.6-41.7
		c-7.1-6.4-14-13.3-18.1-21.8c-3.5-7.3-5-16.2-2.1-24.3c1.5-4.4,2.2-3.2,4.3-0.3c2.4,3.4,5.5,6.2,8.5,9.2
		c13.3,13.1,27.4,25.9,42.6,38.2C345.4,175.7,354.3,182.5,363.5,189.2z"></path><path class="st0" d="M370.1,198.1c-0.3,0-0.5-0.2-0.5-0.5c0-0.1,0-0.3,0.1-0.4c15.4-17.2,32.1-33.1,50.1-47.5
		c0.2-0.2,0.5-0.1,0.7,0.1c0.2,0.2,0.1,0.5-0.1,0.7c-17.9,14.4-34.7,30.3-50,47.4C370.4,198,370.3,198.1,370.1,198.1z"></path><path class="st1" d="M370.1,198.8c-0.7,0-1.2-0.5-1.3-1.2c0-0.3,0.1-0.6,0.3-0.9c15.4-17.2,32.2-33.2,50.2-47.6
		c0.3-0.2,0.6-0.3,0.9-0.3c0.3,0,0.6,0.2,0.8,0.5c0.2,0.3,0.3,0.6,0.3,0.9c0,0.3-0.2,0.6-0.5,0.8c-17.9,14.4-34.6,30.2-49.9,47.3
		C370.8,198.7,370.5,198.8,370.1,198.8z"></path><path class="st0" d="M382.2,177.4c-0.1,0-0.3-0.1-0.4-0.2c-0.2-0.2-0.2-0.5,0-0.7c0,0,0,0,0,0l13.6-12.3c0.2-0.2,0.5-0.2,0.7,0
		c0.2,0.2,0.2,0.5,0,0.7l0,0l-13.6,12.3C382.4,177.4,382.3,177.4,382.2,177.4z"></path><path class="st1" d="M382.2,178.2c-0.7,0-1.2-0.6-1.2-1.3c0-0.3,0.1-0.7,0.4-0.9l13.6-12.4c0.5-0.5,1.3-0.4,1.8,0.1
		c0.5,0.5,0.4,1.3-0.1,1.8l-13.6,12.3C382.9,178.1,382.6,178.2,382.2,178.2z"></path></g><g id="piggy-bank"><path class="st1" d="M101.5,98.4c-8.2-1.6-16.6,0-23.7,4.4c-2.7,1.7-5.4,4.6-4.3,7.6c0.6,1.7,2.3,2.8,4,3.6
		c6.3,3,13.3,4.2,20.2,3.5c-3.6,8.8-5.4,18.2-5.3,27.7c0.1,7.4,1.6,15.2,6.7,20.6c4.5,4.8,11.1,6.8,17.6,7.8
		c12.5,1.8,25.3,0.1,36.9-4.8c1.2,3.2,2.4,6.4,4.5,9s5.3,4.6,8.7,4.5c4.4-0.2,7.9-4.1,9.1-8.4s0.6-8.7,0-13.1
		c18.1-13.7,32.6-31.6,42.4-52.1c3.6-7.6,6.5-15.5,7.4-23.8s-0.5-17-5-24.1c-5.7-9.1-16.2-14.5-26.8-16.3c-14-2.3-28.4,0.1-40.9,6.8
		c-13.3,7.2-25.4,16.5-35.7,27.5c-3,3.1-5.8,6.4-8.4,9.8C107.9,89.3,102,98.5,101.5,98.4z"></path><path class="st0" d="M155,100.8c-1.6,2-3.3,4.3-3.3,6.9s2.6,5.3,5,4.4c5.5-8,12.3-15,20.2-20.6c2.9-2.1,6.1-4.1,7.5-7.4
		c-1.8-1.6-3.6-4-6.1-3.6c-2.8,0.4-6.4,3.7-8.6,5.3C164.2,90.2,159.3,95.2,155,100.8z"></path><path class="st0" d="M99.5,140.7c-0.1,1.4,0,3.1,1.2,3.9c1.5,1,3.6,0,4.9-1.3c2.7-2.7,4.3-6.2,4.6-10c0.2-3.5-2.1-6.7-5.3-4.2
		C101.5,131.5,99.8,136.9,99.5,140.7z"></path><path class="st0" d="M123.9,158.2c-1,1-1.4,2.4-1.1,3.8c0.5,1.3,1.6,2.2,3,2.5c1.3,0.2,2.7,0.1,4-0.4c2.9-0.8,13.6-5.2,8.6-9
		C134.4,152,126.9,154.9,123.9,158.2z"></path><path class="st0" d="M97.7,149.7c-3.5,0.1-7.3,1.3-9.3,4.2c-2.6,3.7-1.5,8.8,0.4,12.8c2.4,4.9,6.1,9.4,11.2,11.5
		c9.7,4.1,20.1-2.6,18.4-13.5C117.1,155.9,106,149.4,97.7,149.7z"></path><path class="st1" d="M105.9,180.2c-2.1,0-4.2-0.4-6.2-1.3c-4.7-2-8.8-6.2-11.6-11.9c-2.6-5.3-2.7-10.2-0.4-13.5
		c1.9-2.8,5.5-4.4,9.9-4.5v0.8v-0.8c8.8-0.3,20.1,6.5,21.5,15.7c0.9,4.8-0.9,9.7-4.8,12.8C112,179.2,109,180.2,105.9,180.2z
		 M98.2,150.4h-0.4c-3.9,0.1-7,1.5-8.7,3.9c-2.8,4.1-0.6,9.8,0.5,12c2.6,5.3,6.4,9.3,10.8,11.2c4.3,2,9.3,1.4,13.2-1.4
		c3.4-2.7,5-7.1,4.2-11.3C116.4,156.7,106.1,150.4,98.2,150.4z"></path><path class="st1" d="M93.8,161.2c-0.1,1.7,0.4,3.7,2,4.2c1.1,0.3,2.4-0.1,3.2-0.9c0.7-0.9,1.3-1.9,1.6-3
		C103.3,153.1,94.3,153.2,93.8,161.2z"></path><path class="st1" d="M104.3,174c1.5,1.7,3.9,2.1,5.9,1c3.1-1.7,6.3-9.2,1.2-10.2C107.1,164,101.3,170.1,104.3,174z"></path></g><g id="notes"><path class="st1" d="M123.2,243.7c-1-5.9-1.9-12.3,1.3-17.3c2.9-4.6,8.4-6.7,13.5-8.4c36.3-12.4,73.3-22.6,110.9-30.6
		c7-1.5,15-2.6,20.5,1.9c4,3.4,5.4,8.9,6.6,14c11.7,52.3,23.4,104.6,35.1,156.9c2,8.8,4,17.8,4,26.8s-2.1,18.4-7.7,25.6
		c-8.6,11.1-23.4,15-37.1,18.2c-28.9,6.7-58.1,13.4-87.7,14.5c-15.6,0.6-24.4-4.7-29.1-19.6c-2.9-9.2-3-18.5-4.1-28
		c-4.1-32.7-10.9-65.2-16.4-97.6L123.2,243.7z"></path><path class="st0" d="M137.4,214.9c5.5-6.6,13.9-9.9,22-12.8c31.6-11.2,64.2-19.4,97.2-25.7c6.3-1.2,13.4-2.2,18.5,1.6
		c3.6,2.7,5.4,7.2,6.9,11.5c22.8,65.2,37.3,133.1,43,201.9c0.5,6.1,0.8,12.7-2.6,17.8c-3.8,5.8-11.2,7.8-18,9.3
		c-36.2,8-73.2,12.4-110.2,13c-7.2,0.1-15.1-0.2-20.4-5c-3.9-3.6-5.6-9-6.9-14.2c-7.6-28.9-12.1-58.6-16.5-88.2l-9.3-62.2
		c-1.3-8.8-1.8-17.5-5.7-25.3C131.8,229.3,131.8,221.6,137.4,214.9z"></path><path class="st1" d="M192.1,432.3c-6.7,0-13.8-0.7-18.8-5.2c-4-3.7-5.7-9.2-7.1-14.5c-7.7-29-12.2-59.1-16.5-88.3l-9.3-62.1
		c-0.2-1.6-0.5-3.3-0.7-4.9c-0.9-7.2-1.9-14-4.9-20.2c-4.1-8.3-3.4-16.1,2.1-22.6l0,0c5.6-6.7,14.1-10.1,22.3-13
		c28.9-10.3,60.8-18.7,97.3-25.7c6.4-1.2,13.7-2.2,19.1,1.8c3.7,2.8,5.5,7.2,7.1,11.9c22.8,65.3,37.3,133.2,43,202.1
		c0.5,6.4,0.8,13-2.7,18.2c-4,6-11.6,8.1-18.4,9.6c-36.3,8-73.3,12.4-110.4,13L192.1,432.3z M138,215.3L138,215.3
		c-6.3,7.6-4.5,15.6-1.9,21c3.2,6.5,4.1,13.7,5.1,20.7c0.2,1.6,0.4,3.2,0.7,4.9l9.3,62.1c4.4,29.1,8.9,59.2,16.5,88.1
		c1.4,5.3,3,10.4,6.7,13.8c5.1,4.7,12.9,4.9,19.8,4.8c37-0.6,73.9-5,110.1-13c6.5-1.5,13.8-3.5,17.5-9c3.2-4.8,3-10.9,2.4-17.3
		c-5.7-68.8-20.2-136.6-43-201.7c-1.6-4.5-3.2-8.7-6.6-11.2c-4.9-3.6-11.8-2.7-17.9-1.5c-36.5,7-68.2,15.4-97.1,25.7
		C151.6,205.6,143.3,208.9,138,215.3L138,215.3z"></path><path class="st2" d="M113.1,254.1c-2.8,1.3-6,3.7-5.4,6.7c0.6,1.8,2.1,3.2,4,3.5c1.9,0.2,3.7,0.1,5.6-0.4l27-5.3
		c2.3-0.3,4.6-1,6.7-2.1c2.9-1.6,6-6.7,2.4-9.4c-2.2-1.7-6.8,0-9.4,0.1C133.2,247.8,123,249.6,113.1,254.1z"></path><path class="st2" d="M115.7,287.8c-2.8,1.3-6,3.7-5.4,6.7c0.5,1.8,2.1,3.2,4,3.4c1.9,0.2,3.7,0.1,5.6-0.4l27-5.3
		c2.3-0.3,4.6-1,6.7-2.1c2.9-1.6,6-6.7,2.4-9.5c-2.2-1.7-6.8,0-9.4,0.1C135.8,281.5,125.6,283.3,115.7,287.8z"></path><path class="st2" d="M131.4,390.1c-2.8,1.3-6,3.7-5.4,6.7c0.6,1.8,2.1,3.1,4,3.4c1.9,0.2,3.7,0.1,5.6-0.4l27-5.3
		c2.3-0.3,4.6-1,6.7-2.1c2.9-1.6,6-6.7,2.4-9.5c-2.2-1.7-6.8,0-9.4,0.1C151.5,383.8,141.3,385.5,131.4,390.1z"></path><path class="st2" d="M127.8,355.5c-2.8,1.3-6,3.7-5.4,6.7c0.6,1.8,2.1,3.2,4,3.5c1.9,0.2,3.7,0.1,5.6-0.4l27-5.3
		c2.3-0.3,4.6-1,6.7-2.1c2.9-1.6,6-6.7,2.4-9.5c-2.2-1.7-6.8,0-9.4,0.1C147.9,349.2,137.7,351,127.8,355.5z"></path><path class="st2" d="M121.6,320.3c-2.8,1.3-6,3.7-5.4,6.7c0.6,1.8,2.1,3.2,4,3.5c1.9,0.2,3.7,0.1,5.6-0.4l27-5.3
		c2.3-0.3,4.6-1,6.7-2.1c2.9-1.6,6-6.7,2.4-9.5c-2.2-1.7-6.8,0-9.4,0.1C141.7,314,131.5,315.7,121.6,320.3z"></path><g id="money-bag-2"><path class="st2" d="M181.3,367.4c-0.2,1.6-0.1,3.2,0.4,4.8c0.5,1.6,1.7,2.8,3.2,3.4c2.2,0.8,4.6-0.3,6.8-1.3
			c3.3-1.5,6.7-2.7,10.2-3.7c1.9-0.4,3.8-1.1,5.6-1.9c1.8-0.8,3.3-2.3,4-4.2c0.8-2.4-0.1-5.1-1.7-7.1c-1.7-1.9-3.7-3.5-5.9-4.7
			c-2.2-1.2-4.2-2.9-5.8-4.8c0.4-1.3,1.6-2.2,2.2-3.4s0.5-3.1-0.8-3.4c-1-0.3-2,0.6-2.7,1.4c-2.7-0.8-5.6,0.2-8.2,1.1
			c-0.8,0.2-1.4,0.7-1.8,1.3c-0.4,1.1,0.6,2.2,1.6,2.8c0.6,0.4,2.1,1.1,2.1,2s-1.1,1.3-1.6,1.8C184.5,355.9,181.8,361.5,181.3,367.4
			L181.3,367.4z"></path><path class="st1" d="M197.4,360.2c-0.3,0-0.7,0-1,0l-0.9-5.1c0.3,0,0.6,0.1,0.9,0.2c0.3,0.1,0.6,0,0.7-0.3c0,0,0,0,0,0
			c0.1-0.3,0-0.6-0.3-0.8c-0.5-0.2-1.1-0.4-1.6-0.4l-0.2-0.8c0-0.3-0.3-0.5-0.6-0.5c-0.3,0-0.5,0.3-0.5,0.6c0,0,0,0,0,0.1l0.1,0.8
			c-0.5,0.2-1,0.4-1.4,0.8c-1.5,1.4-1.6,3.8-0.2,5.3c0.7,0.8,1.7,1.2,2.7,1.2h0.3l0.9,4.8c-0.8,0-1.7-0.2-2.3-0.7
			c-0.2-0.2-0.6-0.1-0.8,0.1c0,0,0,0,0,0c-0.2,0.2-0.1,0.6,0.1,0.8c0,0,0,0,0,0c0.9,0.7,2.1,1.1,3.2,1l0.1,0.8
			c0.1,0.3,0.3,0.5,0.7,0.5c0,0,0,0,0,0c0.3-0.1,0.5-0.4,0.4-0.7l-0.2-0.8l0,0c1.5-0.5,2.6-2,2.6-3.6
			C200.3,361.9,199,360.5,197.4,360.2z M195.1,360.4c-1.5,0-2.6-1.2-2.6-2.7c0-0.7,0.3-1.4,0.9-1.9c0.3-0.2,0.6-0.4,0.9-0.5
			L195.1,360.4L195.1,360.4z M199.1,363.6c-0.1,1.1-0.7,2-1.7,2.4l-0.9-4.7c0.2,0,0.5,0,0.7,0C198.3,361.5,199.1,362.5,199.1,363.6
			L199.1,363.6z"></path><path class="st1" d="M196.6,346.6c0.2,0,0.4-0.1,0.6-0.2c0.1-0.2,0.1-0.4,0.1-0.5c-0.1-2.5-0.4-5.1-1-7.6c0-0.2-0.1-0.4-0.3-0.5
			c-0.2-0.1-0.4-0.1-0.6-0.1l-2.8,0.4c-0.2,0-0.3,0.1-0.5,0.2c-0.1,0.2-0.1,0.4-0.1,0.6l0.8,4.6l0.4,2.3c0.1,0.6,0.1,1.1,0.8,1
			S195.8,346.7,196.6,346.6z"></path><path class="st1" d="M194.2,346.4c0.2-0.1,0.4-0.2,0.5-0.4c0-0.2,0-0.4-0.1-0.5c-1.1-2.3-2.4-4.5-3.8-6.6
			c-0.1-0.2-0.3-0.3-0.4-0.4c-0.2,0-0.4,0-0.6,0.2l-2.4,1.4c-0.3,0.1-0.4,0.4-0.4,0.7c0,0.1,0.1,0.2,0.2,0.2l2.5,4l1.2,2
			c0.3,0.5,0.5,1,1.1,0.7S193.5,346.8,194.2,346.4z"></path><path class="st2" d="M195.6,347c0.2-0.1,0.4-0.2,0.5-0.4c0.1-0.2,0-0.4,0-0.6c-1-2.4-2.1-4.6-3.5-6.8c-0.1-0.2-0.2-0.3-0.4-0.4
			c-0.2,0-0.4,0-0.6,0.1l-2.5,1.3c-0.3,0.1-0.5,0.4-0.4,0.7c0,0.1,0.1,0.2,0.1,0.3l2.3,4.1l1.1,2.1c0.3,0.6,0.4,1,1.1,0.7
			S194.8,347.3,195.6,347z"></path><path class="st0" d="M193.6,347.4l1.5-0.7c-0.3-0.3-0.2-0.8,0.1-1.1c0,0,0,0,0,0c-0.8-2-1.9-4-3.3-5.7c-0.4,0.1-0.9,0-1.1-0.3
			l-1.5,0.9c0.1,0.4,0,0.7-0.3,1c1.2,1.8,2.3,3.7,3.1,5.7c0.2-0.1,0.5-0.2,0.7-0.2C193.1,347,193.7,347.4,193.6,347.4z"></path><path class="st2" d="M192.9,345.3c0.1,0,0.2,0,0.3-0.1c0.1-0.1,0.1-0.1,0.1-0.2c0-0.1,0-0.2-0.1-0.2c-0.1,0-0.1-0.1-0.2-0.1
			C192.7,344.7,192.5,345.3,192.9,345.3z"></path><path class="st2" d="M191.9,344.5c0.4,0.1,0.9,0.1,1.3-0.2c0.2-0.1,0.4-0.4,0.4-0.6c0-0.2,0-0.5-0.1-0.7c-0.2-0.4-0.4-0.6-0.8-0.8
			c-0.5-0.2-1.1-0.1-1.5,0.3c-0.2,0.1-0.3,0.3-0.3,0.5c-0.1,0.5,0.2,1,0.6,1.3C191.6,344.4,191.8,344.5,191.9,344.5z"></path><path class="st1" d="M192.2,344.3c-0.2,0-0.4-0.1-0.6-0.2c-0.2-0.2-0.3-0.4-0.4-0.6c-0.1-0.3,0.1-0.5,0.3-0.6c0.1,0,0.2,0,0.3,0
			c0,0,0-0.1,0-0.1c0.1-0.3,0.5-0.4,0.8-0.3c0.2,0,0.3,0.1,0.4,0.3c0.2,0.2,0.4,0.5,0.4,0.8c0,0.3-0.1,0.5-0.4,0.6c0,0,0,0,0,0h-0.2
			c-0.1,0.1-0.2,0.2-0.3,0.2C192.4,344.3,192.3,344.3,192.2,344.3z"></path><path class="st1" d="M191.4,344.1c-0.2,0-0.4-0.2-0.5-0.4c-0.1-0.3,0.1-0.5,0.4-0.6c0,0,0,0,0,0c0.6-0.1,1.1-0.3,1.7-0.5
			c0.3-0.1,0.5,0,0.6,0.3c0,0,0,0,0,0c0.1,0.3,0,0.5-0.3,0.6c-0.6,0.2-1.2,0.4-1.8,0.6L191.4,344.1z"></path><path class="st2" d="M191.3,342c0.1,0,0.1-0.1,0.2-0.1c0.1-0.1,0.1-0.1,0.1-0.2c0-0.1-0.1-0.2-0.3-0.2c-0.1,0-0.2,0-0.3,0
			c-0.2,0.1-0.3,0.3-0.2,0.4c0,0,0,0.1,0,0.1C190.9,342,191.2,342,191.3,342z"></path><path class="st2" d="M189.3,347.5c-0.2-0.3-0.3-0.6-0.3-1c0.1-0.4,0.4-0.7,0.8-0.7c0.4,0.5,1.2,0.7,1.8,0.4
			c0.6-0.3,1.2-0.7,1.6-1.2c0.5-0.5,1-0.9,1.7-1.1c0.6-0.1,1.1-0.1,1.7-0.2c0.5-0.1,0.9-0.4,1.3-0.8c0.1-0.2,0.3-0.4,0.5-0.5
			c0.2,0,0.5,0.1,0.6,0.3c0.1,0.2,0.1,0.4,0.1,0.6c-0.1,1.5-0.7,2.9-1.6,4c-0.6,0.9-1.5,1.5-2.5,1.7c-0.6,0.1-1.3,0.1-1.9,0
			c-0.5,0.1-0.9,0.1-1.4,0.1C190.6,348.9,189.8,348.3,189.3,347.5z"></path><path class="st1" d="M190.9,346.6c-0.4,0-0.9-0.2-1.2-0.5c-0.5,0.4-1.2,0.4-1.7,0.1c-0.3-0.2-0.4-0.5-0.4-0.8c0-0.4,0.2-0.8,0.5-1
			c0.1-0.1,0.3-0.1,0.4,0s0.1,0.3,0,0.4l0,0c-0.2,0.2-0.3,0.4-0.3,0.6c0,0.2,0.1,0.3,0.2,0.4c0.4,0.2,1,0.1,1.3-0.2
			c0.1-0.1,0.2-0.1,0.3-0.1c0,0,0.1,0.1,0.1,0.1c0.1,0.4,0.7,0.5,1.2,0.4c0.6-0.2,1.1-0.5,1.5-0.9l0.2-0.2c0.4-0.4,0.9-0.7,1.4-1
			c0.4-0.2,0.8-0.3,1.3-0.4c0.2,0,0.4-0.1,0.6-0.1c0.6-0.1,1.1-0.4,1.3-0.9c0-0.1,0.2-0.2,0.3-0.2c0,0,0,0,0,0
			c0.1,0,0.2,0.2,0.2,0.3c-0.3,0.6-1,1.1-1.7,1.2l-0.7,0.2c-0.4,0.1-0.8,0.2-1.2,0.3c-0.5,0.2-0.9,0.6-1.3,0.9l-0.2,0.1
			c-0.5,0.5-1.1,0.8-1.7,1C191.2,346.6,191.1,346.6,190.9,346.6z"></path><path class="st1" d="M190.2,351.4c1.7-0.4,3.4-0.9,5.1-1.4c1.5-0.5,3.1-1,4-2.2c0.1-0.1,0.2-0.3,0.2-0.5c-0.1-0.3-0.4-0.3-0.7-0.2
			c-2.7,0.3-5.2,1-7.7,2c-0.4,0.2-2.5,0.8-2.7,1.3C188,351.5,189.5,351.5,190.2,351.4z"></path></g><g id="money"><path class="st2" d="M200,385.9c-5.1,1.8-10.3,3.8-14.1,7.7c-0.8,0.7-1.3,1.6-1.5,2.6c0,1.3,0.4,2.6,1.2,3.6
			c2.3,3.5,4.7,7,7.2,10.4c0.3,0.5,0.7,0.8,1.2,1c0.7,0.1,1.4-0.5,1.9-1c3.5-3.2,7.7-5.7,12.1-7.3c4.4-1.8,9-3.2,13.3-5.1
			c1.2-0.5,2.4-1.2,2.9-2.4c0.2-1.2,0.1-2.4-0.5-3.4l-4.6-11c-0.3-0.9-0.8-1.7-1.6-2.3c-1-0.4-2.1-0.2-2.8,0.5
			c-0.9,0.8-1.9,1.4-2.9,2c-2.4,1.3-4.9,2.3-7.4,3.2C203,385,201.5,385.4,200,385.9z"></path><path class="st0" d="M192.9,407.5L192.9,407.5c-0.1,0-0.1-0.1-0.2-0.1l-5.5-8.4c-0.1-0.1,0-0.2,0.1-0.3c1-0.9,1.4-2.4,1.1-3.7
			c0-0.3-0.1-0.5-0.3-0.7l-0.1-0.1c-0.2-0.1-0.3-0.3-0.4-0.5c0-0.4,0.6-0.8,1.2-1.3l0.3-0.2c1.3-0.9,2.6-1.8,4-2.5
			c2.7-1.5,5.6-2.6,8.5-3.5c0.9-0.2,1.7-0.4,2.5-0.6c1.4-0.3,2.8-0.7,4.1-1.1c2.2-0.6,4.1-1.8,5.7-3.4c0-0.1,0.1-0.1,0.2-0.1
			c0.1,0,0.1,0,0.2,0.1c1,1,2.4,1.3,3.7,0.9c0.1,0,0.2,0,0.3,0.1c1.4,3.3,2.7,6.6,3.7,10c0,0.1,0,0.1,0,0.2c0,0.1-0.1,0.1-0.2,0.1
			c-2.1,0.3-3.5,2.2-3.1,4.3c0,0.2,0.1,0.4,0.1,0.6c0,0.1,0,0.1,0,0.2c0,0.1-0.1,0.1-0.1,0.1c-6.7,1.9-14.3,4.1-20,9
			c-0.1,0-0.2,0-0.2,0c-1.8-0.7-3.8-0.4-5.3,0.8C193.1,407.5,193,407.6,192.9,407.5z M187.7,398.9l5.2,8c1.6-1.1,3.6-1.4,5.4-0.7
			c5.7-4.8,13.2-7,19.9-8.9c-0.3-1.1-0.1-2.3,0.5-3.3c0.6-1,1.6-1.7,2.7-2c-1-3.2-2.2-6.4-3.5-9.5c-1.3,0.3-2.8,0-3.8-0.9
			c-1.6,1.6-3.6,2.7-5.8,3.4c-1.4,0.5-2.8,0.8-4.1,1.1c-0.8,0.2-1.7,0.4-2.5,0.6c-4.4,1.2-8.6,3.2-12.4,5.9l-0.3,0.2
			c-0.2,0.1-1,0.6-1,0.8l0,0l0.2,0.1c0.1,0.1,0.1,0.1,0.2,0.2c0.2,0.3,0.3,0.6,0.4,0.9C189.1,396.3,188.7,397.8,187.7,398.9
			L187.7,398.9z"></path><path class="st0" d="M199.7,391.7c-0.9,2.2-0.3,4.8,1.4,6.5c2.2,2.1,5.7,2.1,7.8-0.1c1.6-1.6,2-4,1.2-6c-1.2-3-5.6-4.7-8.4-2.8
			C200.8,389.8,200.1,390.7,199.7,391.7z"></path><path class="st2" d="M200.2,391.8c-0.8,2-0.3,4.4,1.2,5.9c2,1.9,5.2,1.8,7.1-0.2c1.3-1.4,1.7-3.5,1-5.3c-1.1-2.8-5.1-4.2-7.6-2.6
			C201.1,390.2,200.5,390.9,200.2,391.8z"></path><path class="st1" d="M205.5,396.7c-0.8,0.2-1.6,0-2.1-0.6c-0.1-0.2-0.1-0.4,0.1-0.6c0.2-0.1,0.4-0.1,0.6,0.1
			c0.3,0.4,0.8,0.5,1.3,0.4c0.3-0.1,0.6-0.2,0.8-0.5c0.1-0.2,0.1-0.5,0-0.8c-0.2-0.3-0.8-0.3-1-0.3h-0.4c-0.4,0.1-0.9,0-1.3-0.1
			c-0.5-0.2-0.9-0.5-1.1-1c-0.2-0.5-0.2-1,0-1.5c0.5-1,1.6-1.4,2.6-0.9c0,0,0,0,0.1,0c0.2,0.1,0.3,0.3,0.2,0.5s-0.3,0.3-0.5,0.2
			c0,0-0.1,0-0.1-0.1c-0.3-0.1-0.6-0.1-0.8,0c-0.3,0.1-0.5,0.3-0.6,0.5c-0.2,0.6,0.1,1.2,0.6,1.4c0.3,0.1,0.7,0.1,1,0h0.4
			c0.7-0.1,1.3,0.2,1.8,0.7c0.3,0.5,0.3,1.2,0,1.7C206.6,396.4,206.1,396.7,205.5,396.7L205.5,396.7z"></path><path class="st1" d="M206.6,397.6c-0.2,0-0.4,0-0.4-0.2c-1.3-2.2-2.3-4.5-3.3-6.9c-0.1-0.2,0-0.4,0.2-0.5c0.2-0.1,0.4,0,0.5,0.2
			c0,0,0,0,0,0c0.9,2.3,2,4.6,3.2,6.8c0.1,0.2,0,0.4-0.2,0.5c0,0,0,0,0,0L206.6,397.6z"></path><path class="st0" d="M210.8,389.7c0,0.7,0.3,1.3,0.9,1.8c0.6,0.5,1.4,0.6,2.1,0.3c0.6-0.3,0.9-0.9,0.9-1.5c0-0.6-0.2-1.3-0.7-1.7
			c-0.7-0.7-1.9-0.7-2.6,0C211,388.8,210.8,389.3,210.8,389.7z"></path><path class="st0" d="M194.4,398.3c0,1,0.7,1.8,1.7,1.8c0.5,0,1-0.2,1.4-0.6c0.7-0.6,0.9-1.6,0.6-2.5
			C197,394.6,194.2,396.1,194.4,398.3z"></path></g><path class="st1" d="M221.7,352c1,0.2,1.9,0.1,2.9-0.2l77.6-17.6c0.8-0.1,1.6-0.5,2.1-1.1c0.7-1,0-2.5-1.1-3.1
		c-1.2-0.4-2.4-0.5-3.6-0.3c-12,1.5-23.9,3.6-35.7,6.2c-11.5,2.6-22.6,6.5-34.1,9.2c-1.9,0.4-3.8,1-5.6,1.7
		C222.7,347.6,217.3,350.8,221.7,352z"></path><path class="st1" d="M229,389.5c1,0.2,1.9,0.1,2.9-0.2l77.7-17.6c0.8-0.1,1.5-0.5,2.1-1.1c0.7-1,0-2.5-1.1-3.1
		c-1.2-0.4-2.4-0.5-3.6-0.2c-12,1.5-23.9,3.6-35.7,6.2c-11.5,2.6-22.6,6.5-34.1,9.1c-1.9,0.4-3.8,1-5.6,1.7
		C230,385.1,224.7,388.3,229,389.5z"></path><path class="st0" d="M182.8,273.7c7.6-6.8,14.7-14,21.6-21.5l13.1,14.2l25-39.7c7.3,20.6,13.5,41.6,18.5,62.9
		c0.2,0.8-50.7,16.8-55.4,18.3c-5.2,1.7-10.4,3.7-15.6,5.2c1-2.9,0-5.5-0.6-8.5l-2.2-10.4L182.8,273.7z"></path><path class="st1" d="M189.9,313.9c-0.4,0-0.8-0.3-0.8-0.7c0-0.1,0-0.2,0-0.3c0.7-2.1,0.3-4.1-0.3-6.5c-0.1-0.5-0.2-1-0.4-1.6
		l-6.5-30.9c-0.1-0.3,0-0.5,0.2-0.7c7.5-6.8,14.7-13.9,21.5-21.5c0.1-0.2,0.3-0.2,0.6-0.2c0.2,0,0.4,0.1,0.6,0.2l12.5,13.5
		l24.4-38.9c0.2-0.2,0.4-0.4,0.7-0.4c0.3,0,0.5,0.2,0.6,0.5c7.3,20.7,13.5,41.7,18.6,63c0.2,0.9,0.2,1.1-18.3,7.1
		c-9.9,3.2-21.8,7-29.6,9.5l-8,2.5c-1.7,0.5-3.3,1.1-5,1.7c-3.5,1.2-7.1,2.5-10.7,3.5C190,313.9,190,313.9,189.9,313.9z M183.6,274
		l6.4,30.5c0.1,0.5,0.2,1,0.4,1.6c0.6,1.9,0.8,4,0.6,6c3.1-0.9,6.3-2,9.3-3.1c1.7-0.6,3.4-1.2,5-1.7l8-2.5
		c13.1-4.2,42.9-13.7,46.8-15.4c-4.9-20.6-10.9-40.9-17.9-60.9l-24.1,38.4c-0.1,0.2-0.3,0.3-0.6,0.4c-0.2,0-0.5-0.1-0.6-0.2
		l-12.6-13.6C197.8,260.6,190.9,267.5,183.6,274z"></path><g id="chart"><path class="st2" d="M275.2,278.8c-0.2-0.2-0.5-0.2-0.8-0.1c-0.3,0.2-0.4,0.6-0.3,1c0.1,1,0.6,2,1.4,2.7c0.7,0.7,1.6,1.2,2.5,1.7
			l-2.2,3.1c-0.2,0.3-0.4,0.6-0.4,0.9c0,0.4,0.2,0.7,0.5,0.9c0.5,0.3,1.2,0.2,1.6-0.2c0.5-0.4,0.9-0.8,1.2-1.4
			c1-1.4,2.9-3.5,1.5-5.1C278.8,280.9,277.1,279.7,275.2,278.8z"></path><path class="st2" d="M192.6,313.9c29.4-11.6,57.6-19.9,83.6-28.2c1-0.3,2.2-1,2-1.7s-1.5-0.6-2.5-0.3c-12.3,4-25,8.2-38.1,12.5
			c-13.7,4.5-27.8,9.4-42.6,14c-1.7,0.5-5.9,1-7.2,2.3c-0.5,0.4-0.6,1.1-0.2,1.6c0.1,0.1,0.2,0.2,0.2,0.2
			C188.9,315.2,190.9,314.5,192.6,313.9z"></path><path class="st2" d="M192.4,312.7c-6.2-23.9-10-48-14.3-71.2c-0.2-0.9-0.6-2-1.3-1.8s-0.7,1.4-0.5,2.3c2.1,11.1,4.3,22.3,6.5,33.7
			c2.2,11.6,4.8,23.4,6.8,35.3c0.2,1.4,0.1,4.8,1,5.8c0.5,0.5,1.1,0.3,1.5-0.2C193.1,315.7,192.7,314,192.4,312.7z"></path><path class="st2" d="M170.9,243.9c-0.2,0.3-0.4,0.6-0.2,0.9s0.6,0.4,1,0.4c1.2-0.2,2.3-0.7,3.2-1.6c0.8-0.8,1.6-1.7,2.2-2.7l3,2.5
			c0.3,0.3,0.6,0.4,1,0.5c0.4,0,0.8-0.2,1-0.5c0.3-0.6,0.3-1.3,0-1.8c-0.3-0.5-0.8-1-1.3-1.4c-1.4-1.1-3.4-3.2-5.3-1.7
			C173.6,239.9,172.1,241.8,170.9,243.9z"></path></g></g><g id="hand_front"><path class="st2" d="M332.6,413.2c3.1,7,7,14,13.6,18c6.9,4,15.3,4.1,22.2,0.1c6.8-4.2,10.8-11.7,10.4-19.6
		c-0.5-7.5-4.8-14.1-8.4-20.7c-8.8-15.9-14.2-33.5-16-51.6c-0.4-4-0.7-8.4-3.2-11.5c-6.5-8.2-17.6-2.3-23.4,3.4s-7.5,10.8-7.7,18.9
		C319.6,371.8,323.8,393.4,332.6,413.2z"></path><path class="st0" d="M374.9,305.9c3.8-15.5,3.9-31.7,3.4-47.6c-0.5-16.7-2.5-35.2-15.1-46.1c-12.9-11.2-33.3-10.1-47.8-1.2
		s-24.2,24-31.5,39.5c-6.9,14.6-12.1,31.9-5.3,46.6c5.4,11.7,17.3,18.9,28.4,25.4c8.7,5,17.4,10.1,26.1,15.1
		c5.2,3,11.5,7.6,17.9,6.3C364.8,341,372,317.3,374.9,305.9z"></path><path class="st1" d="M348.7,344.7c-4.9,0-9.5-2.8-13.7-5.3c-0.8-0.5-1.5-0.9-2.2-1.3L315.4,328l-8.7-5
		c-12.6-7.3-23.4-14.3-28.7-25.7c-5.7-12.2-3.9-27.6,5.3-47.2s19.3-32.1,31.8-39.8c13.8-8.4,34.9-10.7,48.7,1.2
		c12.6,10.9,14.8,28.9,15.4,46.7c0.5,15.6,0.4,32.2-3.4,47.8l0,0c-4,16.1-11.6,35.8-24.5,38.4C350.4,344.7,349.5,344.7,348.7,344.7z
		 M340,204.7c-8.6,0.1-16.9,2.4-24.2,6.8c-12.2,7.5-22.1,19.9-31.2,39.1s-10.7,34.1-5.3,45.9c5.1,11,15.8,17.9,28.1,25l8.7,5
		c5.8,3.3,11.6,6.7,17.4,10.1c0.7,0.4,1.5,0.9,2.2,1.3c4.6,2.8,9.9,6,15.1,4.9c12.8-2.6,20.1-24.5,23.4-37.3
		c3.7-15.5,3.8-31.9,3.3-47.4c-0.5-17.4-2.7-35-14.8-45.6C356.3,207.1,348.2,204.8,340,204.7L340,204.7z M374.9,305.8L374.9,305.8z"></path><path class="st1" d="M311.6,294.6c-0.1,0-0.2,0-0.2-0.1c-14.4-7.5-25.5-19.9-31.4-35c-0.1-0.3,0-0.5,0.3-0.6c0,0,0,0,0,0
		c0.3-0.1,0.5,0,0.6,0.3c5.8,14.8,16.8,27.1,31,34.4c0.3,0.1,0.4,0.3,0.4,0.6C312.2,294.5,311.9,294.7,311.6,294.6L311.6,294.6z"></path><path class="st2" d="M372.2,216.4c-43.4,14.4-87.8,29.4-123.6,57.7c33.7,2.6,67.7-3.2,100.1-13.1s63.4-23.8,94.2-37.7
		c4.8-2.1,14-5.8,14-12.2c0-5.1-5.9-8-10.1-9.2c-14.2-4-33.2,2.1-47,5.9C390.5,210.3,381.4,213.3,372.2,216.4z"></path><path class="st1" d="M452.5,204.8c-1.7,0.4-3.3,1.3-4.5,2.4c-1.2,1.3-1.6,3.4-0.5,4.8c1.4,1.7,4,1.3,6.1,0.7
		c3.5-0.9,23.9-4.4,21.1-8.7C471.3,198.7,456.5,203.5,452.5,204.8z"></path><path class="st1" d="M424.3,242.8c-10.7,4.2-22.6,4.4-34.1,4c-5.2-0.2-10.4-0.4-15.4,0.8s-9.9,3.9-12.5,8.4c-1.4,2.1-1.7,4.6-1,7
		c0.9,2.3,3.6,3.9,5.8,2.9s2.9-3.5,4.1-5.5c3.2-4.9,9.8-6,15.7-6.4c12-0.8,24.2-0.5,35.8-3.6s23-10.2,27.4-21.4
		c3.2-8-1-12.4-6.1-4.4C438.8,232.8,433.8,239,424.3,242.8z"></path><path class="st1" d="M285.6,274c17.5,4.1,35.6-1.6,52.6-7.3c4.5-1.5,9.2-3.1,12.2-6.8c4.6-5.5,3.9-13.6,2.2-20.6
		c-1.5-6.2-4.4-13.1-10.5-14.9c-4.2-1.2-8.7,0.4-12.7,2c-14.1,5.6-28.1,11.7-41.8,18.4c-7.1,3.5-6.4,5.2-3.7,11.9
		C284.5,258,287.5,274.4,285.6,274z"></path><path class="st1" d="M427.1,230.6c2.8,0.6,5.6-1.2,7.1-3.7c1.3-2.6,1.8-5.4,1.6-8.3c0-5.8-1.6-11.4-4.7-16.2
		c-1.3-1.9-6.9-5.5-6.9-0.8c0,2.8,2.4,6.6,3,9.4C427.5,212.5,428.7,230.9,427.1,230.6z"></path><path class="st0" d="M335,195.6c-17.5,2.9-32.2,17.9-34.7,35.4c-0.4,2.7-0.5,5.6,0.9,8c2.2,3.8,7.6,4.6,11.7,3s7.2-5,10-8.4
		s5.8-6.9,9.8-8.7c0.6-0.3,9.6,4,11.4,4.2c4.4,0.7,8.9,0.2,13.1-1.2c5.7-2,11.4-6.6,12.9-12.6C374.3,198.3,346.4,193.7,335,195.6z"></path><path class="st1" d="M308.8,243.5c-3.3,0-6.5-1.3-8.2-4.2c-1.6-2.7-1.4-5.9-1-8.4c2.6-18,17.5-33.1,35.4-36.1l0,0
		c7.8-1.3,25.5,0.5,33,8.6c3.1,3.2,4.2,7.8,2.9,12c-1.7,6.8-8,11.2-13.4,13.2c-4.3,1.5-8.9,1.9-13.4,1.2c-2.1-0.6-4.1-1.3-6-2.2
		c-1.9-0.8-4.4-1.9-5.1-2c-3.7,1.8-6.5,5.1-9.2,8.3l-0.2,0.2c-3.1,3.6-6.1,7-10.3,8.6C311.7,243.2,310.3,243.5,308.8,243.5z
		 M335.1,196.3c-17.3,2.9-31.6,17.5-34.1,34.8c-0.3,2.3-0.5,5.2,0.8,7.5c2.1,3.5,7.1,4.1,10.8,2.7s6.8-4.7,9.7-8.2l0.2-0.2
		c2.9-3.4,5.8-6.8,9.9-8.7c0.5-0.3,1.3,0,6.2,2c1.8,0.8,3.7,1.5,5.6,2.1c4.3,0.7,8.6,0.3,12.7-1.2c5-1.8,10.9-5.9,12.4-12.1
		c1.1-3.7,0.1-7.8-2.6-10.6C359.6,196.7,342.6,195,335.1,196.3L335.1,196.3z"></path><path class="st0" d="M300.2,231c-0.4,2.7-0.5,5.6,0.9,8c2.2,3.8,7.6,4.6,11.7,3s7.2-5,10-8.4s5.8-6.9,9.8-8.7
		c0.6-0.3,9.6,4,11.4,4.2c4.4,0.7,8.9,0.2,13.1-1.2c5.7-2,11.4-6.6,12.9-12.6"></path><path class="st1" d="M308.8,243.5c-3.3,0-6.5-1.3-8.2-4.2c-1.6-2.7-1.4-5.9-1-8.4c0.1-0.4,0.4-0.7,0.8-0.6c0,0,0,0,0,0
		c0.4,0.1,0.7,0.4,0.6,0.8c0,0,0,0,0,0c-0.3,2.3-0.5,5.2,0.8,7.5c2.1,3.5,7.1,4.1,10.8,2.7s6.8-4.7,9.7-8.2l0.2-0.2
		c2.9-3.4,5.8-6.8,9.9-8.7c0.5-0.3,1.3,0,6.2,2c1.8,0.8,3.7,1.5,5.6,2.1c4.3,0.7,8.6,0.3,12.7-1.2c5-1.8,10.9-5.9,12.4-12.1
		c0.1-0.4,0.6-0.6,0.9-0.5c0.4,0.1,0.6,0.5,0.5,0.8c-1.7,6.8-8,11.2-13.4,13.2c-4.3,1.5-8.9,1.9-13.4,1.2c-2.1-0.6-4.1-1.3-6-2.2
		c-1.9-0.8-4.4-1.9-5.1-2c-3.7,1.8-6.5,5.1-9.2,8.3l-0.2,0.2c-3.1,3.6-6.1,7-10.3,8.6C311.7,243.2,310.3,243.5,308.8,243.5z"></path><path class="st1" d="M308.7,243.2c-3.2,0-6.4-1.2-8-4c-1.5-2.6-1.3-5.8-1-8.3c0-0.3,0.3-0.5,0.6-0.4c0.3,0,0.5,0.3,0.4,0.6
		c-0.3,2.3-0.5,5.3,0.9,7.6c2.1,3.6,7.4,4.3,11.1,2.8s6.9-4.8,9.8-8.2l0.2-0.2c2.8-3.3,5.8-6.8,9.8-8.6c0.5-0.2,1.3,0.1,6,2
		c1.8,0.8,3.7,1.6,5.7,2.2c4.3,0.7,8.7,0.3,12.8-1.2c5-1.8,11-6,12.6-12.3c0.1-0.3,0.3-0.4,0.6-0.4c0.3,0.1,0.4,0.3,0.4,0.6
		c-1.7,6.7-7.9,11.1-13.2,13c-4.3,1.5-8.8,1.9-13.3,1.2c-2-0.6-4-1.3-5.9-2.2c-1.7-0.8-3.5-1.4-5.2-2c-3.8,1.8-6.6,5.1-9.4,8.4
		l-0.2,0.2c-3,3.6-6.1,6.9-10.2,8.5C311.7,243,310.2,243.3,308.7,243.2z"></path><path class="st0" d="M305.4,307.1c0.5-4.9,1.9-9.8,1.6-14.7c-0.4-7.1-4.3-13.4-7.7-19.7s-6.4-13.2-5.2-20.2s8-13.5,14.8-11.7
		c7.1,1.9,9.6,10.6,14.5,16.1c8.2,9.3,22.9,9.1,33.5,15.7c13.5,8.5,17.6,27.5,12.2,42.5c-4.6,12.8-22.1,36.5-37.7,31.2
		C315.5,341,303.9,323.8,305.4,307.1z"></path><path class="st1" d="M335.8,347.8c-1.6,0-3.2-0.3-4.7-0.8c-16.4-5.5-28-23.1-26.4-40l0.7,0.1l-0.7-0.1c0.2-1.8,0.5-3.6,0.8-5.4
		c0.6-3,0.9-6.1,0.8-9.2c-0.4-6.1-3.5-11.8-6.5-17.3c-0.4-0.7-0.8-1.4-1.1-2.1c-3.3-6.1-6.5-13.4-5.3-20.7c0.7-4.3,3.2-8.2,6.9-10.6
		c2.6-1.8,5.8-2.4,8.9-1.6c5,1.4,7.9,5.9,10.6,10.3c1.2,2.1,2.7,4.2,4.2,6.1c4.7,5.3,11.5,7.4,18.7,9.6c5,1.5,10.2,3.1,14.6,5.9
		c13,8.2,18.4,26.8,12.5,43.4C365.4,327.5,350.3,347.8,335.8,347.8z M306.5,241.2c-1.9,0-3.8,0.6-5.4,1.7c-3.3,2.2-5.6,5.7-6.3,9.6
		c-1.1,6.9,2,13.8,5.2,19.8l1.1,2.1c3.1,5.6,6.2,11.5,6.6,17.9c0.1,3.2-0.2,6.4-0.8,9.5c-0.3,1.7-0.6,3.5-0.7,5.3l0,0
		c-1.5,16.3,9.7,33.2,25.4,38.5c1.4,0.5,2.9,0.7,4.4,0.7c13.7,0,28.2-19.7,32.4-31.5c4.9-13.7,1.8-33-11.9-41.6
		c-4.3-2.7-9.4-4.2-14.3-5.8c-7.1-2.2-14.4-4.4-19.4-10.1c-1.6-2-3.1-4.1-4.4-6.3c-2.7-4.3-5.2-8.4-9.7-9.6
		C308,241.3,307.3,241.2,306.5,241.2z"></path><path class="st0" d="M331.4,346.3c-15.9-5.3-27.4-22.5-25.9-39.2c0.5-4.9,1.9-9.8,1.6-14.7c-0.4-7.1-4.3-13.4-7.7-19.7
		s-6.4-13.2-5.2-20.2s8-13.5,14.8-11.7c7.1,1.9,9.6,10.6,14.5,16.1c8.2,9.3,22.9,9.1,33.5,15.7"></path><path class="st1" d="M331.4,347.1c-0.1,0-0.2,0-0.2,0c-16.4-5.5-28-23.1-26.4-40c0.2-1.8,0.5-3.6,0.8-5.4c0.6-3,0.9-6.1,0.8-9.2
		c-0.4-6.1-3.5-11.8-6.5-17.3c-0.4-0.7-0.8-1.4-1.1-2.1c-3.3-6.1-6.5-13.4-5.3-20.7c0.7-4.3,3.2-8.2,6.9-10.6
		c2.6-1.8,5.8-2.4,8.9-1.6c5,1.4,7.9,5.9,10.6,10.3c1.2,2.1,2.7,4.2,4.2,6.1c4.7,5.3,11.5,7.4,18.7,9.6c5,1.5,10.2,3.1,14.6,5.9
		c0.4,0.2,0.5,0.7,0.2,1c-0.2,0.4-0.7,0.5-1,0.2c-4.3-2.7-9.4-4.2-14.3-5.8c-7.1-2.2-14.4-4.4-19.4-10.1c-1.6-2-3.1-4.1-4.4-6.3
		c-2.7-4.3-5.2-8.4-9.7-9.6c-2.6-0.6-5.4-0.1-7.6,1.4c-3.3,2.2-5.6,5.7-6.3,9.6c-1.1,6.9,2,13.8,5.2,19.8l1.1,2.1
		c3.1,5.6,6.2,11.5,6.6,17.9c0.1,3.2-0.2,6.4-0.8,9.5c-0.3,1.7-0.6,3.5-0.7,5.3c-1.5,16.3,9.7,33.2,25.4,38.5c0.4,0.1,0.6,0.6,0.5,1
		C332,346.9,331.7,347.1,331.4,347.1z"></path><path class="st1" d="M331.4,346.8c-0.1,0-0.1,0-0.2,0c-16.2-5.5-27.8-23-26.3-39.8c0.2-1.8,0.5-3.6,0.7-5.4c0.6-3,0.9-6.2,0.8-9.3
		c-0.4-6.2-3.5-11.9-6.5-17.4c-0.4-0.7-0.8-1.4-1.1-2.1c-3.3-6.1-6.5-13.3-5.3-20.6c0.7-4.3,3.2-8.1,6.8-10.5
		c2.5-1.7,5.7-2.3,8.6-1.6c5,1.3,7.8,5.8,10.5,10.2c1.3,2.1,2.7,4.2,4.3,6.1c4.8,5.4,11.6,7.5,18.8,9.7c5,1.5,10.2,3.1,14.6,5.9
		c0.2,0.1,0.3,0.5,0.2,0.7s-0.5,0.3-0.7,0.2c-4.3-2.7-9.4-4.3-14.3-5.8c-7-2.2-14.3-4.4-19.2-10c-1.6-2-3.1-4-4.4-6.2
		c-2.7-4.4-5.3-8.5-9.9-9.7c-2.7-0.7-5.6-0.1-7.9,1.5c-3.4,2.3-5.7,5.8-6.4,9.8c-1.1,7,2,14,5.2,19.9l1.1,2.1
		c3.1,5.6,6.2,11.4,6.6,17.8c0.1,3.2-0.2,6.4-0.8,9.5c-0.3,1.7-0.6,3.5-0.7,5.3c-1.5,16.4,9.8,33.4,25.6,38.7c0.3,0,0.5,0.3,0.4,0.6
		C331.9,346.7,331.6,346.8,331.4,346.8L331.4,346.8z"></path></g><g id="pennies"><g id="dollar"><path class="st1" d="M59.7,252c-11.7,5.3-19.9,17.8-19.2,30.6c0.7,13.6,11.7,26,25.1,28.3s27.9-5.7,33.1-18.3
			c6.8-16.5-4.1-39.5-22.1-42.9C70.8,248.8,65,249.6,59.7,252z"></path><path class="st0" d="M62.9,249.3C51.2,254.6,43,267.1,43.6,280c0.7,13.6,11.7,26,25.1,28.3s27.9-5.7,33.1-18.3
			c6.8-16.5-4.1-39.5-22.1-42.9C74,246.1,68.1,246.9,62.9,249.3z"></path><path class="st1" d="M73.4,309.4c-1.6,0-3.2-0.1-4.8-0.4c-13.7-2.4-25-15.1-25.7-29c-0.6-12.9,7.5-25.8,19.7-31.4l0,0
			c5.4-2.5,11.4-3.3,17.3-2.2c8.3,1.6,15.8,7.4,20.4,16c4.9,9.1,5.8,19.5,2.3,27.9C97.8,301.7,85.6,309.4,73.4,309.4z M63.2,250
			L63.2,250c-11.7,5.3-19.4,17.6-18.8,30c0.7,13.2,11.4,25.4,24.4,27.6s27.2-5.6,32.3-17.8c3.3-8,2.5-18-2.2-26.7
			c-4.4-8.2-11.5-13.7-19.3-15.2C74,246.9,68.3,247.6,63.2,250z"></path><path class="st0" d="M64.2,251.8c-10.6,4.8-18.1,16.3-17.5,27.9c0.6,12.4,10.6,23.7,22.8,25.8s25.4-5.2,30.2-16.6
			c6.2-15-3.8-35.9-20.1-39.1C74.3,248.9,68.9,249.6,64.2,251.8z"></path><path class="st1" d="M73.7,306.6c-1.5,0-2.9-0.1-4.4-0.4c-12.5-2.2-22.8-13.8-23.4-26.5c-0.6-11.8,6.8-23.5,18-28.6
			c4.9-2.3,10.4-3,15.8-2c7.6,1.5,14.4,6.8,18.6,14.6c4.5,8.3,5.2,17.8,2.1,25.5C96,299.5,84.9,306.6,73.7,306.6z M75,250.1
			c-3.7,0-7.3,0.8-10.6,2.3l0,0c-10.6,4.8-17.6,16-17.1,27.2c0.6,12,10.3,23,22.2,25.1s24.7-5,29.3-16.2c3-7.2,2.2-16.3-2-24.2
			c-4-7.4-10.4-12.5-17.6-13.9C77.9,250.3,76.4,250.1,75,250.1z M64.1,251.8L64.1,251.8z"></path><path class="st1" d="M66.6,291.5c-4-2.5-6.2-6.6-5.8-10.6c0.1-1.2,1.2-2.1,2.5-2s2.1,1.2,2,2.5l0,0c-0.3,2.6,1.7,5.1,3.8,6.4
			c1.5,1,3.4,1.4,5.2,1.2c1.5-0.3,2.7-1.4,3.1-2.8c0.3-2-1.7-4.1-2.9-5.2c-0.5-0.4-1-0.8-1.4-1.2c-2-1.4-3.7-3.3-5-5.4
			c-2.5-5-0.5-11.2,4.5-13.7c5-2.5,11.2-0.5,13.7,4.5c0.2,0.5,0.4,0.9,0.6,1.4c0.4,1.2-0.3,2.4-1.5,2.8c-1.2,0.4-2.4-0.3-2.8-1.5
			c-1-3-4.2-4.7-7.2-3.7s-4.7,4.2-3.7,7.2c0.1,0.3,0.2,0.6,0.4,0.9c1,1.6,2.3,2.9,3.8,4c0.5,0.4,1,0.9,1.6,1.3
			c3.3,2.9,4.8,6.1,4.3,9.3c-0.7,3.3-3.3,5.9-6.6,6.5c-2.9,0.5-5.9-0.1-8.4-1.7L66.6,291.5z"></path><path class="st1" d="M67.6,298.9c-0.8-0.5-1.2-1.5-1-2.5c3.4-13.4,7.9-26.5,13.2-39.3c0.5-1.2,1.8-1.7,3-1.2
			c1.2,0.5,1.7,1.8,1.2,3l0,0c-5.3,12.6-9.6,25.5-13,38.7c-0.3,1.2-1.5,1.9-2.7,1.6C68.1,299.1,67.8,299,67.6,298.9L67.6,298.9z"></path></g><g id="dollar-2"><path class="st1" d="M27.9,212.6c-5.6,13.9-2.5,31.1,8.3,41.4c11.5,11,30.7,12.7,44,3.9s19.1-27.2,13.4-42
			c-7.4-19.4-35.2-30.2-53.2-18.7C34.8,201,30.4,206.4,27.9,212.6z"></path><path class="st0" d="M28.4,207.8c-5.6,13.9-2.5,31.1,8.3,41.4c11.5,11,30.7,12.7,44,3.9s19.1-27.2,13.4-42.1
			C86.7,191.7,59,181,40.9,192.4C35.3,196.2,30.9,201.5,28.4,207.8z"></path><path class="st1" d="M61.4,259.5c-9.3,0.1-18.4-3.4-25.2-9.7c-10.9-10.4-14.3-27.8-8.5-42.3l0,0c2.6-6.4,7-11.9,12.8-15.7
			c8.3-5.3,19.3-6.3,30-2.8c11.5,3.8,20.5,11.9,24.3,21.8c5.8,15.1-0.2,34-13.8,42.9C75.2,257.6,68.4,259.6,61.4,259.5z M57.9,188.5
			c-5.9-0.1-11.6,1.5-16.6,4.6c-5.5,3.6-9.8,8.9-12.2,15l0,0c-5.7,13.9-2.3,30.6,8.1,40.6c11.2,10.7,30.1,12.4,43,3.8
			s18.8-26.7,13.2-41.2c-3.6-9.4-12.3-17.3-23.3-20.9C66.2,189.2,62.1,188.5,57.9,188.5L57.9,188.5z M28.4,207.8L28.4,207.8z"></path><path class="st0" d="M31.5,208.9c-5.1,12.6-2.3,28.3,7.5,37.7c10.5,10,28,11.6,40,3.6s17.5-24.8,12.3-38.2
			c-6.8-17.7-32-27.5-48.4-17C37.8,198.4,33.8,203.2,31.5,208.9z"></path><path class="st1" d="M61.5,256.1c-8.5,0.1-16.7-3.1-23-8.9c-9.9-9.5-13.1-25.3-7.7-38.6l0,0c2.3-5.9,6.4-10.9,11.7-14.3
			c7.6-4.8,17.6-5.8,27.4-2.5c10.4,3.4,18.7,10.9,22.1,19.9c5.3,13.8-0.2,31-12.5,39.2C74.1,254.3,67.9,256.1,61.5,256.1z
			 M32.2,209.2c-5.1,12.6-2.1,27.8,7.4,36.9c10.2,9.8,27.4,11.3,39.1,3.5s17-24.2,12-37.4c-3.3-8.6-11.2-15.7-21.2-19
			c-9.4-3.1-18.9-2.2-26.1,2.4C38.3,198.9,34.4,203.6,32.2,209.2z"></path><path class="st1" d="M65.4,240.6c-5.3,1.1-10.6-0.6-13.4-4.3c-0.8-1.2-0.5-2.8,0.7-3.6c1.1-0.7,2.6-0.5,3.4,0.5
			c1.8,2.4,5.5,2.9,8.3,2.3c2.1-0.3,4-1.5,5.3-3.2c1-1.4,1.2-3.3,0.3-4.9c-1.4-2-4.7-2.2-6.6-2.1c-0.7,0-1.5,0.1-2.2,0.1
			c-2.7,0.2-5.7,0.4-8.6-0.6c-6.2-2.3-9.3-9.1-7-15.3s9.1-9.3,15.3-7c0.5,0.2,1,0.4,1.5,0.7c1.2,0.8,1.6,2.4,0.8,3.6
			c-0.7,1.1-2.1,1.5-3.3,0.9c-3.4-1.5-7.3,0-8.8,3.4c-1.5,3.4,0,7.3,3.4,8.8c1.9,0.7,4.1,0.5,6.5,0.3c0.8-0.1,1.6-0.1,2.4-0.1
			c5.2-0.2,9,1.3,11.1,4.4c2.1,3.3,1.9,7.6-0.4,10.8c-2.1,2.8-5.1,4.7-8.5,5.3L65.4,240.6z"></path><path class="st1" d="M72.2,246.1c-1.1,0.2-2.2-0.3-2.8-1.3c-7.8-14.1-14.6-28.8-20.3-43.9c-0.5-1.4,0.2-2.9,1.5-3.4
			s2.9,0.2,3.4,1.5c5.6,14.9,12.3,29.3,20,43.2c0.7,1.3,0.3,2.8-1,3.5C72.8,245.9,72.5,246,72.2,246.1L72.2,246.1z"></path></g></g></svg>