<svg transform="scale(1)" version="1.1" id="Layer_1" xmlns="http://www.w3.org/2000/svg" xmlns:xlink="http://www.w3.org/1999/xlink" x="0px" y="0px" viewBox="0 0 500 500" xml:space="preserve" class="show_show__wrapper__graphic__5Waiy "><title>React</title><style type="text/css">
	.st0{fill:#111111;}
	.st1{fill:#128FFF;}
	.st2{fill:#FFFFFF;}
</style><g id="police-line-behind"><path class="st0" d="M161.5,331.1c7.9-1,15.8-1.4,23.7-1l-4.9-28.2c-0.1-1.1-0.5-2.2-1.1-3.1c-3.4-4.4-16.8-1.1-18.6,3.9
		C159.6,305.4,160.9,331.2,161.5,331.1z"></path><path class="st0" d="M328.8,330.9c16-0.1,31.1-12.6,34-28.4c-8.1,0.5-16.3,0.1-24.4-1c0.6,6.2-4,11.8-10.2,12.4
		c-6.2,0.6-11.8-4-12.4-10.2c0-0.3,0-0.7,0-1c0,1.6-18.4-0.9-19.7,0.2c-3.3,2.8,2.9,11.3,4.6,13.6
		C307.4,325.2,317.9,330.9,328.8,330.9z"></path></g><g id="imac"><path class="st0" d="M297.9,334.6l-13.5-49.2c-2.3-8.4-8.5-15.4-13.7-15.4h-15.8c-5.2,0-11.4,7-13.7,15.5l-13.6,49.2
		c-2.3,8.5,0,15.5,5.2,15.5h60C297.9,350.1,300.2,343.2,297.9,334.6z"></path><path class="st0" d="M319.7,352.7l-22-13.1c-3.8-2.3-13.8-4.1-22.2-4.1h-25.6c-8.4,0-18.4,1.9-22.2,4.1l-22,13.1
		c-3.8,2.3,0,4.1,8.4,4.1h97.2C319.7,356.8,323.5,354.9,319.7,352.7z"></path><g id="presentation"><path class="st0" d="M114.3,295.5c0.2-28.4-0.3-166.6,0-195.2c0-3,0.5-6.7,3.7-8c1.5-0.5,3.1-0.7,4.7-0.5l24,0.9
			c25.7,1,223.8-0.3,249.6,0.7c5.4,0.2,11.7,0.8,14.5,4.8c1.6,2.2,1.6,5,1.5,7.6c-0.5,26.3,0.1,166.7-0.3,192.8
			c0,2.9-0.2,5.9-2.2,8.1c-3.1,3.4-8.9,3.4-14,3.2c-21.4-0.8-215.4-2.8-236.7-2.4c-10.6,0.2-21.1,0.3-31.7,0.7
			C118,308.7,114.2,302.8,114.3,295.5z"></path></g><path class="st1" d="M412.1,288.2c0,3.5-0.1,7-0.1,10.5c0,2.9-0.2,5.9-2.2,8.1c-3.1,3.4-8.9,3.4-14,3.2
		c-21.4-0.8-215.4-2.8-236.7-2.4c-10.6,0.2-21.1,0.3-31.7,0.7c-9.4,0.4-13.1-5.5-13-12.8l0.1-8.3L412.1,288.2z"></path><g id="presentation-2"><path class="st2" d="M126.7,267.8c0.2-22.7-0.1-133.2,0.2-156c0-2.4,0.4-5.3,3.4-6.4c1.4-0.4,2.9-0.5,4.3-0.4l22,0.7
			c23.5,0.8,204.9-0.2,228.5,0.6c5,0.2,10.7,0.7,13.3,3.8c1.5,1.8,1.5,4,1.4,6c-0.4,21,0.2,133.2-0.2,154c0,2.3-0.2,4.7-2,6.5
			c-2.8,2.7-8.2,2.7-12.8,2.6c-19.6-0.6-197.4-2.2-217-1.9c-9.7,0.2-19.4,0.2-29,0.6C130.1,278.4,126.7,273.7,126.7,267.8z"></path></g><circle class="st2" cx="263.2" cy="297.4" r="5.5"></circle><path class="st2" d="M289,341.6h-52.5c-0.3,0-0.5-0.2-0.5-0.5c0-0.3,0.2-0.5,0.5-0.5H289c0.3,0,0.5,0.2,0.5,0.5
		C289.5,341.4,289.3,341.6,289,341.6z"></path><path class="st2" d="M278.3,336.1h-30.8c-0.3,0-0.5-0.2-0.5-0.5s0.2-0.5,0.5-0.5h30.8c0.3,0,0.5,0.2,0.5,0.5
		S278.6,336.1,278.3,336.1z"></path></g><g id="sync"><path class="st2" d="M209.6,156.4c-14.2,19.4-14.5,47.8-0.7,67.5s40.6,29.1,63.7,22.4s40.8-28.8,42.2-52.8
		c1.4-23-14.3-52.4-37.7-59.1S224,136.9,209.6,156.4z"></path><path class="st0" d="M257.4,249.2c-19,0-38.1-9.2-49.1-24.9c-14-20-13.8-48.7,0.7-68.4l0.6,0.4L209,156
		c14.3-19.4,44.3-29.2,68.4-22.3c11.1,3.2,21.2,11.6,28.6,23.8c6.8,11.3,10.4,24.5,9.7,36.1c-1.5,24.3-19.5,46.8-42.8,53.5
		C267.8,248.5,262.6,249.2,257.4,249.2z M261.1,133c-19.6,0-40,9.1-50.9,23.9l0,0c-14.1,19.1-14.4,47.1-0.7,66.6
		c10.7,15.2,29.3,24.2,47.8,24.2c5.1,0,10.2-0.7,15.1-2.1c22.7-6.6,40.3-28.5,41.7-52.1c1.7-27.6-18.2-52.9-37.1-58.4
		C271.9,133.7,266.5,133,261.1,133z"></path><path class="st0" d="M290.3,176.9c-1,0-1.9-0.6-2.3-1.5c-5-11.5-17.5-19.3-30.3-19.1c-11.8,0.2-24,6.5-33.3,17.2
		c-0.9,1.1-2.4,1.2-3.5,0.4c-1.1-0.9-1.2-2.4-0.4-3.5c0,0,0.1-0.1,0.1-0.1c10.2-11.9,23.7-18.8,37-19c15-0.2,29.1,8.7,35,22.1
		c0.5,1.3,0,2.7-1.3,3.3c0,0,0,0,0,0C291,176.9,290.6,176.9,290.3,176.9z"></path><path class="st0" d="M288.7,178.7c-1.3-0.1-2.7-0.3-3.9-0.9l-14.4-5.3c-1.3-0.5-2-1.9-1.5-3.2c0.5-1.3,1.9-2,3.2-1.5l0,0l14.4,5.3
		c1.4,0.5,2.3,0.7,2.6,0.4s0.6-1.1,0.9-2.5c0.6-3.3,0.9-6.6,1.1-9.9c0.1-1.4,1.2-2.5,2.6-2.4c1.4,0.1,2.5,1.2,2.4,2.6
		c-0.1,3.6-0.5,7.1-1.1,10.6c-0.2,1.4-0.7,4.2-3,5.7C291,178.4,289.8,178.7,288.7,178.7z"></path><path class="st0" d="M257.9,222.1c-14.9,0-28.6-8.8-34.4-22.1c-0.6-1.2-0.1-2.7,1.2-3.3c1.2-0.6,2.7-0.1,3.3,1.2c0,0,0,0.1,0.1,0.1
		c5,11.5,17.5,19.3,30.3,19.1c11.8-0.2,24-6.5,33.3-17.2c0.9-1.1,2.4-1.2,3.5-0.4c1.1,0.9,1.2,2.4,0.4,3.5c0,0-0.1,0.1-0.1,0.1
		c-10.2,11.9-23.7,18.8-37,19L257.9,222.1z"></path><path class="st0" d="M222.5,214.6h-0.1c-1.4-0.1-2.4-1.2-2.4-2.6c0,0,0,0,0,0c0.2-3.5,0.5-7.1,1.1-10.6c0.2-1.4,0.7-4.2,3-5.7
		c2.6-1.8,5.7-0.7,7.2-0.1l14.4,5.3c1.3,0.5,2,1.9,1.5,3.2c-0.5,1.3-1.9,2-3.2,1.5l0,0l-14.4-5.3c-1.4-0.5-2.3-0.7-2.6-0.4
		s-0.6,1.1-0.9,2.5c-0.6,3.3-0.9,6.6-1.1,9.9C225,213.6,223.8,214.6,222.5,214.6z"></path></g><g id="character"><path class="st1" d="M43.3,328c-0.6,0.9-1.1,1.9-1.4,3c-0.3,1.1,0.1,2.3,1.1,3c0.5,0.3,1.2,0.4,1.8,0.4c4.9,0.5,9.8,0.5,14.7,0.2
		c1-0.1,2.2-0.3,2.7-1.2c0.3-0.8,0.1-1.7-0.5-2.4c-0.6-0.6-1.3-1-2.1-1.3l-10.2-4.5c-0.8-0.4-1.7-0.7-2.6-0.8
		C44.1,324.2,44.3,326.3,43.3,328z"></path><path class="st1" d="M87.1,276.3c-1.4,1.3-2.3,3.5-1.2,5.1c0.9,1.2,2.5,1.5,4,1.6c3.6,0.3,7.3,0.5,10.9,0.7
		c2.5,0.1,5.2,0.1,7.2-1.3c0.6-0.3,0.9-0.9,1-1.5c0-0.8-0.9-1.3-1.7-1.6l-11.6-5.1C91.6,272.3,90.3,273.2,87.1,276.3z"></path><path class="st0" d="M97.7,233.1c2.5-0.2,5.2-0.2,7.2,1.3c1.9,1.5,3,3.8,3,6.3c0,2.4-0.4,4.8-1.2,7.1l-7.8,28L86.8,275
		c2.9-5.3,5.2-10.9,6.7-16.8c0.6-2.3,1.1-4.7,0.2-6.9c-1-2.1-2.8-3.7-5-4.4c-2.2-0.7-4.5-1-6.8-1c-5.5-0.2-11.5-0.1-15.7,3.4
		c-3.9,3.2-5.4,8.3-6.6,13.2c-4.9,21-6.6,42.5-8.3,64c-4.2-0.1-8.4,0.5-12.4,1.5c2.2-24.1,6.3-47.9,12.3-71.4
		c1.1-4.2,2.3-8.6,4.9-12.1c4.4-5.8,11.4-4.8,17.6-6.8C81.6,235.2,89.6,233.6,97.7,233.1z"></path><path class="st0" d="M89.7,193.6c1.9,2,4.1,4,6.8,4.2c1.5,0.1,3-0.3,4.4,0.3c2.3,0.9,2.8,4.3,1.3,6.3s-4.4,2.5-6.8,1.9
		c-2.4-0.7-4.6-2-6.4-3.6c-5.6-4.5-10.9-9.7-13.9-16.2c-1-2.1-3.4-7.1-2.5-9.4c0.8-2,3.1-1.7,4.4-0.4c2.3,2.3,3.8,6.1,5.8,8.7
		C84.9,188.2,87.2,191,89.7,193.6z"></path><path class="st2" d="M49.8,204.3c-3.4,13.3-6.7,26.6-7.7,40.3c-0.2,2.2-0.1,4.8,1.6,6.2c2.1,1.8,5.3,0.5,7.8-0.8l21.3-11
		c1.9-1,3.9-2.1,4.8-4c1.2-2.5,0.3-5.4-0.5-8c-4.1-14.3-2.1-29.5-0.3-44.2c0.4-2.5,0.5-5.1,0.1-7.6c-1.4-6.9-8.9-8.5-13.2-3.2
		c-4.6,5.9-8.1,12.6-10.3,19.7C52,195.8,50.9,200.1,49.8,204.3z"></path><path class="st0" d="M46.3,252.4c-1.1,0-2.2-0.3-3.1-1c-2-1.6-2.1-4.3-1.9-6.8c1-13.5,4.2-26.8,7.7-40.5c1-4.1,2.2-8.4,3.6-12.6
		c2.2-7.2,5.8-14,10.4-20c2-2.6,5.3-3.9,8.5-3.2c3.2,0.8,5.5,3.5,6,6.7c0.4,2.6,0.4,5.3-0.1,7.9l-0.1,1.1c-1.7,14.3-3.5,29,0.4,42.8
		l0.1,0.4c0.8,2.6,1.6,5.6,0.3,8.2c-1.1,2.2-3.4,3.4-5.2,4.3l-21.3,11C50.2,251.7,48.3,252.2,46.3,252.4z M69.8,169.6
		c-2.2,0.1-4.2,1.1-5.5,2.9c-4.2,5.2-7.5,11.6-10.1,19.5c-1.4,4.2-2.5,8.5-3.6,12.5l0,0c-3.5,13.5-6.7,26.8-7.7,40.2
		c-0.1,2.1-0.1,4.4,1.3,5.5s3.6,0.9,7-0.8l21.3-11c2-1,3.7-2,4.5-3.6c1-2.1,0.3-4.6-0.4-7.1l-0.1-0.4c-4-14-2.2-28.9-0.5-43.4
		l0.1-1.1c0.4-2.4,0.5-4.9,0.1-7.4c-0.4-2.7-2.3-4.8-4.9-5.6C70.8,169.7,70.3,169.6,69.8,169.6z M49.8,204.3L49.8,204.3z"></path><path class="st1" d="M96.1,182.5c4-4.2,8.1-8.8,9.7-14.4c1.3-4.7,0.7-9.8,2.5-14.4c3-7.5,11.5-11.2,19-8.3
		c4.4,1.7,7.7,5.5,8.9,10.1c-2.1,1.7-4.8,2.7-7.2,4s-4.9,3-6,5.5s-0.4,6,2.1,7.2c2.3,1.1,5.1-0.3,6.9-2.2s2.9-4.3,4.6-6.2
		s4.5-3.3,6.8-2.4c1.9,0.8,3,2.9,3.7,4.9c2.6,7.5,1.5,17.1-5.2,21.3c-4.1,2.5-9.3,2.4-14,3.7c-8.8,2.5-15,10.1-21.4,16.7
		c-7.6,7.9-16.1,14.9-25.4,20.8c-4.7,3-9.8,6-12.7,10.8c-3.2,5.4-2.9,12.5-6.8,17.5c-4.4,5.6-12.5,6.6-18.1,2.3
		c-2.1-1.6-3.6-3.8-4.4-6.3c2.4-0.7,4.6-1.7,6.6-3.1c2-1.5,3.2-3.8,3.1-6.3c-0.3-2.4-2.7-4.6-5-4.1c-1.8,0.4-3.1,2.1-4.3,3.5
		s-3.2,2.7-4.9,2c-1.2-0.7-2-1.8-2.4-3.1c-1.7-4-2.9-8.6-1.7-12.8c1.5-5.3,6.6-9,11.9-10.5c3-0.8,6.1-1.1,9.2-1
		c2.2,0,5.1,0.8,7.3,0.2c4.3-1.3,8.8-7.4,12-10.4C79.6,199.4,87.9,191.1,96.1,182.5z"></path><path class="st2" d="M80,136.3c1.5,8,1.6,16.2,0.3,24.2c-0.2,1.2-0.5,2.3-1,3.4c-0.5,1.1-1.4,2.1-2.6,2.6c-1,0.3-2,0-2.7-0.7
		c-9.5-7.3-21-16.2-29.9-30.7c-1.4-2.3-2.7-5-1.7-7.8c0.7-1.9,2.5-3.4,4.2-4.8c6-4.8,12.6-8.6,19.8-11.4c2-0.7,5.4-2,7-0.4
		s2,6.2,2.5,8.3C77.6,124.7,79,130.5,80,136.3z"></path><path class="st0" d="M76.1,167.3c-0.9,0-1.7-0.4-2.4-1c-9.4-7.2-21.1-16.2-30.1-30.9c-1.5-2.5-2.9-5.4-1.7-8.4
		c0.8-2.1,2.7-3.7,4.4-5.1c6-4.8,12.8-8.7,20-11.5c2.1-0.8,5.9-2.2,7.8-0.2c1.2,1.3,1.8,4.1,2.2,6.5c0.2,0.8,0.3,1.6,0.5,2.2
		c1.6,5.7,3,11.5,4,17.3l0,0c1.5,8.1,1.6,16.3,0.3,24.4c-0.1,1.2-0.5,2.4-1,3.6c-0.6,1.3-1.7,2.4-3,3
		C76.7,167.3,76.4,167.3,76.1,167.3z M71.2,110.7c-1.5,0.1-3.1,0.5-4.5,1.1c-7.1,2.7-13.7,6.5-19.6,11.2c-1.5,1.2-3.2,2.7-3.9,4.4
		c-0.9,2.4,0.2,4.8,1.6,7.1c8.9,14.5,20.5,23.4,29.8,30.5c0.8,0.6,1.3,0.9,2,0.6c1-0.5,1.7-1.2,2.1-2.2c0.5-1,0.8-2.1,0.9-3.1
		c1.2-8,1.1-16.1-0.3-24l0,0c-1-5.8-2.4-11.5-4-17.1c-0.2-0.6-0.3-1.4-0.5-2.3c-0.4-2-0.9-4.8-1.9-5.8
		C72.5,110.8,71.8,110.6,71.2,110.7z"></path><path class="st0" d="M70.8,119.6c3.5-0.3,6.5-2.5,7.9-5.7c1.2-3.2-0.3-7.3-3.5-8.6c2.8-2.3,4.4-5.8,4.3-9.5c-0.2-3.7-2.6-6.9-6-8.2
		c-3.5-1.1-7.4,0.4-9.2,3.7c-2.3-4.6-7.5-6.8-12.3-5.4c-4.8,1.7-7.6,6.6-6.7,11.7c-5.8,0.1-10.3,4.9-10.2,10.7
		c0,0.8,0.1,1.5,0.3,2.3c-4.7-1.2-9.5,1.7-10.6,6.4c-0.9,3.9,0.8,7.9,4.3,9.8c-3.6,0.7-5.4,5-5,8.6c0.8,6.4,6.6,10.9,12.9,10.2
		c0.7-0.1,1.3-0.2,1.9-0.4c0.4,3.2,1.8,6.4,4.4,8.3s6.6,2,8.8-0.3c1.7,0.4,3.5,0.4,5.1,0c1.6-0.6,3.1-2.2,2.7-3.9s-2.1-2.6-3.5-3.8
		c-1.4-1.3-2.6-2.9-3.5-4.6l-6-9.9c2.4-1.9,3.3-5.1,2.2-8c0.5,1.1,4.9-0.2,5.6-0.5c2-0.9,3-2.4,4.7-3.8c1.4-1.2,2.5-1.1,4.2-0.5
		C66.1,119.1,68.2,119.9,70.8,119.6z"></path><path class="st2" d="M54.8,139.4c-1.1-0.3-2.2-0.5-3.3-0.6c-1.1,0-2.3,0.4-3.1,1.1c-1.3,1.4-1.4,3.6-0.2,5.1c1.3,1.4,3.2,2.1,5,1.6
		c1.8-0.4,3.4-1.5,4.5-3.1"></path><path class="st0" d="M52.1,147.6c-1.7,0-3.4-0.7-4.5-2.1c-1.4-1.8-1.3-4.4,0.2-6.1c1-0.9,2.3-1.4,3.6-1.3c1.2,0,2.4,0.2,3.5,0.6
		c0.4,0.1,0.6,0.5,0.5,0.9c-0.1,0.4-0.5,0.6-0.9,0.5c-1-0.3-2.1-0.5-3.1-0.5c-1,0-1.9,0.3-2.6,0.9c-1,1.2-1.1,2.9-0.1,4.1
		c1.1,1.2,2.7,1.7,4.3,1.4c1.7-0.4,3.1-1.4,4.1-2.8c0.2-0.3,0.7-0.4,1.1-0.1c0.3,0.2,0.4,0.7,0.1,1c-1.2,1.7-3,2.9-5,3.4
		C52.9,147.6,52.5,147.6,52.1,147.6z"></path><path class="st0" d="M75.5,132.8c-0.1,0.3-0.2,0.5-0.4,0.7c-0.2,0.2-0.5,0.3-0.7,0.2c-0.3-0.1-0.5-0.6-0.5-0.9
		c-0.1-0.8,0-1.6,0.1-2.3c0.1-0.3,0.2-0.7,0.6-0.8c0.2,0,0.4,0,0.6,0.2C75.8,130.5,75.8,132,75.5,132.8z"></path><path class="st0" d="M65.1,134.9c0,0.2-0.1,0.4-0.3,0.6c-0.1,0.2-0.3,0.3-0.5,0.3c-0.3,0-0.5-0.3-0.7-0.6c-0.4-0.8-0.9-3.5,0.6-3.6
		C65.6,131.4,65.4,134,65.1,134.9z"></path><path class="st0" d="M71.3,136.2c-2.3,0.1-4.2-1.5-4.5-3.8c-0.3-1.4-0.5-4,0.9-4.8c1.8-0.8,3.8-1.3,5.9-1.4h0.2
		c0.9-0.2,1.9-0.1,2.8,0.3c1.1,0.8,1.8,1.9,2,3.2c0.2,0.7,0.4,1.4,0.4,2.2c0,0.8-0.2,1.6-0.7,2.3c-0.6,0.6-1.4,1.1-2.2,1.3
		c-1.3,0.4-2.6,0.6-3.9,0.8C72,136.2,71.6,136.2,71.3,136.2z M74,127.1h-0.2c-1.9,0.1-3.8,0.5-5.5,1.3c-0.8,0.5-0.8,2.3-0.5,3.8
		c0.2,1.2,0.8,2.2,1.8,2.8c0.8,0.3,1.7,0.4,2.6,0.3c1.3-0.1,2.5-0.3,3.7-0.7c0.7-0.1,1.3-0.5,1.8-1c0.4-0.5,0.5-1.1,0.5-1.7
		c0-0.7-0.2-1.4-0.4-2c-0.2-1.1-0.7-2-1.6-2.7C75.5,127,74.7,126.9,74,127.1z M74,126.6L74,126.6z"></path><path class="st0" d="M60.7,138.4c-1.1,0-2.1-0.3-3-0.9c-0.9-0.8-1.6-1.8-2-3c-0.5-0.9-0.7-2-0.6-3c0.1-0.9,0.7-1.6,1.5-1.9
		c1.8-0.8,3.8-1.2,5.9-1.2l0,0c0.8-0.1,1.7,0,2.5,0.3c1.1,0.7,1.8,1.8,2.1,3.1c0.3,0.7,0.5,1.4,0.6,2.2c0.1,0.8-0.1,1.7-0.6,2.4
		c-0.7,0.7-1.6,1.2-2.6,1.4c-1.1,0.4-2.2,0.6-3.3,0.7L60.7,138.4z M63.2,129.2c-0.3,0-0.5,0-0.8,0l0,0c-1.9,0-3.7,0.4-5.5,1.2
		c-0.7,0.4-1,0.6-1.1,1.2c0,0.9,0.2,1.8,0.6,2.6c0.3,1,0.9,1.9,1.7,2.6c0.8,0.5,1.8,0.8,2.8,0.7c1.1-0.1,2.1-0.3,3.1-0.6
		c0.8-0.1,1.5-0.5,2.1-1.1c0.4-0.5,0.5-1.1,0.4-1.7c-0.1-0.7-0.3-1.4-0.5-2c-0.2-1-0.8-1.9-1.7-2.5
		C64.1,129.3,63.7,129.2,63.2,129.2z M62.4,128.8L62.4,128.8z"></path><path class="st0" d="M52.2,139.4c-0.1,0-0.2,0-0.3-0.1c-0.2-0.2-0.2-0.5,0-0.6c1.4-1.6,2.6-3.3,3.7-5.2c0.1-0.2,0.4-0.3,0.6-0.2
		c0.2,0.1,0.3,0.4,0.2,0.6c-1.1,1.9-2.4,3.7-3.8,5.3C52.5,139.4,52.3,139.4,52.2,139.4z"></path><path class="st0" d="M66,130.9c-0.2,0-0.4-0.1-0.4-0.3c-0.1-0.2,0-0.5,0.3-0.6c0.5-0.2,1-0.2,1.5-0.1c0.2,0.1,0.4,0.3,0.4,0.5
		c0,0.2-0.3,0.4-0.5,0.4c0,0,0,0,0,0c-0.3-0.1-0.7,0-1,0.1C66.1,130.9,66.1,130.9,66,130.9z"></path><path class="st0" d="M74,154.1c0.6-0.1,1.3-0.2,1.9-0.2c0.7-0.1,1.3,0.2,1.8,0.6c0.5,0.6,0.6,1.5,0.2,2.2c-0.4,0.7-1,1.2-1.8,1.4
		c-0.8,0.2-1.5,0.2-2.3,0.1c-1.7-0.2-3.2-1-4.3-2.2c-0.6-0.7-1.5-3.6,0.3-3c0.7,0.2,1.2,0.7,1.9,1C72.4,154.1,73.2,154.2,74,154.1z"></path><path class="st0" d="M30.3,216.1c-1.5,2.9-2.6,6-3.1,9.2c-0.5,3.2,0.4,6.6,2.5,9.1c2.3,2.5,5.9,3.4,9.3,3.9
		c8.4,1.3,17,1.2,25.3-0.2c2-0.3,4-0.8,5.3-2.4c1.9-2.3,1-5.6,0.1-8.4c-6.9,1.3-14,1.6-21,0.8c-3.8-0.4-8.3-1.7-9.6-5.3
		c-0.9-2.4,0-5.1,0.8-7.5c1.3-4.3,3.1-8.5,5.4-12.4c3.7-6,9.2-10.5,14-15.6c3.5-3.8,7.1-8.3,8.5-13.4c0.5-1.9,0.7-4.3-1.5-5.3
		c-2.4-1.1-4.4,1.3-5.8,2.9c-7.7,8.5-14.7,17.7-20.7,27.4C36.3,204.4,33.1,210.1,30.3,216.1z"></path><path class="st0" d="M45.3,203.3c-0.1,0-0.2,0-0.3-0.1c-0.2-0.1-0.3-0.5-0.2-0.7c0,0,0,0,0,0c2.7-4.3,6.3-7.9,9.9-11.4
		c1.4-1.4,2.8-2.8,4.2-4.2c0.2-0.2,0.5-0.2,0.7,0c0.2,0.2,0.2,0.5,0,0.7c-1.4,1.4-2.8,2.9-4.2,4.3c-3.5,3.5-7.1,7-9.7,11.3
		C45.6,203.2,45.5,203.3,45.3,203.3z"></path><path class="st2" d="M76.8,211.7c2-2,4.6-3.7,7.5-3.9s6,1.5,6.6,4.3l-3.9,1.8c5.3,1.7,9.9,4.9,13.2,9.3c1.2,1.6,2.2,4,0.8,5.4
		c-1.2,1.2-3.2,0.8-4.9,0.9c-2.8,0.1-5.3,1.7-7.9,2.7c-4.2,1.6-17.8,5.1-19-1.5C68.1,224.5,72.6,215.9,76.8,211.7z"></path><path class="st0" d="M76.3,235.4c-1.8,0.1-3.7-0.3-5.3-1.1c-1.3-0.7-2.2-2-2.5-3.4c-1.2-6.3,3.1-15.1,7.8-19.7
		c2.6-2.5,5.3-3.9,7.9-4.1c3-0.2,6.6,1.6,7.4,4.9c0.1,0.3-0.1,0.7-0.4,0.9l-2.3,1c4.7,1.8,8.8,4.9,11.8,8.9c1.5,1.9,2.4,4.6,0.8,6.4
		c-1.1,1.2-2.8,1.2-4.3,1.1c-0.4,0-0.8,0-1.1,0c-1.9,0.2-3.7,0.8-5.4,1.7c-0.7,0.3-1.5,0.7-2.2,1C84.6,234.4,80.5,235.3,76.3,235.4z
		 M84.7,208.5h-0.4c-2.3,0.2-4.7,1.4-7,3.7l0,0c-4.3,4.3-8.4,12.6-7.3,18.4c0.2,1,0.8,1.9,1.7,2.4c3.9,2.2,12.8-0.1,16.3-1.4
		c0.7-0.3,1.4-0.6,2.1-0.9c1.9-1,3.9-1.6,6-1.9c0.4,0,0.8,0,1.2,0c1.3,0,2.5,0,3.2-0.7c1.1-1.2,0-3.4-0.9-4.5
		c-3.2-4.2-7.7-7.4-12.8-9c-0.3-0.1-0.5-0.4-0.5-0.7c0-0.3,0.1-0.6,0.4-0.7l3.3-1.6C89,209.7,86.9,208.5,84.7,208.5L84.7,208.5z
		 M76.8,211.7L76.8,211.7z"></path><path class="st2" d="M116.9,192.2c-2.2,0.3-4.7,1.5-4.8,3.7s2.2,3.5,4.1,4.4c-2.2-1.1-5-0.1-6.5,1.8c-1.4,2-2.3,4.3-2.5,6.8
		c-0.3,1.9-0.4,3.9,0.6,5.5c1.1,1.5,3,2.4,4.9,2.2c1.9-0.2,3.7-0.9,5.3-1.9c4.9-3,8.9-7.3,11.4-12.5
		C133.3,194,123.7,191.3,116.9,192.2z"></path><path class="st0" d="M112.3,217.4c-2,0.1-4-0.9-5.2-2.5c-1.2-1.8-1-4.1-0.7-6c0.4-2.4,1-5.1,2.7-7.1c1-1.2,2.4-2.1,4-2.4
		c-1.1-0.8-1.7-2.1-1.7-3.4c0.1-2.6,2.8-4.1,5.4-4.4c4.6-0.6,10.6,0.3,13.1,3.7c1,1.4,1.8,3.8,0.1,7.4c-2.6,5.3-6.6,9.8-11.7,12.8
		c-1.7,1.1-3.6,1.8-5.6,2H112.3z M114.3,200.7c-1.6,0.1-3,0.8-4,2c-1.5,1.8-2,4.2-2.3,6.4c-0.3,1.8-0.4,3.6,0.5,5
		c1,1.3,2.6,2,4.2,1.8c1.8-0.2,3.5-0.8,4.9-1.8c4.8-2.9,8.6-7.1,11.1-12.1c1.1-2.4,1.2-4.4,0.1-5.9c-2-2.8-7.4-3.7-11.7-3.1
		l-0.1-0.8l0.1,0.8c-2,0.3-4.1,1.3-4.2,3c0,1.3,1,2.5,3.4,3.6l0.2,0.1c0.4,0.2,0.5,0.6,0.3,1c0,0,0,0,0,0c-0.2,0.4-0.6,0.5-1,0.4
		l-0.2-0.1C115.2,200.8,114.7,200.7,114.3,200.7L114.3,200.7z"></path><path class="st0" d="M128.7,154.9c-0.2,0-0.4-0.1-0.5-0.3c-1.5-4.4-6.4-6.8-10.8-5.2c-0.9,0.3-1.7,0.7-2.4,1.3
		c-0.2,0.2-0.5,0.2-0.7,0c-0.2-0.2-0.2-0.5,0-0.7c0,0,0,0,0,0c4.1-3.2,10.1-2.4,13.3,1.7c0.6,0.8,1.1,1.7,1.4,2.7
		c0.1,0.3,0,0.5-0.3,0.6c0,0,0,0,0,0C128.8,154.9,128.8,154.9,128.7,154.9z"></path><path class="st0" d="M133.9,187.4c-0.3,0-0.5-0.2-0.5-0.5c0-0.2,0.1-0.3,0.2-0.4c6.3-5.1,8-13.9,3.9-20.9c-0.1-0.2-0.1-0.5,0.2-0.7
		s0.5-0.1,0.7,0.2c4.2,7.4,2.5,16.8-4.2,22.2C134.1,187.3,134,187.4,133.9,187.4z"></path><path class="st0" d="M124.6,206.9c-0.2,0-0.4-0.1-0.4-0.3c-1.4-3.1-4.1-5.4-7.4-6.2c-0.3-0.1-0.4-0.4-0.3-0.6
		c0.1-0.3,0.3-0.4,0.6-0.4c3.5,1,6.5,3.5,8,6.8c0.1,0.3,0,0.5-0.2,0.7C124.7,206.8,124.6,206.8,124.6,206.9z"></path><path class="st0" d="M93,230.3c-0.1,0-0.2,0-0.2-0.1c-4.9-2.4-9.5-5.2-13.9-8.4c-0.2-0.2-0.3-0.5-0.1-0.7c0.2-0.2,0.5-0.3,0.7-0.1
		c0,0,0,0,0,0c4.3,3.2,8.9,6,13.8,8.3c0.3,0.1,0.5,0.3,0.4,0.6S93.3,230.4,93,230.3L93,230.3z"></path><path class="st0" d="M52.9,257.6c-2.7,0-5.1-1.6-7.2-3.1c-0.2-0.2-0.3-0.5-0.1-0.7c0,0,0,0,0,0c0.2-0.2,0.5-0.3,0.7-0.1
		c2.1,1.5,4.6,3.1,7.2,2.9s4.7-2.4,5.7-4.4c1.1-2.4,1.8-4.9,2-7.5c0-0.3,0.3-0.5,0.5-0.4c0,0,0,0,0,0c0.3,0,0.5,0.3,0.4,0.6
		c0,0,0,0,0,0c-0.3,2.7-1,5.3-2.1,7.8c-1.2,2.6-3.7,4.4-6.5,4.9L52.9,257.6z"></path><path class="st2" d="M68.6,87c-0.3,1.2-0.9,2.2-1.9,3l-35.4,36c-1.1,1.3-2.4,2.3-3.9,3.1c-1.5,0.8-3.3,0.8-4.8-0.1
		c-2.2-1.5-2.1-5-0.9-7.4s3.1-4.5,3.8-7.2c1.1-4.3-1.3-8.6-2.2-12.9c-1.8-9.2,4-18.5,11.9-23.5c4.1-2.6,9.3-4.3,13.8-2.5
		c2.1,0.9,4,2.4,5.4,4.2c1.3,1.6,2.4,4.4,4.5,5S69.3,81,68.6,87z"></path><path class="st0" d="M24.9,130.4c-1,0-1.9-0.3-2.8-0.8c-2.6-1.8-2.5-5.5-1.1-8.3c0.5-0.9,1-1.9,1.6-2.8c0.9-1.3,1.7-2.7,2.2-4.3
		c0.7-2.7-0.1-5.5-1.1-8.4c-0.4-1.3-0.8-2.7-1.1-4.1c-1.7-8.7,3.3-18.7,12.2-24.3c3-1.9,8.9-4.8,14.5-2.6c2.3,1,4.3,2.5,5.8,4.5
		c0.4,0.5,0.8,1.1,1.1,1.6c0.9,1.4,1.8,2.8,3,3.1c0.9,0,1.8-0.1,2.7-0.4c2.3-0.5,5-1.2,6.5,0.2c0.8,0.9,1.2,2.1,0.9,3.3
		c-0.3,1.4-1,2.6-2.1,3.5l-35.4,35.9c-1.2,1.3-2.6,2.4-4.1,3.3C26.9,130.2,25.9,130.4,24.9,130.4z M45,75.5c-3.8,0-7.3,1.8-9.4,3.2
		c-6.8,4.3-13.4,13.3-11.5,22.8c0.3,1.4,0.6,2.7,1.1,4c0.9,3,1.9,6.1,1.1,9.3c-0.5,1.7-1.3,3.3-2.3,4.7c-0.6,0.8-1.1,1.7-1.5,2.6
		c-1.1,2.2-1.2,5.2,0.6,6.5c1.3,0.7,2.8,0.7,4.1,0c1.4-0.8,2.6-1.8,3.7-3l35.4-35.9c0.8-0.6,1.4-1.5,1.7-2.5c0.2-0.7,0-1.4-0.4-2
		c-0.9-0.8-3.4-0.2-5.2,0.2c-1.1,0.4-2.3,0.5-3.4,0.4c-1.8-0.5-2.9-2.2-3.9-3.7c-0.3-0.5-0.6-1-1-1.5c-1.3-1.8-3.1-3.1-5.1-4
		C47.6,75.8,46.3,75.6,45,75.5z"></path><path class="st0" d="M34.4,110.2c-1.7,0-3.2-1.5-4.2-3.1c-3.5-6.1-4-13.4-1.4-19.9c0.1-0.3,0.4-0.4,0.7-0.3c0,0,0,0,0,0
		c0.2,0.1,0.4,0.4,0.3,0.6c0,0,0,0,0,0c-2.5,6.2-2,13.2,1.3,19c0.9,1.5,2.4,3,3.9,2.5s1.8-2.2,1.7-3.8c-0.3-1.8-0.8-3.6-1.5-5.3
		c-0.2-0.4-0.3-0.8-0.5-1.2c-1.7-4.4-2.6-9.1-2.8-13.8c0-0.3,0.2-0.5,0.5-0.5c0,0,0,0,0,0c0.3,0,0.5,0.2,0.5,0.5
		c0.2,4.6,1.1,9.1,2.8,13.4c0.2,0.4,0.3,0.8,0.5,1.2c0.8,1.8,1.4,3.7,1.6,5.6c0.2,1.9-0.5,4.2-2.4,4.8
		C35,110.2,34.7,110.2,34.4,110.2z"></path><path class="st0" d="M49.5,94.4c-0.8,0-1.5-0.2-2.2-0.5c-1.8-0.9-3.2-2.3-4.1-4.1c-0.3-0.6-0.6-1.1-1-1.7c-0.5-1.1-1.2-2.1-1.9-3.1
		c-1-1.4-2.5-2.4-4.2-2.7c-0.3,0-0.5-0.3-0.5-0.5c0-0.3,0.3-0.5,0.5-0.5c0,0,0,0,0,0c2,0.3,3.8,1.4,4.9,3.1c0.7,1,1.4,2.1,2,3.2
		c0.3,0.6,0.6,1.1,0.9,1.7c0.8,1.6,2.1,2.9,3.6,3.7c1.4,0.6,3.4,0.6,4.5-0.8s0.6-3.4,0.4-4.3c-1.6-4.7-6.1-7.7-11-7.4
		c-0.3,0-0.5-0.2-0.5-0.5c0-0.3,0.2-0.5,0.5-0.5c5.4-0.3,10.3,3,12,8.1c0.7,1.7,0.5,3.6-0.5,5.2C52.1,93.9,50.8,94.4,49.5,94.4z"></path></g><g id="stair"><path class="st0" d="M50.8,279.8c-2.8,1.7-3.7,5.7-0.8,7.3c1.4,0.6,3,0.9,4.6,0.7l44.7-0.2c2.2,0,4.8-0.2,6-1.7s0.2-4.1-1.9-5.1
		s-4.6-1.2-7-1.3c-8.2-0.3-16.3-0.6-24.5-0.3C66.3,279.5,55.1,276.2,50.8,279.8z"></path><path class="st0" d="M149,375.2c-0.1,0.8-1.7,1-2.6,0.5c-0.8-0.4-1.4-1.2-1.7-2l-37.1-74.3c-1-1.9-8.9-15.4-6.5-16
		c4.4-1.1,9,11.9,10,14c6.3,12.2,12.4,24.4,18.4,36.6c3.3,6.9,6.6,13.8,9.9,20.6c1.6,3.5,3.3,7,4.9,10.4c0.8,1.7,1.6,3.4,2.3,5
		C147.2,371.4,149.2,374,149,375.2z"></path><path class="st0" d="M105.7,375.2c-0.2,0.8-1.7,1-2.6,0.5c-0.8-0.4-1.4-1.2-1.7-2l-37.1-74.2c-1-1.9-9-15.4-6.5-16
		c4.4-1.1,9,11.9,10,14c6.3,12.2,12.4,24.4,18.4,36.6c3.3,6.9,6.6,13.8,9.9,20.6c1.6,3.5,3.3,6.9,4.9,10.4l2.3,5
		C104,371.4,106,374,105.7,375.2z"></path><path class="st0" d="M114.2,308.7c2,0.4,1.9,4.5-0.1,4.7c-12.7,1.2-25.4,1.7-38.1,1.6c-1.5,0.1-3-0.2-4.4-0.9l0,0
		c-1.6-1-1-4.5,0.8-4.5c6.9,0.1,23.9,0.5,25.8,0.4C102.6,309.8,109,307.8,114.2,308.7z"></path><path class="st0" d="M126.6,333.4c2,0.4,1.9,4.5-0.1,4.7c-12.6,1.2-25.4,1.8-38.1,1.7c-1.5,0.1-3-0.2-4.4-0.9l0,0
		c-1.6-1-1-4.5,0.8-4.5c6.9,0.2,23.9,0.5,25.8,0.4C114.9,334.4,121.3,332.5,126.6,333.4z"></path><path class="st0" d="M138.4,355.7c2,0.3,1.9,4.5-0.1,4.7c-12.7,1.2-25.4,1.8-38.1,1.7c-1.5,0.1-3-0.2-4.4-0.9l0,0
		c-1.6-1-1-4.5,0.8-4.5c6.9,0.2,23.9,0.5,25.8,0.4C126.8,356.8,133.2,354.8,138.4,355.7z"></path><path class="st0" d="M8,376.8c0.1,0.8,1.7,1,2.6,0.5c0.8-0.4,1.4-1.2,1.7-2l38-76c1-2,9.1-15.8,6.6-16.4
		c-4.5-1.1-9.2,12.2-10.2,14.3c-6.4,12.5-12.7,25-18.8,37.5c-3.4,7-6.8,14.1-10.1,21.1c-1.7,3.6-3.3,7.1-5,10.7
		c-0.8,1.7-1.6,3.4-2.4,5.1C9.8,372.9,7.8,375.5,8,376.8z"></path><path class="st0" d="M52.3,376.8c0.2,0.8,1.7,1,2.6,0.5c0.8-0.4,1.4-1.2,1.7-2l38-76c1-2,9.2-15.8,6.6-16.4
		c-4.5-1.1-9.2,12.2-10.2,14.3c-6.4,12.5-12.7,25-18.8,37.5c-3.4,7-6.8,14.1-10.1,21.1c-1.7,3.6-3.3,7.1-5,10.7
		c-0.8,1.7-1.6,3.4-2.4,5.1C54.1,372.9,52.1,375.5,52.3,376.8z"></path><path class="st0" d="M44.8,304.3c-2.1,0.4-2,4.6,0.1,4.8c13,1.2,26,1.8,39,1.7c1.6,0.1,3.1-0.2,4.5-0.9l0,0c1.7-1.1,1-4.6-0.8-4.6
		c-7,0.2-24.4,0.5-26.4,0.4C56.7,305.4,50.2,303.4,44.8,304.3z"></path><path class="st0" d="M32.9,330.8c-2.1,0.4-2,4.6,0.1,4.8c13,1.2,26,1.8,39,1.7c1.6,0.1,3.1-0.2,4.5-0.9l0,0c1.7-1.1,1-4.6-0.8-4.6
		c-7,0.2-24.4,0.5-26.4,0.4C44.8,331.9,38.3,329.9,32.9,330.8z"></path><path class="st0" d="M19.2,355c-2.1,0.4-2,4.6,0.1,4.8c13,1.2,26,1.8,39,1.7c1.6,0.1,3.1-0.2,4.5-0.9l0,0c1.7-1.1,1-4.6-0.8-4.6
		c-7,0.2-24.4,0.5-26.4,0.4C31.1,356.1,24.6,354.1,19.2,355z"></path></g><g id="cone"><path class="st2" d="M138.6,335.2c-5.6,23.6-11.3,47.1-17,70.6c-4.7,0.9-7.7,6.9-5.5,11.2c1.5,2.5,4,4.3,6.8,4.9
		c2.8,0.6,5.7,0.8,8.6,0.6l34.6-0.6c4-0.1,8.6-0.4,11-3.6c2.2-2.9,1.6-7-1.3-9.2c-1.4-1.1-3.3-1.5-5-1.2c0.6-0.1-7.8-42.3-8.7-46.1
		c-1.7-7.7-3.5-15.5-5.5-23.2c-1-3.8-1.3-11.9-5.1-14.1C144.1,320.2,139.9,329.9,138.6,335.2z"></path><path class="st0" d="M129.4,423.5c-2.2,0.1-4.5-0.2-6.6-0.7c-3-0.7-5.7-2.6-7.2-5.3c-1.1-2.4-1.1-5.2,0.1-7.5c1-2.2,3-3.9,5.4-4.6
		l16.9-70.2l0,0c0.4-1.6,2.6-9.7,7.6-11.8c2.1-0.8,4.5-0.6,6.4,0.8c3.2,1.9,4.1,7.2,4.8,11.5c0.2,1.2,0.4,2.3,0.6,3.1
		c1.9,7.7,3.8,15.5,5.5,23.2c0.4,1.9,2.7,13.1,4.8,24.2c2.8,14.3,3.6,19.3,3.8,21.2c4-0.2,7.5,2.9,7.7,6.9c0.1,1.7-0.4,3.4-1.5,4.8
		c-2.5,3.3-7,3.9-11.6,3.9l-34.6,0.6C130.8,423.5,130.1,423.5,129.4,423.5z M139.4,335.5l-17,70.7c-0.1,0.3-0.3,0.5-0.6,0.6
		c-4,1-6.4,5-5.4,9c0.1,0.4,0.2,0.8,0.4,1.2c1.4,2.3,3.7,4,6.3,4.6c2.8,0.6,5.6,0.8,8.4,0.6l34.6-0.6c3.9-0.1,8.2-0.4,10.4-3.3
		c1.9-2.6,1.4-6.2-1.2-8.1c-1.3-1-2.9-1.3-4.5-1.1c-0.4,0.1-0.8-0.2-0.9-0.6c0-0.1,0-0.2,0-0.4c0-2.8-7.6-41.1-8.7-45.7
		c-1.7-7.7-3.5-15.5-5.5-23.1c-0.2-0.9-0.4-2-0.6-3.2c-0.6-3.7-1.5-8.9-4.1-10.4c-1.5-1-3.3-1.3-5-0.6
		C142.7,326.1,140.3,331.4,139.4,335.5L139.4,335.5z M170.6,407.4l-0.2,0C170.5,407.4,170.5,407.3,170.6,407.4L170.6,407.4z
		 M170.6,407.4L170.6,407.4z M121.7,405.9L121.7,405.9z"></path><path class="st1" d="M145.2,405.7c5.3-2.3,9.3-6.8,14.3-9.7c2-1.1,3.8-2.6,5.3-4.3c1.6-2.2-2.9-12-2.4-14.7
		c-11,6.2-21.6,13-31.9,20.2c-1.7,1.1-3.3,2.5-4.7,4c-0.9,1.1-2.8,4.2-1.5,5.5c1,1,5.4,0.7,6.7,0.8
		C135.9,407.9,140.8,407.6,145.2,405.7z"></path><path class="st1" d="M129.5,383.7l27-17.4c1.5-0.6,2.3-2.3,1.8-3.8l-1.4-12.3c-6.2,4.8-12.7,9.1-19.4,13.1c-1.2,0.7-3.2,1.4-4,2.6
		c-0.9,1.5-1,4.3-1.4,6c-0.5,2-0.9,4-1.4,6C130.6,379,130.2,383.2,129.5,383.7z"></path><path class="st1" d="M136.5,354.1c5-3.2,10.1-6.1,15.5-8.6c1.2-0.5,2.4-1.2,2.9-2.4c0.2-0.9,0.2-1.8,0-2.6l-1.4-7.8
		c0.2,0.9-6.6,3.7-7.4,4c-1.5,0.6-3.5,0.8-4.8,1.8c-1.7,1.3-1.9,3.9-2.4,5.9C138.1,347.6,137.3,350.8,136.5,354.1z"></path><path class="st0" d="M128.2,416h-1c-2.2,0-4.5-0.1-6.2-1.4c-1.1-0.8-1.8-2.1-1.9-3.5c-0.1-1,0.3-1.9,1.1-2.6c0.2-0.2,0.5-0.2,0.7,0
		c0.2,0.2,0.2,0.5,0,0.7c0,0,0,0,0,0c-0.5,0.5-0.8,1.1-0.7,1.8c0.1,1.1,0.6,2.1,1.5,2.7c1.5,1.1,3.6,1.2,5.6,1.2
		c6,0,12-0.3,17.8-0.5l22.8-1.1c2-0.1,4.3-0.3,5.5-1.9c0.2-0.2,0.5-0.3,0.7-0.1c0.2,0.2,0.3,0.5,0.1,0.7c-1.4,1.9-4,2.2-6.2,2.3
		l-22.8,1.1C139.6,415.7,133.8,416,128.2,416z"></path></g><g id="cone-2"><path class="st2" d="M366,331.5c-3,12.5-6,25-9,37.5c-2.3,0.6-3.7,2.9-3.2,5.2c0.1,0.2,0.1,0.5,0.2,0.7c0.8,1.3,2.1,2.3,3.6,2.6
		c1.5,0.3,3,0.4,4.6,0.4l18.4-0.3c2.1,0,4.6-0.2,5.8-1.9c1.2-1.6,0.8-3.7-0.7-4.9c-0.8-0.6-1.7-0.8-2.7-0.6c0.3,0-4.2-22.5-4.6-24.5
		c-0.9-4.1-1.9-8.2-2.9-12.3c-0.5-2-0.7-6.3-2.7-7.5C368.9,323.5,366.7,328.7,366,331.5z"></path><path class="st0" d="M361.1,378.8c-1.2,0-2.4-0.1-3.6-0.4c-1.7-0.4-3.2-1.5-4.1-3c-0.7-1.4-0.6-3,0.1-4.3c0.6-1.2,1.6-2.2,2.9-2.6
		l8.9-37.1c0.2-0.9,1.4-5.3,4.2-6.5c1.2-0.5,2.6-0.3,3.7,0.4c1.8,1.1,2.3,4,2.7,6.3c0.1,0.6,0.2,1.2,0.3,1.6c1,4.1,2,8.2,2.9,12.3
		c0,0.2,4,18.9,4.5,23.9c2.3,0,4.2,1.9,4.2,4.3c0,0.9-0.3,1.8-0.8,2.5c-1.6,2.1-4.7,2.2-6.4,2.2l-18.4,0.3L361.1,378.8z M370.9,326
		c-0.3,0-0.6,0.1-0.8,0.2c-1.7,0.7-2.9,3.4-3.4,5.5l0,0l-9,37.5c-0.1,0.3-0.3,0.5-0.6,0.6c-1,0.2-1.9,0.9-2.3,1.9
		c-0.5,0.9-0.5,2-0.1,3c0.7,1.2,1.8,2,3.1,2.2c1.4,0.3,2.9,0.4,4.4,0.3l18.4-0.3c2,0,4.2-0.2,5.2-1.6c0.9-1.2,0.6-2.9-0.6-3.8
		c-0.6-0.4-1.3-0.6-2.1-0.5l0,0c-0.4,0.1-0.8-0.2-0.9-0.6c0-0.1,0-0.2,0-0.3c-0.1-1.8-4-21.6-4.6-24.2c-0.9-4.1-1.9-8.2-2.9-12.3
		c-0.1-0.5-0.2-1.1-0.3-1.8c-0.3-1.9-0.8-4.6-2-5.3C372,326.2,371.4,326,370.9,326z M366,331.5L366,331.5z"></path><path class="st1" d="M369.5,369c2.8-1.2,5-3.6,7.6-5.1c1.1-0.6,2-1.4,2.8-2.3c0.8-1.2-1.5-6.4-1.3-7.8c-5.8,3.3-11.5,6.9-17,10.8
		c-0.9,0.6-1.8,1.3-2.5,2.1c-0.5,0.6-1.5,2.2-0.8,2.9c0.5,0.5,2.9,0.4,3.6,0.4C364.5,370.3,367.1,369.9,369.5,369z"></path><path class="st1" d="M361.1,357.3l14.4-9.2c0.4-0.2,0.7-0.5,0.9-0.9c0.1-0.4,0.2-0.8,0.1-1.2c-0.3-2.2-0.5-4.4-0.8-6.5
		c-3.3,2.5-6.7,4.8-10.3,6.9c-0.7,0.4-1.7,0.8-2.1,1.4c-0.4,1-0.6,2.1-0.7,3.2l-0.7,3.2C361.7,354.8,361.5,357,361.1,357.3z"></path><path class="st1" d="M364.8,341.5c2.6-1.7,5.4-3.2,8.2-4.5c0.7-0.2,1.2-0.7,1.5-1.3c0.1-0.5,0.1-0.9,0-1.4
		c-0.2-1.4-0.5-2.8-0.8-4.2c0.1,0.5-3.5,2-3.9,2.1c-0.9,0.2-1.8,0.5-2.5,1c-0.9,0.7-1,2.1-1.2,3.1
		C365.7,338.1,365.3,339.8,364.8,341.5z"></path><path class="st0" d="M360.4,374.6h-0.5c-1.2,0.1-2.4-0.2-3.4-0.8c-0.6-0.5-1-1.2-1.1-2c0-0.6,0.2-1.2,0.6-1.6
		c0.2-0.2,0.5-0.2,0.7,0c0,0,0,0,0,0c0.2,0.2,0.2,0.5,0,0.7c0,0,0,0,0,0c-0.2,0.2-0.3,0.5-0.3,0.8c0,0.5,0.3,1,0.7,1.3
		c0.9,0.5,1.9,0.7,2.9,0.6c3.1,0,6.4-0.1,9.5-0.3l12.1-0.6c1,0,2.2-0.2,2.7-0.9c0.2-0.2,0.5-0.3,0.7-0.1c0,0,0,0,0,0
		c0.2,0.2,0.3,0.5,0.1,0.7c-0.9,1.2-2.6,1.3-3.5,1.3l-12.1,0.6C366.5,374.5,363.4,374.6,360.4,374.6z"></path></g><g id="police-line"><path class="st2" d="M113.7,242.1c-0.1-2.4-0.4-11.5-0.6-22.1c0-0.5,0.4-0.9,0.9-1c0.2,0,0.3,0,0.5,0.1
		c40.7,22.9,73.6,55.4,106.8,88.2c0.4,0.4,0.4,0.9,0,1.3c-0.2,0.2-0.4,0.3-0.6,0.3c-9.8,0.5-31.8,0.4-35-0.8
		C182.3,306.8,113.7,244.6,113.7,242.1z"></path><path class="st0" d="M207.1,310c-9.4,0-19.5-0.3-21.6-1.2s-23.6-20-37.5-32.7c-23.2-21.2-35-32.6-35-34l0,0c0-0.6,0-1.6-0.1-3
		c-0.1-4.2-0.4-11.1-0.5-19.1c0-0.6,0.3-1.2,0.8-1.5c0.5-0.3,1.2-0.3,1.7,0c40.6,22.9,74.2,56,106.6,88l0.3,0.3
		c0.7,0.6,0.7,1.7,0,2.4c-0.3,0.3-0.7,0.5-1.1,0.5C217.4,309.9,212.3,310,207.1,310z M114.4,242c2,3.8,67.7,63.8,71.6,65.5
		c2.9,1.2,24.6,1.4,34.6,0.8c0.1,0,0.1,0,0.2-0.1c0-0.1,0-0.1-0.1-0.2l-0.3-0.3c-32.4-32-65.9-65-106.3-87.8c-0.1,0-0.1,0-0.2,0
		c-0.1,0-0.1,0.1-0.1,0.2c0.1,7.9,0.3,14.9,0.5,19C114.3,240.3,114.4,241.3,114.4,242z"></path><path class="st1" d="M118.8,245.3l13.2,10.9c0.3,0.3,0.7,0.5,1.2,0.5c0.5-0.1,0.7-0.6,0.9-1l6.5-17.2l-8-5.3
		c-1.3-0.9-6.2-5.3-7.7-4.9s-2.5,6.3-3,7.8L118.8,245.3z"></path><path class="st1" d="M145,269l15.7,14.6c4.4-5.8,8.4-11.9,12-18.3c-5.2-5.8-10.8-11.2-16.8-16.2C156,249.2,145.9,267.4,145,269z"></path><path class="st1" d="M173.7,294.9c4.8,2.3,7,8.6,12.2,10c1.6,0.3,3.3,0.4,5,0.1c6.4-0.7,12.8-1.9,19-3.7
		c-5.9-5.9-11.6-12.3-17.9-17.7c-1.8-1.5-1.8-1.7-3.8-0.5c-1.7,1.2-3.3,2.5-4.8,4L173.7,294.9z"></path><path class="st2" d="M414.2,282.3c0.8-15,1.5-30.5-3.5-44.4C407.9,229.8,351,94.5,348.2,93c-3-1.7-25.4-0.5-27.3-1.2
		c-3.2-1.2,12.8,39.8,17,51.1C346.4,165.7,401.7,273.1,414.2,282.3z"></path><path class="st0" d="M414.2,283c-0.2,0-0.3-0.1-0.4-0.1c-7.9-5.8-30.5-47.3-39.9-64.9c-16.3-30.6-32.4-63.5-36.7-74.8
		c-0.5-1.4-1.2-3.2-2-5.4c-14.3-37.7-16.3-45.2-15-46.5c0.3-0.3,0.7-0.4,1.1-0.2c3,0.2,5.9,0.3,8.9,0.2c9.4,0,16.7,0,18.5,1
		c0.5,0.3,2,1.1,31.5,70.4c15.2,35.6,29.9,71,31.4,75c5.1,14.3,4.2,30.5,3.5,44.7c0,0.3-0.2,0.5-0.4,0.6
		C414.5,283,414.4,283,414.2,283z M321.2,92.6c0.1,4.4,11.1,33.5,15.3,44.6c0.8,2.2,1.5,4,2,5.4c8.7,23.2,61,124.3,75,138
		c0.7-13.7,1.3-29.1-3.5-42.6c-3.1-8.8-58.6-140.4-62.2-144.6c-1.8-0.9-11.4-0.8-17.7-0.8C325.4,92.8,322.5,92.8,321.2,92.6
		L321.2,92.6z"></path><path class="st1" d="M334.2,121.2l20.2-2.7c0.6,0,1.1-0.2,1.6-0.6c0.5-0.7,0.2-1.7-0.2-2.4l-9.2-18.7c0,0.1-10.1,1.4-11.2,1.4
		c-3.9,0-7.6-1.1-11.4-1.3c0,3.9,2.5,8.7,4.1,12.3C329.9,113.3,331.9,117.3,334.2,121.2z"></path><path class="st1" d="M343.3,137.6c-1,0.1-1.8,0.6-2.5,1.2c-1.1,1.3-0.5,3.3,0.1,4.9c2.7,6.5,5.7,12.8,8.9,19
		c0.5,2.1,2.6,3.4,4.7,2.8c0.5-0.1,0.9-0.3,1.3-0.6l15.9-6.2c-3-7.4-5.3-16.1-9.4-22.9c-1.8-3-4-2-7-1.2L343.3,137.6z"></path><path class="st1" d="M365,183.7c-1.2,0.5-2.6,1.1-2.8,2.4c-0.1,0.9,0.1,1.7,0.6,2.4c3.6,7.2,7.8,14.1,12.4,20.8l14-7.4
		c0.7-0.4,1.5-0.9,1.8-1.7c0.1-0.7,0-1.4-0.4-2l-4.8-10.5c-1.1-2.4-2.1-6.3-4.4-8C377.2,176.7,368.9,182.1,365,183.7z"></path><path class="st1" d="M384.6,227.3c2.8,6.3,6.2,12.4,10.2,18.1l12.9-4.8c1.2-0.1,2-1.1,1.9-2.3c0-0.6-0.3-1.1-0.8-1.5l-5-7.6
		c-1.2-1.9-2.9-6.1-4.8-7.3S384.7,227.5,384.6,227.3z"></path></g><g id="character-2"><path class="st0" d="M416.3,210.3c-1.8,1.5-3.3,3.2-4.6,5.1c-11.7,15.1-27.6,26-44.1,30.2c-2.4,0.6-4.8,1.1-7,2.6s-4,4.2-3.8,6.9
		c0.2,2.6,2.3,4.7,4.9,5c2.4,0.3,5-0.6,7.4-1.4c10.9-4,21.9-8.1,31.9-14.9c8.1-5.4,14.8-12.6,19.7-20.9c1.5-2.6,4.2-6.6,3.7-9.8
		C423.7,208.8,419.3,208.1,416.3,210.3z"></path><path class="st2" d="M418.1,420c-0.8,0-1.7-0.1-2.5-0.4c-0.8-0.3-1.3-1.1-1.4-1.9c0-1.3,1.4-2.1,2.6-2.5c5.3-2.2,10.9-3.9,16.5-5
		c2.6-0.5,8.1-1.9,9.8,1C447.5,418.6,421.8,420.1,418.1,420z"></path><path class="st0" d="M418.1,420.8L418.1,420.8c-0.9,0-1.9-0.1-2.7-0.5c-1.1-0.4-1.8-1.4-1.8-2.6c0-2,2.3-3,3-3.2
		c5.4-2.2,10.9-3.9,16.6-5.1l0.5-0.1c2.9-0.6,8.2-1.7,10.1,1.5c0.8,1.1,0.8,2.5,0.1,3.7C440.5,420.4,418.5,420.8,418.1,420.8z
		 M438.8,410.1c-1.6,0.1-3.3,0.3-4.8,0.7l-0.5,0.1c-5.6,1.2-11.1,2.8-16.4,5c-1.4,0.6-2.1,1.2-2.1,1.9c0.1,0.6,0.5,1,1,1.2
		c0.7,0.3,1.4,0.4,2.1,0.3l0,0c3.6,0.1,21.9-1.1,24.5-5.6c0.4-0.7,0.3-1.5-0.1-2.2C441.8,410.4,440.4,410.1,438.8,410.1L438.8,410.1
		z"></path><path class="st2" d="M457.6,406.6c-2-0.1-4,0.8-5.3,2.3c-1.3,1.5-2.3,3.3-3,5.1l-3.4,7.6c-0.5,0.7-0.6,1.6-0.2,2.4
		c0.4,0.5,1.1,0.8,1.8,0.9c5,0.8,14.7,0.2,17.4-5.1C467,415.6,462.2,407.1,457.6,406.6z"></path><path class="st0" d="M451.2,425.9c-1.3,0-2.7-0.1-4-0.3c-0.9-0.1-1.7-0.5-2.3-1.2c-0.7-1.1-0.1-2.5,0.2-3.1l3.4-7.6
		c0.8-1.9,1.8-3.7,3.1-5.4c1.5-1.7,3.7-2.7,5.9-2.6l0,0c2.9,0.3,5.4,3.2,6.8,5.8c1.7,3.2,2.1,6.4,1,8.5
		C463.1,424.7,456.4,425.9,451.2,425.9z M457.1,407.3c-1.6,0.1-3.2,0.8-4.2,2.1c-1.2,1.5-2.2,3.2-2.9,5l-3.4,7.6
		c-0.3,0.6-0.5,1.3-0.3,1.7c0.3,0.3,0.8,0.5,1.2,0.5c5.3,0.9,14.2,0,16.6-4.7c0.9-1.7,0.5-4.4-1-7.2s-3.7-4.8-5.6-5L457.1,407.3z"></path><path class="st0" d="M462.9,411.5l-8.4,0.2l-13.2-90.9c-0.5-3.2-1.4-7-4.5-7.9c-2.6-0.8-5.4,1-6.6,3.4s-1.2,5.2-1.2,7.9
		c0.4,29.6,4.5,59.1,12,87.8l-7.9-0.6c-7-38.2-14-76.9-10.5-115.5c0.4-4.6,1.1-9.4,3.9-13c4.8-6.1,18.1-8.5,24.5-3.5
		c6.2,4.9,2.3,16.8,1.7,23.3C449.7,339.2,453.1,376.1,462.9,411.5L462.9,411.5z"></path><path class="st0" d="M437.2,313c-0.2,0-0.4-0.1-0.4-0.3c-4.4-8.6-6.6-18.2-6.3-27.8c0-0.3,0.2-0.5,0.5-0.5c0,0,0,0,0,0
		c0.3,0,0.5,0.2,0.5,0.5c0,0,0,0,0,0c-0.3,8.8,1.5,17.6,5.3,25.6c0.4-8.9,2.2-17.6,5.2-25.9c0.1-0.3,0.4-0.4,0.6-0.3
		c0.3,0.1,0.4,0.4,0.3,0.6c0,0,0,0,0,0c-3.3,8.9-5,18.2-5.2,27.6c0,0.2-0.2,0.4-0.4,0.5L437.2,313z"></path><path class="st2" d="M438.4,215.7c10.6,23.4,17,48.5,23.2,73.5c1,4,1.9,8.8-0.8,11.9c-2.3,2.7-6.2,3-9.7,3.1l-21.1,0.6
		c-4.8,0.1-10.1,0.1-13.7-3.1c-4.1-3.7-4.4-10-4.2-15.6c0.5-21.2,3.5-41.9,5.4-62.9c0.5-5-0.1-13.8,4.5-17
		C429.1,201.2,435.9,210,438.4,215.7z"></path><path class="st0" d="M427.9,305.6c-4.4,0-8.8-0.5-12-3.4c-4.2-3.8-4.6-10-4.5-16.2c0.4-14.8,1.9-29.5,3.4-43.8
		c0.7-6.3,1.3-12.7,1.9-19.1c0.1-0.9,0.1-1.9,0.2-3c0.2-5.2,0.5-11.7,4.7-14.6c1.9-1.4,4.5-1.9,6.8-1.3c4.8,1.3,8.7,6.8,10.7,11.1
		l0,0c10.7,23.6,17.1,49,23.3,73.7c1.2,4.6,1.9,9.3-1,12.6c-2.5,2.9-6.6,3.2-10.2,3.4l-21.1,0.6
		C429.4,305.6,428.6,305.6,427.9,305.6z M426.3,205.4c-1.4,0-2.7,0.5-3.8,1.3c-3.5,2.4-3.8,8.5-4,13.4c0,1.1-0.1,2.1-0.2,3
		c-0.6,6.4-1.3,12.9-1.9,19.2c-1.5,14.3-3.1,29-3.4,43.7c-0.1,5.8,0.2,11.7,4,15c3.3,3,8.1,3.1,13.1,3l21.1-0.6
		c3.5-0.1,7.1-0.4,9.1-2.8c2.4-2.8,1.7-7,0.6-11.3c-6.2-24.6-12.6-50-23.2-73.4l0,0c-2-4.3-5.7-9.2-9.7-10.3
		C427.5,205.5,426.9,205.4,426.3,205.4L426.3,205.4z"></path><path class="st2" d="M409.7,191c0.9,2.8,2.3,5.5,4.1,7.8c2,2.6,4.8,4.3,8,5c6,0.9,9.8-3.8,11.8-8.3c6.2-13.5,8.2-28.7,10.1-43.7
		c0.4-3,0.7-6.1-0.7-9.1c-1.6-3.2-5-5.8-8.6-7.3c-3.7-1.4-7.5-2.5-11.4-3.1c-5.9-1.1-12-2.2-17.3-0.9c-12.4,3.1-7.8,14.4-6.1,23.3
		C401.7,167.1,405.1,179.3,409.7,191z"></path><path class="st0" d="M423.3,204.7c-0.5,0-1.1,0-1.6-0.1c-3.4-0.7-6.4-2.5-8.5-5.3c-1.8-2.4-3.2-5.1-4.2-8c-4.5-11.8-8-24-10.3-36.4
		c-0.2-1.2-0.5-2.5-0.8-3.8c-1.8-8.2-3.9-17.5,7.5-20.4c5.6-1.4,12-0.2,17.6,0.9c3.9,0.6,7.8,1.6,11.5,3.1c4.2,1.8,7.5,4.6,9,7.7
		c1.6,3.3,1.2,6.8,0.8,9.5c-1.9,14.9-3.8,30.2-10.1,43.9C432.7,199.3,429.2,204.7,423.3,204.7z M411,131.6c-1.8,0-3.5,0.2-5.2,0.6
		c-10,2.5-8.2,10.3-6.4,18.6c0.3,1.3,0.6,2.6,0.8,3.8c2.3,12.3,5.7,24.4,10.2,36.1l0,0c0.9,2.7,2.3,5.3,4,7.6
		c1.9,2.4,4.5,4.1,7.5,4.7c5.7,0.9,9.1-3.8,11-7.9c6.2-13.5,8.1-28.7,10-43.4c0.3-2.7,0.7-5.8-0.7-8.7c-1.3-2.7-4.3-5.3-8.2-7
		c-3.6-1.4-7.4-2.4-11.2-3C418.9,132.3,415,131.8,411,131.6z"></path><path class="st0" d="M400.9,139.1c1.2,0.4,1.6,1.9,1.8,3.1c0.9,5,1.2,10.1,1,15.2c8.7-4.2,17.9-8.5,27.4-7.9
		c2.1,0.1,4.4,0.6,5.9,2.2s1.9,4.4,2,6.8l1,13.3c5.3-4.2,8.7-10.5,11.3-16.9c1.6-3.7,2.8-7.5,3.5-11.4c0.7-3.9,0.3-8-1.1-11.7
		c-2-4.4-5.7-7.9-10.2-9.8c-4.5-1.7-9.2-2.6-14-2.5c-10.4-0.1-20.8,1.9-31.1,4c-1.9,0.2-3.6,0.9-5.2,2c-2.1,1.9-2.8,5-1.5,7.5
		c-1.6-1.9-4.7-1.5-6.6,0.2s-2.8,4.2-3.6,6.7c-1.1,3.1-1.7,6.4-1.8,9.7c-0.1,3.3,1,6.5,3.1,9c2.1,2.4,5.5,3.3,8.6,2.2
		c-1.5-2.3-2.7-4.8-3.4-7.5c-0.7-2.7-0.2-5.7,1.4-8c0.8-1,1.9-1.7,3.2-2c1.1-0.3,2.3,0.2,3.4-0.1
		C398.1,142.5,398.1,138.1,400.9,139.1z"></path><path class="st2" d="M437,155.5c1-1.5,2.2-3.1,4-3.6c1.9-0.4,3.9,0.5,4.9,2.2c0.9,1.7,1.1,3.7,0.5,5.5c-1.2,3.7-4.7,6.2-8.6,6.2"></path><path class="st0" d="M437.9,166.5h-0.1c-0.4,0-0.8-0.3-0.8-0.8s0.3-0.8,0.8-0.8h0.1c3.5-0.1,6.6-2.3,7.8-5.7
		c0.6-1.6,0.4-3.4-0.4-4.9c-0.8-1.4-2.5-2.1-4.1-1.8c-1.5,0.4-2.5,1.8-3.6,3.3c-0.2,0.4-0.7,0.5-1,0.3s-0.5-0.7-0.3-1c0,0,0,0,0-0.1
		c0.9-1.3,2.3-3.4,4.4-3.9c2.2-0.5,4.5,0.5,5.7,2.5c1.1,1.9,1.3,4.1,0.6,6.2C445.8,163.8,442.1,166.5,437.9,166.5z"></path><path class="st0" d="M411.1,171.2c0,0.4,0.1,0.7,0.3,1c0.2,0.3,0.6,0.4,0.9,0.3c0.3-0.2,0.5-0.5,0.5-0.9c0.2-1,0.5-5.4-1.1-5.5
		C410,166,411,170.4,411.1,171.2z"></path><path class="st0" d="M418.8,171.8c0.1,0.5,0.3,1.2,0.8,1.3s1-0.4,1.2-1c0.5-1.7,0.5-3.4,0-5.1c0-0.3-0.1-0.7-0.3-1
		c-0.2-0.3-0.5-0.5-0.9-0.6C418.1,165.4,418.7,170.8,418.8,171.8z"></path><path class="st0" d="M420.8,192.9l5.6-4.1c1.2,1.9,1.8,4.2,0.6,5.9s-5.3,0.5-6.3-1.5"></path><path class="st0" d="M436.7,208.4c-2.1-0.4-4.1,0.9-4.5,2.9c-0.2,0.7-0.1,1.4,0.1,2.1c1.3,3.4,4.5,6.5,7.4,9l24.5,20.6
		c3.8,3.2,7.6,6.5,9.1,11.4c0.6,2,0.6,4.1,0,6.1c-2.1,6.3-9.3,6.9-14.8,5.1c-5-1.7-9.4-5.1-14.6-6.4l-3.6,13
		c12.7,4.4,26.1,6.2,39.5,5.3c2.5-0.1,4.9-0.9,7.1-2.2c7.3-4.6,5.4-12.5,2.6-18.7c-5.4-11.8-13.3-22.3-23.3-30.6
		c-5.1-4.2-10.6-7.9-16.4-10.9C445.3,212.7,441.5,209.4,436.7,208.4z"></path><path class="st2" d="M375.4,247.7c14.7-4.3,26.1-17,41.1-20c10.8,21.5,20.4,43.5,28.8,66c-9.1-3.4-19.4-2-28.7,0.9
		s-18.2,7.2-27.7,9.4s-20.1,2.2-28.4-3c-7.9-5-12.4-13.9-15.9-22.6c-5.8-14.2-13.3-32-13.8-47.6c3.1,1.9,5.3,6.2,8.3,8.7
		c3.3,2.8,7,5,11,6.6C358.1,249.5,367,250,375.4,247.7z"></path><path class="st0" d="M377.2,306.2c-6,0.2-12-1.4-17.1-4.6c-8.1-5.1-12.5-14.1-16.2-23l-0.5-1.1c-5.7-14-12.9-31.4-13.4-46.7
		c0-0.4,0.3-0.8,0.7-0.8c0.1,0,0.3,0,0.4,0.1c1.9,1.4,3.6,3,4.9,4.9c1,1.4,2.2,2.7,3.5,3.9c3.2,2.7,6.9,4.9,10.8,6.5
		c7.9,3.3,16.6,3.8,24.8,1.5l0,0c6.7-2,12.9-5.8,18.9-9.6c7-4.4,14.1-8.9,22.3-10.4c0.3-0.1,0.7,0.1,0.8,0.4
		c10.8,21.5,20.4,43.6,28.8,66.1c0.1,0.3,0,0.6-0.2,0.8c-0.2,0.2-0.5,0.3-0.8,0.2c-7.7-2.9-16.9-2.6-28.3,1
		c-3.8,1.2-7.5,2.6-11.1,3.9c-5.4,2.2-11,4-16.6,5.4C385.1,305.7,381.2,306.2,377.2,306.2z M331.7,232.4
		c0.9,14.6,7.7,31.2,13.2,44.6l0.5,1.1c3.5,8.7,7.9,17.4,15.6,22.3c7,4.5,16.9,5.5,27.8,2.9c5.6-1.4,11.1-3.3,16.5-5.4
		c3.6-1.4,7.4-2.8,11.2-4c10.9-3.4,20-3.9,27.7-1.4c-8.2-21.8-17.6-43.2-28-64c-7.7,1.6-14.6,6-21.3,10.1c-6,3.8-12.3,7.7-19.2,9.7
		l0,0c-8.5,2.4-17.6,1.8-25.7-1.5c-4.1-1.6-7.9-3.9-11.2-6.7c-1.4-1.2-2.6-2.6-3.7-4.1C333.9,234.7,332.8,233.5,331.7,232.4
		L331.7,232.4z"></path><path class="st2" d="M435.6,241.2c-2.6-2.5-6.5-4.7-9.6-2.9c-2.7,1.5-3.1,5.4-1.8,8.2s3.9,4.7,6.4,6.6c-8.5-2.1-17.5-0.8-25.2,3.5
		c-2.7,1.6-5.5,4.3-4.8,7.3c0.6,2.7,3.8,4,6.5,4.2s5.6-0.4,8.3,0.5c4.9,1.5,7.4,6.9,11.6,9.9c8.1,5.9,21.3,0.5,22.2-9.8
		C450,259.4,441.9,247.2,435.6,241.2z"></path><path class="st0" d="M434.8,281.7c-3,0-5.8-0.9-8.2-2.6c-1.6-1.3-3.1-2.7-4.4-4.3c-2.1-2.4-4.1-4.6-6.9-5.4
		c-1.7-0.4-3.4-0.5-5.1-0.4c-1,0.1-2,0.1-3,0c-2.9-0.2-6.5-1.5-7.2-4.8c-1-4.2,3.7-7.3,5.2-8.2c6.8-3.9,14.8-5.4,22.6-4.2
		c-1.7-1.3-3.1-3-4.1-4.9c-1.4-3-1-7.4,2.1-9.2c2.9-1.6,6.8-0.5,10.5,3c5.8,5.6,14.7,18.1,13.8,28.1c-0.6,5.1-3.9,9.5-8.6,11.5
		C439.3,281.2,437,281.6,434.8,281.7z M411.5,267.4c1.4,0,2.8,0.1,4.1,0.5c3.2,1,5.4,3.5,7.6,5.9c1.3,1.5,2.7,2.9,4.2,4.1
		c3.9,2.7,9,3.1,13.4,1c4.2-1.8,7.2-5.7,7.7-10.2c0.8-9-7.3-21.1-13.4-26.9l0,0c-1.2-1.1-5.4-4.7-8.7-2.8c-2.3,1.3-2.7,4.8-1.5,7.2
		c1.3,2.7,3.9,4.6,6.1,6.3c0.3,0.2,0.4,0.6,0.2,0.9c-0.2,0.3-0.5,0.5-0.9,0.4c-8.3-2.1-17.2-0.8-24.6,3.4c-1.2,0.7-5.2,3.3-4.5,6.5
		c0.5,2.3,3.3,3.5,5.9,3.6c0.9,0.1,1.9,0,2.9,0L411.5,267.4z"></path><path class="st0" d="M422.1,269.5c-2.3,0-4.6-0.2-6.8-0.6c-0.3,0-0.5-0.3-0.4-0.6s0.3-0.5,0.6-0.4c7.5,1.3,15.1,0.4,22.1-2.7
		c0.2-0.1,0.5,0,0.7,0.2s0,0.5-0.2,0.7c0,0,0,0-0.1,0C433,268.3,427.6,269.5,422.1,269.5z"></path><path class="st2" d="M329.5,250c2.1-1.1,4.5-1.1,6.6,0c2.1,1.1,3.8,2.7,5,4.6c1.1,1.6,1.8,3.4,2.1,5.3c0.2,1.9-0.5,3.8-1.9,5.2
		c5.3,1.2,8.4,7,9.1,12.5c0.4,1.8,0.1,3.6-0.8,5.1c-1.3,1.9-4,2.4-6.2,1.8c-2.2-0.8-4.1-2.2-5.6-3.9
		C333.1,275.6,320.1,255.4,329.5,250z"></path><path class="st0" d="M345.2,285.4c-0.7,0-1.4-0.1-2.1-0.3c-2.3-0.8-4.3-2.3-5.9-4.1c-3.8-4.1-12.9-17.9-11.6-26.2
		c0.3-2.3,1.6-4.3,3.6-5.4l0.4,0.6l-0.4-0.6c2.3-1.2,5-1.2,7.3,0c2.2,1.1,4,2.8,5.2,4.9c1.2,1.7,1.9,3.6,2.2,5.6
		c0.2,1.7-0.3,3.4-1.2,4.9c5,1.9,7.8,7.6,8.5,12.7c0.2,1.6,0.3,3.9-0.9,5.7C348.9,284.6,347.1,285.5,345.2,285.4z M332.7,249.9
		c-2.9,0-5.4,2.2-5.7,5.1c-1.2,7.7,7.7,21.2,11.2,25c1.4,1.7,3.2,3,5.2,3.7c1.8,0.5,4.2,0.2,5.4-1.5c0.9-1.4,0.8-3.3,0.7-4.6
		c-0.6-5-3.5-10.6-8.5-11.8c-0.4-0.1-0.7-0.5-0.6-0.9c0-0.2,0.1-0.3,0.2-0.4c1.2-1.2,1.8-2.9,1.6-4.5c-0.2-1.8-0.9-3.5-2-4.9
		c-1.1-1.8-2.7-3.4-4.6-4.4C334.8,250.2,333.7,250,332.7,249.9z"></path><path class="st0" d="M330.1,269.1c-0.3,0-0.5-0.2-0.5-0.4c0-0.3,0.2-0.5,0.4-0.6c0,0,0,0,0,0c3.8-0.4,7.5-1.7,10.8-3.7
		c0.2-0.1,0.5-0.1,0.7,0.1c0,0,0,0,0,0c0.1,0.2,0.1,0.5-0.1,0.7c0,0,0,0,0,0C338,267.4,334.2,268.7,330.1,269.1L330.1,269.1z"></path></g></svg>