<svg transform="scale(1)" version="1.1" id="Layer_1" xmlns="http://www.w3.org/2000/svg" xmlns:xlink="http://www.w3.org/1999/xlink" x="0px" y="0px" viewBox="0 0 500 500" xml:space="preserve" class="show_show__wrapper__graphic__5Waiy "><title>React</title><style type="text/css">
	.st0{fill:#FFFFFF;}
	.st1{fill:#111111;}
	.st2{fill:#128FFF;}
</style><g id="clouds"><g id="cloud_2"><path class="st0" d="M199.7,107.8l-176-2.1C24.4,99,30.3,93.4,37,93.6c3.9,0.1,7.7,1.9,11.7,1.2c1.3-0.2,2.6-0.8,3.6-1.6
			c3.7-3.3,1.4-8.8,1.5-13.5c0.2-7.9,9.1-14.4,16.7-12c-5.4-9.6-0.2-22.9,9.6-28s22.3-2.6,30.9,4.2c7.2-4.6,16.5-3.8,22.9,1.9
			c6,6,7.4,15.3,3.2,22.7c7.2,0.9,12.3,7.4,11.5,14.6c0,0,0,0,0,0c-0.6,5,4.2,9.1,8.9,7.1l0.1-0.1c3.6-1.6,6.8-4.3,10.7-5.2
			c2.6-0.6,5.4,0.2,7.4,2c1.6,1.6-0.6,4.4-2.5,3c-0.1-0.1-0.3-0.2-0.4-0.3c4.7,1.1,8.7,3.9,11.3,8c2.2-4.3,5.4-9.3,10.5-8.5
			c0.8,0.1,1.6,0.4,2.4,0.8c4.1,2.4,7,6,9.9,9.7c1.4,1.7,1.1,4.2-0.7,5.6c-0.7,0.6-1.6,0.9-2.5,0.9l0,0c-0.2,0.2-0.5,0.5-0.7,0.7
			c0,0.1-0.1,0.2-0.4,0.3C201.6,107.6,200.6,107.8,199.7,107.8z"></path><path class="st1" d="M199.8,108.5L199.8,108.5l-176.1-2.1c-0.4,0-0.7-0.3-0.7-0.7c0,0,0-0.1,0-0.1c0.8-7.2,7.1-12.9,14-12.8
			c1.6,0.1,3.3,0.3,4.9,0.7c2.2,0.6,4.4,0.8,6.7,0.6c1.2-0.2,2.3-0.7,3.2-1.4c2.3-2.1,2-5.3,1.6-8.7c-0.2-1.4-0.3-2.8-0.3-4.2
			c0.2-4.2,2.4-8.1,5.9-10.5c2.9-2.2,6.5-3.1,10.1-2.6c-1.8-4.3-2-9.2-0.6-13.6c1.7-5.9,5.8-11,11.2-13.9c9.4-4.9,21.9-3.3,31.3,4
			c7.4-4.4,16.9-3.5,23.4,2.2c6,6,7.6,15.1,3.9,22.7c7.1,1.4,11.9,8.1,11.1,15.3c-0.3,2.2,0.7,4.3,2.4,5.6c1.6,1.2,3.7,1.5,5.5,0.7
			h0.1c1.4-0.6,2.8-1.4,4.1-2.2c2.1-1.4,4.3-2.5,6.7-3.2c2.9-0.6,5.8,0.2,8,2.2c1,1,1,2.5,0.1,3.6c3.1,1.3,5.7,3.5,7.6,6.2
			c2.3-4.2,5.6-8.6,10.7-7.8c0.9,0.1,1.8,0.5,2.6,0.9c4.3,2.5,7.4,6.4,10.1,9.9c1.6,2.1,1.3,5-0.8,6.7c-0.8,0.6-1.7,1-2.7,1
			l-0.1,0.1l-0.3,0.3c-0.2,0.2-0.4,0.4-0.6,0.5C201.8,108.3,200.8,108.5,199.8,108.5z M202,107.1L202,107.1z M24.5,104.9l175.2,2.1
			l0,0c0.8,0,1.6-0.2,2.4-0.5h0.1c0,0,0.1-0.1,0.1-0.1l0.3-0.3c0.1-0.1,0.2-0.3,0.4-0.4c0.1-0.1,0.3-0.2,0.5-0.2
			c1.8,0,3.3-1.4,3.3-3.2c0-0.7-0.2-1.5-0.7-2c-2.6-3.3-5.6-7.1-9.6-9.5c-0.6-0.4-1.3-0.6-2.1-0.8c-4.6-0.7-7.6,4-9.8,8.1
			c-0.1,0.2-0.4,0.4-0.6,0.4c-0.3,0-0.5-0.1-0.7-0.3c-2-3.2-5.1-5.7-8.6-7c-0.7,0.2-1.5,0-2.1-0.4c-0.2-0.1-0.3-0.3-0.5-0.4
			c-0.3-0.3-0.3-0.8,0-1.1c0.2-0.2,0.4-0.3,0.7-0.2c0.6,0.1,1.2,0.3,1.8,0.5c0.1-0.1,0.3-0.2,0.4-0.3c0.5-0.4,0.5-1.2,0-1.6
			c0,0,0,0,0,0c-1.8-1.6-4.3-2.3-6.7-1.8c-2.3,0.6-4.4,1.6-6.3,2.8c-1.4,0.8-2.8,1.6-4.2,2.2h-0.1c-2.3,1-5,0.6-7-0.9
			c-2.2-1.6-3.3-4.3-3-7c0.8-6.8-4-13-10.8-13.8c0,0,0,0,0,0c-0.3,0-0.5-0.2-0.6-0.4c-0.1-0.2-0.1-0.5,0-0.7
			c3.9-7.1,2.7-16-3.1-21.8c-6.1-5.4-15-6.2-21.9-1.8c-0.3,0.2-0.6,0.2-0.9,0c-9-7.1-21.1-8.8-30.1-4.1c-5.1,2.8-8.8,7.5-10.5,13
			c-1.5,4.6-1.1,9.7,1.2,14c0.1,0.3,0.1,0.6-0.1,0.8c-0.2,0.2-0.5,0.3-0.8,0.2c-6.9-1.6-13.7,2.6-15.3,9.5c-0.1,0.6-0.2,1.2-0.3,1.8
			c0,1.3,0.1,2.7,0.3,4c0.4,3.6,0.9,7.3-2,10c-1.1,1-2.5,1.6-4,1.8c-2.4,0.3-4.9,0.1-7.2-0.6c-1.5-0.4-3.1-0.6-4.6-0.7
			C31,94.2,25.6,98.9,24.5,104.9z"></path></g><g id="cloud_1"><path class="st0" d="M116,271.7h370.5c3.9-6.3-1.9-15.3-8.4-18.8s-14.3-4.1-21.1-7.1s-12.4-8.4-19-12s-15.3-5.2-21.2-0.6
			c10.8-6.7,14-20.9,7.3-31.7c-4.8-7.7-13.7-11.8-22.6-10.6c4.1-13.3-3.4-27.5-16.7-31.6c-3.4-1-6.9-1.4-10.4-1
			c1.2-11.8-10.6-21.4-22.3-23.6c-23.8-4.5-46.8,11.3-51.2,35.1c-0.8,4.3-1,8.8-0.5,13.2c-12.7-0.2-24.5,10.7-25.5,23.3
			c-0.4,4.7,0.5,10-2.3,13.8c-3.6,4.9-11.4,4.5-16.7,1.3s-9.2-8.2-14.2-11.6s-12.5-4.9-17-0.8c-9.4-12.3-27.9-16.8-41.9-10.1
			s-22.2,23.7-18.6,38.8c-7.5,3.1-13,9.7-14.7,17.6l-8,3.2c-9.2-5.8-18.5-7-21.4,3.5C120.8,260.5,115.3,273.4,116,271.7"></path><path class="st1" d="M116,272.6c-0.1,0-0.2,0-0.3-0.1c-0.3-0.1-0.5-0.2-0.3-1h-0.1v-0.1c0-0.1,0.1-0.1,0.1-0.2
			c0.3-0.8,0.8-2.2,1.8-4.5c0.8-1.9,1.7-4,2-4.6l0,0c1.1-4,3.2-6.6,6.1-7.8c5.1-2,11.5,0.8,16,3.7l7.3-2.9
			c1.8-7.8,7.2-14.3,14.5-17.5c-3.3-15.3,5-32.4,19.2-39.1s32.5-2.4,42.3,9.7c4.9-3.9,12.3-2.2,17.3,1.2c2.3,1.7,4.5,3.5,6.5,5.4
			c2.3,2.3,4.9,4.4,7.7,6.1c5.1,3,12.4,3.4,15.7-1.1c2-2.7,2-6.1,2-9.8c0-1.2,0-2.4,0.1-3.6c0.9-12.7,12.7-23.7,25.4-24
			c-2.4-24.5,15.5-46.4,40.1-48.8c4.2-0.4,8.4-0.2,12.6,0.5c11.7,2.2,23.6,11.7,23,23.4c14.3-1.2,26.9,9.5,28,23.8
			c0.2,2.9,0,5.9-0.8,8.7c10.3-0.9,20.9,5.8,24.4,15.6c3,8.2,0.7,18-5.2,24.4c5.6-1.3,11.9,0.4,16.6,3.1c2.8,1.6,5.6,3.4,8.2,5.4
			c5.9,4.8,12.8,8.1,20.2,9.6c4,0.9,7.9,2.3,11.7,4.1c4.6,2.5,8.1,6.7,9.7,11.8c0.8,2.7,0.5,5.7-1,8.1c-0.1,0.2-0.4,0.4-0.6,0.4
			H116.4C116.3,272.5,116.1,272.6,116,272.6z M117.2,270.9h368.9c1-2,1.3-4.4,0.6-6.6c-1.5-4.6-4.7-8.5-8.9-10.8
			c-3.6-1.7-7.4-3.1-11.3-3.9c-3.3-0.8-6.6-1.8-9.7-3.1c-3.9-1.9-7.6-4.1-11-6.8c-2.6-1.9-5.3-3.7-8.1-5.3
			c-5.6-3.1-13.3-4.9-19.1-1.5c-0.4,0.3-0.9,0.6-1.4,0.9c-0.3,0.2-0.8,0.2-1-0.2c-0.2-0.3-0.2-0.8,0.2-1c0.5-0.4,0.9-0.7,1.4-1
			c7.6-5.7,11-16.6,7.8-25.5c-3.8-9.7-13.6-15.6-23.9-14.5c-0.3,0-0.5-0.1-0.7-0.3c-0.2-0.2-0.2-0.5-0.1-0.7
			c4-12.9-3.2-26.6-16.1-30.6c-3.3-1-6.7-1.3-10.1-0.9c-0.2,0-0.5-0.1-0.6-0.2c-0.2-0.2-0.2-0.4-0.2-0.6
			c1.2-11.3-10.4-20.6-21.7-22.7c-23.4-4.4-46,11-50.4,34.5c-0.8,4.3-1,8.7-0.4,13c0,0.2,0,0.4-0.2,0.6c-0.2,0.1-0.4,0.2-0.6,0.2
			H300c-12.1,0-23.5,10.5-24.4,22.6c-0.1,1.1-0.1,2.4-0.1,3.5c0,3.7-0.1,7.6-2.3,10.6c-3.8,5.2-12,4.9-17.7,1.5
			c-2.9-1.8-5.5-3.9-7.9-6.3c-2-1.9-4.1-3.7-6.4-5.3c-4.9-3.3-12-4.7-16.1-0.8c-0.2,0.1-0.4,0.2-0.6,0.2c-0.2,0-0.4-0.1-0.5-0.3
			c-9.2-12.1-27.2-16.4-41-9.9s-21.7,23.2-18.2,38c0.1,0.4-0.1,0.7-0.4,0.9c-7.2,3-12.5,9.4-14.2,17c-0.1,0.2-0.2,0.4-0.4,0.5
			l-8,3.2c-0.2,0.1-0.5,0.1-0.7-0.1c-6.1-3.8-11.4-5.1-15-3.7c-2.5,1-4.2,3.2-5.2,6.7l0,0v0.1c0,0.1-0.1,0.1-0.1,0.2
			c-0.3,0.8-0.8,2.2-1.8,4.5C118.2,268.5,117.5,269.9,117.2,270.9L117.2,270.9z"></path></g></g><g id="flag"><path class="st2" d="M117.2,141.3c-8.4,4.1-15.2,10.7-23.2,15.4s-18.2,7.6-26.5,3.4c-5-2.5-8.5-7.1-12.7-10.6
		c-6.5-5.4-14.8-8.2-23.3-8c-5.3,0.2-11,1.9-13.8,6.4c-2,3.2-2.2,7.2-2.2,11c-0.3,18.5,0.2,36.9,1.3,55.4c0.2,2.7,0.5,5.7,2.5,7.5
		c2.8,2.5,7.2,1.3,10.3-0.7s5.8-4.9,9.4-5.8c6.1-1.6,12,3,15.8,8s6.6,11,11.8,14.5c8.1,5.5,19.2,3.2,27.6-1.8s15.3-12.1,23.7-17
		s19.6-7.1,27.6-1.5c-0.4-0.3,4.8-26.5,5-29.2c0.7-10.4,0.4-20.8-1.1-31.1c-0.9-6.4-1.1-14-7.6-17.1
		C134.1,136.5,124.5,137.8,117.2,141.3z"></path><path class="st1" d="M142.2,367.3c0,1.4,0.4,3.1,1.7,3.2s1.8-1.7,1.9-3.1c5.6-64.8,7.9-129.9,7.1-194.9c-0.1-5.5,2.2-39.8-3.1-41.1
		c-8.4-2.1-7.7,26.2-7.8,29.6c-1,32.4-1.6,64.8-1.6,97.2C140.4,294.6,141,331,142.2,367.3z"></path></g><g id="rock"><path class="st0" d="M190.3,350.5c10.9,2.2,21.1,7.2,32,8.8s22.9-0.2,33.1,4.3c13.3,5.8,20.7,20.8,33.9,26.8
		c12.5,5.7,27.2,2,40.7,4.7c13.2,2.6,24.6,11.3,33.1,21.8s14.4,22.8,20.3,34.9c1.3,2.7,2.6,6.1,0.9,8.6s-5,2.5-7.8,2.5L24,456.5
		c-3.6-0.1-7.6-0.3-10-3c-3.4-3.9-1.2-9.9,1.2-14.5c6.8-13.1,14.6-27.1,28-33.3c10-4.6,22.1-4.3,30.8-10.9
		c16.3-12.3,17.1-38,41.3-40.3C139.1,352.2,166.8,345.8,190.3,350.5z"></path><path class="st1" d="M377.2,463.7h-0.7L24,457.2c-3.8-0.1-8-0.4-10.5-3.3c-2.9-3.3-2.5-8.3,1.1-15.4C22,424.3,29.8,411,43,404.9
		c4.2-1.8,8.6-3.1,13.1-4c6.5-1.5,12.5-3,17.5-6.8c6.2-4.7,10.1-11.4,14-17.9c6.1-10.4,12.5-21.1,27.7-22.6
		c6.1-0.6,12.3-1.4,18.8-2.3c19-2.5,38.7-5.2,56.3-1.6c5,1.1,9.8,2.5,14.6,4.2c5.6,2,11.4,3.6,17.3,4.6c3.9,0.5,7.9,0.8,11.9,0.9
		c7.2,0.3,14.7,0.5,21.5,3.5c6.7,2.9,12.2,8.4,17.3,13.6c5,5,10.1,10.3,16.5,13.2c7.3,3.3,15.3,3.4,23.7,3.5
		c5.6,0,11.3,0.1,16.8,1.2c15.5,3,26.8,13.7,33.6,22c8.6,10.6,14.6,23,20.4,35.1c1.4,2.9,2.8,6.6,0.8,9.4
		C383.3,463.3,380.2,463.7,377.2,463.7z M171.4,349.6c-12.1,0-24.7,1.7-37.1,3.3c-6.6,0.9-12.8,1.7-18.9,2.3
		c-14.4,1.4-20.3,11.3-26.6,21.8c-3.9,6.6-8,13.5-14.3,18.3c-5.3,4-11.8,5.5-18.1,7c-4.4,0.9-8.7,2.2-12.8,3.9
		c-12.8,5.9-20.4,18.9-27.7,33c-3.4,6.4-3.8,10.9-1.3,13.7c2.1,2.4,5.8,2.7,9.4,2.8l352.5,6.5c2.9,0,5.8-0.2,7.2-2.2
		c1.5-2.2,0.4-5.2-0.9-7.9c-5.8-12-11.7-24.3-20.2-34.8c-9.4-11.6-21-19.2-32.7-21.5c-5.4-1-11.1-1.1-16.6-1.1
		c-8.2-0.1-16.7-0.1-24.3-3.6c-6.7-3-11.9-8.3-17-13.5s-10.3-10.4-16.9-13.3s-13.8-3.1-20.9-3.4c-4-0.1-8-0.4-12-0.9
		c-6-1.1-11.8-2.6-17.5-4.7c-4.8-1.7-9.6-3.1-14.5-4.1C184,350.1,177.7,349.5,171.4,349.6z"></path><path class="st1" d="M121.3,365.2c8.1-3.1,17-3.5,25.8-3.8c11.5-0.4,24.2-0.4,32.7,7.3c6.6,6,9.8,16,18,19.5
		c6.4,2.8,13.7,0.7,20.6,0.9c7.2,0.3,14.1,3.1,19.4,7.9c2.7,2.5,2.9,6.7,0.4,9.4c-0.9,1-2.1,1.7-3.4,2c-13.4,3.2-27.5,3.3-41.3,3.2
		c-30.6-0.2-61.2-0.6-91.8-1.3c-1.8,0-3.6-0.3-5.2-1C78,401.4,111.5,369,121.3,365.2z"></path><path class="st1" d="M300.2,427.4c2.7-1.9,5.7-3.6,9-3.6c5.8,0,10.1,5,13.6,9.6c1.8,2.3,3.5,4.7,4.3,7.5s0.4,6.1-1.8,8
		s-5.6,2-8.6,1.8l-24.1-1.3C273.9,448.5,294.6,431.3,300.2,427.4z"></path><path class="st1" d="M53.6,389.7c4.3-6.9,10.4-13,18-15.9c7.2-2.7,15.1-2.3,22.1,0.9c0.7,3.7,0,7.6-2.1,10.7
		c-2.1,3.1-4.7,5.9-7.7,8.1c-8.7,6.9-19.4,12.8-30.3,15.4C38.9,412.4,49.2,396.8,53.6,389.7z"></path><path class="st1" d="M48,427.1c6.7-2.5,14.3-1.4,19.9,3c2.7,2.1,4.9,5.6,3.6,8.7c-1.1,2.9-4.5,4-7.5,4.6c-5.7,1.1-21.6,4.7-26-0.7
		C33.2,436.8,43.1,429,48,427.1z"></path></g><g id="character"><path class="st2" d="M288.6,160.5c-14.8,2.6-29.4,11.2-35.2,25c-4.8,11.6-2.9,24.7-3.4,37.2c-0.6,14.3-4.1,30.7,5.5,41.4
		c5.4,6,13.8,8.5,21.8,10c12.3,2.4,24.9,3.3,37.5,2.7c7.1-0.3,15-1.5,19.7-6.9c5-5.8,4.5-14.4,3.8-22c-2.2-23.7-2.9-48.1-6.8-71.5
		C328,156,305.5,157.5,288.6,160.5z"></path><path class="st0" d="M316.1,270.5L316.1,270.5c-0.3,0-0.6-0.2-0.6-0.5c0-0.3,0.2-0.5,0.5-0.5c3.9,0.1,6.8-3.3,7.9-6.4
		c1.3-3.6,1.1-7.6,0.9-11.2c-0.9-15.8-1.9-32-2.9-48s-2.7-31.3-12.2-42c-0.2-0.2-0.2-0.5,0-0.7c0,0,0,0,0,0c0.2-0.2,0.5-0.2,0.7,0
		c0,0,0,0,0,0c9.7,10.9,11.4,26.4,12.5,42.6c1,16,2,32.2,2.9,48c0.2,3.7,0.5,7.8-0.9,11.6C323.6,266.9,320.3,270.5,316.1,270.5z"></path><path class="st1" d="M316.1,271.2L316.1,271.2c-0.7,0-1.3-0.6-1.3-1.2c0,0,0,0,0,0c0-0.4,0.2-0.7,0.4-0.9c0.2-0.2,0.6-0.3,0.9-0.3
		h0.1c3.4,0,6-3.1,7.1-5.9c1.2-3.4,1-7.4,0.8-10.9c-1-15.9-1.9-32-2.9-48s-2.7-31-12-41.6c-0.2-0.2-0.3-0.6-0.3-0.9
		c0-0.3,0.2-0.6,0.4-0.9c0.5-0.5,1.3-0.4,1.8,0.1c0,0,0,0,0,0c9.9,11.1,11.6,26.7,12.7,43.1c1,16,2,32.2,2.9,48
		c0.2,3.7,0.5,8-1,11.9C324.2,267.3,320.7,271.2,316.1,271.2z M316.1,270.2L316.1,270.2z M316,270.2L316,270.2z M316,269.8v0.5l0,0
		V269.8L316,269.8z"></path><path class="st0" d="M129.7,229.9c1.9-1.6,4.3-2.4,6.7-2.2c5.6,0.2,10.7,3.4,13.5,8.3c1.7,3,2.1,7.2-0.4,9.6
		c-1.6,1.3-3.6,1.9-5.6,1.6c-2-0.3-3.9-0.9-5.8-1.7c3.6,1.5,6.5,4.1,8.4,7.5c1,1.8,1.6,4.1,0.6,5.8c-1.3,2.1-4.3,2.2-6.6,1.6
		c-4.8-1.3-8.8-4.6-10.9-9.1c-2.1-4.6-0.6-7.9-0.7-12.5C128.9,235.7,126.9,232.7,129.7,229.9z"></path><path class="st1" d="M142.8,261.5c-0.9,0-1.7-0.1-2.5-0.3c-5-1.3-9.2-4.8-11.4-9.4c-1.6-3.4-1.3-6.1-1-9c0.2-1.3,0.2-2.6,0.2-3.9
		c0-0.9-0.1-1.8-0.3-2.6c-0.4-2.2-0.9-4.7,1.4-6.9l0,0c2-1.8,4.6-2.6,7.3-2.4c5.9,0.3,11.2,3.5,14.1,8.7c1.7,3.2,2.3,7.8-0.6,10.5
		c-1.7,1.5-4,2.1-6.2,1.8h-0.4c1.5,1.3,2.8,2.9,3.7,4.7c0.8,1.5,2,4.3,0.5,6.6C146.6,260.8,144.7,261.7,142.8,261.5z M130.2,230.4
		c-1.7,1.7-1.3,3.5-0.9,5.5c0.2,1,0.3,1.9,0.4,2.9c0,1.3-0.1,2.7-0.3,4c-0.3,2.8-0.5,5.2,0.9,8.2c2,4.3,5.8,7.4,10.4,8.6
		c2,0.5,4.7,0.5,5.8-1.3s0-4.1-0.6-5.1c-1.8-3.2-4.6-5.7-8-7.1c-0.4-0.2-0.6-0.6-0.4-1c0,0,0,0,0,0c0.2-0.4,0.6-0.6,1-0.4
		c0,0,0,0,0,0l0,0c1.8,0.8,3.6,1.4,5.5,1.7c1.8,0.3,3.6-0.2,5-1.4c2.3-2.2,1.7-6,0.3-8.7c-2.6-4.7-7.5-7.7-12.8-7.9
		C134.9,228.4,132.1,228.5,130.2,230.4L130.2,230.4z"></path><path class="st0" d="M195.2,355.4c-1.6,0.4-3.1,1-4.4,2c-1.3,1-2,3-1.1,4.3c0.7,1.1,2.2,1.5,3.6,1.6c7.5,1.1,15.1,1.1,22.6,0.1
		c2.9-0.4,6-1.1,7.6-3.5c1.3-2.1,1-4.8,0.6-7.3l-1.7-11.4c-0.4-2.7-1.6-8.1-5.5-7.6c-3,0.4-3.7,5.4-4.9,7.6
		C208.4,347.9,202.4,353,195.2,355.4z"></path><path class="st1" d="M205.1,364.9c-4,0-8-0.3-12-0.8c-1.6-0.2-3.2-0.6-4.1-2c-1.1-1.8-0.3-4.1,1.2-5.3c1.2-0.9,2.6-1.5,4-1.9
		l0.7-0.2l0,0c7-2.4,12.8-7.3,16.3-13.8c0.4-0.7,0.7-1.5,0.9-2.2c0.9-2.4,1.9-5.4,4.6-5.8c2.3-0.3,5.2,0.9,6.3,8.2l1.7,11.4
		c0.4,2.8,0.7,5.6-0.7,7.9c-1.7,2.7-5.3,3.5-8.1,3.9C212.4,364.7,208.8,364.9,205.1,364.9z M195.5,356.1l-0.7,0.2
		c-1.3,0.3-2.4,0.8-3.5,1.6c-1,0.8-1.6,2.3-0.9,3.3s1.8,1.1,3,1.3c7.4,1.1,15,1.1,22.4,0.1c2.7-0.4,5.7-1,7.1-3.2
		c1.2-1.8,0.9-4.3,0.5-6.8l-1.7-11.4c-0.5-3.4-1.8-7.4-4.6-7c-1.8,0.2-2.6,2.7-3.4,4.8c-0.3,0.8-0.6,1.6-1,2.4
		C208.9,348.4,202.8,353.6,195.5,356.1L195.5,356.1z"></path><path class="st0" d="M304.8,396.5c-0.4,1.8-0.9,3.9,0,5.5c1.2,2.5,4.4,3.1,7.1,3.3c4.3,0.3,8.5,0.3,12.8-0.1
		c2.6-0.2,5.3-0.7,7.4-2.2s3.3-4.6,2-6.9c-1.5-2.6-5.1-2.9-7.5-4.6c-2.8-2-3.8-5.8-4-9.3c-0.2-3,0-6.2-1.7-8.7
		c-3.2-4.9-9-3.2-11,1.1C307,381,306.4,389.7,304.8,396.5z"></path><path class="st1" d="M317.5,406.3c-1.9,0-3.8-0.1-5.7-0.2c-2.6-0.2-6.3-0.8-7.7-3.7c-0.9-1.9-0.5-3.9,0-6l0,0
		c0.5-2.2,0.9-4.6,1.4-7.1c0.9-5.2,1.8-10.5,3.8-15c1.1-2.5,3.4-4.2,6.1-4.5c2.5-0.2,4.9,1.1,6.2,3.3c1.5,2.3,1.6,5,1.7,7.6
		c0,0.5,0,1,0.1,1.4c0.2,4.2,1.5,7.1,3.7,8.7c0.9,0.6,1.9,1.1,2.9,1.5c1.9,0.8,3.8,1.6,4.8,3.4c1.5,2.7,0,6.1-2.2,7.8
		s-5,2.1-7.8,2.4C322.3,406.2,319.9,406.3,317.5,406.3z M305.5,396.7L305.5,396.7c-0.4,1.9-0.8,3.6-0.1,5c0.8,1.7,2.9,2.6,6.5,2.9
		c4.2,0.3,8.5,0.3,12.7-0.1c2.5-0.2,5.1-0.6,7-2.1c1.7-1.3,2.9-3.9,1.8-5.9c-0.8-1.4-2.4-2.1-4.1-2.8c-1.1-0.4-2.2-1-3.2-1.6
		c-2.6-1.8-4-5.1-4.3-9.9c0-0.5,0-1-0.1-1.5c-0.1-2.4-0.2-5-1.5-6.9c-1-1.7-2.8-2.8-4.8-2.6c-2.2,0.3-4,1.6-4.9,3.6
		c-1.9,4.2-2.8,9.5-3.7,14.6C306.5,392,306,394.4,305.5,396.7L305.5,396.7z"></path><path class="st0" d="M267.8,87.5c6.1-2.5,13.5-3.5,18.9,0.2c6.4,4.4,7.5,13.2,7.9,20.9c0.9,14.8,1.8,29.5,2.8,44.3
		c0.2,3.3,0.4,6.6-0.6,9.7s-3.5,5.9-6.8,6.4c-3.7,0.5-7-2.2-9.7-4.9c-12-11.9-21.6-25.9-28.4-41.4c-2.6-5.8-7.8-14.4-3.9-20.3
		C252.4,95.8,260.7,90.4,267.8,87.5z"></path><path class="st1" d="M289.2,169.7c-3.6,0-6.7-2.6-9.3-5.2c-12-12-21.7-26.1-28.6-41.6c-0.4-0.8-0.8-1.8-1.3-2.7
		c-2.7-5.7-6.1-12.9-2.6-18.3c4.6-7,13.4-12.4,20.1-15.2l0,0c4.5-1.8,13-4.2,19.6,0.3s7.8,13.5,8.3,21.5l2.8,44.3
		c0.2,3.1,0.4,6.7-0.6,10c-1.2,3.8-4.1,6.5-7.4,6.9C289.8,169.7,289.5,169.7,289.2,169.7z M268.1,88.2L268.1,88.2
		c-6.5,2.6-15,7.9-19.4,14.6c-3.1,4.7,0.1,11.4,2.7,16.8c0.5,1,0.9,1.9,1.3,2.8c6.8,15.4,16.4,29.3,28.2,41.2
		c2.6,2.6,5.7,5.1,9.1,4.7c3-0.4,5.3-3.2,6.1-5.9c1-3,0.8-6.3,0.6-9.4l-2.8-44.3c-0.5-7.6-1.5-16.1-7.6-20.3
		C281.9,85.3,275.3,85.2,268.1,88.2z"></path><path class="st1" d="M279.2,124.2c-0.1-0.5-0.5-0.8-1-0.7c0,0-0.1,0-0.1,0c-0.5,0.2-0.9,0.7-0.9,1.2c-0.1,0.5,0,1.1,0.1,1.6
		l0.4,2.1c0,0.5,0.3,1,0.6,1.4c1.1,1,1.7-0.5,1.6-1.4C279.7,127.1,279.3,125.7,279.2,124.2z"></path><path class="st1" d="M280.3,156c0.8,1.3,2.2,2,3.7,2c1.5-0.1,2.6-1.4,2.5-2.9c0,0,0-0.1,0-0.1c0-0.4-0.3-0.7-0.6-0.8
		c-0.3-0.1-0.6-0.1-0.8,0c-1.9,0.3-3.1-0.6-4.8-0.8C278.3,153.2,279.5,155,280.3,156z"></path><path class="st1" d="M288.1,123.5c-0.1-0.5-0.6-0.8-1.1-0.7c0,0-0.1,0-0.1,0c-0.5,0.2-0.9,0.7-0.9,1.2c-0.1,0.5,0,1.1,0.1,1.6
		c0.1,0.7,0.3,1.4,0.4,2.1c0.1,0.5,0.3,1,0.6,1.5c1.1,1,1.7-0.5,1.6-1.4C288.6,126.3,288.2,124.9,288.1,123.5z"></path><path class="st1" d="M286.8,96.7c-0.9,0.8-0.7,2.3-0.5,3.5c1.1,4.8,2.6,9.4,4.7,13.8c-9.5,0-19.5,0-27.9,4.5
		c-1.9,1-3.8,2.4-4.5,4.4c-0.8,2.2-0.1,4.6,0.6,6.8c1.3,4,2.6,8,3.9,12.1c-6.4-1.5-11.8-5.7-16.5-10.1c-2.8-2.5-5.3-5.4-7.4-8.6
		c-2.1-3.2-3.2-7-3.2-10.8c0.3-4.8,2.3-9.4,5.8-12.8c3.4-3.4,7.4-6.1,11.9-8c9.4-4.5,19.7-7,29.8-9.5c1.8-0.6,3.6-0.7,5.4-0.4
		c2.6,0.8,4.4,3.3,4.2,6c0.8-2.3,3.7-3.3,6.1-2.6s4.1,2.5,5.7,4.4c2.1,2.3,3.9,5,5.2,7.8c1.3,2.9,1.5,6.2,0.5,9.2
		c-1.1,3-3.8,5.2-7,5.5c0.5-2.6,0.7-5.3,0.4-8c-0.3-2.7-1.9-5.1-4.2-6.5c-1.1-0.6-2.4-0.7-3.6-0.5c-1.1,0.2-2,1.2-3.2,1.3
		C290.6,98.5,289,94.6,286.8,96.7z"></path><path class="st0" d="M260.2,126.8c-2.4-2.7-6.5-2.9-9.2-0.6c-0.5,0.4-0.9,0.9-1.2,1.4c-1.1,1.9-1.4,4.2-0.9,6.4
		c0.3,1.5,1,2.8,2,3.8c1.7,1.4,4,1.9,6.2,1.3c2.1-0.6,4.1-1.6,5.9-2.8"></path><path class="st1" d="M255.1,140.1c-1.7,0-3.4-0.6-4.7-1.7c-1.1-1.2-1.9-2.6-2.2-4.2c-0.6-2.4-0.2-4.8,1-6.9c2.1-3.4,6.6-4.4,10-2.3
		c0.6,0.4,1.1,0.8,1.6,1.3c0.3,0.3,0.2,0.8-0.1,1.1s-0.8,0.2-1.1-0.1c-2.1-2.4-5.8-2.6-8.1-0.5c-0.4,0.4-0.8,0.8-1,1.2
		c-1,1.8-1.3,3.9-0.8,5.8c0.2,1.3,0.8,2.5,1.7,3.4c1.5,1.2,3.6,1.6,5.5,1.1c2-0.6,3.9-1.5,5.7-2.7c0.4-0.2,0.8-0.1,1,0.2
		s0.1,0.8-0.2,1c-1.9,1.3-3.9,2.3-6.1,2.9C256.6,140,255.8,140.1,255.1,140.1z"></path><path class="st1" d="M228.2,277c-9.2,9.3-14.2,22-17.4,34.7c-1.6,6.3-2.9,12.6-3.8,19c-0.6,4.2,2.3,8,6.4,8.6
		c0.5,0.1,1.1,0.1,1.7,0.1l0,0c3.8-0.3,7-3.1,7.7-6.9c2.6-14.8,8.6-28.9,17.5-41c5.3-7.2,12.6-14.1,21.5-14.3c6.2-0.1,12,3,16.3,7.5
		s7.2,9.9,9.9,15.5c9.2,19.3,15.4,39.8,18.6,60.9c0.7,4.7,1.3,9.7,5,13.2c1.9,1.9,4.6,2.7,7.2,2.1c5.4-1.4,6.3-8.2,5.9-13.6
		c-2-25.5-13.2-49.1-26.4-70.7c-5.8-9.5-11.8-22.1-21.2-28.6c-5.9-4.1-11.6-3-18-1C248,266.1,236.7,268.5,228.2,277z"></path><path class="st0" d="M330.7,288.1c-4.9,1.9-8.7,5.8-10.5,10.7c-0.9,2.3-1.1,4.9-0.4,7.2c0.7,2.4,2.7,4.2,5.2,4.7
		c4.2,0.5,7.3-3.8,9.1-7.6c-0.1,6.4,1.7,12.8,5.4,18.1c2.3,3.4,6.5,6.6,10.3,5c2.1-1,3.5-3,3.8-5.3c0.2-2.3-0.2-4.6-1.2-6.6
		c7-3.4,10.8-11.2,9-18.8c-1.8-7.1-6.8-8.3-13.3-8C342.2,287.8,336.3,286,330.7,288.1z"></path><path class="st1" d="M347.7,327.4c-3.4,0-6.7-2.6-8.8-5.8c-3.1-4.6-5-10-5.4-15.6c-2.5,4-5.4,5.9-8.5,5.5c-2.8-0.5-5-2.5-5.8-5.2
		c-0.7-2.6-0.6-5.3,0.4-7.7c1.9-5.1,5.8-9.2,10.9-11.1l0,0c3.8-1.5,7.7-1.1,11.5-0.9c2,0.2,4,0.3,6,0.2c6.1-0.3,12,0.5,14.1,8.6
		c1.7,7.7-1.9,15.6-8.8,19.3c0.9,2,1.2,4.2,1,6.3c-0.3,2.6-1.9,4.8-4.2,5.9C349.4,327.3,348.5,327.4,347.7,327.4z M334.2,302.4h0.2
		c0.3,0.1,0.6,0.4,0.6,0.8c-0.1,6.3,1.7,12.4,5.2,17.6c2.3,3.4,6.1,6.1,9.4,4.8c1.8-0.9,3.1-2.7,3.3-4.7c0.2-2.1-0.2-4.3-1.2-6.2
		c-0.2-0.4,0-0.8,0.3-1c0,0,0,0,0,0c6.7-3.2,10.2-10.7,8.6-17.9c-1.7-6.6-6.3-7.8-12.6-7.5c-2,0.1-4.1,0-6.1-0.2
		c-3.8-0.3-7.4-0.6-10.9,0.8c-4.7,1.8-8.3,5.6-10,10.3c-0.9,2.2-1,4.5-0.4,6.8c0.6,2.1,2.4,3.8,4.6,4.2c4.1,0.5,7-4.3,8.4-7.2
		C333.7,302.6,333.9,302.4,334.2,302.4L334.2,302.4z"></path><path class="st0" d="M259.3,183.4c-13.9,5-22.8,18.2-31.6,30.2s-19.9,24.2-34.7,25.4c-5,0.4-9.9-0.5-14.9-0.4s-10.3,1.8-13.1,5.9
		c-3.7,5.4-1.3,13.4,3.9,17.4s12.2,4.8,18.7,4.1c21-2.2,38.2-17.5,51.2-34.1c6.4-8.2,12.1-16.8,18.2-25.2
		c6.2-8.6,13.9-15.8,20.3-24.1C272.5,180.1,264.3,181.7,259.3,183.4z"></path><path class="st1" d="M183.5,267.1c-4.9,0-10.5-1-15.1-4.5c-5.2-4.1-8.1-12.4-4-18.4c3.5-5.1,10.1-6.1,13.7-6.2c2.3,0,4.6,0,6.9,0.2
		c2.7,0.2,5.3,0.3,8,0.1c14.9-1.2,26-14.1,34.1-25.1l1.8-2.4c8.3-11.5,16.9-23.3,30.2-28c2-0.7,12.3-4.1,18.5-0.7
		c0.2,0.1,0.3,0.3,0.4,0.5c0,0.2,0,0.4-0.1,0.6c-2.9,3.7-6.1,7.3-9.2,10.8c-3.9,4.2-7.6,8.7-11.1,13.3c-2.1,2.9-4.2,5.9-6.2,8.7
		c-3.9,5.5-7.8,11.1-12,16.5c-16.4,20.9-33.8,32.5-51.7,34.4C186.3,267,184.9,267.1,183.5,267.1z M179.5,239.5h-1.3
		c-3.3,0.1-9.4,1-12.5,5.6c-3.6,5.3-1,12.7,3.7,16.4c5.5,4.3,12.9,4.5,18.1,4c17.5-1.9,34.5-13.2,50.6-33.8c4.2-5.4,8.1-11,12-16.5
		c2-2.9,4.1-5.9,6.2-8.8c3.5-4.7,7.2-9.1,11.2-13.4c2.9-3.2,5.8-6.5,8.5-10c-4.5-1.8-11.6-0.6-16.5,1.2l0,0
		c-12.8,4.6-21.3,16.2-29.4,27.5l-1.8,2.4c-8.3,11.3-19.8,24.5-35.2,25.8c-2.7,0.2-5.5,0.1-8.2-0.1
		C183.1,239.6,181.3,239.5,179.5,239.5L179.5,239.5z M259.3,183.5L259.3,183.5z"></path><path class="st0" d="M161.6,233.7c-1.4-2.5-3.4-4.5-5.8-5.9c-2.5-1.4-5.5-1.6-8.1-0.5c-2.6,1.2-4.1,4-3.6,6.9
		c0.9,3.8,5.2,5.4,8.9,6.5c-2.5,2.7-5,5.5-6.2,8.9s-0.8,7.8,2.1,10.1c1.9,1.4,4.2,2,6.5,1.6C169.6,259.6,166.8,242.3,161.6,233.7z"></path><path class="st1" d="M154.1,262.1c-2.1,0.1-4.1-0.6-5.8-1.9c-3.3-2.7-3.5-7.5-2.3-10.9s3.4-5.9,5.6-8.3c-3.6-1.1-7.4-2.9-8.3-6.7
		c-0.6-3.2,1.1-6.4,4-7.7c2.8-1.2,6.1-1.1,8.8,0.5c2.6,1.5,4.7,3.6,6.1,6.2l0,0c3.7,6.1,5.9,16.1,2.8,22.4c-1.8,3.6-5.1,5.8-9.7,6.3
		C154.9,262,154.5,262.1,154.1,262.1z M151.1,227.3c-1.1,0-2.1,0.2-3.1,0.7c-2.3,1.1-3.6,3.5-3.2,6c0.8,3.4,4.9,4.9,8.4,5.9
		c0.3,0.1,0.4,0.3,0.5,0.5c0.1,0.3,0,0.5-0.2,0.7c-2.3,2.5-4.9,5.3-6.1,8.6c-1,2.9-0.9,7,1.8,9.2c1.7,1.3,3.8,1.8,5.9,1.5
		c4.1-0.5,7-2.3,8.5-5.4c2.9-5.8,0.7-15.1-2.8-21l0,0c-1.3-2.4-3.2-4.3-5.5-5.7C154.1,227.6,152.6,227.3,151.1,227.3L151.1,227.3z"></path><path class="st1" d="M148.8,260.1c-0.1,0-0.2,0-0.3-0.1c-3.2-2.6-3.4-7.3-2.2-10.6s3.6-6.1,5.8-8.5c-3.6-1.1-7.6-2.9-8.5-6.6
		c-0.6-3.1,1.1-6.2,3.9-7.4c0.2-0.1,0.5,0,0.7,0.2c0,0,0,0,0,0c0.1,0.2,0,0.5-0.2,0.7c0,0,0,0,0,0c-2.4,1.1-3.8,3.7-3.4,6.3
		c0.8,3.5,5,5.1,8.6,6.1c0.2,0,0.3,0.2,0.4,0.3c0,0.2,0,0.3-0.1,0.5c-2.3,2.5-4.9,5.3-6.1,8.7c-1.1,3-0.9,7.2,1.9,9.5
		c0.2,0.2,0.2,0.5,0.1,0.7C149.1,260,148.9,260.1,148.8,260.1L148.8,260.1z"></path><path class="st1" d="M255,189.1c-3.2,6.6-3.3,14.9,1,20.8c2,2.9,5.8,5.1,9,3.6c2.7-1.3,3.6-4.8,3.2-7.7s-1.8-5.7-2.3-8.6
		c-1.1-5.4,0.6-11.1,4.4-15.1c5-5.2,4.1-10.1-3.1-5.6C262.1,179.8,257.6,183.8,255,189.1z"></path><path class="st0" d="M246.1,247.1c-0.8,4.8-1,10.5,2.7,13.5c2.7,2.2,6.5,2.3,9.9,2.1c7.6-0.4,15.2-1.3,22.7-2.6
		c6.9-1.3,14.5-3.5,18.1-9.5c2.6-4.4,2.5-9.9,2.1-15.1c-1.2-14.6-4-29-8.3-43c-1.7-5.4-6.1-19.4-14.1-16.2c-6.4,2.6-12,15-15.2,20.7
		C255.1,212.5,249.1,229.5,246.1,247.1z"></path><path class="st1" d="M256.6,263.5c-2.9,0-5.9-0.4-8.2-2.3c-4.2-3.5-3.7-9.8-3-14.2l0,0c2.9-17.7,9-34.8,17.9-50.4
		c0.5-1,1.2-2.1,1.8-3.4c3.5-6.5,8.2-15.4,13.8-17.6c1.7-0.7,3.7-0.7,5.4,0.1c5.4,2.6,8.5,12.4,9.8,16.6c4.4,14,7.2,28.5,8.4,43.1
		c0.4,5,0.6,10.8-2.2,15.5c-3.8,6.4-11.9,8.6-18.6,9.8c-7.5,1.4-15.1,2.3-22.8,2.6C258.1,263.5,257.3,263.5,256.6,263.5z
		 M246.9,247.2L246.9,247.2c-0.7,4.1-1.1,9.9,2.4,12.9c2.5,2.1,6.2,2.1,9.4,1.9c7.6-0.4,15.1-1.3,22.6-2.6c6.3-1.1,14-3.2,17.6-9.1
		c2.6-4.3,2.4-9.8,2-14.6c-1.2-14.5-4-28.9-8.3-42.8c-1.2-4-4.2-13.4-9-15.7c-1.3-0.6-2.8-0.7-4.1-0.1c-5.1,2-9.9,11-13,16.9
		c-0.7,1.3-1.3,2.4-1.9,3.4C255.8,212.8,249.8,229.7,246.9,247.2z"></path><path class="st0" d="M285.9,195.6c2.4,2.9,5.9,4.7,9.5,5.9s7.3,1.9,10.9,3.1c12.8,4.5,22.2,15.9,27.1,28.6s6,26.4,6.3,39.9
		c0.1,3.6,0.1,7.2,1.3,10.6s3.6,6.6,7,7.6c4,1.2,8.4-0.8,11.1-3.9s4-7.3,4.9-11.4c8.6-38.6-13.7-77.4-51.4-89.4
		c-3.8-1.2-7.8-1.8-11.6-2.8c-2.7-0.7-5.4-2.8-8.1-3.1C284.2,179.6,280.8,189.4,285.9,195.6z"></path><path class="st1" d="M350.5,292.5c-0.9,0-1.8-0.1-2.7-0.4c-3.3-1-6.2-4-7.5-8.1c-1.1-3.4-1.2-7-1.3-10.5v-0.3
		c-0.3-13.1-1.3-27-6.2-39.7c-5.4-13.8-15.1-24-26.7-28.1c-1.9-0.7-3.8-1.2-5.7-1.7c-1.7-0.4-3.4-0.9-5.1-1.5
		c-4.5-1.5-7.7-3.5-9.9-6.1l0,0c-2.8-3.3-3.3-8-1.4-11.8c1.8-3.2,5.5-4.9,9.1-4.2c1.7,0.3,3.3,0.9,4.8,1.7c1.1,0.6,2.2,1,3.4,1.4
		c1.6,0.4,3.3,0.8,4.9,1.1c2.3,0.4,4.5,1,6.7,1.7c38,12.1,60.6,51.3,51.9,90.2c-0.8,3.6-2.1,8.2-5.1,11.7
		C357.5,290.7,354.1,292.3,350.5,292.5z M291.6,181.5c-2.6-0.1-5.1,1.3-6.3,3.6c-1.7,3.3-1.2,7.3,1.2,10.1l0,0c2,2.4,5,4.2,9.2,5.6
		c1.6,0.6,3.4,1,5,1.4c1.9,0.5,3.9,1,5.9,1.7c12,4.2,22,14.8,27.6,29c5,12.9,6,26.9,6.3,40.2v0.3c0.1,3.4,0.2,6.9,1.2,10.1
		c1.2,3.6,3.7,6.3,6.5,7.1c3.9,1.2,8-1,10.4-3.7c2.8-3.2,4-7.6,4.8-11c8.5-38.2-13.6-76.6-50.9-88.5c-2.2-0.7-4.4-1.2-6.6-1.6
		c-1.6-0.4-3.3-0.7-5-1.2c-1.2-0.4-2.5-0.9-3.6-1.5c-1.4-0.8-2.9-1.3-4.4-1.6C292.4,181.5,292,181.5,291.6,181.5L291.6,181.5z"></path><path class="st1" d="M281.2,185.2c-2,5.8-1.1,12.4,1.3,18c3,7.1,9.3,13.7,17,13.8c2.9,0,6.4-1.7,6.1-4.6c-0.2-2.4-2.9-3.6-5-4.9
		c-8.8-5.1-11.9-16.3-6.8-25.1c0.3-0.6,0.7-1.1,1.1-1.7c1-1.3,2.2-2.7,2.4-4.3c0.5-5.1-6.8-1.6-8.7-0.5
		C285,178.2,282.4,181.4,281.2,185.2z"></path><path class="st1" d="M354.9,313.5L354.9,313.5c-0.3,0-0.5-0.2-0.5-0.5c0-5.6-1.5-11-4.2-15.8c-0.1-0.2-0.1-0.5,0.2-0.7
		s0.5-0.1,0.7,0.2c2.9,5,4.4,10.6,4.4,16.3C355.3,313.3,355.1,313.5,354.9,313.5z"></path></g></svg>