<svg transform="scale(1)" version="1.1" id="Layer_1" xmlns="http://www.w3.org/2000/svg" xmlns:xlink="http://www.w3.org/1999/xlink" x="0px" y="0px" viewBox="0 0 500 500" xml:space="preserve" class="show_show__wrapper__graphic__5Waiy "><title>React</title><style type="text/css">
	.st0{fill:#111111;}
	.st1{fill:#FFFFFF;}
	.st2{fill:#128FFF;}
</style><g id="laptop"><path class="st0" d="M375.4,141.3c8.6,0.9,18.1,2.3,23.7,9.6c4.7,6.1,5.3,14.6,5.7,22.6c2.3,47.8,2.7,95.7,1.4,143.6
		c-0.4,13.6-1.6,28.9-11,37.9c-8.3,7.9-20.5,8.3-31.5,8.2l-236.1-1.3c-14.4-0.1-30.9-1.2-39.8-13.6c-6.4-8.9-6.9-21.2-7.2-32.5
		l-3.1-150.9c-0.4-19.6,6.2-25.6,22.3-26.1c21.4-0.7,42.7-2.9,64.1-3.8c45.1-1.8,90.3-1.6,135.4,0.7
		C324.8,136.8,350.1,138.7,375.4,141.3z"></path><path class="st1" d="M92.5,167c-6.8,12.6-6.5,28.1-6.1,42.8l2.4,78.1c0.5,16.3,2,34.9,13.9,44.7c9.4,7.8,22.2,7.5,34,6.9
		c74.3-4,150.8,4.3,225.1,0.3c7.8-0.4,19-1.5,25.3-6.7c9.4-7.7,11.7-164.7-0.9-175.1c-8.5-7.1-122-10.5-170.9-10.4
		c-24.6,0-49.2,0.3-73.7,1.9C125.1,150.6,102.1,149.1,92.5,167z"></path><path class="st0" d="M454.2,457.7c0-0.3,0-0.6,0-0.8c0.1-0.9,0.1-1.9,0-2.8c-0.4-6.4-3-11.8-5.6-17.2c-8.5-17.7-18-36.9-31.3-51.9
		c-8.2-12.6-18.3-22.6-34.6-23.4c-15.3-4.9-250.1-4.9-265.3,0c-16.3,0.9-26.4,10.8-34.7,23.4c-13.3,15-22.8,34.2-31.3,51.9
		c-2.6,5.4-5.2,10.8-5.6,17.2c-0.1,0.9-0.1,1.9,0,2.8c0,0.3,0,0.5,0,0.8c0,3.4,1.1,6.8,2.9,9.7c1,1.9,2.2,3.6,3.7,5.1
		c4.4,4.4,10.2,6,15.6,7.3c60.3,14.7,303.7,14.7,364,0c5.4-1.3,11.2-2.9,15.6-7.3c1.5-1.5,2.7-3.2,3.7-5.1
		C453.2,464.5,454.2,461.2,454.2,457.7z"></path><path class="st1" d="M250,430.9c-66.9,0-133.9-1.7-148.4-5.2c-2.7-0.6-5.6-1.5-7.7-3.5c-0.7-0.7-1.4-1.6-1.9-2.5
		c-0.9-1.4-1.4-3.1-1.5-4.8c0-0.1,0-0.2,0-0.3v-0.1c0-0.4,0-0.9,0-1.3c0.2-3.1,1.5-5.7,2.7-8.2c4.4-8.9,8.9-17.5,15.1-24.4
		c3.3-4.9,8.2-10.6,16.9-11.1c4.4-1.2,65.6-1.7,124.6-1.7s120.2,0.5,124.6,1.7c8.7,0.5,13.6,6.2,17,11.2
		c6.2,6.8,10.7,15.4,15.1,24.4c1.2,2.5,2.5,5.1,2.7,8.2c0,0.5,0,0.9,0,1.4v0.1c0,0.1,0,0.2,0,0.3l0,0c0,1.7-0.5,3.4-1.5,4.8
		c-0.5,0.9-1.1,1.7-1.8,2.5c-2.2,2.1-5,2.9-7.7,3.5C383.9,429.1,316.9,430.9,250,430.9z M250,368.7c-60.4,0-120.9,0.5-124.4,1.6
		h-0.1c-8.3,0.4-13.1,6-16.3,10.8c-6.2,6.8-10.7,15.4-15,24.2c-1.2,2.4-2.4,5-2.7,7.9c0,0.4,0,0.8,0,1.2v0.2c0,0.1,0,0.2,0,0.2
		c0,1.5,0.5,3,1.3,4.3c0.5,0.8,1,1.6,1.7,2.3c2,1.9,4.6,2.7,7.3,3.3c29.1,6.9,267.3,6.9,296.4,0c2.7-0.6,5.3-1.4,7.3-3.3
		c0.7-0.7,1.2-1.4,1.7-2.3c0.8-1.3,1.3-2.8,1.3-4.3l0,0c0-0.1,0-0.2,0-0.2v-0.1c0-0.4,0-0.9,0-1.3c-0.2-2.9-1.5-5.4-2.6-7.9
		c-4.4-8.9-8.8-17.4-15-24.2c-3.3-4.8-8-10.4-16.4-10.8h-0.1C370.9,369.2,310.5,368.7,250,368.7z M409.5,414.9L409.5,414.9z"></path><path class="st1" d="M250,469.4c-73.4,0-146.9-1.7-175.6-5.1c-5.3-0.6-10.9-1.4-15.2-3.5c-1.3-0.6-2.6-1.5-3.7-2.5
		c-1.9-1.5-3-3.2-3-4.9c0-0.1,0-0.2,0-0.3V453c-0.1-0.4-0.1-0.9,0-1.3c0-0.2,0.3-0.4,0.5-0.4c0.2,0,0.4,0.3,0.4,0.5
		c0,0.4,0,0.8,0,1.2v0.2c0,0.1,0,0.1,0,0.2c0,1.4,1,2.9,2.6,4.2c1,1,2.2,1.8,3.5,2.4c4.1,2,9.6,2.8,14.9,3.4
		c57.4,6.8,293.6,6.8,351,0c5.3-0.6,10.8-1.4,14.9-3.4c1.3-0.6,2.4-1.4,3.5-2.3c1.7-1.3,2.7-2.9,2.7-4.2c0-0.1,0-0.1,0-0.2v-0.1
		c0-0.4,0-0.9,0-1.3c0-0.2,0.1-0.5,0.4-0.5c0.2,0,0.5,0.1,0.5,0.4c0,0,0,0,0,0c0.1,0.5,0.1,0.9,0,1.4l0,0c0,0.1,0,0.2,0,0.3
		c0,1.6-1.1,3.5-3,4.9c-1.1,1-2.3,1.8-3.6,2.4c-4.3,2-9.8,2.8-15.2,3.5C396.9,467.7,323.4,469.4,250,469.4z"></path><path class="st1" d="M300.5,455.6c0-0.1,0-0.1,0-0.2s0-0.4,0-0.6c-0.2-1.3-0.7-2.6-1.4-3.7c-2.1-3.8-4.4-7.9-7.7-11.1
		c-2-2.7-4.5-4.8-8.6-5c-3.8-1-61.9-1-65.7,0c-4,0.2-6.5,2.3-8.6,5c-3.3,3.2-5.6,7.3-7.7,11.1c-0.7,1.1-1.2,2.4-1.4,3.7
		c0,0.2,0,0.4,0,0.6c0,0.1,0,0.1,0,0.2c0,0.8,0.3,1.5,0.7,2.1c0.2,0.4,0.6,0.8,0.9,1.1c1.1,0.8,2.5,1.4,3.9,1.6
		c14.9,3.2,75.2,3.2,90.1,0c1.4-0.2,2.7-0.7,3.9-1.6c0.4-0.3,0.7-0.7,0.9-1.1C300.3,457.1,300.5,456.3,300.5,455.6z"></path></g><g id="gears"><path class="st1" d="M332.8,238.6c0-1.9-0.1-3.9-0.3-5.8l9-5.6c-0.4-9.1-3-17.9-7.5-25.8c-1.3,0.1-8.6-0.2-11.4,0.4l-0.1-0.2
		c-3.5-6.2-7.9-11.8-13-16.7l2.2-8.9c-6.6-6.2-14.7-10.8-23.4-13.3c-0.9,1-7.1,6.6-8.1,8.7c-8.9-0.9-18.2,0.1-27.1,2.1l-7.4-8.6
		c-8.9,1.8-17.3,5.7-24.4,11.4c0.3,1.4,1.3,10,2.5,11.8l-0.1,0.1c-4.7,4.4-8.6,9.4-11.8,15l-9.3-0.7c-5.1,7.6-8.3,16.2-9.3,25.2
		c1.2,0.8,8.3,6.4,10.2,6.7c0,6.6,1.1,13.1,3.1,19.4c-2.2,2.4-5.6,7.2-6.4,8.1c3.6,8.3,9.2,15.7,16.2,21.5l6.8-2.6
		c2.4,2.4,5,4.6,7.8,6.6c6,4.2,12.7,7.4,19.8,9.4c0.4,3.3,1.3,7.8,1.5,8.8c8.6,3,17.8,3.9,26.8,2.7l4-10.1c3.4-0.6,6.7-1.6,9.9-2.7
		c7-2.5,13.6-6.3,19.3-11.1c3,1.4,8,2.9,9,3.3c6.9-6,12.2-13.5,15.6-22c-2.3-2.8-4.5-5.6-6.8-8.5
		C331.9,251.2,332.8,244.9,332.8,238.6z M252.9,173.5l-1.4,0.3C252,173.7,252.5,173.6,252.9,173.5L252.9,173.5z M286.3,263
		c-15.7,7.9-34.8,1.7-42.8-14c-4.3-8.5-4.6-18.6-0.7-27.3c5.2-11.6,20.8-21.9,33.9-20s25.1,16.3,26.7,28.9
		C304.9,243.9,298.1,256.7,286.3,263z"></path><path class="st0" d="M271.4,309.5c-6.6,0-13.2-1.1-19.4-3.3c-0.3-0.1-0.5-0.3-0.5-0.6c0-0.3-0.2-1.1-0.4-2c-0.3-1.8-0.8-4.2-1-6.3
		c-7-2-13.6-5.2-19.6-9.4c-2.7-1.9-5.2-4-7.6-6.3l-6.3,2.5c-0.3,0.1-0.5,0.1-0.8-0.1c-7.1-5.9-12.8-13.3-16.4-21.8
		c-0.1-0.3-0.1-0.6,0.1-0.8c0.2-0.3,0.7-0.9,1.3-1.7c1.3-1.8,3.3-4.5,4.9-6.2c-1.9-6-2.9-12.3-3-18.6c-1.7-0.6-4.9-2.9-8.2-5.4
		c-0.8-0.6-1.4-1-1.7-1.2c-0.2-0.2-0.4-0.4-0.3-0.7c1.1-9.2,4.3-17.9,9.4-25.6c0.1-0.2,0.4-0.4,0.7-0.3l8.8,0.7
		c3.1-5.3,6.9-10.2,11.4-14.4c-0.8-1.8-1.4-5.6-2-9.4c-0.1-1-0.3-1.7-0.3-2c-0.1-0.3,0-0.6,0.3-0.8c7.2-5.7,15.7-9.7,24.7-11.5
		c0.3-0.1,0.5,0,0.7,0.2l7.1,8.3c8.6-2.1,17.5-2.8,26.4-2.1c1-1.6,3.8-4.3,6.5-6.9c0.7-0.7,1.2-1.2,1.5-1.4c0.2-0.2,0.5-0.3,0.8-0.2
		c8.9,2.6,17,7.2,23.7,13.5c0.2,0.2,0.3,0.5,0.2,0.7l-2.1,8.5c5,4.8,9.3,10.2,12.7,16.2c2.9-0.3,5.9-0.4,8.9-0.3c1,0,1.7,0,2.1,0
		c0.3,0,0.6,0.1,0.7,0.4c4.6,8,7.2,17,7.6,26.2c0,0.3-0.1,0.5-0.4,0.7l-8.6,5.4c0.2,1.9,0.2,3.7,0.2,5.4l0,0
		c0,6.2-0.9,12.5-2.6,18.4l6.5,8.1c0.2,0.2,0.2,0.5,0.1,0.8c-3.4,8.6-8.8,16.2-15.8,22.2c-0.2,0.2-0.5,0.2-0.8,0.1
		c-0.3-0.1-1-0.4-2-0.7c-1.8-0.6-4.5-1.6-6.6-2.4c-5.7,4.7-12.2,8.4-19.2,10.9c-3.1,1.1-6.4,2-9.6,2.7l-3.9,9.7
		c-0.1,0.3-0.3,0.4-0.6,0.5C276.5,309.3,274,309.5,271.4,309.5z M252.9,304.9c8.2,2.8,17,3.7,25.6,2.6l3.9-9.7
		c0.1-0.2,0.3-0.4,0.5-0.5c3.3-0.6,6.6-1.5,9.8-2.7c7-2.5,13.4-6.2,19.1-10.9c0.2-0.2,0.5-0.2,0.8-0.1c2,0.9,5,1.9,6.9,2.6l1.6,0.6
		c6.5-5.8,11.6-13,14.9-21l-6.5-8.1c-0.2-0.2-0.2-0.5-0.1-0.7c1.8-6,2.7-12.1,2.7-18.4l0,0c0-1.8-0.1-3.7-0.3-5.7
		c0-0.3,0.1-0.5,0.3-0.7l8.6-5.4c-0.5-8.7-2.9-17.1-7.2-24.7h-1.7c-3-0.1-6.1,0-9.1,0.4c-0.3,0.1-0.7-0.1-0.8-0.4l-0.1-0.2
		c-3.4-6.1-7.7-11.7-12.8-16.5c-0.2-0.2-0.3-0.5-0.2-0.7l2.1-8.5c-6.4-5.9-14-10.2-22.4-12.7l-1.2,1.2c-2,1.9-5.8,5.6-6.5,7
		c-0.1,0.3-0.4,0.5-0.8,0.4c-9-0.8-18.1,0-26.8,2.1h-0.1h-0.1l-1.4,0.3c-0.4,0.1-0.8-0.1-0.9-0.5c-0.1-0.4,0.1-0.8,0.5-0.9l0.5-0.1
		l-6.3-7.3c-8.5,1.8-16.5,5.5-23.3,10.9c0.1,0.4,0.1,1,0.3,1.7c0.4,2.6,1.2,8.2,2,9.4c0.2,0.3,0.2,0.7-0.1,1l-0.6-0.5l0.5,0.6
		c-4.6,4.3-8.5,9.3-11.7,14.8c-0.1,0.2-0.4,0.4-0.7,0.4l-8.9-0.7c-4.8,7.3-7.8,15.5-8.9,24.1c0.3,0.2,0.8,0.6,1.4,1
		c2.1,1.5,6.9,5.1,8.1,5.3c0.4,0,0.7,0.4,0.7,0.7c0,6.5,1.1,13,3.1,19.2c0.1,0.3,0,0.6-0.2,0.8c-1.8,2-3.5,4.2-5.1,6.4l-1,1.4
		c3.5,7.9,8.8,14.9,15.5,20.5l6.3-2.5c0.3-0.1,0.6,0,0.8,0.2c2.4,2.4,5,4.5,7.7,6.5c6,4.2,12.6,7.4,19.6,9.3
		c0.3,0.1,0.5,0.3,0.5,0.6c0.2,2.1,0.7,4.8,1.1,6.7C252.8,304,252.9,304.5,252.9,304.9L252.9,304.9z M272.2,267
		c-17.9,0.3-32.6-13.9-32.9-31.7c-0.1-4.8,0.9-9.5,2.8-13.9c5-11.3,20.9-22.4,34.7-20.4s25.8,17.2,27.4,29.5
		c1.5,13.6-5.5,26.8-17.6,33.2l0,0C282.1,265.9,277.2,267.1,272.2,267z M273.5,202.3c-12.3,0-25.5,9.8-29.9,19.8
		c-7,15.7,0.1,34,15.7,41c8.5,3.8,18.3,3.5,26.7-0.7l0,0c11.5-6.1,18.2-18.7,16.8-31.6c-1.5-11.7-13-26.3-26.1-28.2
		C275.6,202.3,274.5,202.3,273.5,202.3L273.5,202.3z"></path><path class="st2" d="M212.8,167.4c0-1-0.1-2.1-0.1-3.1l4.8-3c-0.2-4.9-1.6-9.6-4-13.8c-2,0-4.1,0-6.1,0.2l-0.1-0.1
		c-1.9-3.3-4.2-6.3-6.9-8.9l1.2-4.8c-3.6-3.3-7.8-5.8-12.5-7.1c-0.5,0.6-3.8,3.5-4.3,4.7c-4.9-0.4-9.7,0-14.5,1.1
		c-1.3-1.5-2.7-3.1-4-4.6c-4.8,1-9.2,3.1-13.1,6.1c0.2,0.8,0.7,5.3,1.3,6.3l0,0c-2.5,2.3-4.6,5-6.3,8l-5-0.4c-2.7,4-4.4,8.7-5,13.5
		c0.7,0.4,4.4,3.4,5.4,3.6c0,3.5,0.6,7,1.7,10.4c-1.2,1.3-3,3.9-3.4,4.4c2,4.5,4.9,8.4,8.7,11.5l3.6-1.4c1.3,1.3,2.7,2.5,4.2,3.5
		c3.2,2.3,6.8,3.9,10.6,5c0.2,1.8,0.7,4.2,0.8,4.7c4.6,1.6,9.5,2.2,14.3,1.6l2.2-5.4c1.8-0.4,3.6-0.8,5.3-1.5
		c3.8-1.4,7.3-3.4,10.3-5.9c1.6,0.7,4.3,1.6,4.8,1.8c3.7-3.2,6.5-7.2,8.3-11.7l-3.6-4.5C212.3,174.1,212.8,170.8,212.8,167.4z
		 M170.1,132.6l-0.8,0.2C169.5,132.7,169.8,132.6,170.1,132.6z M187.9,180.5c-8.4,4.3-18.6,0.9-22.9-7.4c-2.3-4.6-2.5-10-0.4-14.7
		c2.8-6.2,11.1-11.7,18.1-10.7s13.4,8.7,14.3,15.4C197.8,170.2,194.2,177.1,187.9,180.5z"></path><path class="st2" d="M193.1,255.2c0-0.9,0-1.7-0.1-2.6l4-2.5c-0.2-4.1-1.3-8-3.4-11.6c-1.7,0-3.4,0-5.1,0.2c0,0,0-0.1-0.1-0.1
		c-1.5-2.8-3.5-5.3-5.8-7.4c0.3-1.3,0.6-2.6,1-4c-3-2.8-6.5-4.8-10.4-5.9c-0.4,0.5-3.2,3-3.6,3.9c-4.1-0.3-8.1,0-12.1,1l-3.3-3.8
		c-4,0.8-7.7,2.6-10.9,5.1c0.1,0.6,0.6,4.5,1.1,5.3l0,0c-2.1,2-3.9,4.2-5.3,6.7L135,239c-2.3,3.4-3.7,7.2-4.2,11.3
		c0.6,0.4,3.7,2.9,4.6,3c0,2.9,0.5,5.9,1.4,8.7c-1,1-2.5,3.2-2.9,3.6c1.6,3.7,4.1,7,7.2,9.6l3-1.2c1.1,1.1,2.2,2.1,3.5,2.9
		c2.7,1.9,5.7,3.3,8.8,4.2c0.2,1.5,0.6,3.5,0.7,3.9c3.8,1.4,8,1.8,12,1.2c0.6-1.5,1.2-3,1.8-4.5c1.5-0.3,3-0.7,4.4-1.2
		c3.1-1.1,6.1-2.8,8.6-4.9c1.4,0.6,3.6,1.3,4,1.5c3.1-2.7,5.5-6,7-9.8l-3-3.8C192.8,260.8,193.1,258,193.1,255.2z M157.5,226.1
		l-0.6,0.1C157,226.2,157.2,226.2,157.5,226.1z M172.3,266.1c-7,3.6-15.5,0.8-19.1-6.2c-1.9-3.8-2.1-8.3-0.3-12.2
		c2.3-5.2,9.3-9.8,15.1-8.9s11.2,7.2,11.9,12.8C180.7,257.6,177.6,263.3,172.3,266.1L172.3,266.1z"></path><path class="st0" d="M270.2,285c-0.8,0-1.7,0-2.5-0.1c-0.3,0-0.5-0.2-0.5-0.5c0,0,0,0,0,0c0-0.3,0.2-0.5,0.5-0.5c0,0,0,0,0,0
		c1.3,0.1,2.7,0.1,4,0c0.3,0,0.5,0.2,0.5,0.5s-0.2,0.5-0.5,0.5L270.2,285z M275.9,284.7c-0.3,0-0.5-0.2-0.5-0.5s0.2-0.5,0.5-0.5
		c1.3-0.1,2.7-0.3,4-0.6c0.3,0,0.5,0.1,0.6,0.4s-0.1,0.5-0.4,0.6c-1.3,0.2-2.7,0.4-4,0.6H275.9z M263.8,284.6L263.8,284.6
		c-1.4-0.2-2.8-0.4-4.1-0.6c-0.3-0.1-0.5-0.3-0.4-0.6s0.3-0.5,0.6-0.4c1.3,0.2,2.6,0.5,4,0.6c0.3,0,0.5,0.3,0.5,0.5
		S264.1,284.6,263.8,284.6L263.8,284.6z M283.8,283.2c-0.3,0-0.5-0.2-0.6-0.4s0.2-0.5,0.4-0.6c1.3-0.4,2.6-0.8,3.8-1.2l0.4,0.9
		c-1.3,0.5-2.6,0.9-3.9,1.2C283.9,283.2,283.8,283.2,283.8,283.2L283.8,283.2z M255.9,283h-0.1c-1.3-0.4-2.6-0.8-3.9-1.2
		c-0.3-0.1-0.4-0.4-0.3-0.6c0.1-0.2,0.4-0.4,0.6-0.3c1.2,0.4,2.5,0.8,3.8,1.2c0.3,0,0.5,0.3,0.4,0.6S256.1,283.1,255.9,283
		L255.9,283L255.9,283z M291.4,280.4c-0.2,0-0.4-0.1-0.5-0.3c-0.1-0.3,0-0.5,0.2-0.7c1.2-0.5,2.4-1.2,3.6-1.8c0.2-0.1,0.5,0,0.7,0.2
		s0,0.5-0.2,0.7l0,0c-1.2,0.7-2.4,1.3-3.6,1.8C291.5,280.4,291.4,280.4,291.4,280.4L291.4,280.4z M248.3,280.3c-0.1,0-0.1,0-0.2,0
		c-1.2-0.5-2.5-1.1-3.7-1.8c-0.2-0.1-0.3-0.4-0.2-0.7c0.1-0.2,0.4-0.3,0.7-0.2c0,0,0,0,0,0c1.2,0.6,2.4,1.2,3.6,1.8
		c0.3,0.1,0.4,0.4,0.3,0.6c0,0,0,0,0,0C248.6,280.2,248.4,280.3,248.3,280.3L248.3,280.3z M298.4,276.5c-0.2,0-0.3-0.1-0.4-0.2
		c-0.2-0.2-0.1-0.5,0.1-0.7c1.1-0.7,2.2-1.5,3.2-2.3c0.2-0.2,0.5-0.2,0.7,0c0.2,0.2,0.2,0.5,0,0.7c0,0-0.1,0.1-0.1,0.1
		c-1.1,0.8-2.2,1.6-3.3,2.4C298.6,276.5,298.5,276.5,298.4,276.5L298.4,276.5z M241.2,276.5c-0.1,0-0.2,0-0.3-0.1l-0.8-0.5
		c-0.9-0.6-1.7-1.2-2.6-1.8c-0.2-0.2-0.3-0.5-0.1-0.7c0.2-0.2,0.5-0.3,0.7-0.1l0,0c0.8,0.6,1.6,1.2,2.5,1.8l0.8,0.5
		c0.2,0.1,0.3,0.5,0.1,0.7C241.5,276.4,241.3,276.5,241.2,276.5L241.2,276.5z M234.8,271.6c-0.1,0-0.2,0-0.3-0.1
		c-1-0.9-2-1.9-2.9-2.9c-0.2-0.2-0.2-0.5,0-0.7c0.2-0.2,0.5-0.2,0.7,0c0.9,1,1.9,1.9,2.9,2.8c0.2,0.2,0.2,0.5,0,0.7
		C235,271.5,234.9,271.6,234.8,271.6L234.8,271.6z M304.8,271.6c-0.1,0-0.3-0.1-0.4-0.2c-0.2-0.2-0.2-0.5,0-0.7c0,0,0,0,0,0
		c1-0.9,1.9-1.8,2.8-2.8c0.2-0.2,0.5-0.2,0.7-0.1s0.2,0.5,0.1,0.7c0,0,0,0,0,0.1c-0.9,1-1.9,2-2.9,2.9
		C305,271.5,304.9,271.5,304.8,271.6L304.8,271.6z M229.3,265.7c-0.2,0-0.3-0.1-0.4-0.2c-0.8-1.1-1.6-2.2-2.4-3.3
		c-0.1-0.2-0.1-0.5,0.2-0.7c0.2-0.1,0.5-0.1,0.7,0.1c0.7,1.1,1.5,2.2,2.3,3.2c0.2,0.2,0.1,0.5-0.1,0.7
		C229.5,265.7,229.4,265.7,229.3,265.7L229.3,265.7z M310.3,265.7c-0.1,0-0.2,0-0.3-0.1c-0.2-0.2-0.3-0.5-0.1-0.7
		c0.8-1,1.6-2.1,2.4-3.2c0.2-0.2,0.5-0.3,0.7-0.1c0.2,0.2,0.3,0.5,0.1,0.7c-0.8,1.1-1.6,2.2-2.4,3.3
		C310.6,265.6,310.4,265.7,310.3,265.7L310.3,265.7z M314.8,259c-0.1,0-0.2,0-0.2-0.1c-0.2-0.1-0.3-0.4-0.2-0.7
		c0.7-1.1,1.3-2.4,1.8-3.5c0.1-0.3,0.4-0.4,0.7-0.2c0,0,0,0,0,0c0.2,0.1,0.4,0.4,0.2,0.6c0,0,0,0,0,0c-0.6,1.2-1.2,2.4-1.9,3.6
		C315.2,258.9,315,259,314.8,259L314.8,259z M225,258.9c-0.2,0-0.4-0.1-0.4-0.3c-0.5-1-1-2.1-1.4-3.2l-0.2-0.6
		c-0.1-0.3,0-0.5,0.3-0.6c0,0,0,0,0,0c0.3-0.1,0.5,0,0.6,0.3l0.2,0.6c0.4,1,0.9,2.1,1.4,3.1c0.1,0.2,0,0.5-0.2,0.7
		C225.1,258.9,225,258.9,225,258.9L225,258.9z M318.2,251.7c-0.1,0-0.1,0-0.2,0c-0.3-0.1-0.4-0.4-0.3-0.6c0.5-1.2,0.9-2.5,1.2-3.8
		c0.1-0.3,0.4-0.4,0.6-0.4c0.3,0.1,0.4,0.4,0.4,0.6l0,0c-0.4,1.3-0.8,2.6-1.2,3.9C318.6,251.6,318.4,251.7,318.2,251.7L318.2,251.7z
		 M222.1,251.4c-0.2,0-0.4-0.2-0.5-0.4c-0.3-1.3-0.6-2.6-0.9-4c-0.1-0.3,0.1-0.5,0.4-0.6c0,0,0,0,0,0c0.3,0,0.5,0.1,0.6,0.4
		c0,0,0,0,0,0c0.2,1.3,0.5,2.6,0.9,3.9c0.1,0.3-0.1,0.5-0.4,0.6L222.1,251.4z M320.4,244L320.4,244c-0.4,0-0.5-0.3-0.5-0.6
		c0,0,0,0,0,0c0.2-1.3,0.4-2.6,0.6-4c0-0.3,0.3-0.5,0.6-0.4c0.3,0,0.5,0.3,0.4,0.6c-0.1,1.4-0.3,2.7-0.6,4
		C320.9,243.7,320.6,243.9,320.4,244C320.4,243.9,320.4,243.9,320.4,244L320.4,244z M220.7,243.5c-0.3,0-0.5-0.2-0.5-0.5
		c-0.1-1.3-0.2-2.7-0.2-4.1c0-0.3,0.2-0.5,0.5-0.5l0,0c0.3,0,0.5,0.2,0.5,0.5c0,0,0,0,0,0c0,1.4,0.1,2.7,0.2,4
		C221.3,243.2,221.1,243.4,220.7,243.5L220.7,243.5z M321.2,235.9L321.2,235.9c-0.3,0-0.5-0.2-0.5-0.5c0-0.3,0-0.6,0-0.8
		c0-1.1,0-2.1-0.1-3.2c0-0.3,0.2-0.5,0.5-0.5c0.3,0,0.5,0.2,0.5,0.5c0,0,0,0,0,0c0.1,1.1,0.1,2.1,0.1,3.2c0,0.3,0,0.6,0,0.8
		C321.7,235.7,321.5,235.9,321.2,235.9C321.2,235.9,321.2,235.9,321.2,235.9L321.2,235.9z M220.7,235.4L220.7,235.4
		c-0.3,0-0.5-0.2-0.5-0.5c0,0,0,0,0,0c0.1-1,0.1-1.9,0.3-2.9c0-0.4,0.1-0.8,0.1-1.1c0-0.3,0.3-0.5,0.6-0.4s0.5,0.3,0.4,0.6l0,0
		c-0.1,0.4-0.1,0.8-0.1,1.1c-0.1,0.9-0.2,1.9-0.3,2.9C221.2,235.2,221,235.4,220.7,235.4C220.7,235.4,220.7,235.4,220.7,235.4
		L220.7,235.4z M320.7,227.9c-0.2,0-0.5-0.2-0.5-0.4c-0.2-1.3-0.4-2.6-0.7-3.9c-0.1-0.3,0.1-0.5,0.4-0.6c0.3-0.1,0.5,0.1,0.6,0.4
		c0.3,1.3,0.5,2.7,0.7,4C321.3,227.6,321.1,227.8,320.7,227.9L320.7,227.9z M221.8,227.4L221.8,227.4c-0.4-0.1-0.5-0.3-0.5-0.6
		c0.3-1.3,0.6-2.7,0.9-4c0.1-0.3,0.3-0.4,0.6-0.4c0,0,0,0,0,0c0.3,0.1,0.4,0.4,0.4,0.6c-0.3,1.3-0.6,2.6-0.9,3.9
		C222.2,227.2,222,227.4,221.8,227.4L221.8,227.4z M318.9,220c-0.2,0-0.4-0.1-0.5-0.4c-0.4-1.3-0.8-2.5-1.3-3.8
		c-0.1-0.3,0-0.5,0.3-0.6c0,0,0,0,0,0c0.3-0.1,0.5,0,0.6,0.3c0,0,0,0,0,0c0.5,1.3,1,2.6,1.4,3.8c0.1,0.3-0.1,0.5-0.3,0.6
		C319,220,318.9,220,318.9,220z M223.8,219.6c-0.1,0-0.1,0-0.2,0c-0.3-0.1-0.4-0.4-0.3-0.6c0.4-1.3,0.9-2.6,1.4-3.8
		c0.1-0.3,0.4-0.4,0.7-0.3c0.3,0.1,0.4,0.4,0.3,0.7c-0.5,1.2-1,2.5-1.4,3.7C224.2,219.4,224,219.6,223.8,219.6z M315.8,212.6
		c-0.2,0-0.4-0.1-0.5-0.3c-0.6-1.2-1.2-2.4-1.9-3.5c-0.1-0.2-0.1-0.5,0.2-0.7c0.2-0.1,0.5-0.1,0.7,0.2c0.7,1.1,1.4,2.4,2,3.6
		c0.1,0.2,0,0.5-0.2,0.7C316,212.5,315.9,212.5,315.8,212.6L315.8,212.6z M226.9,212.2c-0.1,0-0.1,0-0.2,0c-0.2-0.1-0.3-0.4-0.2-0.7
		c0,0,0,0,0,0c0.6-1.2,1.3-2.4,2-3.6c0.1-0.2,0.5-0.3,0.7-0.2s0.3,0.5,0.2,0.7l0,0c-0.7,1.1-1.3,2.3-1.9,3.5
		C227.3,212.1,227.1,212.2,226.9,212.2L226.9,212.2z M311.6,205.7c-0.2,0-0.3-0.1-0.4-0.2c-0.8-1.1-1.6-2.1-2.5-3.1
		c-0.2-0.2-0.2-0.5,0-0.7c0.2-0.2,0.5-0.2,0.7,0c0.9,1,1.8,2.1,2.5,3.2c0.2,0.2,0.1,0.5-0.1,0.7c0,0,0,0,0,0
		C311.8,205.6,311.7,205.6,311.6,205.7L311.6,205.7z M231.1,205.3c-0.3,0-0.5-0.2-0.5-0.5c0-0.1,0-0.2,0.1-0.3
		c0.8-1.1,1.6-2.2,2.5-3.2c0.2-0.2,0.5-0.3,0.7-0.1c0.2,0.2,0.3,0.4,0.1,0.7c0,0,0,0,0,0l-0.1,0.1c-0.8,1-1.7,2.1-2.4,3.1
		C231.4,205.2,231.2,205.2,231.1,205.3L231.1,205.3z M306.3,199.6c-0.1,0-0.3,0-0.3-0.1c-1-0.9-2-1.8-3-2.6
		c-0.2-0.2-0.3-0.5-0.1-0.7c0.2-0.2,0.5-0.3,0.7-0.1c1.1,0.8,2.1,1.7,3.1,2.7c0.2,0.2,0.2,0.5,0,0.7c0,0,0,0,0,0
		C306.6,199.6,306.5,199.6,306.3,199.6L306.3,199.6z M236.3,199.1c-0.3,0-0.5-0.2-0.5-0.5c0-0.1,0.1-0.3,0.2-0.4
		c1-0.9,2-1.8,3.1-2.7c0.2-0.2,0.5-0.1,0.7,0.1c0.2,0.2,0.1,0.5-0.1,0.7c0,0,0,0,0,0c-1,0.8-2,1.7-3,2.6
		C236.6,199,236.5,199.1,236.3,199.1L236.3,199.1z M300,194.6c-0.1,0-0.2,0-0.3-0.1c-1.1-0.7-2.2-1.4-3.4-2.1
		c-0.2-0.1-0.3-0.4-0.2-0.7c0,0,0,0,0,0c0.1-0.2,0.4-0.3,0.7-0.2c1.2,0.6,2.4,1.4,3.5,2.1c0.2,0.2,0.3,0.5,0.1,0.7
		C300.3,194.5,300.2,194.6,300,194.6z M242.6,194c-0.2,0-0.3-0.1-0.4-0.2c-0.2-0.2-0.1-0.5,0.1-0.7c1.1-0.7,2.3-1.4,3.5-2.1
		c0.2-0.1,0.5,0,0.7,0.2c0,0,0,0,0,0c0.1,0.2,0,0.5-0.2,0.7c0,0,0,0,0,0c-1.2,0.6-2.3,1.3-3.4,2C242.8,193.9,242.7,194,242.6,194z
		 M292.9,190.7c-0.1,0-0.1,0-0.2,0c-1.2-0.5-2.5-1-3.7-1.5c-0.3-0.1-0.4-0.4-0.3-0.6c0.1-0.3,0.4-0.4,0.6-0.3l0,0
		c1.3,0.5,2.5,1,3.8,1.5c0.2,0.1,0.4,0.4,0.3,0.6c0,0,0,0,0,0C293.3,190.6,293.1,190.7,292.9,190.7L292.9,190.7z M249.8,190.2
		c-0.2,0-0.4-0.1-0.5-0.3c-0.1-0.2,0-0.5,0.3-0.6c0,0,0,0,0,0c1.2-0.5,2.5-1,3.8-1.5c0.3-0.1,0.5,0.1,0.6,0.3
		c0.1,0.3-0.1,0.5-0.3,0.6c-1.3,0.4-2.5,0.9-3.7,1.4C249.9,190.2,249.8,190.2,249.8,190.2L249.8,190.2z M285.3,188h-0.1
		c-1.3-0.4-2.6-0.6-3.9-0.9c-0.3-0.1-0.5-0.3-0.4-0.6s0.3-0.5,0.6-0.4c1.3,0.3,2.7,0.6,4,0.9c0.3,0.1,0.4,0.3,0.4,0.6c0,0,0,0,0,0
		C285.8,187.9,285.6,188,285.3,188z M257.4,187.6c-0.3,0-0.5-0.2-0.6-0.4s0.2-0.5,0.4-0.6c1.3-0.3,2.6-0.6,4-0.8
		c0.3,0,0.5,0.1,0.6,0.4c0,0,0,0,0,0c0,0.3-0.1,0.5-0.4,0.6c-1.3,0.2-2.6,0.5-3.9,0.8L257.4,187.6z M277.4,186.4L277.4,186.4
		c-1.4-0.2-2.7-0.3-4.1-0.3c-0.3,0-0.5-0.2-0.5-0.5s0.2-0.5,0.5-0.5c1.4,0.1,2.7,0.2,4.1,0.3c0.3,0,0.5,0.3,0.4,0.6
		C277.9,186.3,277.7,186.4,277.4,186.4L277.4,186.4z M265.3,186.3c-0.3,0-0.5-0.2-0.5-0.5s0.2-0.5,0.5-0.5c1.3-0.1,2.7-0.2,4.1-0.2
		c0.3,0,0.5,0.2,0.5,0.5s-0.2,0.5-0.5,0.5C268,186,266.7,186.1,265.3,186.3L265.3,186.3z"></path><path class="st0" d="M178.6,191.8c-0.6,0-1.3,0-1.9-0.1c-0.3,0-0.5-0.3-0.5-0.5c0,0,0,0,0,0c0-0.3,0.2-0.5,0.5-0.5c0,0,0,0,0,0
		c1.3,0.1,2.7,0.1,4,0c0.3,0,0.5,0.2,0.5,0.5s-0.2,0.5-0.5,0.5C180.1,191.8,179.4,191.8,178.6,191.8z M172.7,191.2h-0.1
		c-1.4-0.3-2.7-0.6-4-1.1c-0.3-0.1-0.4-0.4-0.3-0.7c0.1-0.3,0.4-0.4,0.7-0.3l0,0c1.3,0.4,2.6,0.8,3.9,1c0.3,0.1,0.4,0.3,0.4,0.6
		C173.2,191,173,191.2,172.7,191.2L172.7,191.2z M184.9,191.2c-0.3,0-0.5-0.2-0.6-0.4s0.2-0.5,0.4-0.6c1.3-0.3,2.6-0.7,3.8-1.1
		c0.3-0.1,0.5,0.1,0.6,0.4c0.1,0.2,0,0.5-0.3,0.6C187.6,190.5,186.3,190.9,184.9,191.2L184.9,191.2z M165.1,188.6
		c-0.1,0-0.2,0-0.2-0.1c-1.2-0.6-2.4-1.4-3.5-2.2c-0.2-0.2-0.3-0.5-0.1-0.7s0.5-0.3,0.7-0.1l0,0c1.1,0.8,2.2,1.5,3.4,2.1
		c0.2,0.1,0.3,0.4,0.2,0.7C165.4,188.5,165.2,188.6,165.1,188.6L165.1,188.6z M192.4,188.3c-0.3,0-0.5-0.2-0.5-0.5
		c0-0.2,0.1-0.3,0.2-0.4c1.2-0.7,2.2-1.4,3.3-2.2c0.2-0.2,0.5-0.1,0.7,0.1c0,0,0,0,0,0c0.2,0.2,0.1,0.5-0.1,0.7
		c-1.1,0.9-2.2,1.7-3.4,2.3C192.6,188.3,192.5,188.3,192.4,188.3L192.4,188.3z M158.5,183.8c-0.1,0-0.3-0.1-0.4-0.1l-0.2-0.2
		c-0.9-0.9-1.7-1.9-2.4-3c-0.2-0.2-0.1-0.5,0.1-0.7c0.2-0.2,0.5-0.1,0.7,0.1c0,0,0,0,0,0c0.7,1,1.5,2,2.4,2.9l0.2,0.2
		c0.2,0.2,0.2,0.5,0,0.7c0,0,0,0,0,0C158.8,183.7,158.7,183.8,158.5,183.8L158.5,183.8z M199.1,182.9l-0.4-0.3l-0.3-0.4
		c0.9-1,1.6-2.1,2.3-3.2c0.1-0.2,0.5-0.3,0.7-0.2c0.2,0.1,0.3,0.4,0.2,0.7c0,0,0,0,0,0C200.8,180.8,200,181.9,199.1,182.9
		L199.1,182.9z M198.7,182.7L198.7,182.7z M153.9,177.1c-0.2,0-0.4-0.1-0.4-0.3c-0.6-1.2-1.1-2.5-1.5-3.9c-0.1-0.3,0.1-0.5,0.3-0.6
		c0.3-0.1,0.5,0.1,0.6,0.3c0,0,0,0,0,0c0.4,1.3,0.9,2.5,1.5,3.7c0.1,0.2,0,0.5-0.2,0.7c0,0,0,0,0,0
		C154.1,177.1,154,177.1,153.9,177.1z M203.1,176.2c-0.1,0-0.1,0-0.2,0c-0.3-0.1-0.4-0.4-0.2-0.7c0.5-1.2,1-2.5,1.4-3.8
		c0.1-0.3,0.4-0.4,0.6-0.3c0.3,0.1,0.4,0.4,0.3,0.6c-0.4,1.3-0.9,2.6-1.4,3.9C203.4,176.1,203.2,176.2,203.1,176.2z M151.5,169.4
		c-0.2,0-0.4-0.2-0.5-0.4c-0.2-1.4-0.3-2.7-0.3-4.1c0-0.3,0.2-0.5,0.5-0.5l0,0c0.3,0,0.5,0.2,0.5,0.5c0,1.3,0.1,2.7,0.3,4
		C152,169.1,151.8,169.4,151.5,169.4C151.6,169.4,151.6,169.4,151.5,169.4L151.5,169.4z M205.4,168.4L205.4,168.4
		c-0.4,0-0.5-0.3-0.5-0.6c0.1-0.6,0.2-1.2,0.3-1.8s0.1-1.4,0.2-2.2c0-0.3,0.2-0.5,0.5-0.5c0.3,0,0.5,0.2,0.5,0.5
		c0,0.7-0.1,1.5-0.2,2.2s-0.2,1.3-0.3,1.9C205.8,168.3,205.6,168.4,205.4,168.4L205.4,168.4z M151.5,161.3L151.5,161.3
		c-0.4,0-0.5-0.3-0.5-0.6c0.1-0.9,0.3-1.8,0.5-2.6c0.1-0.5,0.3-1,0.4-1.4c0.1-0.3,0.4-0.4,0.6-0.3c0.3,0.1,0.4,0.4,0.3,0.6
		c0,0,0,0,0,0c-0.1,0.4-0.3,0.9-0.4,1.4c-0.2,0.8-0.4,1.7-0.5,2.5C151.9,161.1,151.7,161.3,151.5,161.3z M205.7,160.3
		c-0.3,0-0.5-0.2-0.5-0.4c-0.1-1.3-0.4-2.6-0.7-3.9c-0.1-0.3,0.1-0.5,0.4-0.6c0.3-0.1,0.5,0.1,0.6,0.3c0,0,0,0,0,0
		c0.4,1.3,0.6,2.7,0.7,4.1C206.2,160.1,206,160.3,205.7,160.3L205.7,160.3z M153.9,153.6c-0.1,0-0.2,0-0.2-0.1
		c-0.2-0.1-0.4-0.4-0.2-0.7c0,0,0,0,0,0c0.6-1.2,1.3-2.4,2.1-3.6c0.1-0.2,0.5-0.3,0.7-0.1c0,0,0,0,0,0c0.2,0.2,0.3,0.5,0.1,0.7
		c-0.8,1.1-1.4,2.2-2,3.4C154.3,153.5,154.1,153.6,153.9,153.6L153.9,153.6z M203.6,152.6c-0.2,0-0.4-0.1-0.4-0.3
		c-0.6-1.2-1.3-2.3-2.1-3.4c-0.2-0.2-0.1-0.5,0.1-0.7s0.5-0.1,0.7,0.1l0,0c0.8,1.1,1.5,2.3,2.1,3.6c0.1,0.2,0,0.5-0.2,0.7
		c0,0,0,0,0,0C203.7,152.5,203.7,152.5,203.6,152.6L203.6,152.6z M158.6,146.9c-0.1,0-0.2,0-0.3-0.1c-0.2-0.2-0.2-0.5,0-0.7
		c0,0,0,0,0,0c0.9-1,1.9-1.9,3-2.8c0.2-0.2,0.5-0.2,0.7,0s0.2,0.5,0,0.7c0,0,0,0-0.1,0.1c-1,0.8-2,1.7-2.9,2.7
		C158.8,146.9,158.7,146.9,158.6,146.9L158.6,146.9z M198.8,146c-0.1,0-0.3,0-0.3-0.1c-1-0.9-2-1.8-3.1-2.6
		c-0.2-0.2-0.3-0.5-0.1-0.7c0,0,0,0,0,0c0.2-0.2,0.5-0.3,0.7-0.1c1.1,0.8,2.2,1.7,3.2,2.6c0.2,0.2,0.2,0.5,0,0.7c0,0,0,0,0,0
		C199.1,146,198.9,146,198.8,146L198.8,146z M164.9,141.8c-0.2,0-0.3-0.1-0.4-0.2c-0.1-0.2-0.1-0.5,0.2-0.7c1.2-0.7,2.4-1.3,3.7-1.8
		c0.2-0.1,0.5,0,0.7,0.2c0.1,0.2,0,0.5-0.2,0.7c0,0-0.1,0-0.1,0c-1.2,0.5-2.4,1.1-3.6,1.8C165.1,141.8,165,141.8,164.9,141.8
		L164.9,141.8z M192.2,141.3c-0.1,0-0.1,0-0.2,0c-1.2-0.6-2.4-1.1-3.7-1.6c-0.2-0.1-0.4-0.4-0.2-0.7c0.1-0.2,0.3-0.3,0.6-0.3
		c1.3,0.4,2.6,1,3.8,1.6c0.2,0.1,0.3,0.4,0.2,0.7C192.6,141.2,192.4,141.3,192.2,141.3L192.2,141.3z M172.4,138.8
		c-0.3,0-0.5-0.2-0.6-0.4s0.2-0.5,0.4-0.6c1.3-0.3,2.7-0.5,4.1-0.6c0.3,0,0.5,0.2,0.5,0.4c0,0.3-0.2,0.5-0.4,0.5c0,0,0,0,0,0
		c-1.3,0.1-2.6,0.3-3.9,0.6L172.4,138.8z M184.6,138.7h-0.1c-1.3-0.3-2.7-0.4-4-0.5c-0.3,0-0.5-0.2-0.5-0.5c0-0.3,0.2-0.5,0.5-0.5
		c0,0,0,0,0,0c1.4,0.1,2.7,0.2,4.1,0.5c0.3,0.1,0.4,0.3,0.4,0.6c0,0,0,0,0,0C185,138.5,184.8,138.7,184.6,138.7L184.6,138.7z"></path><path class="st0" d="M164.4,275.6L164.4,275.6c-1.4-0.1-2.7-0.2-4.1-0.5c-0.3-0.1-0.5-0.3-0.4-0.6s0.3-0.5,0.6-0.4
		c1.3,0.3,2.6,0.4,3.9,0.5c0.3,0,0.5,0.2,0.5,0.5S164.7,275.6,164.4,275.6L164.4,275.6z M168.4,275.5c-0.3,0-0.5-0.2-0.5-0.5
		s0.2-0.5,0.5-0.5c1.3-0.2,2.6-0.4,3.9-0.8c0.3-0.1,0.6,0.1,0.6,0.4c0.1,0.3-0.1,0.6-0.4,0.6c-1.3,0.4-2.6,0.7-4,0.8L168.4,275.5z
		 M156.4,274.1h-0.2c-1.3-0.5-2.5-1.1-3.7-1.8c-0.2-0.2-0.3-0.5-0.1-0.7c0.1-0.2,0.4-0.3,0.6-0.2c1.1,0.7,2.3,1.2,3.6,1.7
		c0.3,0.1,0.4,0.4,0.3,0.6C156.8,273.9,156.6,274,156.4,274.1L156.4,274.1z M176,273.2c-0.2,0-0.4-0.1-0.4-0.3
		c-0.1-0.2,0-0.5,0.2-0.7c1.2-0.6,2.3-1.3,3.4-2.1c0.2-0.2,0.5-0.1,0.7,0.1c0.1,0.2,0.1,0.5-0.1,0.7c-1.1,0.8-2.3,1.6-3.5,2.2
		C176.2,273.2,176.2,273.2,176,273.2L176,273.2z M149.5,270c-0.1,0-0.2,0-0.3-0.1c-0.5-0.4-1-0.9-1.4-1.4c-0.5-0.5-1-1.1-1.4-1.6
		c-0.2-0.2-0.1-0.5,0.1-0.7c0.2-0.2,0.5-0.1,0.7,0.1c0.4,0.5,0.9,1.1,1.3,1.6c0.4,0.5,0.9,0.9,1.4,1.3c0.2,0.2,0.2,0.5,0,0.7
		C149.8,269.9,149.6,270,149.5,270z M182.9,268.1l-0.4-0.3l-0.3-0.4c0.9-1,1.6-2.1,2.3-3.2c0.2-0.2,0.5-0.3,0.7-0.1
		c0.2,0.1,0.3,0.4,0.2,0.6C184.6,265.9,183.8,267,182.9,268.1L182.9,268.1z M182.5,267.8L182.5,267.8z M144.6,263.6
		c-0.2,0-0.4-0.1-0.4-0.3c-0.6-1.2-1.2-2.5-1.6-3.8c-0.1-0.3,0.1-0.5,0.3-0.6c0.3-0.1,0.5,0.1,0.6,0.3c0.4,1.3,0.9,2.5,1.5,3.7
		c0.1,0.2,0,0.5-0.2,0.7c0,0,0,0,0,0C144.7,263.6,144.6,263.6,144.6,263.6L144.6,263.6z M186.6,261.3c-0.1,0-0.1,0-0.2,0
		c-0.3-0.1-0.4-0.4-0.3-0.6c0,0,0,0,0,0c0.5-1.2,0.9-2.5,1.2-3.8c0.1-0.3,0.3-0.4,0.6-0.4c0.3,0.1,0.4,0.3,0.4,0.6
		c-0.3,1.3-0.7,2.7-1.2,3.9C187,261.2,186.8,261.3,186.6,261.3L186.6,261.3z M142.2,256c-0.2,0-0.5-0.2-0.5-0.4
		c-0.1-1-0.2-2-0.2-3.1c0-0.4,0-0.7,0-1.1c0-0.3,0.2-0.5,0.5-0.5c0,0,0,0,0,0c0.3,0,0.5,0.3,0.5,0.5c0,0.3,0,0.7,0,1
		c0,1,0.1,2,0.2,2.9C142.7,255.7,142.5,255.9,142.2,256L142.2,256z M188.5,253.5L188.5,253.5c-0.3,0-0.5-0.3-0.5-0.5
		c0.1-0.8,0.1-1.6,0.1-2.3c0-0.6,0-1.1,0-1.7c0-0.3,0.2-0.5,0.5-0.5s0.5,0.2,0.5,0.5c0,0.6,0.1,1.1,0.1,1.7c0,0.8,0,1.6-0.1,2.4
		C189,253.3,188.7,253.5,188.5,253.5L188.5,253.5z M142.6,248h-0.1c-0.3-0.1-0.4-0.3-0.4-0.6c0,0,0,0,0,0l0.1-0.5
		c0.3-1.2,0.7-2.3,1.2-3.4c0.1-0.3,0.4-0.4,0.7-0.3c0,0,0,0,0,0c0.3,0.1,0.4,0.4,0.3,0.6c0,0,0,0,0,0c-0.5,1.1-0.8,2.1-1.1,3.3
		l-0.1,0.5C143,247.8,142.8,247.9,142.6,248L142.6,248z M187.9,245.5c-0.2,0-0.4-0.2-0.5-0.4c-0.3-1.3-0.8-2.5-1.4-3.7
		c-0.1-0.2,0-0.5,0.2-0.7c0.2-0.1,0.5,0,0.7,0.2c0,0,0,0,0,0c0.3,0.6,0.6,1.2,0.8,1.8c0.3,0.7,0.5,1.4,0.7,2.1
		c0.1,0.3-0.1,0.5-0.4,0.6c0,0,0,0,0,0C187.9,245.4,187.9,245.4,187.9,245.5L187.9,245.5z M145.8,240.6c-0.1,0-0.2,0-0.3-0.1
		c-0.2-0.2-0.3-0.5-0.1-0.7c0.8-1.1,1.6-2.2,2.6-3.2c0.2-0.2,0.5-0.2,0.7,0c0,0,0,0,0,0c0.2,0.2,0.2,0.5,0,0.7c0,0,0,0,0,0
		c-0.9,1-1.7,2-2.4,3.1C146.1,240.5,145.9,240.5,145.8,240.6L145.8,240.6z M184.1,238.4c-0.1,0-0.3-0.1-0.4-0.2
		c-0.8-1-1.8-1.9-2.8-2.8c-0.2-0.2-0.2-0.5-0.1-0.7c0.2-0.2,0.5-0.2,0.7-0.1c0,0,0,0,0,0c1.1,0.9,2,1.9,2.9,2.9
		c0.2,0.2,0.1,0.5-0.1,0.7c0,0,0,0,0,0C184.4,238.3,184.3,238.3,184.1,238.4L184.1,238.4z M151.3,234.7c-0.2,0-0.3-0.1-0.4-0.2
		c-0.2-0.2-0.1-0.5,0.1-0.7c1.1-0.8,2.3-1.6,3.5-2.2c0.2-0.1,0.6,0,0.7,0.2c0.1,0.2,0,0.6-0.2,0.7l0,0c-1.2,0.6-2.3,1.3-3.3,2.1
		C151.5,234.6,151.4,234.7,151.3,234.7L151.3,234.7z M178,233.2c-0.1,0-0.2,0-0.2-0.1c-1.1-0.7-2.3-1.2-3.6-1.7
		c-0.3-0.1-0.4-0.4-0.3-0.6c0.1-0.3,0.4-0.4,0.6-0.3c1.3,0.5,2.5,1.1,3.7,1.8c0.2,0.1,0.3,0.4,0.2,0.7
		C178.3,233.1,178.1,233.2,178,233.2L178,233.2z M158.4,231c-0.2,0-0.4-0.1-0.5-0.4c-0.1-0.3,0.1-0.5,0.3-0.6c1.3-0.4,2.6-0.7,4-0.9
		c0.3,0,0.5,0.2,0.6,0.4s-0.2,0.5-0.4,0.6c-1.3,0.2-2.6,0.4-3.9,0.8L158.4,231z M170.4,230.4h-0.1c-1.3-0.3-2.6-0.4-3.9-0.4
		c-0.3,0-0.5-0.2-0.5-0.5s0.2-0.5,0.5-0.5c1.4,0,2.7,0.2,4.1,0.5c0.3,0,0.4,0.3,0.4,0.6c0,0,0,0,0,0
		C170.8,230.2,170.6,230.3,170.4,230.4L170.4,230.4z"></path></g><g id="jar"><path class="st1" d="M383.5,9.6c-6-1.6-12.5,1.2-17,5.5s-7.3,10-10,15.6c1.8-3.6-2.5-7.3-5.6-8.1c-3.8-0.9-8.3,1.1-12,1.8
		c-11.1,2.1-22.3,4.2-33.4,6.3c-8.5,1.6-17.3,3.3-24.3,8.3S269.3,53,272,61.2c-11.3,0.9-22.2-3.7-33.4-5.8s-24.5-1-31.1,8.1
		c-2.9,4-4.1,9-5.1,13.9c-0.8,3.9-0.9,8.8,2.5,10.9c2.9,1.7,6.7,0.1,9-2.3s3.8-5.5,6.1-7.9c6.1-6.5,16.5-6.4,25.2-4.2
		C268.4,79.7,289,97,313,96.5c9.8-0.2,19.2-3.4,28.4-6.5l27.4-9.3c1.6-0.4,3.1-1.2,4.3-2.4c2.9-3.6-1-8.7-1.5-13.4
		c-0.7-6.7,5.8-11.6,10.9-16c6.1-5.3,11.3-12.2,12.3-20.2S391.4,11.6,383.5,9.6z M375,42.4c-2.1,1.3-4.7,1.3-6.9,0.2
		c-2.3-1.4-3.2-4.4-3-7.1c0.5-2.7,1.4-5.2,2.9-7.5c2.8-5,12.2-12.8,15.3-3.5C385.3,30.1,379.8,39.7,375,42.4z"></path><path class="st0" d="M312.1,97.3c-14.3,0-27.6-6.2-40.4-12.2c-8.6-4-17.5-8.2-26.7-10.5c-15-3.8-22.1,1.6-24.4,4
		c-1.1,1.2-2,2.5-2.9,3.8c-0.9,1.5-2,2.8-3.2,4.1c-2.5,2.5-6.6,4.4-9.9,2.4c-3-1.8-4-5.7-2.8-11.7c0.9-4.6,2.1-9.9,5.2-14.2
		c5.9-8,17.8-11.2,31.9-8.5c3.5,0.7,7,1.6,10.3,2.5c7.2,1.9,14.5,3.8,21.9,3.4c-2.2-8.5,3.2-17.5,9.9-22.2
		c7.3-5.1,16.5-6.9,24.6-8.4l11.1-2.1c7.4-1.4,14.9-2.8,22.3-4.2c1-0.2,2.1-0.5,3.2-0.8c3-0.8,6.1-1.7,9-1c2.6,0.7,4.7,2.5,6,4.8
		c0.1,0.2,0.2,0.4,0.2,0.5c2.2-4.4,4.9-9.1,8.6-12.7c4.1-3.9,10.8-7.5,17.7-5.7l0,0c8.5,2.2,12.8,12.1,11.9,19.9
		c-1.1,9.1-7.4,16.3-12.5,20.7l-1.2,1c-4.7,4-10.1,8.5-9.4,14.3c0.2,1.6,0.7,3.1,1.2,4.6c1.1,3.2,2.3,6.6,0.1,9.3
		c-1.3,1.3-2.9,2.2-4.6,2.7l-27.5,9.3c-9.2,3.1-18.7,6.4-28.6,6.6L312.1,97.3z M235,71.8c3.5,0,6.9,0.5,10.3,1.3
		c9.3,2.3,18.3,6.5,27,10.6c13.6,6.3,26.4,12.3,40.7,12c9.7-0.2,19.1-3.4,28.2-6.5l27.4-9.3c1.7-0.6,3.1-1.1,4-2.2
		c1.7-2.1,0.7-4.9-0.3-7.8c-0.6-1.6-1.1-3.3-1.3-5c-0.7-6.6,5-11.4,10-15.7l1.2-1c4.9-4.2,11-11.1,12-19.7
		c0.8-7.2-3.1-16.2-10.8-18.2l0,0c-6.2-1.6-12.5,1.7-16.3,5.3c-4.5,4.4-7.4,10.3-9.9,15.4l0,0c-0.2,0.4-0.6,0.5-1,0.4
		c-0.4-0.2-0.5-0.6-0.4-1c0,0,0,0,0,0l0,0c0.5-0.9,0.5-2.1,0-3c-1.1-2-2.9-3.4-5-4c-2.5-0.6-5.4,0.2-8.3,1c-1.2,0.3-2.3,0.6-3.4,0.8
		c-7.4,1.4-14.9,2.8-22.3,4.2l-11,2.1c-8,1.5-17,3.2-24,8.1c-6.5,4.5-11.7,13.4-9,21.5c0.1,0.2,0,0.5-0.1,0.7
		c-0.1,0.2-0.3,0.3-0.6,0.3c-8,0.6-15.8-1.4-23.4-3.4c-3.4-0.9-6.8-1.8-10.2-2.4c-5.1-1-22.3-3.3-30.4,7.9c-2.9,4-4.1,9.1-4.9,13.6
		c-1,5.3-0.3,8.7,2.1,10.1s5.9,0.1,8.1-2.1c1.1-1.2,2.1-2.5,3-3.9c0.9-1.4,1.9-2.8,3.1-4C223.6,73.1,229.5,71.8,235,71.8z
		 M371.3,44.2c-1.2,0-2.4-0.3-3.5-0.9c-2.4-1.4-3.7-4.5-3.3-7.8c0.5-2.8,1.5-5.4,3-7.8c2-3.6,7.3-8.6,11.6-8.2
		c1.6,0.1,3.8,1.1,5,4.8c2.1,6.2-4,16.1-8.7,18.8l0,0C374.1,43.8,372.7,44.1,371.3,44.2z M378.6,20.9c-3.5,0-8,4.2-9.8,7.5
		c-1.4,2.5-2.5,4.8-2.8,7.2c-0.2,2.2,0.5,5.1,2.6,6.4c1.9,1,4.3,0.9,6.1-0.2l0,0c4.4-2.5,9.9-11.6,8-17c-0.8-2.4-2.1-3.6-3.8-3.8
		L378.6,20.9z M375.1,42.4L375.1,42.4z"></path><path class="st2" d="M310.9,34.5c-1.3,0.2-2.6,0.2-3.9,0c-1.3-0.3-2.4-1.1-3-2.3c-0.5-1.8,0.1-3.7,1.6-4.8c1.5-1,3.2-1.7,5-2.1
		l9.5-2.4c2.2-0.6,4.9-1,6.5,0.6C333.1,30,313.9,34.1,310.9,34.5z"></path><path class="st2" d="M212.3,83.7c-0.2,0-0.4-0.2-0.5-0.4c-0.6-2.8-3.3-4.7-6.2-4.1c-0.4,0.1-0.8,0.2-1.2,0.4
		c-0.2,0.1-0.5,0-0.7-0.2c0,0,0,0,0,0c-0.1-0.2,0-0.5,0.2-0.7c0,0,0,0,0,0c3.1-1.5,6.8-0.1,8.3,3c0.2,0.4,0.4,0.9,0.5,1.4
		c0.1,0.3-0.1,0.5-0.4,0.6C212.4,83.7,212.4,83.7,212.3,83.7L212.3,83.7z"></path><path class="st2" d="M288.3,77.6c-0.1,0-0.1,0-0.2,0c-0.3-0.1-0.4-0.4-0.3-0.6c1.2-4.1,0-8.6-3.2-11.5c-3.3-2.8-7.6-4.1-11.9-3.6
		c-0.3,0-0.5-0.2-0.5-0.5c0-0.3,0.2-0.5,0.4-0.5c0,0,0,0,0,0c4.6-0.5,9.2,0.9,12.6,3.9c3.5,3.2,4.8,8,3.5,12.5
		C288.7,77.5,288.5,77.6,288.3,77.6z"></path><path class="st2" d="M358.7,80.8c-0.2,0-0.3-0.1-0.4-0.2c-0.1-0.2-0.1-0.5,0.1-0.7c0,0,0,0,0,0c3.6-2.3,7.6-5,8.2-9.1
		c0.4-2.2-0.4-4.6-1-6.6c-3.9-12.1-8-24.4-12.2-36.4c-0.1-0.3,0.1-0.6,0.3-0.7c0.3-0.1,0.6,0.1,0.7,0.3c4.2,12,8.4,24.3,12.2,36.4
		c0.6,2,1.5,4.6,1.1,7c-0.7,4.5-4.8,7.4-8.6,9.8C359,80.8,358.8,80.8,358.7,80.8z"></path></g><g id="oil"><path class="st0" d="M205,101.9c-0.6,3.1-2.1,5.9-3,8.9s-1.2,6.4,0.4,9.1c0.2,0.4,0.5,0.7,0.9,0.9c1.1,0.5,2.3-0.7,2.5-1.8
		s-0.1-2.4,0-3.6s1.3-2.4,2.4-2c0.5,0.2,0.9,0.7,1.4,0.9c1.3,0.5,2.3-1.1,2.6-2.4c2.2-7.9,0-16.2-2.3-24.1c-0.3-1-1.3-4.3-2.8-4.1
		s-1.7,4.1-1.8,5.2C205.1,93.3,205.9,97.6,205,101.9z"></path><path class="st0" d="M117,213.2c-2.3,0.3-4.5,1.4-6.1,3.1c-1.5,1.8-1.8,4.7-0.2,6.4c1.9,2,5.3,1.4,7.7,0.1s4.7-3.3,7.4-3.7
		c1.2-0.2,2.5,0,3.7-0.2c1.3-0.1,2.4-0.9,2.9-2C134,212.6,119.2,212.8,117,213.2z"></path><path class="st0" d="M116.2,238.7c-0.2,1.5,0.1,3.4,1.4,4.1c1.2,0.5,2.6,0.2,3.5-0.8c0.8-1,1.5-2.1,1.8-3.4
		c1.3-3.4,2.5-6.9,3.8-10.3c0.4-1.1-0.2-2.3-1.2-2.7c-0.5-0.2-1.1-0.2-1.7,0.1C119.7,227.9,116.6,235.1,116.2,238.7z"></path><path class="st0" d="M328.3,178.3c0.8-1.3,2-2.3,3.4-2.9c1.5-0.5,3.1,0.1,3.9,1.5c0.8,1.6-0.5,3.5-1.9,4.7s-3.1,2-4.1,3.5
		c-0.4,0.7-0.6,1.5-1,2.2c-0.4,0.7-1.1,1.2-1.9,1.3C323.7,188.4,327.5,179.6,328.3,178.3z"></path><path class="st0" d="M343.8,184.2c1,0.3,2,0.9,2.1,1.9c0,0.9-0.5,1.6-1.3,1.9c-0.8,0.3-1.6,0.3-2.5,0.2l-7.1-0.3
		c-0.7,0-1.3-0.7-1.3-1.4c0-0.4,0.2-0.7,0.5-0.9C336.4,183.6,341.5,183.5,343.8,184.2z"></path></g><g id="moving-effect"><path class="st2" d="M246.9,319.9h-0.1c-21.9-3-41.2-15.8-52.4-34.8c-0.3-0.5-0.1-1.1,0.4-1.4c0,0,0,0,0,0c0.5-0.3,1.1-0.1,1.4,0.4
		c10.9,18.5,29.6,30.9,50.9,33.8c0.6,0,1,0.5,0.9,1.1S247.4,320,246.9,319.9L246.9,319.9z"></path><path class="st2" d="M207.2,316.2c-0.1,0-0.3,0-0.4-0.1c-8-3.6-14.6-9.6-19-17.1c-0.3-0.5-0.2-1.1,0.3-1.4c0.5-0.3,1.1-0.2,1.4,0.3
		c0,0,0,0,0,0.1c4.2,7.2,10.5,12.9,18.1,16.3c0.5,0.2,0.7,0.8,0.5,1.3C208,316,207.6,316.2,207.2,316.2L207.2,316.2z"></path><path class="st2" d="M354.8,282.2c-0.2,0-0.4-0.1-0.5-0.1c-0.5-0.3-0.6-0.9-0.4-1.4c27.1-45.6,12-104.5-33.6-131.5
		c-2.5-1.5-5.1-2.9-7.8-4.2c-0.5-0.2-0.7-0.8-0.5-1.3c0,0,0,0,0,0c0.2-0.5,0.8-0.7,1.3-0.5c48.9,23.2,69.7,81.7,46.5,130.6
		c-1.3,2.7-2.7,5.4-4.2,7.9C355.4,282,355.1,282.2,354.8,282.2z"></path><path class="st2" d="M325.8,303.3c-0.6,0-1-0.4-1-1c0-0.3,0.1-0.6,0.4-0.8c22.5-17.9,33.9-46.3,30-74.8c-0.1-0.6,0.3-1.1,0.9-1.1
		c0.6-0.1,1.1,0.3,1.1,0.9c3.9,29.2-7.8,58.3-30.8,76.7C326.2,303.3,326,303.3,325.8,303.3z"></path><path class="st2" d="M125.4,168.7c-0.5,0-1-0.4-1-0.9c-1.4-21,11.5-42.4,30.8-50.8c0.5-0.2,1.1,0,1.3,0.5c0,0,0,0,0,0
		c0.2,0.5,0,1.1-0.5,1.3c-18.5,8.1-31,28.7-29.6,48.9C126.4,168.2,126,168.7,125.4,168.7L125.4,168.7z"></path><path class="st2" d="M120.8,145.8c-0.1,0-0.2,0-0.3,0c-0.5-0.2-0.8-0.7-0.7-1.2c2.7-8.6,8-16.2,15.2-21.7c0.4-0.4,1-0.4,1.4,0
		c0.4,0.4,0.4,1,0,1.4c0,0-0.1,0.1-0.2,0.1c-6.8,5.3-11.9,12.5-14.5,20.7C121.7,145.5,121.3,145.8,120.8,145.8z"></path></g></svg>