<svg transform="scale(1)" version="1.1" id="Layer_1" xmlns="http://www.w3.org/2000/svg" xmlns:xlink="http://www.w3.org/1999/xlink" x="0px" y="0px" viewBox="0 0 500 500" xml:space="preserve" class="show_show__wrapper__graphic__5Waiy "><title>React</title><style type="text/css">
	.st0{fill:#FFFFFF;}
	.st1{fill:#111111;}
	.st2{fill:#128FFF;}
</style><g id="floor"><path class="st0" d="M29.5,454.8c-2.4,0.9-5,2.1-5.8,4.5s0.6,4.9,2.6,6.3s4.5,1.9,6.9,2.4c18.1,3.5,37.7,6.9,54.2-1.3
		c3.5-1.7,6.9-4.2,7.9-7.9C100.4,440.1,37.6,451.9,29.5,454.8z"></path><path class="st1" d="M62.9,472.5c-10.6,0-21.2-2-29.9-3.8c-2.3-0.5-5-1-7.2-2.5s-3.8-4.3-2.9-7.2c0.9-2.7,3.7-4,6.3-5l0,0
		c3.4-1.2,16.7-4.1,31.2-5.6c12.4-1.2,28.3-1.7,33.8,3.5c2,1.8,2.7,4.5,1.8,7c-0.9,3.3-3.7,6.1-8.3,8.4
		C79.9,471.2,71.4,472.5,62.9,472.5z M29.7,455.5L29.7,455.5c-2.3,0.8-4.7,1.9-5.4,4s0.7,4.3,2.3,5.5c1.9,1.3,4.4,1.8,6.6,2.3
		c15.5,3,36.7,7.2,53.7-1.2c4.2-2.1,6.8-4.6,7.6-7.5c0.7-1.9,0.2-4.1-1.3-5.4c-4-3.7-15.6-4.8-32.7-3.1
		C46.4,451.5,32.9,454.4,29.7,455.5L29.7,455.5z"></path><path class="st0" d="M129.2,450c-5.6,1.4-12.3,4.8-12,10.6c0.3,6,7.7,8.6,13.7,9.5c28,4.1,56.3,4.7,84.5,5.3
		c36.1,0.8,73.9,1.1,105.8-15.8c34.5,5.5,69.5,7.7,104.4,6.7c17.2-0.5,34.9-2,50.3-9.7c4.4-2.2,8.7-5,11.4-9.1s3.6-9.7,1.1-14
		c-3.1-5.2-9.9-6.7-16-7.6c-36.4-5.1-73.2-5.3-109.6-0.8c-15,1.9-30.9,5-41.8,15.5c-1.7,1.6-17.2-1.3-19.9-1.5
		c-6.9-0.4-13.8-0.7-20.8-0.9c-14.4-0.4-28.8-0.4-43.1,0.2c-21.9,0.8-42.6,4.8-64.1,7.3C158.4,447.2,143.9,446.2,129.2,450z"></path><path class="st1" d="M236.7,476.4c-7.2,0-14.4-0.1-21.3-0.3c-27.8-0.6-56.6-1.2-84.6-5.3c-4.2-0.6-14-2.8-14.3-10.2
		s9.5-10.6,12.6-11.4c9.5-2.4,19-2.9,28.2-3.3c5.2-0.2,10.6-0.5,15.9-1.1c7.1-0.8,14.3-1.8,21.2-2.8c13.9-2,28.3-4,42.9-4.5
		c14.3-0.5,28.9-0.6,43.2-0.2c6.9,0.2,13.9,0.5,20.8,0.9c0.8,0,2.4,0.3,4.4,0.6c4.1,0.6,13.8,2,14.9,1.1
		c11-10.5,26.8-13.8,42.2-15.7c36.5-4.6,73.4-4.3,109.9,0.8c6.7,0.9,13.3,2.5,16.5,7.9c2.4,4.2,2,10.1-1.1,14.8
		c-2.4,3.6-6.1,6.6-11.7,9.4c-16.1,8.1-34.6,9.2-50.6,9.7c-34.9,1.1-69.8-1.2-104.3-6.6C295.2,474.1,265.2,476.4,236.7,476.4z
		 M129.2,450l0.2,0.7c-2.8,0.7-11.8,3.5-11.5,9.8s9.2,8.2,13,8.8c27.9,4.1,56.7,4.7,84.4,5.2c34.2,0.7,72.9,1.5,105.4-15.7
		c0.1-0.1,0.3-0.1,0.5-0.1c34.5,5.5,69.4,7.7,104.3,6.6c15.9-0.5,34.1-1.7,50-9.6c5.4-2.7,8.9-5.5,11.1-8.9s3.6-9,1.1-13.2
		c-2.9-4.9-9.1-6.3-15.4-7.2c-36.3-5.1-73.1-5.3-109.4-0.8c-15.2,1.9-30.7,5-41.3,15.3c-1.3,1.2-6.4,0.7-16.2-0.7
		c-1.9-0.3-3.6-0.5-4.3-0.6c-6.9-0.4-13.9-0.7-20.7-0.9c-14.3-0.4-28.8-0.4-43.1,0.2c-14.6,0.5-28.9,2.5-42.8,4.5
		c-6.9,1-14.1,2-21.2,2.8c-5.4,0.6-10.8,0.9-16,1.1c-9.1,0.5-18.6,0.9-27.9,3.3L129.2,450z"></path></g><g id="image-logo"><path class="st0" d="M358.9,246l92.7-48.2c2.5-1.3,2.8-5.6,0.8-9.9c-16.8-35.9-34.8-71.3-53.8-106.3c-2.4-4.4-6.4-6.8-9-5.4
		l-93.6,49.9c-2.5,1.3-2.8,5.9-0.6,10.3c7.5,15,21,40.2,24.1,46.1c10.1,19.2,20.2,38.5,30.2,57.8C352.2,244.8,356.3,247.4,358.9,246
		z"></path><path class="st1" d="M357.4,247.1c-2.8,0-6.1-2.5-8.2-6.5l-7.1-13.5c-7.6-14.5-15.4-29.5-23.1-44.2c-0.6-1.1-1.6-3-2.8-5.3
		c-5.3-10-15.2-28.7-21.3-40.8c-2.4-4.8-2-9.7,0.9-11.3l93.6-49.9c3-1.6,7.4,0.9,10,5.8c18.9,34.8,37,70.6,53.8,106.3
		c2.2,4.7,1.7,9.4-1.1,10.9l-92.7,48.2l-0.4-0.7l0.4,0.7C358.7,246.9,358,247.1,357.4,247.1z M391.2,76.5c-0.4,0-0.9,0.1-1.2,0.3
		l-93.6,49.9c-2.1,1.1-2.2,5.3-0.2,9.3c6.1,12.1,16,30.7,21.3,40.8c1.2,2.4,2.2,4.2,2.8,5.3c7.8,14.7,15.6,29.7,23.2,44.2l7.1,13.5
		c2.1,4.1,5.8,6.6,8.1,5.4l92.7-48.2c2.1-1.1,2.3-5,0.5-8.9C435,152.5,416.9,116.7,398,82C396.2,78.7,393.4,76.5,391.2,76.5z"></path><path class="st2" d="M360.4,231.9l80.6-42.4c2.1-1.1,3.1-3.7,2.1-5.9c-7.9-18.5-16.7-36.7-26.4-54.3c-1.2-2.2-4-3-6.3-1.8
		l-81.5,43.6c-2.2,1.2-3.1,3.9-2,6.1c3.7,7.7,10.5,20.5,12.1,23.4c5.1,9.8,10.1,19.6,15.1,29.4C355.2,232.2,358,233.1,360.4,231.9
		C360.3,231.9,360.3,231.9,360.4,231.9z"></path><path class="st0" d="M357.4,220c0.7,1.5,1.6,3.2,3.2,3.6c1.3,0.2,2.6-0.1,3.7-0.8c23-11.3,45.5-23.5,67.5-36.6
		c1.9-0.6,2.9-2.5,2.4-4.4c-0.2-0.5-0.4-1-0.8-1.4l-7.8-14.6c-2.4,0.3-4.9,0.5-7.3,0.4c-3.7-0.1-7.1,2.4-8.1,6
		c-1.4,4.8-3.1,9.4-5,14c-8.9-5.3-18-10.3-27.2-15.1c-4.6-2.3-10.3-0.8-13,3.6l-12,19.4c-1,1.6-3.2,4-3.6,5.9s1,3.7,1.7,5.3
		L357.4,220z"></path><path class="st0" d="M388.2,159.1c-0.6,5.2,3.1,9.9,8.3,10.5c5.2,0.6,9.9-3.1,10.5-8.3c0.4-3.1-0.8-6.2-3.1-8.2
		c-3.9-3.5-9.9-3.2-13.4,0.7C389.2,155.3,388.4,157.1,388.2,159.1z"></path><path class="st2" d="M320,152.6c2.2,1.7,4.7,2.7,7.5,3c3.2,0.1,6.4-1.1,8.8-3.2c5.6-4.7,7.5-13.4,4.1-19.9
		c-3.9-7.4-15.9-11.7-22.5-5.6C309.5,134.8,311,146.1,320,152.6z"></path><path class="st2" d="M349.7,121.2c1.9-0.7,3.7-1.7,5.4-3c10-6.7,20.5-12.6,31.5-17.5c1.8-0.7,3.6-1.7,5.1-2.9
		c1.5-1.3,2.4-3.2,1.6-4.5s-2.5-1.4-4.2-1c-1.7,0.5-3.4,1.2-4.9,2.2l-28.6,16.6c-2.6,1.5-7.9,3.4-9.9,5.5
		C343.1,119.5,345.8,123.2,349.7,121.2z"></path><path class="st2" d="M355.8,132.6c1.9-0.7,3.7-1.7,5.4-2.9c10-6.7,20.5-12.6,31.5-17.5c1.8-0.7,3.6-1.7,5.1-2.9
		c1.5-1.3,2.4-3.2,1.6-4.5s-2.5-1.4-4.2-1c-1.7,0.5-3.4,1.3-4.9,2.2l-28.6,16.6c-2.6,1.5-7.9,3.4-9.9,5.5
		C349.3,130.9,351.9,134.7,355.8,132.6z"></path><path class="st2" d="M361.5,143.4c1.9-0.7,3.7-1.7,5.4-2.9c10-6.7,20.5-12.6,31.5-17.5c1.8-0.7,3.6-1.7,5.1-2.9
		c1.5-1.3,2.4-3.2,1.6-4.5s-2.5-1.4-4.2-1c-1.7,0.5-3.4,1.2-4.9,2.2l-28.6,16.6c-2.6,1.5-7.9,3.4-9.9,5.5
		C355,141.7,357.6,145.4,361.5,143.4z"></path></g><g id="character"><path class="st0" d="M146.7,273.5c-3.7,2.6-7.6,5-10.5,8.5s-4.8,8.2-3.5,12.5c1.7,6,8.8,9.1,15,8.5s11.7-4.3,16.8-7.9
		c9.2-6.5,18.2-13.7,25.1-22.7s11.5-20,11.1-31.3c-0.7-19.7-15.1-8.2-21.5,0.5C170.1,253.9,159.2,264.7,146.7,273.5z"></path><path class="st1" d="M146,303.7c-5.9,0-12.3-3.2-14-9.1c-1.2-4.2,0.2-9.1,3.7-13.2c2.6-3,5.9-5.3,9.1-7.5c0.5-0.4,1-0.7,1.5-1.1
		c12.4-8.8,23.3-19.5,32.2-31.8c4.1-5.5,12.2-13.1,17.7-11.4c3.2,1,5,4.8,5.2,11.3c0.4,10.5-3.6,21.8-11.3,31.8
		c-7.2,9.4-16.8,16.8-25.2,22.8c-5.1,3.7-10.7,7.3-17.1,8C147.2,303.7,146.6,303.7,146,303.7z M147.2,274.1l-1.5,1.1
		c-3.1,2.1-6.4,4.4-8.8,7.3c-3.2,3.7-4.4,8.1-3.4,11.8c1.6,5.8,8.5,8.5,14.2,7.9c6-0.7,11.4-4.2,16.4-7.7
		c8.3-5.9,17.8-13.2,24.9-22.5c7.5-9.7,11.4-20.7,11-30.9c-0.2-5.7-1.6-9.2-4.1-10c-4.2-1.3-11.4,4.6-16,10.9
		C170.7,254.3,159.7,265.2,147.2,274.1L147.2,274.1z M146.7,273.5L146.7,273.5z"></path><path class="st1" d="M263.1,446.4c-2.5,2-5.2,4.7-4.5,7.8c0.5,2.3,2.9,3.9,5.2,4.1c2.4,0.1,4.7-0.3,6.9-1.2
		c15.8-5.2,30.8-12.7,44.5-22.4c3.1-2.2,6.4-5.1,6.2-8.9c-0.2-4.2-4.6-7-8.8-8c-3.4-0.8-8.4-2.9-11.8-2c-3.9,1-8.8,7-11.9,9.5
		L263.1,446.4z"></path><path class="st1" d="M134.8,434.8c-3.1-0.4-6.9-0.5-8.7,2c-1.3,2-0.8,4.7,0.6,6.6c1.5,1.8,3.5,3.2,5.6,4.2
		c14.7,7.9,30.4,13.7,46.8,17c3.7,0.7,8.1,1.1,10.8-1.6c3-3,1.9-8.2-0.2-11.9c-1.7-3-3.7-8.1-6.7-9.9c-3.5-2.1-11.1-1.6-15.1-2.1
		L134.8,434.8z"></path><path class="st0" d="M283.8,373.8c9.5-4,21-7.5,29.9-3.5c10.2,4.6,10.9,16.6,7,26.1c-8.2,20.2-30.3,35-52.2,47.1
		c-13.7,7.6-28.3,14.8-44.2,16.9c-27,3.5-52.1-8.4-71-23.1c-12.4-9.7-23.4-21-28.5-34.5c-2.5-6.6-3.5-14,0.3-20.5
		c4.2-7.1,13.7-11.7,23.2-12.9s18.8,0.4,27.6,2.8c19.6,5.2,37.5,14,52.1,25.6c5,4,5,6,11,1.7c4.6-3.2,9.1-6.5,13.9-9.5
		C262.7,383.8,273.1,378.4,283.8,373.8z"></path><path class="st1" d="M214.5,461.8c-25.4,0-47.2-12.6-61.7-23.9c-14.9-11.5-24.2-22.9-28.8-34.9c-3.2-8.3-3-15.4,0.4-21.2
		c4-6.8,13.1-11.9,23.7-13.2c8.1-1,16.7-0.2,27.9,2.8c19.6,5.2,37.7,14.1,52.3,25.7c0.9,0.7,1.6,1.3,2.2,1.9c2.9,2.5,3.4,3,7.9-0.2
		c4.2-3,9-6.4,13.9-9.5c9.9-6.2,20.3-11.6,31.1-16.2l0,0c13.2-5.6,23.2-6.8,30.4-3.5c10.7,4.8,11.4,17.4,7.5,27
		c-8.5,20.9-31.3,35.7-52.5,47.5c-12.8,7.1-27.8,14.8-44.5,17C221.1,461.6,217.8,461.8,214.5,461.8z M154.9,369.7
		c-2.2,0-4.4,0.1-6.5,0.4c-10.1,1.3-18.8,6.1-22.6,12.5c-3.2,5.4-3.3,12-0.3,19.9c4.5,11.6,13.7,22.8,28.3,34.2
		c29.2,22.7,54.4,25,70.4,22.9c16.4-2.1,31.3-9.8,44-16.8c21-11.6,43.6-26.3,51.9-46.7c3.6-9,3.1-20.7-6.7-25.1
		c-6.9-3.1-16.4-2-29.2,3.5l0,0c-10.7,4.6-21,9.9-30.9,16.1c-4.9,3.1-9.7,6.5-13.9,9.5c-5.2,3.7-6.5,3-9.8,0.1
		c-0.6-0.5-1.3-1.2-2.2-1.8c-14.5-11.5-32.4-20.2-51.8-25.4C168.9,370.9,161.9,369.9,154.9,369.7z"></path><path class="st1" d="M221.7,419.6c-0.1,0-0.1,0-0.2,0c-21.2-10.5-41-23.5-59.1-38.7c-0.2-0.2-0.2-0.5-0.1-0.7c0,0,0,0,0,0
		c0.2-0.2,0.5-0.2,0.7-0.1c18.1,15.1,37.9,28,59,38.5c0.2,0.1,0.3,0.4,0.2,0.7C222.1,419.5,221.9,419.6,221.7,419.6z"></path><path class="st1" d="M175.8,450.4c-0.2,0-0.3-0.1-0.4-0.2c-0.2-0.2-0.1-0.5,0.1-0.7h0c35.4-25.9,73.1-48.5,112.7-67.5
		c0.2-0.1,0.5,0,0.7,0.2c0,0,0,0,0,0c0.1,0.2,0,0.5-0.2,0.7c0,0,0,0,0,0c-39.5,18.9-77.1,41.5-112.5,67.4
		C176,450.4,175.9,450.4,175.8,450.4z"></path><path class="st1" d="M296.8,338.5c3.2,9.2,5.7,20.2-0.7,29.8c-4.1,6.2-11.3,10.3-18.3,12.1s-13.9,1.8-20.8,1.6
		c-11.9-0.2-23.9-0.4-34.9-3.2s-21-8.6-26.2-18c-4.3-7.7-5-17.3-5.6-26.6c-2-29.3-3.3-58.8-2.2-88.8c0.2-6.2,1.1-13.4,6.5-17.8
		c4.2-3.5,9.9-4,14.8-3.7c28.4,1.5,39.2,18.7,51.7,39C275.7,286.7,287.7,312.1,296.8,338.5z"></path><path class="st0" d="M234.4,256.2c-4.5-6.3-8-15.9-2.9-21.7c3.2-3.6,8.7-3.9,13-2s7.7,5.4,11.1,8.9c25.9,26.2,45.1,42.1,77.5,57.8
		c4.9,2.4,10.2,3.2,15.6,3.9c12.7,1.8,23.9-32.7,18.7-43.8c7,1.2,20.1,6.5,27.1,7.7c-1.4,13.8-3.8,27.9-10.2,40s-17.7,22-30.6,23.2
		c-12.2,1.2-23.7-5.3-34.4-11.5C289.5,301.4,255.7,285.9,234.4,256.2z"></path><path class="st1" d="M350.9,331.1c-11.7,0-22.9-6.5-31.9-11.7c-4.7-2.8-9.7-5.5-14.5-8.2c-25.9-14.5-52.7-29.5-70.7-54.5l0,0
		c-4.7-6.6-8.3-16.5-2.9-22.6c3.6-4.1,9.6-4.1,13.9-2.2s7.6,5.3,10.9,8.6l0.4,0.4c25.5,25.7,44.5,41.7,77.3,57.7
		c4.9,2.4,10.2,3.1,15.4,3.9c3.9,0.6,7.4-2.9,9.6-5.9c7.5-10.1,11.8-29.4,8.3-36.9c-0.1-0.3-0.1-0.6,0.1-0.8
		c0.2-0.2,0.4-0.3,0.7-0.3c4.6,1,9.2,2.3,13.6,3.9c4.4,1.5,8.9,2.8,13.4,3.8c0.4,0.1,0.6,0.4,0.6,0.8c-1.3,12.7-3.5,27.5-10.3,40.3
		c-3.2,6.1-7.7,11.5-13.1,15.9c-5.2,4.3-11.4,6.9-18.1,7.7C352.9,331.1,351.9,331.1,350.9,331.1z M235,255.8
		c17.8,24.8,44.5,39.7,70.2,54.1c4.8,2.7,9.7,5.5,14.5,8.2c9.6,5.6,21.6,12.6,34,11.4c11.5-1.1,23-9.9,30-22.8
		c6.6-12.3,8.8-26.6,10.1-39c-3.5-0.7-8.3-2.2-13-3.7c-4.3-1.4-8.8-2.8-12.1-3.5c2.8,8.7-1.5,27-8.9,37.1c-3.5,4.7-7.3,7-11,6.4
		c-5.3-0.8-10.8-1.5-15.8-4c-33.1-16-52.1-32.1-77.7-58l-0.4-0.4c-3.2-3.2-6.5-6.5-10.5-8.3c-3.8-1.6-9-1.7-12.1,1.8
		C227.6,240.2,230.3,249.1,235,255.8L235,255.8z"></path><path class="st2" d="M295.7,376.2c3.9,0.1,7.9,0.2,11.3,2.1s5.8,6.1,4.3,9.6c-1.6,4-6.7,4.9-11,5.3l-28.5,2.8
		c-16.3,1.6-32.7,3.2-49.2,2.7c-16.9-0.6-33.6-3.4-50.3-6.2L105,381.2c-3.3-0.6-6.9-1.2-9.4-3.4s-3.6-6.5-1.3-9
		c1.4-1.4,3.5-1.8,5.4-2.2c25.9-4.2,52.1-5.3,78.3-3.2c11.4,0.9,22,3.7,33.3,5.4c13.4,2,26.8,3.6,40.3,4.8
		C266.3,374.9,281,375.8,295.7,376.2z"></path><path class="st1" d="M228.5,390.3c-6.9,0.1-13.8-0.6-20.5-2c-0.3,0-0.5-0.3-0.5-0.6c0-0.3,0.3-0.5,0.6-0.5c0,0,0.1,0,0.1,0
		c12.3,2.8,25,2.1,37.4,1.3l52.8-3.1c1.7-0.1,3.5-0.3,4.5-1.4c0.5-0.7,0.6-1.5,0.2-2.3c-0.2-0.4-0.6-0.7-1-0.7
		c-0.3,0-0.6-0.2-0.6-0.5s0.2-0.6,0.5-0.6c0.9,0,1.7,0.5,2.1,1.3c0.6,1.2,0.4,2.5-0.4,3.5c-1.3,1.4-3.3,1.7-5.2,1.8l-52.8,3.1
		C240,389.9,234.3,390.3,228.5,390.3z"></path><path class="st2" d="M198.8,377.5c0.6,2.7,1.2,5.9-0.5,8.1c-2,2.6-6,2.5-9.2,2.1c-26.3-3.3-52.4-7.7-78.4-13
		c-8-1.6-16.3-3.5-22.6-8.8c-5.9-5-9.3-12.3-12.2-19.5c-11.6-28.8-19.1-59-22.3-89.9c-0.2-2.1-0.4-4.3,0.5-6.1
		c2.1-4.2,7.9-4.3,12.6-3.7l89.8,10.8c6.4,0.8,12.6-0.5,15.1,5.6c2.8,6.6,3.5,14.9,5.2,21.9c3.5,14.4,6.9,28.7,10.2,43.1
		C191,344.5,194.9,361,198.8,377.5z"></path><path class="st0" d="M406,267.7c8.3-0.1,17.4-2.4,22.2-9.1c4-5.6,4.2-13,3-19.7c-1.5-8-4.7-15.5-9.5-22c-3-4-6.6-7.7-11.3-9.6
		s-10.4-1.4-14,2.1s-3.9,10.1,0,13.2c-3-5.4-8.7-11-14.4-8.8c-5.4,2-6.3,9.4-4.8,14.9s4.5,11,3.7,16.6c-0.6,4.4-3.4,8.3-4.2,12.8
		C374,272,397.9,267.9,406,267.7z"></path><path class="st1" d="M392.2,269.2c-5.9,0-11.9-0.8-14.8-4c-1.6-1.8-2.2-4.2-1.6-7.1c0.5-2.1,1.2-4.2,2.1-6.2c1-2.1,1.7-4.2,2.1-6.5
		c0.5-3.9-0.8-7.6-2.1-11.5c-0.5-1.6-1.1-3.2-1.6-4.8c-1.7-6.2-0.4-13.6,5.3-15.8c4.1-1.6,8,0.4,11.1,3.5c-0.1-2.9,1-5.7,3.1-7.8
		c3.5-3.4,9.5-4.3,14.8-2.3c4.2,1.6,8,4.8,11.6,9.8c4.9,6.6,8.1,14.2,9.6,22.3c1.1,5.8,1.4,14-3.1,20.3c-5.7,8-16.8,9.4-22.8,9.5
		l0,0c-1.2,0-2.8,0.1-4.6,0.3C398.6,268.9,395.4,269.2,392.2,269.2z M384.5,214.2c-0.8,0-1.6,0.1-2.3,0.4c-4.8,1.8-5.8,8.6-4.4,14
		c0.4,1.6,1,3.2,1.5,4.7c1.4,3.9,2.8,8,2.2,12.2c-0.4,2.4-1.2,4.7-2.2,6.9c-0.9,1.9-1.6,3.9-2,5.9c-0.5,2.5,0,4.4,1.3,5.9
		c4,4.4,15.2,3.6,22.7,3.1c1.8-0.1,3.4-0.2,4.7-0.3l0,0c5.8-0.1,16.3-1.4,21.6-8.8c4.2-5.8,3.8-13.6,2.8-19.1
		c-1.4-7.8-4.6-15.3-9.4-21.7c-3.5-4.7-7.1-7.8-11-9.3c-4.8-1.9-10.1-1.1-13.2,1.9c-1.8,1.8-2.7,4.3-2.6,6.8c0,0.6,0.1,1.3,0.3,1.9
		c0.9,1.1,1.7,2.3,2.4,3.6c0.2,0.3,0.1,0.7-0.2,0.9c-0.3,0.2-0.7,0.2-1,0c-1.2-1-2.2-2.3-2.6-3.8
		C390.7,216.4,387.6,214.1,384.5,214.2L384.5,214.2z"></path><path class="st1" d="M404.7,262.2c-0.2,0-0.3-0.1-0.4-0.2c-0.1-0.2-0.1-0.5,0.1-0.7c0,0,0,0,0,0c4.5-2.9,7.3-8.4,7.3-14.5
		c0-5.1-1.9-10.7-5.6-16c-3.3-4.8-7.6-8.9-11.7-12.8c-0.2-0.2-0.2-0.5,0-0.7c0,0,0,0,0,0c0.2-0.2,0.5-0.2,0.7,0c0,0,0,0,0,0
		c4.1,4,8.5,8.1,11.8,13c3.8,5.5,5.8,11.2,5.8,16.5c0,6.4-3,12.3-7.8,15.4C404.9,262.1,404.8,262.2,404.7,262.2z"></path><path class="st0" d="M224.3,194.3c-0.3,6.3-1.4,13.5-7.7,17.1c-5.4,3-12.8,2-17.9-1s-8.4-7.7-11.4-12.2
		c-16.9-25.5-29.9-52.7-42.9-79.8c-2.9-6.1-5.9-12.9-3.2-19.3c3.6-8.6,15.6-12.6,26.4-14s28.1-3.1,37.4,2.2
		c8.7,5.1,9.6,18,11.5,25.9C222.8,139.7,225.5,167,224.3,194.3z"></path><path class="st1" d="M209.2,214c-3.8,0-7.5-1-10.8-2.9c-5.2-3.1-8.5-7.6-11.6-12.5c-16.9-25.6-30.2-53.2-42.9-79.9
		c-3.2-6.8-5.9-13.4-3.3-19.9c4.3-10.5,20.3-13.6,27-14.5c12.9-1.7,28.9-2.9,37.9,2.3c7.5,4.3,9.4,14,10.9,21.8
		c0.3,1.7,0.6,3.2,1,4.6c6.4,26.6,9,54,7.9,81.3h-0.8h0.8c-0.3,6.3-1.4,14-8.1,17.7C214.6,213.4,211.9,214.1,209.2,214z M186.2,84.4
		c-6.2,0.1-12.4,0.6-18.5,1.4c-6.4,0.8-21.7,3.8-25.8,13.6c-2.4,5.9,0.1,12.2,3.2,18.7c12.8,26.7,26,54.3,42.8,79.7
		c3.1,4.7,6.3,9.1,11.2,12c4.4,2.6,11.6,4,17.1,1c6-3.4,7.1-10.2,7.3-16.5c1.1-27.2-1.5-54.5-7.9-80.9c-0.3-1.4-0.6-3-1-4.7
		c-1.4-7.5-3.2-16.8-10.1-20.8C200,85.2,193.3,84.3,186.2,84.4L186.2,84.4z"></path><path class="st1" d="M220.3,99.1c4.7-6.2,4.6-16-1.3-21c7.9-1.8,13.5-10.3,12.1-18.3s-9.8-13.9-17.8-12.8
		c-3-14.3-17-23.5-31.3-20.5c-4.4,0.9-8.4,2.9-11.8,5.8c-4.9-7.9-15.3-10.3-23.2-5.4c-5,3.1-8,8.7-7.9,14.6c-4.9-8-17.3-10.1-24.6-4
		S107,56,114,62.3c-12.1,1.2-21,11.9-19.9,24.1c0.6,5.9,3.5,11.4,8.1,15.1c-7.8,8.1-7.5,20.9,0.6,28.6c4.7,4.5,11.2,6.5,17.5,5.4
		c-5.4,4.9-4,14.4,1.1,19.8s12.5,7.6,19.5,9.6c4.9,1.4,10,2.8,15.1,2.1s10.1-4.1,11.1-9.1s-3.8-10.8-8.7-9.4
		c3-11.4-3-24.6-13.5-29.9c-1.1-0.6,4.3-10.2,4.9-11.1c3.4-4.9,6.1-4.8,11.1-7.1c7-3.3,8.1-6.7,15.2-1.8
		C188.9,107,208.7,114.5,220.3,99.1z"></path><path class="st0" d="M163.7,143.5c-1.3-2.3-3.6-3.9-6.2-4.1c-2.7-0.2-5.2,1.2-6.5,3.5c-1.7,3.1-0.5,7,1.4,10
		c1.8,3.1,4.6,5.5,7.8,7.1c3.3,1.5,7.1,1.5,10.3-0.1"></path><path class="st1" d="M165.4,161.8c-1.9,0-3.8-0.4-5.6-1.2c-3.4-1.6-6.2-4.1-8.1-7.4c-1.2-1.8-3.6-6.6-1.4-10.7
		c1.5-2.6,4.3-4.1,7.2-3.9c2.9,0.3,5.5,2,6.9,4.5c0.2,0.4,0,0.8-0.3,1c-0.4,0.2-0.8,0.1-1-0.3c0,0,0,0,0,0c-1.1-2.1-3.3-3.5-5.6-3.7
		c-2.4-0.2-4.6,1.1-5.8,3.1c-1.8,3.5,0.3,7.6,1.4,9.2c1.8,2.9,4.4,5.3,7.5,6.8c3.1,1.4,6.6,1.4,9.7,0c0.4-0.2,0.8-0.1,1,0.2
		c0.2,0.4,0.1,0.8-0.2,1c0,0-0.1,0-0.1,0.1C169.2,161.4,167.3,161.8,165.4,161.8z"></path><path class="st1" d="M216.6,140.3c-0.6,0.6-1.5,0.6-2.1,0.2c-0.6-0.5-1-1.1-1.1-1.9c-0.4-1.3-1.1-6.7,1.7-5.6
		C216.4,133.6,217.3,139.4,216.6,140.3z"></path><path class="st1" d="M192.9,144.8c-0.1,0.9-1,1.4-1.8,1.3c-0.9-0.1-1.6-0.6-2.1-1.4c-0.9-1.6-1.6-6.3,1.2-6.3
		C192.8,138.5,193,143.1,192.9,144.8z"></path><path class="st1" d="M213,192.2c-0.8,3.4-3.4,6-6.8,6.9c-3.4,0.7-6.9-0.2-9.4-2.6c-1.7-1.6-2.9-3.6-3.4-5.9
		c-0.8-3.3,0.1-3.4,3.1-2.7C202,189.3,207.5,190.8,213,192.2z"></path><path class="st1" d="M209.4,145.8c-1.3,0-2.7-0.2-3.9-0.8c-2.2-1.3-3.8-3.4-4.4-5.8c-0.7-2.1-0.5-4.3,0.6-6.2
		c1.9-3,7.6-3.8,11.6-4.4c0.9-0.1,1.8-0.3,2.5-0.4c1.2-0.4,2.5-0.3,3.6,0.2c1,0.7,1.6,1.8,1.7,3c0.4,1.9,0.6,3.8,0.8,5.8
		c0.2,1.6,0,3.2-0.7,4.6c-1.3,2.1-4,2.8-6.5,3.4C213,145.5,211.2,145.7,209.4,145.8z M217.7,128.9c-0.5,0-1.1,0.1-1.6,0.2l0,0
		c-0.7,0.1-1.6,0.3-2.5,0.4c-3.9,0.6-9.3,1.3-11,4c-0.9,1.7-1.1,3.6-0.4,5.4c0.5,2.2,1.9,4.1,3.8,5.2c2.4,1.2,5.4,0.7,8.5,0
		c2.4-0.5,4.8-1.2,5.9-2.9c0.6-1.2,0.8-2.6,0.6-4c-0.1-1.9-0.4-3.8-0.8-5.7c-0.1-0.9-0.5-1.8-1.2-2.3
		C218.6,129,218.1,128.9,217.7,128.9z M216,128.6L216,128.6z"></path><path class="st1" d="M184.7,150.8c-1.8,0-3.6-0.3-5.2-0.9c-2-0.9-3.7-2.4-4.9-4.3c-0.4-0.7-0.7-1.5-0.9-2.3c-0.3-1.1-0.6-2-1.5-2.5
		c-2-0.9-4.1-1.5-6.2-1.8l-1.9-0.4c-2.9-0.6-5.9-1.2-8.9-1.5c-0.3,0-0.5-0.3-0.4-0.6c0-0.3,0.3-0.5,0.6-0.4c3,0.4,6,0.9,8.9,1.5
		c0.6,0.1,1.2,0.3,1.9,0.4c2.2,0.3,4.4,0.9,6.5,1.9c0.2,0.1,0.4,0.2,0.6,0.4c0.1-0.8,0.4-1.6,0.9-2.3c1.9-2.7,7.3-4.2,16.1-4.3
		c1.7,0,3.6,0.1,4.9,1.3s1.4,2.7,1.5,4.2c0,0.6,0.1,1.1,0.2,1.7c0.1,0.5,0.3,1,0.4,1.5c0.5,1.6,1,3.1,0.2,4.7s-2.9,2.1-4.7,2.6
		C190.1,150.3,187.4,150.7,184.7,150.8z M173.9,141.1c0.3,0.6,0.5,1.2,0.7,1.8c0.2,0.7,0.5,1.4,0.8,2.1c1,1.7,2.6,3.1,4.4,3.9
		c4,1.6,9,0.5,12.7-0.3c1.6-0.4,3.4-0.8,4.1-2.1s0.2-2.4-0.2-3.9c-0.2-0.5-0.4-1.1-0.5-1.6c-0.1-0.6-0.2-1.2-0.2-1.8
		c-0.1-1.4-0.3-2.7-1.2-3.6s-2.8-1.1-4.2-1c-8.4,0.1-13.6,1.4-15.3,3.9c-0.4,0.6-0.7,1.4-0.8,2.2C174.1,140.9,174,141.1,173.9,141.1
		L173.9,141.1z"></path><path class="st1" d="M195.9,139.9c-0.3,0-0.5-0.2-0.5-0.5s0.2-0.5,0.5-0.5l6.4-0.8c0.3,0,0.5,0.2,0.6,0.4c0,0.3-0.2,0.5-0.4,0.6
		L195.9,139.9L195.9,139.9z"></path><path class="st0" d="M67.2,274.4c4.3,5.1,4.6,12.4,0.8,17.8c7.4,2.9,10.7,11.5,12,19.4c1.2,7.4,0.5,16.3-5.8,20.2
		c-4.9,3-11.5,1.6-16-2s-7.3-8.8-9.8-13.9c-3.3-7-6.3-14.3-7-22C39.8,280.2,52.2,257.5,67.2,274.4z"></path><path class="st1" d="M68.1,334.2c-3.8-0.1-7.5-1.4-10.5-3.8c-4.8-3.7-7.7-9.3-10-14.2c-3.1-6.4-6.3-14.1-7.1-22.3
		c-0.9-9.1,4-22,11.9-25.4c3.5-1.5,9-1.8,15.4,5.4l0,0c4.3,5.1,4.8,12.3,1.3,18c8,3.7,10.7,13.8,11.6,19.6c0.8,4.7,1.6,16.2-6.2,21
		C72.5,333.7,70.3,334.2,68.1,334.2z M56.5,269.2c-1.2,0-2.4,0.3-3.5,0.8c-7.2,3.2-11.9,15.5-11,23.9c0.8,7.9,4,15.5,7,21.8
		c2.3,4.8,5,10.1,9.6,13.7c3.9,3,10.3,4.9,15.2,1.9c7.1-4.3,6.2-15,5.5-19.4c-0.9-5.7-3.6-15.7-11.5-18.8c-0.2-0.1-0.4-0.3-0.4-0.5
		c-0.1-0.2,0-0.5,0.1-0.6c3.6-5.1,3.3-12.1-0.7-16.9l0,0C63.2,271.1,59.8,269.2,56.5,269.2L56.5,269.2z"></path><path class="st1" d="M44,305.9c-0.1,0-0.2,0-0.2-0.1c-0.2-0.1-0.3-0.4-0.2-0.7c0,0,0,0,0,0c5.1-8.6,14.6-13.7,24.7-13
		c0.3,0,0.5,0.3,0.5,0.5c0,0,0,0,0,0c0,0.3-0.3,0.5-0.5,0.5c-9.6-0.7-18.8,4.2-23.7,12.5C44.3,305.9,44.2,305.9,44,305.9z"></path></g><g id="paper-stack"><path class="st0" d="M335.8,281.5l54.8-4c3.2-0.2,6.5-0.5,9.5,0.7c4.8,1.9,7.5,7,11,10.8c8.8,9.7,23.1,11.8,36.2,13
		s27.3,2.8,36.6,12c-8.8,0.6-14.7,9.9-23.2,11.9s-16.7-3.5-25-6.1c-12.1-3.9-25.2-1.6-37.8-0.3c-12.4,1.3-29.2,1.8-40.2-5.5
		c-4.1-2.7-7-6.9-9.9-10.8C346.4,301.4,335.5,281.6,335.8,281.5z"></path><path class="st1" d="M456.9,327.2c-5,0-9.9-2-14.7-4c-2.2-0.9-4.5-1.9-6.8-2.6c-10.5-3.3-21.9-2-32.8-0.8l-4.7,0.5
		c-18.8,2-32.1,0.1-40.7-5.7c-4-2.7-6.8-6.6-9.6-10.4l-0.4-0.6c-0.8-1-4-6.9-6.6-11.5c-5.7-10.4-5.7-10.5-5.5-11
		c0.1-0.3,0.4-0.4,0.6-0.4l54.8-4c3.1-0.2,6.6-0.5,9.8,0.8c3.7,1.5,6.1,4.6,8.5,7.7c0.9,1.1,1.8,2.3,2.8,3.4
		c8.6,9.4,22.3,11.5,35.7,12.8c12.2,1.2,27.3,2.6,37.1,12.2c0.3,0.3,0.3,0.8,0,1.1c-0.1,0.1-0.3,0.2-0.5,0.2
		c-4.5,0.3-8.3,3-12.2,5.9c-3.4,2.5-6.8,5-10.9,6C459.6,327.1,458.2,327.2,456.9,327.2z M420.1,317c5.3-0.1,10.7,0.6,15.8,2.2
		c2.3,0.7,4.6,1.7,6.9,2.6c6.1,2.5,11.8,4.9,17.7,3.5c3.8-0.9,7.1-3.4,10.4-5.7c3.5-2.6,7.1-5.2,11.4-6c-9.4-8.2-23.6-9.6-35-10.7
		c-13.6-1.3-27.7-3.4-36.6-13.3c-1-1.1-1.9-2.3-2.8-3.5c-2.4-3-4.6-5.9-7.9-7.2c-2.9-1.1-6.2-0.9-9.2-0.7l-53.8,3.9
		c2,3.9,10.2,18.9,11.5,20.6l0.4,0.6c2.7,3.7,5.5,7.5,9.2,10c8.3,5.6,21.3,7.4,39.7,5.4l4.7-0.5C408.3,317.5,414.2,317.1,420.1,317z
		 M335.8,281.5L335.8,281.5z"></path><path class="st1" d="M460.4,411.2c2.6-1.1,5.3-2,8-2.6l0.5-16.5c0.2-8.4,0.4-16.7,0.7-25.1c0.3-6.9,1.8-9.2,3.3-15.1
		c1.4-5.6,1.8-4.4-1.3-8.9c-3.7-5.4-10.3-9.3-14.8-13.1c-2.3-2-28.5-21.8-28.5-21.8c-9.8,38.1-19.3,77.7-17.4,118.2
		c0.4,8.4,1.4,17.3,5.5,23.3c6.2,9.2,16.8,8.3,25.3,4.2s16.8-10.7,25.7-10.6l0.9-30.9C465.6,412.4,463,412,460.4,411.2z"></path><path class="st0" d="M429.4,307.7c0,2.9-47.4,11.8-52,12.7c-8.9,1.8-17.8,3.4-26.8,4.9c-11.3,1.8-13.9,0-13.5,12
		c0.4,12.9,0.7,25.9,0.6,38.9l8.3,1.9l-8.3,2c-0.1,23.2-0.9,46.3-2.4,69.5l94.1,10.2L429.4,307.7z"></path><path class="st1" d="M429.4,460.5L429.4,460.5l-94.2-10.3c-0.4,0-0.7-0.4-0.7-0.8c1.5-23,2.3-46.3,2.4-69.4c0-0.3,0.2-0.6,0.6-0.7
		l5.2-1.3l-5.2-1.1c-0.3-0.1-0.6-0.4-0.6-0.7c0-13.2-0.2-26.3-0.6-38.9c-0.4-10.5,1.5-11.1,9.5-12.1c1.3-0.2,2.8-0.4,4.5-0.6
		c8.9-1.4,17.9-3.1,26.8-4.9l2.8-0.5c40.1-7.8,47.7-10.6,48.6-11.6c0.1-0.3,0.4-0.6,0.7-0.6c0.4,0,0.7,0.3,0.8,0.8l0.1,152
		C430.2,460.1,429.8,460.5,429.4,460.5C429.4,460.5,429.4,460.5,429.4,460.5L429.4,460.5z M336.1,448.8l92.5,10.1l-0.1-149.6
		c-3.3,1.6-14,4.7-48.3,11.3l-2.8,0.5c-8.9,1.8-17.9,3.4-26.8,4.9c-1.7,0.3-3.3,0.5-4.6,0.6c-7.4,0.9-8.6,1.1-8.2,10.6
		c0.4,12.4,0.6,25.3,0.6,38.3l7.7,1.7c0.3,0.1,0.6,0.4,0.6,0.7c0,0.3-0.2,0.7-0.6,0.7l-7.7,1.9C338.4,403.3,337.6,426.2,336.1,448.8
		L336.1,448.8z"></path><path class="st1" d="M404,346.7c14.4-3.9,29.9-1.5,42.5,6.6c-6.3-3.7-10.6-12.6-18-14.1S410,343.2,404,346.7z"></path><path class="st1" d="M431.3,438l-24.2-1.9c5.2,1.7,10.4,3.4,15.7,4.7c2.1,0.6,4.3,0.9,6.4,0.8c6.7-0.5,11.7-6.1,15.9-11.4
		c-4,2.9-8.4,5.3-13,7"></path></g><g id="plant"><path class="st1" d="M38.8,404.8c-3.3-2.7-7.5-5.3-8-9.5c-0.2-1.7,0.3-3.5-0.2-5.2c-1-4-6.2-5.3-8.7-8.6
		c-3.6-4.7-0.6-11.7-2.6-17.3c-1.8-4.9-7.1-8.1-8.2-13.2c-0.5-2.4,0-4.9,0.2-7.3s0.2-5.1-1.4-7.1c2.6,0.7,4.1,3.4,5,5.9
		s1.5,5.3,3.3,7.3c2.8,3,7.5,3,11.3,4.5c4.9,2,8.3,6.5,9,11.7c0.4,3.7-0.5,7.8,1.6,10.8s6.4,3.8,8.7,6.6c4.2,5.1-0.4,13.4,2.6,19.2
		c0.9,1.8,2.5,3.2,3.5,5c2.1,3.8,1.2,8.6-0.3,12.7s-3.6,8.1-3.6,12.5C51.3,422.5,46.9,411.5,38.8,404.8z"></path><path class="st1" d="M42.6,323c-1.7,4.1-2.4,9.1,0.1,12.8c2.1,3.2,6.4,5.1,7.1,8.9c0.6,2.9-1.2,5.7-3.1,8s-4.1,4.6-4.5,7.5
		c-0.7,4.7,3.1,8.6,5.7,12.6s3.9,8.4,5.3,12.9l4.1,13.4c1.6,5.3,3.2,11.2,1.1,16.3c4.2-7.3,5.5-15.8,3.8-24
		c-0.7-3.1-1.8-6.2-1.5-9.4c0.4-4.7,3.7-9,2.8-13.6c-0.6-3.2-3.1-5.8-3.3-9c-0.3-3.9,2.6-7.1,4-10.8c1.8-5.5,0.1-11.5-4.5-15.1
		c-2.7-2-6.3-3.3-7.4-6.5c-1.7-4.7,3.6-9.7,2.5-14.6c-0.8-3.6-5-6-8.2-6.9c0.5,3.1,1.7,4.9,0.5,8S43.4,319.7,42.6,323z"></path><path class="st1" d="M106.5,333.3c-3.2,2-7,2.6-10.6,3.6s-7.3,2.9-8.9,6.3c-2.1,4.6,0.4,10.5-2.4,14.6c-2,2.8-5.6,3.6-8.5,5.4
		c-4.1,2.8-6.3,7.6-5.6,12.5c0.3,2.2,1.3,4.4,0.8,6.6c-0.6,2.4-2.7,4.1-4,6.1c-2.5,3.8-2.1,8.8-1.8,13.3s0.3,9.6-2.6,13.1
		c10.1-3.8,14.9-15.3,23.5-21.8c2.1-1.6,4.3-2.8,6.3-4.5c2.1-1.6,3.6-3.8,4.2-6.3c1-4.8-2.6-9.6-1.8-14.4c0.9-5.4,7.1-9.1,7-14.5
		c-0.1-4-3.7-8-1.9-11.7c1.2-2.4,4.1-3.1,6.3-4.5c3-1.9,6.3-7.4,4.4-11C110.6,329.2,109,331.8,106.5,333.3z"></path><path class="st2" d="M35.6,448.2c1.3,3.5,3.1,7.2,6.3,9c2.3,1.2,5,1.4,7.6,1.5c4.9,0.1,9.8,0,14.7-0.3c2.8-0.2,5.7-0.4,8.1-1.8
		c2.8-1.6,4.6-4.4,6.2-7.1c4.8-8.7,7.9-18.2,9.2-28.1c0.4-2.9,0.4-6.2-1.6-8.3s-4.9-2.2-7.6-2.3c-12.6,0-25.2-0.9-37.7-1.3
		c-3.2-0.1-10.1-1.7-11.9,2c-1.8,4,0.6,12.7,1.3,16.9C31.4,435.2,33.2,441.8,35.6,448.2z"></path><path class="st0" d="M46.4,408.3L46.4,408.3c-0.3,0-0.5-0.3-0.4-0.5c0,0,0,0,0,0c0.4-2.6-0.7-5.5-3.4-8.9c-0.4-0.5-0.7-0.9-1.1-1.4
		c-1.8-2.2-3.7-4.5-4.5-7.3c-0.3-1.4-0.5-2.8-0.6-4.2c-0.2-2.3-0.3-4.5-1.7-6.2c-0.8-0.9-1.6-1.6-2.6-2.2c-0.5-0.3-1-0.7-1.4-1
		c-5.4-4.3-6.4-12.1-6.8-19.1c0-0.2,0.2-0.5,0.4-0.5c0,0,0,0,0,0c0.2,0,0.4,0.1,0.5,0.4c0,0,0,0,0,0c0.4,6.8,1.3,14.3,6.5,18.4
		c0.4,0.4,0.9,0.7,1.4,1c1.1,0.7,2,1.5,2.8,2.4c1.5,1.9,1.7,4.3,1.9,6.7c0.1,1.3,0.3,2.7,0.6,4c0.7,2.6,2.6,4.8,4.3,6.9
		c0.4,0.5,0.8,0.9,1.1,1.4c2.9,3.6,4,6.7,3.6,9.6C46.8,408.2,46.6,408.3,46.4,408.3z"></path><path class="st0" d="M57.8,393.6c-0.2,0-0.4-0.2-0.4-0.4L53.6,372c-0.7-3.9-1.4-7.8-0.9-11.8c0.3-2,0.7-4,1.3-5.9
		c0.5-1.8,1-3.7,1.2-5.6c0.7-5.8-1.1-11.6-4.9-16c-0.2-0.2-0.2-0.5,0-0.6c0.2-0.2,0.5-0.1,0.6,0c0,0,0,0,0,0
		c4,4.6,5.8,10.7,5.2,16.7c-0.3,1.9-0.7,3.9-1.3,5.8c-0.6,1.9-1,3.8-1.2,5.8c-0.4,3.9,0.2,7.8,0.9,11.6l3.7,21.2
		C58.2,393.3,58,393.5,57.8,393.6C57.8,393.6,57.8,393.6,57.8,393.6L57.8,393.6z"></path><path class="st0" d="M68.7,405.4L68.7,405.4c-0.2,0-0.4-0.2-0.4-0.5c0-4.3,2.9-7.6,5.6-10.8c2.2-2.6,4.4-5.2,5.3-8.4
		c0.3-1.2,0.5-2.5,0.6-3.8c-0.1-4.3,2.1-8.3,5.6-10.6c0.8-0.8,1.7-1.6,2.5-2.4c5-5.6,5.6-13.6,5.7-22.1c0-0.2,0.2-0.4,0.5-0.4
		c0.2,0,0.4,0.2,0.4,0.5c-0.1,8.6-0.7,16.9-5.9,22.6c-0.8,0.9-1.7,1.7-2.6,2.5c-1.8,1.6-3.4,3.1-4.3,5.1c-0.6,1.6-0.9,3.3-1,5
		c-0.1,1.3-0.3,2.6-0.6,3.9c-0.9,3.3-3.2,6.1-5.5,8.7c-2.8,3.3-5.4,6.3-5.4,10.3C69.1,405.2,69,405.4,68.7,405.4z"></path></g></svg>