<svg transform="scale(1)" version="1.1" id="Layer_1" xmlns="http://www.w3.org/2000/svg" xmlns:xlink="http://www.w3.org/1999/xlink" x="0px" y="0px" viewBox="0 0 500 500" xml:space="preserve" class="show_show__wrapper__graphic__5Waiy "><title>React</title><style type="text/css">
	.st0{fill:#FFFFFF;}
	.st1{fill:#111111;}
	.st2{fill:#128FFF;}
</style><g id="coding-tab"><g id="presentation"><path class="st0" d="M26.3,79.4c0.3,38.7,0.6,225.8,0.9,264.3c0,4.1,0.4,9,2.8,10.8c1.1,0.6,2.3,0.9,3.5,0.6l17.9-1.2
			c19.2-1.3,166.7,0.4,185.8-0.9c4-0.3,8.7-1.1,10.8-6.5c1.2-3,1.2-6.7,1.2-10.1c-0.3-35.2,0.3-224.5,0-259.8c0-3.9-0.1-8-1.6-11.1
			c-2.3-4.6-6.7-4.7-10.4-4.5C221,62,75.8,63.9,59.8,63.2C51.9,62.8,44,62.7,36,62C29,61.5,26.2,69.5,26.3,79.4z"></path><path class="st1" d="M32.4,356c-1,0-2.1-0.2-2.9-0.8c-2.7-2-3-7.1-3.1-11.4c-0.1-19.3-0.3-76.6-0.4-132s-0.3-113-0.4-132.3
			c-0.1-7.6,1.6-13.4,4.6-16.2c1.6-1.5,3.8-2.2,6-2c5.7,0.5,11.6,0.7,17.3,0.9l6.5,0.2c16.6,0.7,163.1-1.3,177.2-2.1
			c3-0.2,8.5-0.5,11.1,4.9c1.5,3.1,1.7,7,1.7,11.4c0.1,17.7,0.1,74.8,0,130s-0.2,112.3,0,129.9c0,3.2,0.1,7.2-1.2,10.4
			c-2.2,5.6-7,6.6-11.4,6.9c-9.6,0.7-51.9,0.6-92.8,0.5s-83.3-0.2-92.9,0.5l-18,1.2C33.2,356,32.8,356,32.4,356z M35.4,62.7
			c-1.6,0-3.1,0.6-4.2,1.6c-2.7,2.5-4.1,7.8-4.1,15c0.1,19.3,0.3,76.8,0.4,132.3s0.3,112.8,0.4,132c0,3.6,0.3,8.6,2.5,10.2
			c0.9,0.5,2,0.7,3,0.5l17.9-1.2c9.6-0.7,52-0.6,93-0.5s83.2,0.2,92.8-0.5c4.2-0.3,8.3-1.2,10.1-6c1.2-3,1.1-6.8,1.1-9.9
			c-0.1-17.6-0.1-74.7,0-129.9s0.2-112.3,0-129.9c0-4.2-0.2-8-1.6-10.7c-2.1-4.1-5.9-4.3-9.7-4c-15.5,0.9-160.2,2.8-177.3,2.1
			c-2.2-0.1-4.3-0.2-6.5-0.2c-5.7-0.2-11.5-0.4-17.3-0.9L35.4,62.7z"></path></g><path class="st1" d="M50,182.4l-0.2-2c9.4-1.1,18.8-1.7,28.2-1.7v2C68.7,180.7,59.3,181.3,50,182.4z"></path><rect class="st2" x="81.9" y="177.8" transform="matrix(0.9992 -4.117812e-02 4.117812e-02 0.9992 -7.2836 4.0825)" width="27.1" height="2"></rect><rect class="st1" x="49.9" y="186.1" transform="matrix(0.9989 -4.693211e-02 4.693211e-02 0.9989 -8.7133 3.1626)" width="26.2" height="2"></rect><rect class="st2" x="81.9" y="186" transform="matrix(0.9997 -2.582800e-02 2.582800e-02 0.9997 -4.7972 2.5238)" width="26.7" height="2"></rect><rect class="st2" x="82" y="193.8" transform="matrix(1 -5.934085e-03 5.934085e-03 1 -1.1541 0.5721)" width="27.7" height="2"></rect><rect class="st2" x="81.9" y="201" transform="matrix(0.9996 -2.896841e-02 2.896841e-02 0.9996 -5.7991 3.7627)" width="90.1" height="2"></rect><rect class="st1" x="112.9" y="209.1" transform="matrix(0.9995 -3.106186e-02 3.106186e-02 0.9995 -6.4594 4.4592)" width="54.7" height="2"></rect><rect class="st1" x="113" y="218.7" transform="matrix(0.9997 -2.303631e-02 2.303631e-02 0.9997 -5.0235 3.2525)" width="51.4" height="2"></rect><rect class="st1" x="112.9" y="124.8" transform="matrix(0.9987 -5.146447e-02 5.146447e-02 0.9987 -6.2837 7.6612)" width="65.5" height="2"></rect><polygon class="st1" points="112.9,136.8 112.9,134.8 156,133.5 156.1,135.5 154.9,135.5 154.9,135.5 	"></polygon><path class="st1" d="M116,144.8h-3v-2c11.7,0.1,23.5-0.2,35.2-0.9l0.1,2C137.5,144.5,126.7,144.8,116,144.8z"></path><path class="st1" d="M77.3,151.8c-9-1.2-18.2-1.6-27.3-1.2l-0.1-2c9.2-0.4,18.5,0,27.7,1.3L77.3,151.8z"></path><rect class="st2" x="81.9" y="150.4" transform="matrix(0.9996 -2.827057e-02 2.827057e-02 0.9996 -4.2415 2.7313)" width="25.1" height="2"></rect><rect class="st1" x="49.9" y="156.5" transform="matrix(0.9999 -1.710339e-02 1.710339e-02 0.9999 -2.685 1.1089)" width="27.1" height="2"></rect><polygon class="st2" points="82,159.3 81.9,157.3 109.7,156.4 109.8,158.4 105.7,158.7 105.7,158.6 	"></polygon><path class="st2" d="M103,166.4c-7.1,0-14.1-0.2-21.1-0.6l0.1-2c22.5,1.2,45.1,0.5,67.5-2.2l0.2,2
		C134.3,165.5,118.6,166.5,103,166.4z"></path><path class="st1" d="M129.6,173.9c-5.6,0-11.2-0.3-16.7-0.8l0.2-2c12.6,1.2,25.2,1,37.7-0.5l0.2,2
		C143.9,173.5,136.7,173.9,129.6,173.9z"></path><path class="st1" d="M49.9,232.9l-0.2-2c9.4-1.1,18.8-1.7,28.2-1.7v2C68.6,231.2,59.2,231.8,49.9,232.9z"></path><rect class="st2" x="81.8" y="228.4" transform="matrix(0.9992 -4.117812e-02 4.117812e-02 0.9992 -9.3658 4.1205)" width="27.1" height="2"></rect><rect class="st1" x="49.8" y="236.7" transform="matrix(0.9989 -4.710645e-02 4.710645e-02 0.9989 -11.1271 3.2258)" width="26.2" height="2"></rect><rect class="st2" x="81.8" y="236.5" transform="matrix(0.9997 -2.582800e-02 2.582800e-02 0.9997 -6.103 2.5375)" width="26.7" height="2"></rect><rect class="st2" x="81.9" y="244.3" transform="matrix(1 -5.934085e-03 5.934085e-03 1 -1.4542 0.5722)" width="27.7" height="2"></rect><rect class="st2" x="81.8" y="251.6" transform="matrix(0.9996 -2.896841e-02 2.896841e-02 0.9996 -7.2642 3.7803)" width="90.1" height="2"></rect><rect class="st1" x="112.8" y="259.7" transform="matrix(0.9995 -3.106186e-02 3.106186e-02 0.9995 -8.0299 4.4802)" width="54.7" height="2"></rect><rect class="st1" x="112.9" y="269.2" transform="matrix(0.9997 -2.303631e-02 2.303631e-02 0.9997 -6.1883 3.2632)" width="51.4" height="2"></rect><rect class="st1" x="112.9" y="278.6" transform="matrix(0.9996 -2.792164e-02 2.792164e-02 0.9996 -7.7409 4.7657)" width="107.8" height="2"></rect><path class="st1" d="M175,287.8l-0.1-2c16.9-1.2,33.9-1.6,50.9-1.1l-0.1,2C208.8,286.2,191.9,286.5,175,287.8z"></path><rect class="st1" x="174.9" y="295.2" transform="matrix(0.9999 -1.116988e-02 1.116988e-02 0.9999 -3.2967 2.2406)" width="48.1" height="2"></rect><rect class="st1" x="174.9" y="306.7" transform="matrix(1 -4.886902e-03 4.886902e-03 1 -1.5012 0.9544)" width="39.2" height="2"></rect><rect class="st1" x="112.8" y="314.6" transform="matrix(0.9987 -5.146447e-02 5.146447e-02 0.9987 -16.0476 7.9107)" width="65.5" height="2"></rect><polygon class="st1" points="112.9,326.5 112.8,324.5 156,323.2 156,325.2 154.9,325.2 154.9,325.2 	"></polygon><path class="st1" d="M115.9,334.5h-3v-2c11.7,0.1,23.5-0.2,35.2-0.9l0.1,2C137.5,334.2,126.6,334.5,115.9,334.5z"></path><path class="st1" d="M77.2,96.6c-9-1.2-18.2-1.6-27.3-1.2l-0.1-2c9.2-0.4,18.5,0,27.6,1.2L77.2,96.6z"></path><rect class="st2" x="81.9" y="95.2" transform="matrix(0.9996 -2.827057e-02 2.827057e-02 0.9996 -2.6811 2.7081)" width="25.1" height="2"></rect><rect class="st1" x="49.9" y="101.3" transform="matrix(0.9999 -1.710339e-02 1.710339e-02 0.9999 -1.7411 1.1003)" width="27.1" height="2"></rect><polygon class="st2" points="81.9,104.1 81.9,102.1 109.7,101.3 109.7,103.3 105.7,103.5 105.7,103.4 	"></polygon><path class="st2" d="M102.9,111.3c-7,0-14.1-0.2-21.1-0.6l0.1-2c22.5,1.2,45.1,0.5,67.5-2.2l0.2,2
		C134.2,110.3,118.6,111.3,102.9,111.3z"></path><path class="st1" d="M129.5,118.7c-5.6,0-11.2-0.3-16.7-0.8l0.2-2c12.6,1.2,25.2,1,37.7-0.5l0.2,2
		C143.9,118.3,136.7,118.7,129.5,118.7z"></path></g><g id="tab-2"><path class="st0" d="M478.5,223.9c3.9,0.5,7.8,2.5,9.7,6.1c1.6,3,1.6,6.6,1.6,10.1l0.3,60.4c0,4.8-0.1,10.2-3.3,13.9
		c-3,3.6-7.8,4.6-12.2,5.2c-34.7,4.7-69.7-2.8-105.3,0.9c-8.2,0.8-17,2.1-24-1.9c-5.5-3.1-8.9-9.1-10.4-15.5s-1.4-13-1.3-19.7
		c0.3-14.3,0.5-28.7,0.8-43.2c0.1-4.1,0.3-8.6,3.1-11.6c2.5-2.7,6.4-3.2,10-3.5c22.9-2.2,45.9-3.2,68.9-3.1
		c11.3,0.1,22.5,0.4,33.7,1.1c5.4,0.3,10.8,1.2,16.1,1.2C470.2,224.5,474.4,223.3,478.5,223.9z"></path><path class="st1" d="M357.6,322.2c-4.5,0-8.9-0.7-12.7-2.9c-5.1-3-9-8.6-10.8-15.9c-1.6-6.5-1.5-13.3-1.3-19.9l0.8-43.2
		c0.1-4.4,0.4-9,3.4-12.1c2.7-2.8,6.6-3.4,10.4-3.8c22.9-2.2,45.9-3.2,68.9-3.1c11.2,0.1,22.6,0.4,33.7,1.1c2.2,0.1,4.4,0.4,6.5,0.6
		c3.2,0.3,6.5,0.6,9.6,0.7c1.6,0,3.3-0.1,4.9-0.3c2.5-0.4,5-0.4,7.6-0.2l0,0c4.7,0.6,8.4,3,10.2,6.5c1.7,3.2,1.7,7.1,1.7,10.5
		l0.3,60.4c0,5.2-0.2,10.5-3.5,14.4c-3.1,3.7-7.9,4.8-12.6,5.5c-18.2,2.5-36.8,1.6-54.7,0.7c-16.5-0.8-33.6-1.6-50.6,0.1l-1.8,0.2
		C364.3,321.9,361,322.1,357.6,322.2z M411.6,222.8c-21.2,0-42.8,1-64.1,3.1c-3.7,0.4-7.2,0.9-9.5,3.3c-2.6,2.7-2.9,6.9-2.9,11.1
		l-0.8,43.2c-0.1,6.5-0.2,13.2,1.3,19.5c1.7,6.9,5.2,12.2,10,15c6.3,3.6,14.2,2.8,21.8,2l1.8-0.2c17.1-1.8,34.2-0.9,50.8-0.2
		c17.9,0.9,36.4,1.7,54.5-0.7c4.4-0.6,8.9-1.6,11.7-4.9c2.9-3.5,3.1-8.5,3.1-13.4l-0.3-60.4c0-3.2,0-6.9-1.5-9.8
		c-1.6-3.1-4.9-5.2-9.1-5.7l0,0c-2.4-0.2-4.8-0.2-7.2,0.2c-1.7,0.2-3.4,0.3-5.1,0.3c-3.2,0-6.6-0.4-9.8-0.7
		c-2.1-0.2-4.3-0.4-6.4-0.6c-11.1-0.6-22.4-1-33.6-1.1C414.8,222.8,413.2,222.8,411.6,222.8L411.6,222.8z"></path><g id="gears"><path class="st1" d="M380.7,244.6c0-0.4,0-0.8,0.1-1.1l-1.6-1.1c0.1-1.8,0.6-3.5,1.4-5.1c0.7,0,1.4,0,2,0l0,0
			c0.6-1.2,1.4-2.3,2.4-3.3c-0.1-0.6-0.2-1.2-0.4-1.7c1.2-1.2,2.6-2.2,4.2-2.7c0.5,0.5,1,1.1,1.4,1.7c1.6-0.2,3.3-0.1,4.9,0.3
			l1.4-1.7c1.6,0.3,3.1,1,4.3,2.1c-0.1,0.8-0.3,1.6-0.5,2.3l0,0c0.8,0.8,1.5,1.8,2.1,2.9l1.7-0.2c0.9,1.5,1.4,3.2,1.6,4.9
			c-0.6,0.5-1.2,1-1.8,1.4c0,1.3-0.2,2.6-0.6,3.8c0.4,0.4,1,1.4,1.1,1.5c-0.7,1.6-1.7,3.1-3,4.3l-1.2-0.5c-1.4,1.5-3.1,2.6-5,3.3
			c-0.1,0.6-0.3,1.5-0.3,1.7c-1.5,0.6-3.2,0.9-4.8,0.7l-0.7-1.9c-0.6-0.1-1.2-0.3-1.8-0.5c-1.3-0.4-2.4-1.1-3.4-2
			c-0.5,0.3-1.4,0.6-1.6,0.7c-1.2-1.2-2.2-2.6-2.8-4.2l1.2-1.7C380.8,247.1,380.6,245.9,380.7,244.6z M395.2,231.5l0.3,0.1
			C395.4,231.5,395.3,231.5,395.2,231.5z M389,249.1c2.2,1.1,4.8,0.6,6.5-1.2c1.7-1.9,2.2-4.6,1.4-7c-0.9-2.2-3.7-4.2-6-3.7
			s-4.6,3.3-4.9,5.8C385.7,245.4,386.9,247.8,389,249.1z"></path><path class="st1" d="M348.4,283.9c0-0.7,0-1.4,0.1-2l-2.9-1.9c0.2-3.2,1-6.3,2.5-9.2c1.2-0.1,2.5-0.1,3.7,0v-0.1
			c1.1-2.2,2.6-4.2,4.3-6c-0.2-1-0.5-2.1-0.7-3.1c2.1-2.2,4.8-4,7.7-5c1,0.9,1.8,1.9,2.6,3c2.9-0.4,5.9-0.2,8.8,0.5l2.5-3.1
			c2.9,0.6,5.6,1.8,7.9,3.8c-0.1,1.4-0.4,2.9-0.8,4.2l0,0c1.5,1.5,2.8,3.2,3.8,5.1l3-0.4c1.6,2.6,2.6,5.6,2.9,8.7
			c-0.4,0.3-2.7,2.3-3.3,2.4c0,2.3-0.4,4.6-1.1,6.8c0.7,0.8,1.8,2.4,2,2.7c-1.2,2.9-3,5.5-5.3,7.6l-2.2-0.8c-2.5,2.7-5.6,4.7-9,5.9
			c-0.1,1.1-0.5,2.7-0.5,3c-2.7,1.1-5.7,1.6-8.6,1.3c-0.4-1.1-0.9-2.3-1.3-3.4c-1.1-0.2-2.2-0.4-3.2-0.8c-2.3-0.8-4.4-2-6.2-3.6
			c-1,0.5-2.6,1.1-2.9,1.3c-2.2-2-3.9-4.6-5-7.4l2.2-3C348.6,288.3,348.3,286.1,348.4,283.9z M374.6,260.2l0.5,0.1
			C374.9,260.2,374.7,260.2,374.6,260.2z M363.4,291.8c4,1.8,8.7,0.9,11.8-2.3c3.1-3.4,4.1-8.2,2.5-12.5c-1.6-4-6.7-7.4-10.9-6.6
			s-8.2,6-8.8,10.4S359.7,289.9,363.4,291.8L363.4,291.8z"></path></g><path class="st1" d="M473.9,236.8c3.8,0.7,8.3,2.4,8.6,6.5c0.2,2.7-1.7,5.3-4,6.6c-2.3,1.2-4.9,1.8-7.5,1.8
		c-14.9,1.3-29.9,0.7-44.8-0.4c-2.8-0.2-5.7-0.5-8.2-1.8c-2.7-1.3-4.3-4-4.3-7c0.5-8.2,20.3-7.3,25.3-7.6
		C450.7,234.1,462.4,234.7,473.9,236.8z"></path><path class="st2" d="M407.2,267.1c-0.3,0-0.5-0.2-0.5-0.5s0.2-0.5,0.5-0.5c22.8-1.8,45.8-2.3,68.7-1.6c0.3,0,0.5,0.2,0.5,0.5
		c0,0.3-0.2,0.5-0.5,0.5C453,264.8,430.1,265.3,407.2,267.1L407.2,267.1z"></path><path class="st2" d="M411.4,277.2c-0.3,0-0.5-0.2-0.5-0.5s0.2-0.5,0.5-0.5l65-0.4c0.3,0,0.5,0.2,0.5,0.5s-0.2,0.5-0.5,0.5
		L411.4,277.2L411.4,277.2z"></path><path class="st2" d="M409.3,287.4c-0.3,0-0.5-0.2-0.5-0.5s0.2-0.5,0.5-0.5l66.2-0.5l0,0c0.3,0,0.5,0.2,0.5,0.5s-0.2,0.5-0.5,0.5
		L409.3,287.4z"></path><path class="st2" d="M407.6,298c-0.3,0-0.5-0.2-0.5-0.5c0-0.3,0.2-0.5,0.5-0.5l69.4-0.8c0.3,0,0.5,0.2,0.5,0.5
		c0,0.3-0.2,0.5-0.5,0.5c0,0,0,0,0,0L407.6,298L407.6,298z"></path><path class="st2" d="M474.3,306.1L474.3,306.1l-67.3-1.6c-0.3,0-0.5-0.2-0.5-0.5c0,0,0,0,0,0c0-0.3,0.2-0.5,0.5-0.5l67.3,1.6
		c0.3,0,0.5,0.2,0.5,0.5S474.6,306.1,474.3,306.1L474.3,306.1z"></path></g><g id="lines"><path class="st0" d="M428.5,413.6c-132.3,0.1-264.5,0.2-396.8,1.1c-6.8,0-16.1,3.1-14.8,10.1c1,5.5,7.7,6.8,13,6.9
		c72.6,1.2,145.2,1.7,217.8,1.3c36.8-0.2,73.6-0.6,110.4-1.1c18.1-0.3,36.3-0.6,54.4-1c14.7-0.3,30,0.9,44.2-3.3
		c3.1-0.9,23.6-7.2,21.4-12.7C476,409.6,434.4,413.6,428.5,413.6z"></path><path class="st1" d="M199.3,433.8c-56.8,0-113.6-0.5-169.5-1.4c-8-0.1-12.8-2.8-13.7-7.5c-0.4-2.1,0.1-4.3,1.5-5.9
		c2.9-3.5,9.1-5.1,14-5.1c132.4-0.8,266.8-0.9,396.8-1.1l0,0c1.2,0,4-0.2,7.6-0.4c25.3-1.6,41.2-1.8,42.8,2c0.3,0.9,0.3,1.8-0.1,2.6
		c-2.3,4.8-15.9,9.3-21.7,11.1c-11.2,3.4-23.1,3.3-34.7,3.3c-3.2,0-6.5,0-9.8,0c-18.1,0.4-36.4,0.7-54.5,1
		c-36.6,0.6-73.8,1-110.4,1.1C231.6,433.8,215.5,433.8,199.3,433.8z M428.5,414.4c-130,0.1-264.5,0.2-396.8,1.1
		c-4.5,0-10.3,1.5-12.8,4.6c-1.1,1.3-1.6,3-1.2,4.7c1,5.3,8.1,6.2,12.2,6.2c71.7,1.2,145,1.6,217.8,1.3c36.6-0.2,73.8-0.5,110.4-1.1
		c18-0.3,36.3-0.6,54.4-1c3.2-0.1,6.6-0.1,9.8,0c11.4,0,23.2,0,34.2-3.2c8.9-2.7,19.1-6.8,20.8-10.3c0.2-0.4,0.3-1,0.1-1.5
		c-1.5-3.6-30.4-1.8-41.3-1.1C432.4,414.2,429.7,414.4,428.5,414.4L428.5,414.4z M428.5,413.6L428.5,413.6z"></path></g><g id="character-back"><path class="st0" d="M347.5,357.9c3.7-9.2,4.9-19.2,7-29s5.2-19.6,11.9-27c1.3-1.4,3.1-2.8,5-2.4c2.4,0.5,3.1,3.8,2,6
		s-3.4,3.4-5.6,4.5l39.8-6.8c2.6-0.5,5.4-0.9,8-0.1s4.9,3.1,4.7,5.8c-0.4,5.3-8,5.3-12.8,7.5c-8.4,3.9-8.6,15.9-14.5,23
		c-5,6.1-13.5,8-19.6,13c-12.6,10.3-12.4,31.4-25.6,40.8c-9.6,6.8-23.3,4.8-33.1-1.6c-6.3-4.1-15.9-12-17.8-19.4
		c8.1,0.8,14.9,7.5,23.5,7.8C333.5,380.5,343.1,369.2,347.5,357.9z"></path><path class="st1" d="M333.3,398.4c-6.8-0.1-13.4-2.2-19-6c-7.2-4.7-16.2-12.7-18.1-19.8c-0.1-0.4,0.1-0.8,0.5-0.9
		c0.1,0,0.2,0,0.3,0c4,0.4,7.6,2.1,11.2,3.9c3.9,1.9,7.9,3.8,12.3,3.9c13,0.3,22.2-11,26.4-21.8l0,0c2.7-6.8,4.1-14.1,5.4-21.2
		c0.5-2.5,1-5.1,1.5-7.6c1.8-8.5,4.8-19.3,12.1-27.3c2-2.2,3.9-3.1,5.7-2.6c1.2,0.3,2.2,1.1,2.6,2.2c0.7,1.6,0.6,3.3-0.1,4.9
		c-0.6,1.1-1.4,2-2.4,2.8l35.8-6.1c2.6-0.4,5.5-0.9,8.3-0.1s5.5,3.4,5.2,6.6c-0.4,4.2-4.6,5.5-8.7,6.6c-1.5,0.4-3,0.9-4.5,1.5
		c-4.8,2.2-6.8,7.2-8.9,12.6c-1.4,3.6-2.9,7.3-5.3,10.2c-3,3.7-7.2,5.9-11.3,8c-3,1.4-5.8,3.1-8.4,5.1c-6,4.9-9,12.4-12,19.8
		c-3.2,7.9-6.6,16.1-13.6,21.1C343.9,396.9,338.6,398.5,333.3,398.4z M297.9,373.3c2.4,6.5,10.6,13.6,17.2,17.9
		c12.4,8.1,25.2,6.6,32.2,1.6c6.6-4.7,9.8-12.4,13.1-20.4c3.1-7.5,6.2-15.2,12.5-20.3c2.7-2.1,5.6-3.8,8.6-5.3
		c4.1-2.1,8-4.2,10.8-7.6c2.3-2.8,3.7-6.4,5.1-9.9c2.1-5.4,4.3-10.9,9.6-13.4c1.5-0.6,3.1-1.2,4.7-1.6c3.8-1.1,7.4-2.1,7.6-5.3
		c0.2-2.3-2-4.4-4.1-5c-2.5-0.7-5.2-0.3-7.7,0.1l-39.8,6.8c-0.4,0.1-0.8-0.2-0.9-0.6c-0.1-0.3,0.1-0.7,0.4-0.8
		c2.3-1.2,4.3-2.3,5.3-4.2c0.5-1.1,0.6-2.4,0.1-3.5c-0.3-0.7-0.9-1.2-1.6-1.4c-1.2-0.3-2.6,0.5-4.2,2.2c-7,7.7-10,18.3-11.7,26.6
		c-0.5,2.5-1,5.1-1.5,7.6c-1.4,7.2-2.8,14.6-5.5,21.5c-4.4,11.2-14.1,23.1-27.9,22.7c-4.7-0.1-8.9-2.1-12.9-4.1
		C304.3,375.3,301.2,373.8,297.9,373.3z"></path><path class="st0" d="M160.4,304c-5.7-19.4-4.7-40.2,3.1-58.9c1.5-3.6,3.3-7.3,3.4-11.2s-2.1-8.3-5.9-9.1s-8.1,3.8-5.9,7.1
		c1.1-13.3-0.9-26.8-5.9-39.2c-2.2-5.5-6.9-11.7-12.6-10c-4,1.2-5.9,5.9-5.9,10.1s1.2,8.4,0.7,12.5c-1.3,12.7-16.5,19.9-19.5,32.2
		c-3,12,6.2,23.1,12.5,33.7c6.9,11.7,10.8,24.9,15.1,37.7s9.4,25.8,18.2,36.1c6.6,7.6,15.6,13.8,25.6,15.7
		c6.6,1.2,22.8,0.2,14.3-8.5c-2.9-2.9-7.9-4.6-11.1-7.4c-4.2-3.7-8.1-7.8-11.5-12.2C168.5,324,163.5,314.3,160.4,304z"></path><path class="st1" d="M188.8,361.8c-1.8,0-3.7-0.1-5.5-0.4c-9.5-1.8-18.8-7.4-26.1-15.9c-9.3-10.8-14.3-24.5-18.3-36.4
		c-0.6-1.8-1.2-3.7-1.8-5.5c-3.6-10.9-7.3-22.1-13.2-32.1c-1.1-1.8-2.2-3.6-3.4-5.4c-5.8-9.1-11.8-18.6-9.3-28.9
		c1.5-6,5.7-10.8,9.8-15.4c4.6-5.2,9-10.2,9.6-16.6c0.2-2.3,0-4.6-0.3-6.9c-0.3-1.8-0.4-3.7-0.4-5.5c0-4.4,2-9.5,6.4-10.8
		c5.7-1.7,10.9,4,13.5,10.4c4.2,10.5,6.3,21.7,6.2,33c1.4-1.2,3.2-1.7,5-1.3c4.4,1,6.6,5.8,6.5,9.9c-0.1,3.6-1.5,6.9-2.9,10.1
		c-0.2,0.5-0.4,0.9-0.6,1.4c-12.1,28.9-7.7,62,11.6,86.7c3.4,4.4,7.2,8.5,11.4,12.1c1.6,1.2,3.3,2.3,5.1,3.2
		c2.2,1.1,4.3,2.5,6.1,4.2c2.4,2.5,3.2,4.7,2.2,6.5C199,361,193.5,361.8,188.8,361.8z M138.5,183.1c-0.6,0-1.1,0.1-1.7,0.2
		c-3.7,1.1-5.3,5.5-5.4,9.4c0,1.8,0.2,3.6,0.4,5.3c0.4,2.4,0.5,4.8,0.3,7.3c-0.7,6.9-5.4,12.3-10,17.5c-4,4.5-8.1,9.2-9.5,14.8
		c-2.4,9.7,3.4,18.8,9.1,27.7c1.1,1.8,2.3,3.6,3.4,5.4c6,10.1,9.7,21.4,13.3,32.4c0.6,1.8,1.2,3.7,1.8,5.5c4,11.8,8.9,25.3,18,35.9
		c7.1,8.2,16,13.7,25.2,15.4c5.2,1,14.1,0.3,15.6-2.5c0.6-1.2-0.1-2.8-2-4.8c-1.8-1.6-3.7-2.9-5.8-3.9c-1.9-1-3.6-2.1-5.3-3.4
		c-4.3-3.7-8.2-7.9-11.6-12.4c-19.6-25.1-24.1-58.8-11.8-88.2l0.6-1.4c1.3-3.1,2.7-6.2,2.8-9.5c0.1-3.5-1.7-7.6-5.3-8.4
		c-1.8-0.3-3.7,0.5-4.7,2.1c0,1.4-0.1,2.9-0.2,4.3c0,0.3-0.2,0.6-0.6,0.7c-0.3,0.1-0.6,0-0.8-0.3c-1-1.6-1-3.6,0.1-5.1
		c0.3-11.7-1.8-23.3-6.1-34.2C147,189,143.3,183.1,138.5,183.1z"></path><path class="st2" d="M284.6,343.2c3.6,0.7,6,3.8,8.2,6.7l19.6,26.7c2.8,3.8,5.7,7.9,5.9,12.6c0.3,7-6.2,13.1-13.2,13.8
		s-13.9-3.2-18.2-8.8s-6.5-12.4-7.9-19.4C277.7,369.1,269.2,340.2,284.6,343.2z"></path><path class="st2" d="M257.7,345.9c9.8-1.9,19.9,0.8,27.5,7.3c11.1,9.7,14.2,25.6,15.5,40.4c0.4,4.2,0.6,8.5-0.9,12.4
		c-2.3,6.1-8.4,9.9-14.7,11.7s-12.8,2-19.2,3.1c-7.1,1.2-15.2,3.5-20.9-1c-3.5-2.8-4.9-7.3-5.8-11.6c-3.1-13.8-3.4-28-2.9-42
		C236.6,355.2,247.6,348,257.7,345.9z"></path><path class="st2" d="M255.8,358c-3.7-4.8-10-6.9-16-7.6s-12.2-0.3-18.2-1.4c-6.7-1.2-13-4.2-19.8-5.5s-14.6-0.3-18.9,4.9
		c-3.1,3.7-3.8,8.9-3,13.6s3,9.1,5.3,13.3c3.1,5.6,6.6,11.1,11.4,15.4s11.1,7.2,17.5,6.8c12.5-0.8,20.5-12.5,30.8-18.1
		C252.9,375,264.6,369.5,255.8,358z"></path><path class="st0" d="M211,301.1c0.1,2.4,0.8,4.8,2.1,6.8c1.5,2.3,4.2,3.5,6.9,3.3c2.4-0.3,4.3-1.9,5.9-3.4
		c12.4-12,20.5-27.2,22.8-43c0.8-5.7,0.7-12.2-4-16.4c-3.9-3.6-10.3-4.7-15.9-3.5c-12.2,2.5-15.4,9.6-16.9,18.9
		C209.8,276.1,209.5,288.7,211,301.1z"></path><path class="st1" d="M219.2,312.1c-2.7-0.1-5.3-1.5-6.8-3.7c-1.5-2.2-1.9-4.6-2.2-7.2l0,0c-1.5-12.5-1.2-25.2,0.9-37.6
		c1.6-9.9,5.3-17,17.5-19.5c6.2-1.3,12.7,0.2,16.5,3.7c4,3.6,5.4,9.2,4.2,17.1c-2.3,15.9-10.5,31.4-23,43.5
		c-1.8,1.7-3.8,3.4-6.4,3.6C219.8,312.1,219.5,312.1,219.2,312.1z M233.1,245.2c-1.4,0-2.8,0.1-4.2,0.4
		c-11.4,2.3-14.7,8.7-16.3,18.2c-2.1,12.3-2.4,24.8-0.9,37.2l0,0c0.1,2.3,0.8,4.5,1.9,6.5c1.4,2,3.8,3.2,6.2,3
		c2.3-0.3,4-1.8,5.5-3.2c12.3-11.9,20.3-27,22.6-42.6c1.1-7.3-0.2-12.5-3.8-15.8C241.5,246.5,237.4,245.2,233.1,245.2L233.1,245.2z"></path><path class="st1" d="M289,214.9c-3.7-3.9-10-5.3-15.8-6.1c-11.4-1.6-22.9-2-34.4-1.2c-11.4,0.8-23.7,3.4-30.3,11.3
		c-5.2,6.2-5.6,14.4-5.1,22c0.5,6.6,2,13.7,8,17.9c4.9,3.4,11.9,4.1,18.2,2.9s11.8-4.1,17.1-7.1c11-6.3,21.5-13.5,31.4-21.4
		C284.1,228.4,297.5,223.7,289,214.9z"></path><path class="st2" d="M278.3,216.3c-7.7-1.2-15.7,0.6-23,3c-8.6,2.8-16.9,6.7-23.1,12.5s-10.1,13.6-8.8,21.4c0.2,1.4,0.9,3,2.6,3.2
		s2.7-1,3.6-2c9.7-11,23.8-19.1,39.4-22.9c4.9-1.2,19.7-0.7,22.9-3.7C297.2,222.5,283,217,278.3,216.3z"></path><path class="st1" d="M244.8,229.8c-11.8,7.8-19.8,20.1-22.2,34c-1.2,7.4-0.8,15-2.1,22.4s-4.6,15-11.5,19.7
		c-4.5,3-10.3,4.7-13.9,8.4c-5.8,6-3.4,15.7,3.2,21.1s16.1,7.5,25.3,8.3c31.1,2.8,62.3-6.1,89.2-19.4c4.9-2.4,9.7-5,13.3-8.8
		s5.6-8.7,4.2-13.3c-2-6.4-9.8-10.1-14.6-15.4c-5.5-6-6.8-14-7-21.6s0.6-15.3-1.3-22.7C300.9,216.7,266.3,215.5,244.8,229.8z"></path><path class="st1" d="M236.2,452.2c-4.7-1.8-9.7-3.6-14.5-2.2s-8.4,7.6-5.4,11.5c1.6,2.1,4.5,2.9,7.1,3.4c31.4,6.4,64.1,4.1,95.6-2
		c2.6-0.4,5.1-1.2,7.3-2.4c2.2-1.4,3.9-3.8,3.8-6.4c-0.2-3.1-3.1-5.6-6.2-6.3s-6.3,0-9.4,0.7c6.2-24.2,5.5-49.5,4.7-74.5
		c-0.1-2.2-0.2-4.7-1.7-6.3s-3.5-1.9-5.5-2.3c-19.9-3.3-40.1-4.8-60.4-4.4c-7.5,0.1-19,0.2-24.8,5.9c-5.2,5.1-2.3,16.5-1.8,23
		C226.6,411,230.4,431.8,236.2,452.2z"></path><path class="st0" d="M236.9,460.1L236.9,460.1c-6.3-0.9-12.3-2.8-17.9-5.6c-0.2-0.1-0.4-0.4-0.2-0.7c0.1-0.2,0.4-0.4,0.7-0.2
		c5.4,2.6,11.1,4.5,17,5.4c0.1-1.7-0.2-3.5-0.9-5.1c-0.1-0.3,0-0.5,0.3-0.6c0.2-0.1,0.5,0,0.6,0.2c0.9,1.9,1.2,4.1,0.9,6.2
		c0,0.1-0.1,0.3-0.2,0.3C237.1,460,237,460.1,236.9,460.1z"></path><path class="st0" d="M314,457.1c-0.6,0.1-1.3-0.2-1.6-0.8c-0.3-0.5-0.4-1.1-0.3-1.7c0.2-1.9,0.8-3.6,1.9-5.2
		c0.2-0.2,0.5-0.3,0.7-0.1c0.2,0.2,0.3,0.5,0.1,0.7c-0.9,1.4-1.5,3-1.7,4.7c-0.1,0.3,0,0.7,0.1,1c0.3,0.5,1.2,0.3,1.9,0.2
		c3.9-1,7.7-2.2,11.5-3.6c0.3-0.1,0.5,0,0.6,0.3c0.1,0.3,0,0.5-0.3,0.6c-3.8,1.4-7.7,2.6-11.6,3.6C314.9,457,314.4,457.1,314,457.1z
		"></path><path class="st1" d="M132.6,256.1c-6.1-11.5-8.9-24.4-8.2-37.4l1,0.1c-0.7,12.8,2.1,25.5,8.1,36.9L132.6,256.1z"></path><path class="st1" d="M369.6,332.2v-1c10.3,0,20.6-1.8,30.4-5.1l0.3,0.9C390.4,330.4,380,332.1,369.6,332.2z"></path></g><g id="cactus"><path class="st0" d="M47.4,359.9c2.9-1.4,6.2-2.1,9.4-1.9c-2.5-2.4-3.7-5.7-3.4-9.1c0.1-0.7,0.3-1.5,1-1.8c0.6-0.1,1.3,0.1,1.8,0.5
		c1.7,1.2,3.4,2.5,5,3.8c0.2-2.9,1.1-5.7,2.5-8.3c0.4-1,1.3-1.7,2.3-2.1c1.8-0.4,3.2,1.7,3.8,3.5c2.3,5.9,5.1,18.4-3.8,20.7
		c-2.5,0.6-5.5-0.5-7.9-0.9c-2-0.2-4-0.7-5.9-1.3C51.7,362.8,47.4,359.9,47.4,359.9z"></path><path class="st1" d="M64.4,366.2c-1.5-0.1-3-0.3-4.4-0.7c-0.7-0.2-1.4-0.3-2-0.4l-1-0.1c-1.7-0.2-3.4-0.6-5-1.2c0,0-5.3-3-5.4-3.8
		c0-0.3,0.2-0.6,0.4-0.7c2.5-1.2,5.2-1.9,8-2c-1.9-2.4-2.7-5.4-2.4-8.5c0.2-1.6,0.9-2.2,1.5-2.4c0.9-0.2,1.8,0,2.5,0.6
		c1.4,0.9,2.7,1.9,4,3c0.4-2.5,1.2-5,2.5-7.2c0.5-1.2,1.5-2.1,2.8-2.5c1.9-0.4,3.6,1,4.7,4c0.7,1.9,4.2,11.5,1.1,17.5
		c-1.1,2.1-3,3.6-5.3,4.1C65.7,366.2,65.1,366.2,64.4,366.2z M48.9,360c1.3,0.9,3.3,2.2,3.6,2.3c1.5,0.6,3.1,0.9,4.7,1.1l1,0.2
		c0.7,0.1,1.4,0.3,2.1,0.5c1.9,0.4,3.9,0.9,5.5,0.5c1.9-0.4,3.5-1.7,4.4-3.4c2.2-4.2,0.7-11.4-1.2-16.3c-0.3-0.8-1.4-3.3-3-3
		c-0.8,0.2-1.4,1.1-1.8,1.7c-1.4,2.5-2.2,5.2-2.4,8c0,0.4-0.4,0.7-0.8,0.7c-0.2,0-0.3-0.1-0.4-0.2c-1.6-1.3-3.2-2.6-5-3.8
		c-0.2-0.1-0.8-0.5-1.1-0.4s-0.4,0.5-0.5,1.1c-0.3,3.2,0.8,6.3,3.1,8.5c0.2,0.2,0.3,0.5,0.2,0.8c-0.1,0.3-0.4,0.5-0.7,0.5
		C54.1,358.6,51.4,359,48.9,360z"></path><path class="st1" d="M68.8,354.3c2.7-4.3,6.4-7.9,10.7-10.5c4.4-2.5,9.8-3.5,14.6-1.9c4.4,1.4,7.9,4.9,10.3,8.8
		c2.2,4.1,3.8,8.4,4.7,13c1.6,6.9,2.5,13.9,2.9,21c0.1,2.2,0.1,4.6-1.4,6.3c-1.7,1.8-4.4,1.9-6.9,1.9C92.1,392.7,79.4,394,68,392
		c-10.3-1.8-8.7-12-6.8-20.1C62.4,366.4,64.7,358.4,68.8,354.3z"></path><path class="st1" d="M100.7,343.3c1.8-2.6,5.2-4.3,8.1-3.1s4,4.6,4.7,7.6c0.8,3.7,1.5,7.5,0.6,11.2s-3.7,7.1-7.5,7.6
		c-3.3,0.3-6.6-1.3-8.2-4.2C95.4,357.5,97.6,347.8,100.7,343.3z"></path><path class="st0" d="M69.7,391.6c-0.3,0-0.5-0.2-0.5-0.5c-1.2-17.7,5-35.1,17-48.1c0.2-0.2,0.5-0.2,0.7,0c0,0,0,0,0,0
		c0.2,0.2,0.2,0.5,0,0.7c0,0,0,0,0,0c-11.8,12.8-17.9,29.9-16.7,47.4C70.2,391.4,70,391.6,69.7,391.6
		C69.8,391.6,69.8,391.6,69.7,391.6L69.7,391.6z"></path><path class="st0" d="M99.8,386.6c-0.3,0-0.5-0.2-0.5-0.5c-0.6-14-2.9-27.9-6.9-41.4c-0.1-0.3,0.1-0.5,0.3-0.6c0,0,0,0,0,0
		c0.3-0.1,0.5,0.1,0.6,0.3c4,13.5,6.4,27.5,6.9,41.6C100.3,386.4,100.1,386.6,99.8,386.6L99.8,386.6z"></path><path class="st0" d="M106.1,364.4c-0.3,0-0.5-0.2-0.5-0.5c0-0.1,0.1-0.3,0.2-0.4c5.6-5.4,7-13.8,3.6-20.8c-0.1-0.2,0-0.6,0.2-0.7
		c0.2-0.1,0.6,0,0.7,0.2c3.7,7.3,2.2,16.2-3.8,21.9C106.3,364.4,106.2,364.4,106.1,364.4z"></path><path class="st2" d="M52,403.1c2,5.3,5.8,10.2,11.4,12.5c3.9,1.6,8.3,1.8,12.6,1.9c11.4,0.2,22.8-0.3,34.1-1.5
		c2.6-0.3,5.4-0.7,7.3-2.3s2.6-4.4,3.1-6.9c0.8-4.4,1.5-8.7,2.2-13.1c0.4-2.4,0.6-5.2-1.4-6.8c-1.5-1.2-3.7-1.4-5.7-1.4
		c-15.5-0.3-31-0.2-46.6,0.2c-4.4,0.1-15.2-1.4-18.5,1.9S50.6,399.6,52,403.1z"></path></g><g id="html"><path class="st2" d="M100.8,73c0.2,3.3,0.7,6.9,3.9,9.1c2.9,2,7.2,2.2,11.1,2.3l43.1,1.2c3.8,0.1,8,0.1,10.9-1.7
		c3.6-2.2,4.1-6.1,4.4-9.5c0.6-8.8,0.8-17.5,0.6-26.3c-0.1-3.2-0.3-6.7-3.2-9c-3.4-2.8-9.1-2.8-14.1-2.6l-26,1.1l-13,0.5
		c-3.2,0.1-10.5-0.6-13.3,0.6c-4.6,2-3.7,10.8-4,14.5C100.6,59.8,100.5,66.4,100.8,73z"></path><path class="st1" d="M108.6,47.5c0.7-1.2,2.1-1.8,3.5-1.5c1.3,0.4,2.5,1,3.6,1.9c3.9,2.9,7.6,5.9,11.3,9c1.4,1.2,2.9,2.7,2.8,4.5
		c0,1.5-1.1,2.8-2.1,3.9l-8.6,9.3c-1.1,1.4-2.5,2.5-4.2,3.2c-1.7,0.6-3.9-0.1-4.5-1.8s0.8-3.6,2.2-5c3.6-3.6,9.9-7.6,6-13
		C116.7,55.4,106.3,52,108.6,47.5z"></path><path class="st1" d="M166.8,47.5c-0.7-1.2-2.1-1.8-3.5-1.5c-1.3,0.4-2.5,1-3.5,1.9c-3.9,2.9-7.6,5.9-11.3,9
		c-1.4,1.2-2.9,2.7-2.8,4.5c0,1.5,1.1,2.8,2.1,3.9l8.6,9.3c1.1,1.4,2.5,2.5,4.2,3.2c1.7,0.6,3.9-0.1,4.5-1.8s-0.8-3.6-2.2-5
		c-3.6-3.6-9.9-7.6-6-13C158.8,55.4,169.1,52,166.8,47.5z"></path><path class="st1" d="M134.1,71.7c0,1.4,0.4,2.8,1.1,4c0.8,1.2,2.3,1.7,3.7,1.2c3.1-1.7,3.2-31.1-0.6-32.4
		C130.3,41.7,133.8,68.7,134.1,71.7z"></path></g><g id="jigsaw"><g id="jigsaw-2"><path class="st1" d="M319.8,81.4l22.2-1c0.8,0.9-0.2,2.2-0.8,3.2c-1.8,3,0.1,7.6,3.5,8.3c3.2,0.5,6.1-1.7,6.6-4.9
			c0.1-0.4,0.1-0.8,0.1-1.2c-0.1-1.3-0.7-2.8,0.1-3.8c0.6-0.9,1.9-1,2.9-1l9.8-0.2c1-0.1,2,0.1,2.9,0.5c1.7,1,1.9,3.3,1.9,5.3v12.6
			c-0.1,0.9,0.1,1.8,0.6,2.6c1.1,1.5,3.4,0.9,5.2,0.6c4-0.7,8.5,1.3,10.2,5s0.1,8.8-3.7,10.3c-2.4,1-5.1,0.4-7.6,0.4s-5.5,0.7-6.7,3
			c-1.9,3.9,3,9,0.7,12.7c-1.4,2.2-4.5,2.4-7.2,2.4l-11.4-0.3c0.7-2.9-0.1-6-2.2-8.2c-2.2-2.1-5.5-2.5-8.1-0.8c-2.4,1.7-3,5.6-1,7.8
			c-4.4,1.1-9.4,2.1-13.1-0.6c-3-2.1-4.1-6-4.3-9.7s1.4-5.8,0.8-9.4c2.6,0.4,5.3,0.8,7.8,0.2s3.9-4,4.3-6.7c0.5-2.9,0.5-1.3-2.3-2.2
			s-5.7,0-8.5,0.9c-0.2-1.4-2.1-7.2-2.1-8.6c0-1.8-0.6-3.8-0.8-5.6C319.7,91.9,319.1,81.4,319.8,81.4z"></path><path class="st2" d="M433.4,45.7c1.7,0,3.8-0.5,4-2.2c-0.1-1-0.4-2-1-2.8c-1.3-2.8-0.6-6.1,1.6-8.2c2.3-1.9,5.5-2.1,8-0.5
			c2.5,1.8,3.7,4.9,3,7.9c-0.3,1.3-0.9,2.6-0.8,3.9c0.2,2.3,2.6,3.8,4.8,4s4.4-0.6,6.6-0.8s4.8,0.2,6.1,2.1c1,1.5,1,3.5,1,5.3
			l-0.1,8.2c0,1.6-0.2,3.4-1.5,4.2c-1.8,1-3.7-0.9-5.4-2c-2.7-1.6-6.1-1.3-8.4,0.7c-2.3,2.2-3.1,5.6-2,8.6c1.1,2.9,4,4.8,7.1,4.8
			c2.1-0.1,4.1-1.2,6.2-1.6s4.7,0.1,5.5,2.1c0.3,1,0.4,2,0.3,3l-0.8,15.5c-0.1,1.6-0.2,3.3-1.4,4.3c-0.9,0.6-2,1-3.1,1l-8.8,1
			c-1.8,0.3-3.6,0.3-5.3,0c-1.8-0.3-3.4-1.6-4.1-3.2c-0.8-2.1,0-4.4,0.3-6.6s-0.5-5-2.6-5.3s-3.7,2.5-3.8,4.9s0.5,4.9-0.5,7
			c-1.5,3-5.5,3.3-8.7,3.2c-4.7-0.2-10-0.7-12.8-4.6c-1.4-2-1.9-4.6-2.2-7.1c-0.3-1.6-0.4-3.2-0.3-4.8c0.2-1.6,1.1-3,2.6-3.8
			c2-0.9,4.2,0.3,6.3,0.5c4.4,0.5,8.7-3.8,8.5-8.4s-4.9-8.4-9.2-7.4c-2.3,0.5-4.6,2-6.7,1.1c-2.3-1.1-2.6-4.3-2.6-7
			c0-3.6-1.8-16.1,2.5-17.2c2.1-0.5,5.4,0.4,7.5,0.3L433.4,45.7z"></path><path class="st2" d="M380.3,182.2c2.2-0.5,4.5-0.4,6.6,0.2c2.3,0.7,3.8,2.7,4,5.1c-0.1,3-3.1,5.3-2.9,8.3c0.2,1.8,1.4,3.3,3.1,3.9
			c1.7,0.5,3.4,0.5,5.1,0c2.2-0.5,4.1-1.7,5.5-3.4c1.4-1.8,1.6-4.3,0.5-6.4c-1.1-1.8-3.4-3-3.1-5.1s2.7-2.4,4.5-2.5l15.4-0.7
			c-0.7-3.4-1.4-7-0.7-10.5s3.4-6.7,6.7-6.9c2.9-0.2,5.6,1.9,8.5,2c3.5,0.1,6.9-3.3,6.8-7s-3.5-7-7-6.8c-4,0.2-7.7,4.2-11.4,2.7
			c-2.4-0.9-3.6-3.9-3.6-6.6s0.7-5.3,1-8c0.2-1.7,0-3.7-1.4-4.5c-0.8-0.4-1.6-0.5-2.4-0.4l-11.1,0.1c-2.1,0-4.6-0.2-5.5-2.2
			c-0.8-1.7,0.1-3.6,0.4-5.5c0.5-3.9-2.9-7.8-6.6-7.6s-6.6,4.8-5.2,8.4c0.5,1.3,1.4,2.6,1,3.9c-0.5,1.6-2.5,1.7-4.1,1.6l-11.8-0.9
			c-1.4-0.1-3.1-0.1-4.1,1c-0.7,1-1.1,2.3-0.9,3.6l-0.3,11.1c-0.1,0.8,0,1.6,0.4,2.4c0.7,1.2,2.2,1.4,3.4,1.7
			c4.5,1.6,6.8,6.4,5.2,10.9c-0.8,2.3-2.6,4.2-4.9,5.1c-1.5,0.5-3.3,0.7-4.2,2.1c-0.5,0.8-0.7,1.8-0.8,2.7c-0.4,4.1-0.1,8.2,4.4,9
			C373.8,183.5,377.4,182.7,380.3,182.2z"></path></g><path class="st1" d="M321.6,36.2l1,22.2c-0.9,0.8-2.2-0.2-3.2-0.8c-2.8-1.5-6.3-0.4-7.8,2.4c-0.2,0.3-0.3,0.7-0.4,1.1
		c-0.5,3.2,1.7,6.1,4.9,6.6c0.4,0.1,0.8,0.1,1.1,0.1c1.3-0.2,2.8-0.7,3.8,0.1c0.9,0.6,1,1.9,1,2.9l0.2,9.8c0.1,1-0.1,2-0.5,2.9
		c-1,1.7-3.3,1.9-5.3,1.9h-12.5c-0.9-0.1-1.8,0.1-2.6,0.6c-1.5,1.1-0.9,3.4-0.6,5.2c0.7,4-1.3,8.5-5,10.2s-8.7,0.1-10.2-3.7
		c-0.9-2.4-0.4-5.1-0.4-7.7s-0.7-5.6-3-6.7c-3.9-1.9-8.9,3-12.6,0.7c-2.2-1.4-2.4-4.5-2.3-7.2l0.3-11.4c2.9,0.7,6-0.1,8.1-2.2
		c2.1-2.2,2.4-5.5,0.8-8.1c-1.7-2.4-5.6-3-7.7-1c-1.1-4.4-2.1-9.4,0.6-13.1c2.1-3,6-4.1,9.6-4.3s7.3,0.3,10.9-0.3
		c-0.6,2.6-0.6,5.2-0.2,7.8c0.6,2.5,2.5,5,5.1,5.4c2.9,0.5,5.8-1.8,6.7-4.6s0-5.8-0.9-8.5c1.4-0.2,2.7,0.2,4,0.2
		c1.8,0,3.7-0.6,5.6-0.8C311.2,36,321.6,35.4,321.6,36.2z"></path><path class="st2" d="M322.4,101.2c0,1.7,0.5,3.8,2.1,4c1,0.1,1.8-0.5,2.7-1c2.7-1.3,5.9-0.6,7.8,1.6c1.8,2.3,2,5.5,0.5,8
		c-1.7,2.4-4.6,3.6-7.5,3c-1.2-0.3-2.4-0.9-3.7-0.8c-2.2,0.2-3.6,2.6-3.8,4.8s0.5,4.4,0.8,6.6s-0.2,4.8-2,6.1c-1.4,1-3.3,1.1-5.1,1
		l-7.8-0.1c-1.5,0-3.3-0.2-4-1.5c-1-1.8,0.9-3.7,1.9-5.4c2.1-3.4,0.9-7.9-2.5-9.9c-3.4-2.1-7.9-0.9-9.9,2.5c-0.7,1.2-1.1,2.7-1,4.1
		c0.1,2.1,1.1,4.1,1.6,6.2s-0.1,4.7-2,5.5c-0.9,0.3-1.9,0.4-2.9,0.3l-14.8-0.8c-1.5-0.1-3.2-0.2-4.2-1.4c-0.6-0.9-1-2-1-3.1l-1-8.8
		c-0.3-1.8-0.3-3.6,0-5.3c0.3-1.8,1.5-3.3,3.1-4.1c2-0.8,4.2,0,6.3,0.3s4.8-0.5,5.1-2.6s-2.4-3.7-4.6-3.8s-4.7,0.5-6.7-0.6
		c-2.9-1.5-3.1-5.5-3-8.7c0.1-4.7,0.6-10,4.4-12.8c1.9-1.4,4.4-1.8,6.7-2.2c1.5-0.3,3.1-0.4,4.6-0.3c1.6,0.2,2.9,1.2,3.6,2.6
		c0.8,2-0.3,4.2-0.5,6.3c-0.5,4.2,2.6,8,6.8,8.5c4.2,0.5,8-2.6,8.5-6.8c0.1-0.8,0-1.7-0.1-2.5c-0.5-2.3-2-4.6-1-6.7
		c1-2.3,4.1-2.6,6.6-2.6c3.4,0,15.4-1.8,16.4,2.5c0.5,2.1-0.4,5.4-0.3,7.5C322.3,94.2,322.4,97.7,322.4,101.2z"></path><path class="st1" d="M224.9,96.9c0.4,2.2,0.4,4.5-0.2,6.6c-0.7,2.1-2.6,4-4.9,4c-2.9-0.1-5.1-3.1-7.9-2.9c-1.7,0.2-3.2,1.5-3.8,3.1
		c-0.5,1.7-0.5,3.4,0,5.1c0.5,2.1,1.6,4,3.3,5.4c1.7,1.4,4.1,1.6,6.1,0.5c1.7-1.1,2.9-3.4,4.9-3.1s2.3,2.7,2.4,4.6l0.6,15.4
		c3.3-0.7,6.7-1.4,10-0.6s6.4,3.4,6.6,6.7c0.2,2.9-1.9,5.6-2,8.5c-0.1,3.6,2.8,6.7,6.5,6.7c3.6,0.1,6.7-2.8,6.7-6.5
		c0-0.2,0-0.3,0-0.5c-0.2-4-4-7.7-2.6-11.4c0.9-2.4,3.7-3.6,6.3-3.6c2.6-0.1,5.1,0.7,7.6,1c1.6,0.2,3.5,0,4.3-1.4
		c0.4-0.8,0.5-1.6,0.4-2.4l-0.1-11.1c0-2.1,0.2-4.6,2.1-5.5c1.6-0.8,3.5,0.2,5.2,0.4c3.7,0.5,7.4-2.9,7.2-6.6s-4.5-6.6-8-5.2
		c-1.2,0.5-2.5,1.4-3.7,1c-1.5-0.5-1.6-2.6-1.5-4.1l0.9-11.8c0.1-1.4,0.1-3.1-0.9-4.1c-1-0.7-2.2-1.1-3.4-0.9l-10.6-0.3
		c-0.8-0.1-1.6,0-2.3,0.4c-1.1,0.7-1.3,2.2-1.7,3.4c-1.2,4.3-5.6,6.7-9.9,5.6c-2.6-0.7-4.6-2.7-5.5-5.2c-0.5-1.5-0.7-3.3-2-4.2
		c-0.8-0.5-1.7-0.7-2.6-0.8c-3.9-0.4-7.8-0.1-8.6,4.4C223.7,90.4,224.5,94,224.9,96.9z"></path></g></svg>