<svg transform="scale(1)" version="1.1" id="Layer_1" xmlns="http://www.w3.org/2000/svg" xmlns:xlink="http://www.w3.org/1999/xlink" x="0px" y="0px" viewBox="0 0 500 500" xml:space="preserve" class="show_show__wrapper__graphic__5Waiy "><title>React</title><style type="text/css">
	.st0{fill:#111111;}
	.st1{fill:#FFFFFF;}
	.st2{fill:#128FFF;}
</style><g id="ground"><path class="st0" d="M460,326c-70.8,0.4-141.7,1-212.6,1.8h-6.6c-11.4,0-22.8,0-34.2,0.1c-5.9-0.1-13.2-0.2-17.7,0.1l-16.1,0.1
		c-44.7,0.3-89.4,0.9-134.1,1.8c-3.2,0.1-7.4,0.6-8,2.5c-0.8,2.5,5,3.6,9.1,3.6c70.8-0.5,141.7-1.1,212.5-1.8h6.6
		c11.5,0,23,0,34.5-0.1c5.8,0.1,12.8,0.2,17.1-0.1l16.4-0.1c44.7-0.3,89.4-0.9,134.1-1.8c3.2-0.1,7.4-0.6,8-2.6
		C469.9,327,464.2,326,460,326z"></path></g><g id="keyboard"><path class="st1" d="M215,349.8c-11.7-0.3-23.6-0.5-34.9,2.8c-20.1,5.9-35.1,22.2-49.1,37.8c-2.1,2.4-4.3,4.8-5.5,7.8
		s-1.2,6.6,0.8,9.1c2.5,3.1,7,3.5,11,3.6l237.9,7c3.4,0.1,6.8,0.2,10-0.9s6.1-3.5,6.8-6.8c0.9-4.1-1.9-8-4.5-11.3L362,366.8
		c-5.7-7.2-8.9-13.5-18.7-14c-27.5-1.3-55.1-1.3-82.6-1.9C245.5,350.5,230.2,350.4,215,349.8z"></path><path class="st0" d="M378,418.7c-1,0-2,0-2.9,0l-237.9-7c-4.2-0.1-8.9-0.5-11.5-3.9c-2.4-3-2-7-0.9-9.9c1.2-3.1,3.6-5.7,5.6-8
		c12.7-14.2,28.6-31.9,49.5-38c11.4-3.4,23.5-3.1,35.1-2.8l0,0c10.1,0.4,20.5,0.6,30.5,0.8c5.1,0.1,10.2,0.2,15.2,0.3
		c9.2,0.2,18.5,0.4,27.5,0.5c18.1,0.3,36.8,0.5,55.1,1.4c8.8,0.4,12.6,5.5,17,11.3c0.7,1,1.5,1.9,2.2,2.9l25.4,32.1
		c2.7,3.5,5.6,7.5,4.7,11.9c-0.8,3.9-4.3,6.4-7.3,7.4C383,418.5,380.5,418.8,378,418.7z M205.4,350.4c-8.4,0-16.9,0.5-25.1,2.9
		c-20.5,6-36.2,23.5-48.8,37.6c-2.1,2.3-4.2,4.7-5.4,7.6c-1.2,3-1,6.3,0.7,8.4c2.3,2.8,6.5,3.2,10.4,3.3l237.9,7
		c3.3,0.1,6.6,0.2,9.7-0.8c2.6-0.9,5.6-3,6.3-6.2c0.8-3.8-1.8-7.5-4.4-10.7l-25.4-32.2c-0.8-1-1.5-2-2.2-2.9
		c-4.4-5.8-7.8-10.4-15.9-10.8c-18.3-0.9-37-1.2-55.1-1.4c-9-0.1-18.4-0.3-27.5-0.5c-5.1-0.1-10.2-0.2-15.2-0.3
		c-10-0.2-20.3-0.4-30.5-0.8C211.8,350.5,208.6,350.4,205.4,350.4z"></path><path class="st0" d="M366.1,404h-0.2l-184.4-3.8c-11-0.2-22.4-0.5-33.5-2.2c-2.9-0.5-5.2-2.7-6-5.6c-0.7-2.1,0-4.4,1.8-5.8
		c14.7-11.5,24.2-18.9,39-30c0.2-0.2,0.5-0.1,0.7,0.1c0.2,0.2,0.1,0.5-0.1,0.7c0,0,0,0,0,0c-14.8,11-24.3,18.5-39,30
		c-1.4,1.1-2,3-1.4,4.7c0.7,2.5,2.7,4.4,5.2,4.8c11.1,1.7,22.4,1.9,33.4,2.1l184.4,3.8c2.5,0.1,4.8-1,6.3-2.9
		c1.9-2.8,0.4-5.5-1.5-8.2l-24.2-34.8c-0.2-0.2-0.1-0.5,0.1-0.7c0.2-0.2,0.5-0.1,0.7,0.1c0,0,0,0,0,0l24.2,34.8
		c1.6,2.3,4,5.7,1.5,9.4C371.4,402.8,368.8,404.1,366.1,404z"></path></g><g id="imac"><path class="st2" d="M297.7,350.2l-15.2-55.1c-2.6-9.5-9.5-17.3-15.4-17.3h-17.7c-5.8,0-12.7,7.8-15.4,17.3l-15.2,55.1
		c-2.6,9.5,0,17.3,5.8,17.3h67.2C297.7,367.5,300.3,359.7,297.7,350.2z"></path><path class="st2" d="M322.2,370.4l-24.6-14.6c-4.2-2.5-15.5-4.6-24.9-4.6h-28.8c-9.4,0-20.6,2.1-24.9,4.6l-24.6,14.6
		c-4.2,2.5,0,4.6,9.4,4.6h108.8C322.2,375,326.4,372.9,322.2,370.4z"></path><g id="presentation"><path class="st2" d="M92.1,306.4c0.2-31.8-0.3-186.6-0.1-218.6c0-3.4,0.5-7.5,4.1-9c1.7-0.5,3.5-0.7,5.3-0.5l26.9,1
			c28.8,1.1,250.6-0.3,279.5,0.8c6,0.2,13.1,1,16.3,5.4c1.8,2.5,1.8,5.6,1.7,8.5c-0.5,29.4,0.1,186.7-0.4,215.9
			c0,3.2-0.2,6.6-2.5,9.1c-3.4,3.8-10,3.8-15.7,3.6c-24-0.8-241.3-3.1-265.1-2.7c-11.8,0.2-23.7,0.3-35.4,0.8
			C96.2,321.1,92.1,314.5,92.1,306.4z"></path></g><path class="st1" d="M425.7,298.1c0,4-0.1,7.9-0.1,11.7c0,3.2-0.2,6.6-2.5,9.1c-3.4,3.8-10,3.8-15.7,3.6
		c-24-0.8-241.3-3.1-265.1-2.7c-11.8,0.2-23.7,0.3-35.5,0.8c-10.5,0.4-14.6-6.2-14.6-14.4l0.1-9.3L425.7,298.1z"></path><path class="st0" d="M410.4,323.4c-1,0-2,0-3-0.1c-21.2-0.7-240.2-3.2-265.1-2.7l-9.7,0.2c-8.4,0.1-17.2,0.3-25.7,0.6
		c-4.8,0.2-8.6-1-11.2-3.6s-4.2-6.6-4.1-11.5l0.1-9.3c0-0.4,0.3-0.7,0.7-0.8c0,0,0,0,0.1,0l333.4,1.1c0.2,0,0.4,0.1,0.5,0.2
		c0.1,0.1,0.2,0.3,0.2,0.5c0,4-0.1,7.9-0.1,11.7c0,2.9-0.1,6.8-2.7,9.6C420.6,322.8,415.5,323.4,410.4,323.4z M154,319.1
		c52.3,0,232.3,2,253.4,2.8c5.6,0.2,11.9,0.1,15.1-3.4c2-2.2,2.2-5.2,2.3-8.6c0.1-3.6,0.1-7.2,0.1-10.9L93,297.8v8.6
		c0,4.5,1.2,8.1,3.7,10.4s5.8,3.4,10.1,3.2c8.6-0.4,17.3-0.5,25.8-0.6l9.7-0.2C144.6,319.1,148.6,319.1,154,319.1z"></path><g id="presentation-2"><path class="st1" d="M106.1,275.4c0.2-25.4-0.1-149.1,0.2-174.7c0-2.7,0.5-6,3.8-7.2c1.6-0.4,3.2-0.6,4.8-0.4l24.6,0.8
			c26.3,0.9,229.5-0.2,255.9,0.7c5.5,0.2,12,0.8,14.9,4.3c1.6,2,1.6,4.4,1.6,6.8c-0.5,23.5,0.2,149.1-0.2,172.5
			c0,2.5-0.2,5.3-2.3,7.3c-3.1,3-9.2,3.1-14.4,2.9c-22-0.7-221.1-2.5-243-2.1c-10.8,0.2-21.7,0.2-32.5,0.6
			C109.8,287.2,106,281.9,106.1,275.4z"></path><path class="st0" d="M397.7,289.2c-0.9,0-1.9,0-2.8,0c-19.4-0.6-220.2-2.5-242.9-2.1l-8.9,0.1c-7.7,0.1-15.8,0.2-23.6,0.5
			c-4.7,0.2-8.4-1-10.8-3.4c-2.3-2.4-3.5-5.6-3.3-8.9l0,0c0.1-12.7,0.1-50.6,0.1-87.2s0-74.7,0.1-87.5c0-2.7,0.5-6.5,4.3-7.9
			c1.7-0.5,3.4-0.6,5.1-0.5l24.6,0.8c13.1,0.4,71.4,0.4,127.8,0.3s114.8-0.1,128.1,0.3c6.3,0.2,12.5,0.9,15.5,4.6
			c1.9,2.3,1.8,5,1.8,7.3c-0.2,11.7-0.2,49.7-0.1,86.3s0.1,74.5-0.1,86.1c0,2.3-0.1,5.5-2.5,7.8C407,288.7,402.3,289.2,397.7,289.2z
			 M162.8,285.4c48.1,0,212.9,1.6,232.2,2.2c5.2,0.2,10.9,0.1,13.8-2.7c1.8-1.7,2-4.1,2-6.8c0.2-11.7,0.2-49.5,0.1-86.1
			s-0.1-74.6,0.1-86.4c0-2.5,0-4.6-1.4-6.3c-2.6-3.2-8.7-3.8-14.4-4c-13.2-0.4-71.6-0.4-128-0.3s-114.7,0.1-127.9-0.3l-24.6-0.8
			c-1.5-0.1-3.1,0-4.6,0.4c-2.8,1-3.2,3.8-3.3,6.5c-0.1,12.8-0.1,50.8-0.1,87.5s0,74.5-0.1,87.2l0,0c-0.2,2.9,0.9,5.7,2.8,7.8
			c2.2,2.1,5.4,3.1,9.7,2.9c7.9-0.3,15.9-0.4,23.6-0.5l8.9-0.1C154.1,285.5,157.8,285.4,162.8,285.4z"></path></g><circle class="st2" cx="258.9" cy="308.5" r="6.2"></circle><path class="st1" d="M287.8,358h-58.9c-0.3,0-0.5-0.2-0.5-0.5s0.2-0.5,0.5-0.5h58.9c0.3,0,0.5,0.2,0.5,0.5S288.1,358,287.8,358z"></path><path class="st1" d="M275.8,351.8h-34.5c-0.3,0-0.5-0.2-0.5-0.5s0.2-0.5,0.5-0.5h34.5c0.3,0,0.5,0.2,0.5,0.5
		S276.1,351.8,275.8,351.8z"></path></g><g id="mouse"><path class="st1" d="M405.6,359.3c-4.9-0.2-10.3,0.5-13.8,3.9c-4.2,4.2-4.3,11-3,16.8c3.2,13.9,12,25.8,24.5,32.7
		c7.2,4,15.8,6.2,23.9,4.6c18.2-3.5,24-24.3,13.2-38.4C441.3,367.2,419.5,359.8,405.6,359.3z"></path><path class="st0" d="M431.7,418.6c-6.6-0.1-13.1-1.9-18.8-5.2c-12.6-7.1-21.7-19.1-24.9-33.2c-1-4.4-1.8-12.5,3.2-17.5
		c3.1-3,7.8-4.4,14.4-4.1c14.9,0.5,36.4,8.3,45.3,19.9c5.5,7.1,7,16.6,4,25.1c-2.9,7.6-9.6,13.1-17.6,14.5
		C435.4,418.5,433.5,418.6,431.7,418.6z M404.2,360c-5.4,0-9.3,1.2-11.9,3.7c-4.5,4.5-3.7,12-2.8,16.1c3.1,13.7,11.9,25.4,24.1,32.2
		c7.8,4.3,16.1,5.9,23.4,4.5c7.5-1.3,13.8-6.4,16.5-13.6c2.9-8,1.5-17-3.8-23.7c-8.3-10.9-29.5-18.8-44.1-19.3l0,0L404.2,360z"></path><path class="st0" d="M402.4,392.4c-0.1,0-0.1,0-0.2,0c-0.3-0.1-0.4-0.4-0.3-0.6c0,0,0,0,0,0c4.6-11.1,15-18.7,26.9-19.8
		c0.3,0,0.5,0.2,0.5,0.5c0,0.3-0.2,0.5-0.5,0.5c-11.6,1.1-21.6,8.5-26,19.2C402.8,392.3,402.6,392.4,402.4,392.4z"></path><path class="st0" d="M416.9,377c-0.2,0-0.3-0.1-0.4-0.2c-5-6.2-11.9-10.6-19.6-12.5c-0.3-0.1-0.4-0.3-0.4-0.6c0,0,0,0,0,0
		c0.1-0.3,0.3-0.4,0.6-0.4c7.9,2,15,6.5,20.2,12.8c0.2,0.2,0.1,0.5-0.1,0.7c0,0,0,0,0,0C417.2,377,417.1,377,416.9,377z"></path></g><g id="paper-stack"><path class="st1" d="M35.5,266.9l52.3-3.9c3-0.2,6.2-0.4,9,0.7c4.6,1.9,7.1,6.7,10.5,10.3c8.4,9.3,22,11.2,34.5,12.4
		s26,2.7,34.9,11.5c-8.4,0.5-14,9.4-22.1,11.3s-15.9-3.3-23.9-5.8c-11.6-3.7-24-1.5-36.1-0.3c-11.8,1.3-27.9,1.8-38.3-5.3
		c-3.9-2.6-6.7-6.6-9.4-10.3C45.6,285.8,35.2,266.9,35.5,266.9z"></path><path class="st0" d="M150.9,310.4c-4.8,0-9.4-1.9-14-3.8c-2.1-0.9-4.3-1.8-6.4-2.5c-10-3.2-20.8-1.9-31.3-0.7l-4.5,0.5
		c-17.9,1.9-30.6,0.1-38.8-5.4c-3.8-2.5-6.5-6.3-9.2-9.9l-0.4-0.5c-0.7-1-3.8-6.5-6.3-11c-5.5-9.9-5.4-10-5.2-10.5
		c0.1-0.2,0.4-0.4,0.6-0.4l52.3-3.8c3-0.2,6.3-0.5,9.4,0.8c3.5,1.4,5.9,4.4,8.1,7.3c0.8,1.1,1.7,2.2,2.6,3.2
		c8.2,9,21.3,10.9,34,12.2c11.6,1.1,26.1,2.5,35.4,11.7c0.2,0.2,0.3,0.5,0.2,0.8c-0.1,0.3-0.4,0.5-0.6,0.5
		c-4.3,0.3-7.9,2.9-11.6,5.6c-3.2,2.3-6.5,4.8-10.4,5.7C153.5,310.3,152.2,310.5,150.9,310.4z M115.9,300.6c5.1-0.1,10.1,0.6,15,2.1
		c2.2,0.7,4.4,1.6,6.6,2.5c5.8,2.4,11.2,4.6,16.9,3.3c3.6-0.9,6.8-3.2,9.9-5.5c3.3-2.4,6.7-4.9,10.8-5.7c-9-7.8-22.4-9.1-33.3-10.2
		c-13-1.3-26.4-3.3-35-12.6c-0.9-1-1.8-2.2-2.7-3.3c-2.2-2.9-4.4-5.6-7.5-6.9c-2.7-1.1-5.9-0.9-8.7-0.7l-51.2,3.8
		c1.9,3.7,9.7,18,10.9,19.6l0.4,0.5c2.6,3.5,5.2,7.1,8.8,9.6c7.9,5.3,20.3,7,37.9,5.2c1.5-0.1,3-0.3,4.4-0.5
		C104.6,301.2,110.2,300.8,115.9,300.6L115.9,300.6z M35.5,266.9L35.5,266.9z"></path><path class="st0" d="M154.2,390.5c2.5-1.1,5-1.9,7.7-2.5c0.2-5.2,0.3-10.5,0.5-15.7c0.2-8,0.4-16,0.7-23.9
		c0.3-6.6,1.8-8.8,3.1-14.5c1.3-5.4,1.7-4.1-1.3-8.5c-3.5-5.1-9.8-8.9-14.1-12.5c-2.2-1.9-27.2-20.8-27.2-20.8
		c-9.4,36.3-18.4,74.1-16.6,112.7c0.4,8,1.4,16.5,5.2,22.2c5.9,8.8,16,7.9,24.1,4s16-10.2,24.5-10.1c0.3-9.8,0.6-19.6,0.9-29.4
		C159.3,391.6,156.7,391.2,154.2,390.5z"></path><path class="st1" d="M124.7,291.8c0,2.8-45.2,11.2-49.6,12.1c-8.5,1.7-17,3.3-25.5,4.6c-10.8,1.7-13.2,0-12.9,11.4
		c0.4,12.3,0.6,24.7,0.6,37.1l7.9,1.7l-7.9,2c-0.1,22.1-0.8,44.1-2.3,66.2l89.7,9.8L124.7,291.8z"></path><path class="st0" d="M124.7,437.5L124.7,437.5l-89.8-9.8c-0.4,0-0.7-0.4-0.7-0.8c1.4-21.9,2.2-44.2,2.3-66.2c0-0.3,0.2-0.6,0.6-0.7
		l4.8-1.2l-4.8-1c-0.3-0.1-0.6-0.4-0.6-0.7c0-12.6-0.2-25-0.6-37c-0.3-10,1.6-10.6,9.1-11.6c1.3-0.2,2.7-0.3,4.3-0.6
		c8.5-1.4,17.1-2.9,25.5-4.6l2.7-0.5c38.1-7.4,45.5-10.1,46.3-11c0.1-0.3,0.4-0.6,0.7-0.6c0.4,0,0.8,0.3,0.8,0.8l0,0l0.1,145
		c0,0.2-0.1,0.4-0.2,0.6C125.1,437.5,124.9,437.6,124.7,437.5z M35.8,426.3l88.2,9.6l-0.1-142.6c-3.2,1.6-13.5,4.4-46,10.7l-2.7,0.5
		c-8.5,1.7-17.1,3.3-25.6,4.6c-1.7,0.3-3.1,0.5-4.4,0.6c-7,0.9-8.1,1-7.8,10c0.4,11.8,0.6,24.1,0.6,36.5l7.3,1.6
		c0.3,0.1,0.6,0.4,0.6,0.7c0,0.3-0.2,0.7-0.6,0.7l-7.4,1.8C37.9,383,37.2,404.8,35.8,426.3z"></path><path class="st0" d="M100.5,329c13.8-3.7,28.5-1.4,40.5,6.3c-6-3.5-10.1-12-17.2-13.5S106.2,325.6,100.5,329z"></path><path class="st0" d="M126.6,416.1l-23.1-1.8c4.9,1.6,9.9,3.3,15,4.5c2,0.6,4.1,0.8,6.1,0.8c6.4-0.4,11.1-5.9,15.1-10.9
		c-3.8,2.8-8,5-12.4,6.6"></path></g><g id="interface"><path class="st1" d="M148.5,147.6c-2.8,0-5.5,0.2-8.2,0.6c-1.5,0.3-1.5,0.8-1.5,1.2c0,1.6,0.2,3.3,0.5,4.9c0.1,0.5,0.2,1.1,2.4,1.6
		c3,0.5,6,0.8,8.9,0.8c3.6,0.1,7.3,0.1,11,0.1l64.1,0.1c2.5,0,5.1,0,7.3-0.1c4.8-0.3,5.6-1.2,5.7-2l1-4.4c0.2-0.7,0.1-1.4-3.4-1.9
		c-4.1-0.4-8.1-0.6-12.2-0.5l-40-0.2l-19.6-0.1C159.4,147.7,153.5,147.6,148.5,147.6z"></path><path class="st0" d="M226.7,157.7h-1.1l-64.1-0.1c-3.6,0-7.4,0-11-0.1c-3-0.1-6.1-0.3-9.1-0.8c-2.2-0.5-2.8-1.2-3-2.2
		c-0.3-1.7-0.4-3.3-0.5-5c0-1,0.6-1.6,2.1-1.9c2.8-0.4,5.6-0.7,8.4-0.7l0,0c3.5-0.1,7.5,0,11.4,0h4.6l13,0.1l46.6,0.3
		c4.1-0.1,8.2,0.1,12.3,0.5c2.2,0.3,3.3,0.7,3.8,1.4c0.3,0.4,0.3,0.9,0.2,1.4l-1,4.4c-0.4,1.5-2.2,2.2-6.4,2.5
		C231.1,157.7,228.8,157.7,226.7,157.7z M148.6,148.4c-2.7,0-5.4,0.2-8.1,0.6c-0.8,0.2-1,0.4-1,0.4c0.1,1.6,0.2,3.2,0.5,4.8
		c0,0.3,0.1,0.6,1.8,1c2.9,0.5,5.9,0.8,8.8,0.8c3.6,0.1,7.3,0.1,10.9,0.1l64.1,0.1c2.4,0,5,0,7.3-0.1c3.1-0.2,4.9-0.7,5.1-1.4l1-4.4
		c0-0.1,0-0.1,0-0.2c0,0-0.3-0.5-2.8-0.8c-4-0.4-8.1-0.5-12.1-0.5l-46.6-0.3l-13-0.1h-4.7C155.9,148.5,152,148.4,148.6,148.4
		L148.6,148.4z"></path><path class="st1" d="M144.8,165.2c-1.7,0-3.4,0.2-5.1,0.6c-0.9,0.3-0.9,0.8-0.9,1.1c0,1.6,0.1,3.3,0.3,4.9c0.1,0.6,0.2,1.1,1.5,1.6
		c1.8,0.5,3.6,0.8,5.5,0.8c2.2,0.1,4.5,0.1,6.7,0.1l39.4,0.1c1.5,0,3,0,4.5-0.2c3-0.3,3.4-1.2,3.5-2l0.6-4.4
		c0.1-0.7,0.1-1.4-2.1-1.9c-2.5-0.4-5-0.5-7.5-0.5l-24.6-0.3l-12-0.1C151.5,165.3,147.8,165.1,144.8,165.2z"></path><path class="st0" d="M192.8,175.3h-0.7l-39.4-0.1c-2.2,0-4.6,0-6.8-0.1c-1.9-0.1-3.8-0.3-5.7-0.9c-1.6-0.6-1.9-1.4-2-2.2
		c-0.2-1.6-0.3-3.3-0.3-5c0-0.9,0.6-1.7,1.4-1.9c1.7-0.5,3.5-0.7,5.3-0.7l0,0c2.2-0.1,4.6,0,7,0h2.9l8.1,0.1l28.5,0.3
		c2.6-0.1,5.1,0.1,7.6,0.5c2,0.4,2.9,1.3,2.7,2.7l-0.6,4.4c-0.2,1.5-1.5,2.3-4.2,2.6C195.4,175.2,194.1,175.3,192.8,175.3z
		 M144.8,166c-1.6,0-3.2,0.2-4.8,0.6c-0.4,0.2-0.4,0.2-0.4,0.4c0,1.6,0.1,3.2,0.3,4.8c0,0.4,0.1,0.6,1,0.9c1.7,0.5,3.5,0.7,5.3,0.8
		c2.2,0.1,4.5,0.1,6.7,0.1l39.3,0.1c1.5,0,2.9,0,4.4-0.1c2.7-0.3,2.8-1,2.9-1.3l0.6-4.4c0-0.3,0.1-0.7-1.5-1.1
		c-2.4-0.4-4.9-0.5-7.3-0.5l-28.5-0.3l-8.1-0.1h-2.9C149.4,166,146.9,166,144.8,166L144.8,166z M144.8,165.2L144.8,165.2z"></path><path class="st0" d="M126,246c16.5,5.6,35.4,3.4,52.6,0.8c20.8-3.2,41.7-6.5,60-16.8c7.6-4.3,14.4-9.9,20-16.6
		c0.5-0.6,1.3-0.6,1.9-0.2c0.3,0.2,0.4,0.6,0.5,0.9c0,0.3,0,0.5,0.1,0.8c0.1,0.9,0.5,1.8,1.1,2.5c0.4,0.6,1.3,0.7,1.9,0.2
		c0.3-0.2,0.4-0.5,0.5-0.8c0.7-3.6,0.8-7.3,0.6-10.9c-0.1-0.7-0.7-1.3-1.4-1.2l-8.9,0.3c-0.9,0-1.8,0.1-2.6,0.5l0,0
		c-0.6,0.4-0.8,1.2-0.4,1.8c0.2,0.3,0.6,0.6,1,0.6c1,0.1,2,0.2,3,0.3c1.2,0.1,1.3,1.2,0.8,2.4c-6.4,13.8-87.7,39.6-111.4,35
		c-3.1-0.6-10.9-1-14.1-1.6C124.2,242.7,123.7,245.4,126,246z"></path><path class="st1" d="M180.8,236.7h12.3c2,0,3.7,1.7,3.7,3.7v24.1c0,2-1.7,3.7-3.7,3.7h-12.3c-2,0-3.7-1.7-3.7-3.7v-24.1
		C177.1,238.3,178.8,236.7,180.8,236.7z"></path><path class="st0" d="M193.1,268.9h-12.3c-2.5,0-4.4-2-4.4-4.4v-24.1c0-2.5,2-4.4,4.4-4.4h12.3c2.5,0,4.4,2,4.4,4.4l0,0v24.1
		C197.5,266.9,195.5,268.9,193.1,268.9L193.1,268.9z M180.8,237.4c-1.6,0-3,1.3-3,2.9v24.1c0,1.6,1.4,2.9,3,2.9h12.3
		c1.6,0,2.9-1.3,2.9-2.9l0,0v-24.1c0-1.6-1.3-2.9-2.9-2.9l0,0H180.8z"></path><path class="st1" d="M154.4,246.8h12.3c2,0,3.7,1.7,3.7,3.7v14c0,2-1.7,3.7-3.7,3.7h-12.3c-2,0-3.7-1.7-3.7-3.7v-14
		C150.7,248.5,152.3,246.8,154.4,246.8z"></path><path class="st0" d="M166.6,268.9h-12.3c-2.5,0-4.4-2-4.4-4.4l0,0v-14c0-2.5,2-4.4,4.4-4.4l0,0h12.3c2.4,0,4.4,2,4.4,4.4v14
		C171.1,266.9,169.1,268.9,166.6,268.9z M154.4,247.6c-1.6,0-2.9,1.3-2.9,2.9l0,0v14c0,1.6,1.3,2.9,2.9,2.9l0,0h12.3
		c1.6,0,2.9-1.3,2.9-2.9l0,0v-14c0-1.6-1.3-2.9-2.9-2.9l0,0H154.4z"></path><path class="st1" d="M208.9,221.4h9.9c2.7,0,4.9,2.2,4.9,4.9v36.4c0,2.7-2.2,4.9-4.9,4.9h-9.9c-2.7,0-4.9-2.2-4.9-4.9v-36.4
		C204,223.5,206.2,221.4,208.9,221.4z"></path><path class="st0" d="M218.8,268.2h-9.9c-3.1,0-5.6-2.5-5.6-5.6v-36.4c0-3.1,2.5-5.6,5.6-5.6h9.9c3.1,0,5.6,2.5,5.6,5.6v36.4
		C224.4,265.7,221.9,268.2,218.8,268.2z M208.9,222.1c-2.3,0-4.1,1.9-4.1,4.1v36.4c0,2.3,1.9,4.1,4.1,4.1h9.9c2.3,0,4.1-1.9,4.1-4.1
		v-36.4c0-2.3-1.9-4.1-4.1-4.1L208.9,222.1z"></path><path class="st1" d="M236.4,205.9h9.4c2.8,0,5.1,2.3,5.1,5.1v51.3c0,2.8-2.3,5.1-5.1,5.1h-9.4c-2.8,0-5.1-2.3-5.1-5.1V211
		C231.2,208.2,233.5,205.9,236.4,205.9z"></path><path class="st0" d="M245.8,268.2h-9.4c-3.3,0-5.9-2.6-5.9-5.9V211c0-3.3,2.6-5.9,5.9-5.9h9.4c3.3,0,5.9,2.6,5.9,5.9v51.3
		C251.7,265.6,249,268.2,245.8,268.2C245.8,268.2,245.8,268.2,245.8,268.2z M236.4,206.6c-2.4,0-4.4,2-4.4,4.4v51.3
		c0,2.4,2,4.4,4.4,4.4h9.4c2.4,0,4.4-2,4.4-4.4V211c0-2.4-2-4.4-4.4-4.4L236.4,206.6z"></path><path class="st2" d="M146.5,269.3c36.9-1.6,74-0.9,111.1-0.8c1.4,0,3.3-0.2,3.3-0.9s-1.9-1-3.4-0.9c-17.8,0-35.7,0.1-53.5,0.2
		s-36,0.3-54,0.2c-2.1,0-6.8-0.7-8.6,0c-0.9,0.4-0.9,0.9-0.4,1.5C142,269.4,144.5,269.4,146.5,269.3z"></path><path class="st2" d="M145.1,265.4c-1.6-20.3-0.9-40.7-0.8-61c0-0.8-0.2-1.8-0.9-1.8s-0.9,1.1-0.9,1.8c0,9.8,0.1,19.6,0.2,29.4
		s0.3,19.8,0.2,29.6c0,1.1-0.7,3.7,0,4.7c0.3,0.5,0.9,0.6,1.4,0.3c0,0,0,0,0,0C145.2,267.8,145.2,266.5,145.1,265.4z"></path><path class="st0" d="M343,248.9c-1.4,0-2.9-0.1-4.4-0.2c-9.5-0.7-18.8-3.2-27.4-7.5c-7.4-3.7-17.4-10.3-23.1-21.2
		c-6.9-13.2-5.6-30.8,3.2-43.8l0,0c7.6-11.1,20.4-18.9,35.1-21.2c14.3-2.3,27.2-3.5,39.8,5.3c10.1,7.3,16.9,18.3,19,30.6
		c2,12.2-0.1,24.8-5.9,35.7c-3.9,7.6-8.9,13.2-14.7,16.8S351.5,248.9,343,248.9z M343.1,155.3c-5.5,0.1-11,0.7-16.4,1.7
		c-14.2,2.3-26.6,9.7-33.8,20.4l0,0c-8.4,12.4-9.6,29.1-3,41.7c5.5,10.4,15.1,16.8,22.2,20.4c8.3,4.1,17.4,6.6,26.6,7.2
		c10,0.7,18.4-1,24.9-5c5.5-3.4,10.2-8.8,14-16c5.6-10.6,7.6-22.7,5.7-34.5c-2-11.8-8.6-22.4-18.3-29.3
		C357.9,156.9,350.8,155.3,343.1,155.3L343.1,155.3z M292.1,176.8L292.1,176.8z"></path><path class="st0" d="M328.7,239.6c-6.9,0-12.9-1.5-17.7-4.4s-8.8-7.6-12-13.7c-4.7-8.9-6.4-19.1-4.8-29.1c1.7-10,7.3-19,15.5-24.9
		c10.2-7.2,20.7-6.2,32.4-4.3c12,1.9,22.5,8.2,28.6,17.3l0,0c7.2,10.6,8.2,24.9,2.6,35.7c-4.7,8.9-12.8,14.3-18.8,17.3
		c-7,3.5-14.5,5.5-22.3,6.1C331,239.6,329.8,239.6,328.7,239.6z M328.6,163.8c-6.3-0.2-12.5,1.7-17.7,5.3
		c-7.8,5.6-13.1,14.1-14.7,23.6c-1.5,9.5,0.1,19.3,4.6,27.8c3,5.9,6.8,10.2,11.3,12.9c5.2,3.2,12,4.6,20.1,4
		c7.5-0.5,14.8-2.5,21.5-5.9c5.7-2.9,13.5-8,17.9-16.4c5.3-10.1,4.3-23.6-2.5-33.6c-5.9-8.5-15.8-14.5-27.3-16.4
		C337.4,164.3,333,163.9,328.6,163.8z"></path><path class="st0" d="M367,242.3c-0.3,0-0.5-0.1-0.7-0.3c-3.2-3.5-6.1-7.2-8.7-11.2c-0.3-0.5-0.2-1.1,0.3-1.4
		c0.5-0.3,1.1-0.2,1.4,0.3c2.5,3.9,5.3,7.5,8.5,10.9c0.4,0.4,0.3,1-0.1,1.4C367.5,242.2,367.3,242.3,367,242.3z"></path><path class="st0" d="M370.3,181.9c-0.6,0-1-0.5-1-1c0-0.3,0.2-0.7,0.5-0.8l6.9-4.4c0.5-0.3,1.1-0.2,1.4,0.3c0,0,0,0,0,0
		c0.3,0.5,0.2,1.1-0.3,1.4c0,0,0,0,0,0l-6.9,4.4C370.7,181.8,370.5,181.9,370.3,181.9z"></path><path class="st0" d="M298.8,183.4c-0.3,0-0.5-0.1-0.7-0.3c-2-1.9-4.5-3.2-7.2-3.9c-0.5-0.1-0.9-0.7-0.7-1.2
		c0.1-0.5,0.7-0.9,1.2-0.7c3,0.7,5.8,2.2,8.1,4.4c0.4,0.4,0.4,1,0,1.4C299.3,183.3,299,183.4,298.8,183.4L298.8,183.4z"></path><path class="st0" d="M344,155.4c-0.4,0-0.7-0.2-0.9-0.5c-1.8-3.3-2.9-6.9-3.1-10.6c-11.3-2.1-23-1.5-34.1,1.6
		c-0.5,0.2-1.1-0.2-1.2-0.7s0.2-1.1,0.7-1.2c11.7-3.3,23.9-3.8,35.8-1.5c0.5,0.1,0.8,0.5,0.8,1c0.1,3.7,1.1,7.3,2.9,10.5
		c0.3,0.5,0.1,1.1-0.4,1.4c0,0,0,0,0,0C344.3,155.4,344.2,155.4,344,155.4z"></path><path class="st0" d="M337.7,265.1h-34.9c-0.6,0-1-0.4-1-1s0.4-1,1-1h34.4c4.4-4.8,8.3-10.1,11.5-15.7c0.3-0.5,0.9-0.7,1.4-0.4
		s0.7,0.9,0.4,1.4c-3.4,6-7.4,11.5-12.1,16.4C338.2,265,337.9,265.1,337.7,265.1z"></path><path class="st0" d="M295.3,173.1h-32.5c-0.6,0-1-0.4-1-1s0.4-1,1-1h32.5c0.6,0,1,0.4,1,1S295.8,173.1,295.3,173.1z"></path><path class="st2" d="M259.5,167c-2.5,1.2-3.5,4.2-2.3,6.7c1.2,2.5,4.2,3.5,6.7,2.3c1.1-0.6,2-1.5,2.5-2.7c1-2.6-0.2-5.5-2.7-6.5
		c-2-0.8-4.2-0.3-5.7,1.3"></path><path class="st2" d="M303.5,139.6c2.6-1.2,5.6-0.1,6.8,2.4s0.1,5.6-2.4,6.8c-2.6,1.2-5.6,0.1-6.8-2.4c-0.9-1.9-0.5-4.2,0.9-5.7"></path><path class="st2" d="M298.5,259.6c2.6-1.2,5.7-0.1,6.9,2.5s0.1,5.7-2.5,6.9s-5.7,0.1-6.9-2.5c-0.9-1.9-0.5-4.2,0.9-5.7"></path></g><g id="arrow"><path class="st0" d="M327.5,68c-3.7,0.2-8,0.9-9.4,4.6c-0.9,2.9,0.3,6,2.9,7.4c4.7,2.8,9.9,1.1,14.6-0.5l-134,106.1
		c-3,2.1-6.5,3.2-10.1,3.3c-11.9,0-26.4-48.5-39.3-44.7c-1.2,0.4-2.3,0.8-3.4,1.4c-30.1,14.9-71.6,42.9-98.5,62.9
		c-0.9,0.7-1.7,1.5-2.3,2.4c-3.5,5.2,1.8,8.9,6.1,8.3c3.2-0.5,5.9-2.6,8.4-4.6c20.8-16.9,55.8-42.3,79.1-55.6
		c4.1-2.3,8.7-4.6,13.3-1.5c1.8,1.3,3.1,3,3.9,5.1c2,4.9,14.3,30.5,16.9,34.9c2.8,4.6,16.1,5,20.1,2.7
		c55.8-32,92.6-75.8,143.8-114.8c-2.8,2.8-3.4,7-2.4,10.8c0.7,2.6,3.3,4.2,5.9,3.5c1.5-0.4,2.7-1.4,3.3-2.8
		c3.5-8.5,8.5-20.2,6.6-25.5C350,63.2,333.7,67.5,327.5,68z"></path></g></svg>