<svg transform="scale(1)" version="1.1" id="Layer_1" xmlns="http://www.w3.org/2000/svg" xmlns:xlink="http://www.w3.org/1999/xlink" x="0px" y="0px" viewBox="0 0 500 500" xml:space="preserve" class="show_show__wrapper__graphic__5Waiy "><title>React</title><style type="text/css">
	.st0{fill:#128FFF;}
	.st1{fill:#111111;}
	.st2{fill:#FFFFFF;}
</style><g id="circle"><path class="st0" d="M127.7,142.8c-28,28.2-48.7,72.6-50.4,115.8c-2.5,66.5,46.5,127.2,98.4,154.7s112.8,24.4,167.3,4.9
		c7.8-2.8,16.8-5.6,24.6-4.6c5.4,0.7,6.3,9.5,1.2,11.6c-34.5,14.2-71.7,18.6-108.3,16.5c-42.8-2.5-86-14.2-122-41.2
		S74.3,329.5,68.7,280c-5.2-46.3,9.9-94.2,36.6-128.9s64.2-56.9,103.3-66.5s80-7.1,119.2,2.1c32.1,7.5,64.1,20,89.5,44.1
		c27.3,25.8,45.1,64.2,50.9,104.7s-0.2,82.7-15.1,119.9c-9.5,23.8-23.7,46.8-45.2,55.4c-2,0.8-4.2,0.1-5.4-1.7
		c-2.1-3.3,0.5-6.9,2.8-9.4c40.6-43.2,59.1-113,46.4-175.4c-7.2-35.6-16-72.7-42.8-91.8c-22.3-16-56.5-32.1-82.4-36.4
		c-31-5.2-67-8.9-98.4-4.7C195.3,95.9,152.8,117.5,127.7,142.8z"></path><path class="st1" d="M376.6,410.7c-1.4,3.6,1,8,4.2,9.4s6.8,0.6,10.1-0.3c5.9-1.7,10.3-11,2.4-13.4
		C389,405.1,378.7,405.4,376.6,410.7z"></path></g><g id="sun"><path class="st1" d="M433.1,89.3c5.6,4.6,13,6.6,20.2,7.5c-14.7,12-17,33.7-4.9,48.5c0.8,0.9,1.6,1.8,2.4,2.7
		c-8.4-1.7-17.3,1.3-23.8,6.9s-10.8,13.3-13.5,21.4c-11.4-13-33-15.2-46.8-4.8c0-15.9-12.8-30.9-28.5-33.3
		c8.5-2.4,13.4-11.6,14.7-20.4c1.6-10.6-0.4-21.3-5.5-30.7c9.1,3.3,19.6,0.4,27.1-5.8s12.2-15.1,15.2-24.2
		c3.9,6.5,8.2,13.2,14.9,16.8c2.9,1.5,6.1,2.2,9.3,2.1c2.6-0.1,15.6-4.8,17.4-4.6C434,71.7,428.9,85.8,433.1,89.3z"></path><path class="st2" d="M381.5,96.3c-6.8,4.5-11.8,11.3-13.9,19.2c-2.1,7.1-1.7,14.6,1,21.4c2.8,6.8,8.4,12.1,15.4,14.6
		c7.8,2.5,16.3,0.8,24.2-1.6c4-1.2,8-2.6,11.3-5.1c7.1-5.3,10.1-14.8,9.5-23.6C427.6,98.7,401,84,381.5,96.3z"></path><path class="st1" d="M392.4,153.4c-2.9,0-5.8-0.4-8.5-1.3c-7.2-2.5-13-8-15.9-15c-2.8-7-3.2-14.7-1.1-21.9
		c2.2-8.1,7.3-15,14.2-19.6l0.4,0.6l-0.4-0.6c9.1-5.7,20.6-6.1,30.7-0.9c10.4,5.3,17.3,15.4,18,26.4c0.6,10-3.1,19.2-9.8,24.2
		c-3.6,2.6-7.8,4.1-11.5,5.2C403.5,152.1,397.9,153.4,392.4,153.4z M397,92.6c-5.3,0-10.6,1.5-15.1,4.3
		c-6.7,4.4-11.5,11.1-13.6,18.8c-2,6.9-1.7,14.3,1,20.9c2.8,6.6,8.2,11.8,15,14.1c7.8,2.5,16.4,0.6,23.7-1.6c3.6-1.1,7.7-2.5,11.1-5
		c6.3-4.7,9.8-13.5,9.2-22.9c-0.7-10.4-7.3-20.1-17.2-25.1C406.8,93.8,401.9,92.6,397,92.6z"></path></g><g id="clouds"><g id="cloud_2"><path class="st2" d="M343.1,459.5H210.1c0.5-5,4.9-9.3,9.9-9.2c3,0,5.8,1.4,8.9,0.8c1-0.2,1.9-0.6,2.7-1.3c2.8-2.6,1-6.6,1-10.2
			c0-6,6.7-11,12.5-9.2c-4.2-7.2-0.4-17.3,7-21.2c7.3-3.9,16.8-2.2,23.4,2.9c6.3-4.4,15-2.8,19.4,3.5c3.1,4.4,3.3,10.2,0.6,14.9
			c5.4,0.6,9.4,5.5,8.8,10.9c0,0,0,0,0,0c-0.4,2.7,1.6,5.3,4.3,5.6c0.8,0.1,1.7,0,2.5-0.3h0.1c2.8-1.2,5.1-3.3,8-4
			c2-0.5,4.1,0.1,5.6,1.4c0.6,0.6,0.6,1.5,0,2.1c-0.5,0.5-1.3,0.6-1.9,0.2c-0.1-0.1-0.2-0.2-0.3-0.2c3.5,0.8,6.6,2.9,8.6,6
			c1.6-3.3,4-7.1,7.9-6.5c0.6,0.1,1.2,0.3,1.8,0.6c3.1,1.8,5.3,4.5,7.5,7.2c1.1,1.3,0.9,3.2-0.4,4.2c-0.6,0.5-1.3,0.7-2,0.7l0,0
			c-0.2,0.2-0.4,0.4-0.5,0.5c0,0-0.1,0.1-0.3,0.2C344.5,459.4,343.8,459.5,343.1,459.5z"></path><path class="st1" d="M343.1,460.2H210.1c-0.4,0-0.7-0.3-0.7-0.8c0,0,0,0,0-0.1c0.5-5.6,5.1-9.8,10.7-9.9c1.3,0,2.5,0.2,3.7,0.5
			c1.6,0.4,3.3,0.5,5,0.4c0.9-0.1,1.7-0.5,2.3-1.1c1.7-1.6,1.4-3.9,1.1-6.4c-0.2-1.1-0.3-2.1-0.3-3.2c0.1-3.2,1.8-6.2,4.4-8.1
			c2.1-1.6,4.8-2.4,7.5-2.2c-1.3-3.2-1.5-6.8-0.5-10.1c1.3-4.6,4.3-8.4,8.4-10.7c7.1-3.8,16.6-2.7,23.8,2.6
			c6.8-4.3,15.9-2.3,20.2,4.5c2.7,4.3,3,9.6,0.8,14.2c5.4,1.1,9,6.1,8.4,11.6c-0.2,1.6,0.5,3.1,1.8,4.1c1.1,0.9,2.7,1.1,4,0.5
			c1.1-0.5,2.1-1.1,3.1-1.7c1.6-1.1,3.3-1.9,5.1-2.4c2.2-0.5,4.6,0.1,6.3,1.6c0.8,0.7,0.9,1.9,0.3,2.8c2.2,1,4.1,2.5,5.5,4.4
			c1.7-3.2,4.2-6.4,8.1-5.9c0.7,0.1,1.4,0.3,2.1,0.7c3.3,1.9,5.7,4.8,7.7,7.4c1.3,1.6,1,4-0.6,5.3c-0.6,0.5-1.3,0.8-2,0.8v0
			l-0.2,0.2c-0.1,0.2-0.3,0.3-0.5,0.4C344.8,460.1,344,460.3,343.1,460.2z M210.9,458.8h132.2c0.6,0,1.2-0.1,1.7-0.4l0,0l0.1-0.1
			l0.2-0.2c0.1-0.1,0.2-0.2,0.3-0.3c0.1-0.1,0.3-0.2,0.5-0.2c1.3,0,2.3-1,2.3-2.3c0-0.5-0.2-1-0.5-1.4c-2-2.5-4.3-5.3-7.3-7.1
			c-0.5-0.3-1-0.5-1.5-0.5c-3.4-0.4-5.6,3-7.1,6.1c-0.1,0.2-0.4,0.4-0.6,0.4c-0.3,0-0.5-0.1-0.7-0.4c-1.5-2.4-3.8-4.2-6.5-5.1
			c-0.6,0.1-1.2,0-1.6-0.4c-0.1-0.1-0.3-0.2-0.4-0.3c-0.2-0.2-0.3-0.6-0.1-0.9c0.2-0.3,0.5-0.4,0.8-0.4c0.4,0.1,0.9,0.2,1.3,0.4
			c0.1,0,0.1-0.1,0.2-0.1c0.3-0.3,0.3-0.7,0-1c-1.3-1.2-3.2-1.6-4.9-1.2c-1.7,0.5-3.3,1.3-4.7,2.2c-1,0.7-2.1,1.2-3.2,1.8
			c-1.8,0.8-3.9,0.6-5.5-0.6c-1.7-1.3-2.6-3.3-2.4-5.4c0.6-5-3.1-9.6-8.1-10.1c0,0,0,0,0,0c-0.3,0-0.5-0.2-0.6-0.4
			c-0.1-0.2-0.1-0.5,0-0.7c3.6-6.3,1.4-14.3-4.9-18c-4.4-2.5-9.8-2.3-14,0.6c-0.3,0.2-0.6,0.2-0.9,0c-6.8-5.3-15.9-6.4-22.6-2.8
			c-3.8,2.1-6.5,5.6-7.7,9.8c-1.1,3.5-0.7,7.2,1,10.4c0.2,0.3,0.1,0.6-0.1,0.8c-0.2,0.2-0.5,0.3-0.8,0.3c-5.1-1.2-10.1,2-11.3,7.1
			c-0.1,0.5-0.2,1-0.2,1.4c0,1,0.1,2,0.3,3c0.4,2.8,0.7,5.6-1.5,7.7c-0.9,0.8-1.9,1.3-3.1,1.5c-1.8,0.2-3.7,0.1-5.5-0.4
			c-1.1-0.3-2.2-0.4-3.4-0.5C215.7,450.9,211.8,454.4,210.9,458.8L210.9,458.8z"></path></g><g id="cloud_3"><path class="st2" d="M146.7,334.8h71.3l-0.2-3.1c-1.1-1.3-3-1.6-4.7-2s-3.6-1.1-4.1-2.8c-0.3-0.9-0.1-2-0.3-2.9
			c-0.4-1.1-1.3-2-2.5-2.3c-1.1-0.3-2.3-0.4-3.5-0.3c0.5-1.5-1-3.1-2.6-3.3c-1.6,0-3.2,0.5-4.5,1.5c0.2-2.5-1.3-4.8-3.7-5.5
			c-1-0.2-2-0.4-3-0.7c-1.2-0.6-1.9-1.8-3-2.6c-2.2-1.7-5.4-1.5-7.4,0.4c-0.2-1.2-1.3-2-2.5-2.1c-1.2,0-2.3,0.3-3.4,0.9
			c-1.8,0.7-3.4,1.9-4.6,3.3c-1.3,1.5-1.7,3.5-1.2,5.4c-2.2,0.7-3.3,3.1-2.6,5.3c0,0.1,0.1,0.2,0.1,0.4c0.6,1.2,1.9,2.6,1.1,3.7
			c-0.9,1.3-3.2,0-4.6,0.8c-0.7,0.4-1.1,1.2-1.9,1.4s-1.6-0.7-2.5-0.8c-1.2,0-1.9,1.5-2.9,2.2s-2.4,0.6-3.6,0.7
			S146.9,333.6,146.7,334.8z"></path><path class="st1" d="M218.1,335.5h-71.3c-0.2,0-0.4-0.1-0.6-0.3c-0.1-0.2-0.2-0.4-0.2-0.6c0.3-1.7,2.7-3.1,4.1-3.2l0.8,0
			c0.8,0,1.7-0.1,2.4-0.5c0.3-0.2,0.6-0.5,0.9-0.8c0.6-0.8,1.5-1.4,2.5-1.5c0.5,0,1,0.2,1.5,0.5c0.3,0.2,0.6,0.3,0.9,0.3
			c0.3-0.1,0.5-0.3,0.7-0.5c0.3-0.3,0.6-0.5,0.9-0.7c0.8-0.4,1.7-0.5,2.6-0.3c1,0.1,1.5,0.1,1.7-0.3s-0.1-1.1-0.6-2
			c-0.2-0.3-0.4-0.6-0.5-0.9c-0.6-1.3-0.6-2.7-0.1-4c0.4-1.1,1.2-1.9,2.2-2.4c-0.3-1.9,0.2-3.9,1.5-5.4c1.3-1.5,3-2.7,4.9-3.5
			c1.1-0.6,2.4-1,3.7-0.9c1.1,0.1,2.1,0.7,2.7,1.6c2.3-1.5,5.3-1.4,7.5,0.3c0.4,0.3,0.8,0.7,1.1,1.1c0.5,0.6,1,1,1.6,1.4
			c0.5,0.2,1,0.3,1.6,0.4c0.4,0.1,0.9,0.1,1.3,0.3c2.2,0.7,3.9,2.6,4.2,5c1.2-0.7,2.5-1,3.9-0.9c1.2,0.1,2.2,0.8,2.9,1.8
			c0.3,0.4,0.5,0.9,0.5,1.5c1-0.1,2,0.1,2.9,0.4c1.4,0.4,2.5,1.5,2.9,2.8c0.1,0.5,0.2,1.1,0.2,1.6c0,0.4,0,0.9,0.1,1.3
			c0.4,1.3,2.1,2,3.5,2.3l0.5,0.1c1.6,0.3,3.4,0.7,4.6,2.1c0.1,0.1,0.2,0.3,0.2,0.5l0.2,3.1c0,0.2-0.1,0.4-0.2,0.6
			C218.5,335.5,218.3,335.5,218.1,335.5z M148.1,334h69.2l-0.1-2c-1-0.8-2.3-1.3-3.6-1.4l-0.5-0.1c-2.6-0.6-4.1-1.7-4.6-3.3
			c-0.2-0.6-0.2-1.1-0.2-1.7c0-0.4,0-0.8-0.1-1.2c-0.3-0.9-1.1-1.6-2-1.8c-1-0.3-2.1-0.4-3.2-0.2c-0.2,0-0.5-0.1-0.6-0.3
			c-0.2-0.2-0.2-0.5-0.1-0.7c0.1-0.4,0-0.9-0.2-1.2c-0.4-0.6-1.1-1-1.8-1.1c-1.4,0-2.8,0.5-4,1.4c-0.2,0.2-0.6,0.2-0.8,0
			c-0.2-0.2-0.4-0.4-0.3-0.7c0.2-2.1-1.1-4.1-3.1-4.7c-0.4-0.1-0.7-0.2-1.1-0.2c-0.7-0.1-1.4-0.3-2-0.5c-0.8-0.4-1.5-1-2.1-1.7
			c-0.3-0.4-0.6-0.7-1-1c-1.9-1.5-4.6-1.3-6.4,0.4c-0.3,0.3-0.7,0.3-1,0c-0.1-0.1-0.2-0.3-0.2-0.5c-0.2-0.8-0.9-1.4-1.8-1.4
			c-1.1,0-2.1,0.3-3,0.8c-1.7,0.7-3.2,1.8-4.4,3.1c-1.1,1.3-1.5,3-1,4.6c0.1,0.4,0,0.8-0.4,1c0,0,0,0-0.1,0
			c-1.8,0.6-2.7,2.5-2.1,4.3c0,0.1,0.1,0.2,0.1,0.3c0.1,0.2,0.3,0.5,0.5,0.8c0.7,1.1,1.5,2.4,0.6,3.7c-0.8,1.1-2.1,1-3.1,0.9
			c-0.6-0.1-1.2-0.1-1.8,0.1c-0.2,0.1-0.4,0.3-0.6,0.5c-0.4,0.5-0.9,0.8-1.5,1c-0.6,0.1-1.3-0.1-1.8-0.4c-0.3-0.2-0.5-0.3-0.8-0.3
			c-0.4,0-0.8,0.4-1.4,1c-0.3,0.4-0.7,0.7-1.1,1c-1,0.6-2.1,0.8-3.2,0.8c-0.3,0-0.5,0-0.8,0C149.4,333.1,148.7,333.5,148.1,334
			L148.1,334z"></path></g><g id="cloud_1"><path class="st2" d="M12.8,154.6h307.3c3.3-5.2-1.5-12.7-7-15.6s-11.9-3.4-17.5-5.9s-10.3-7-15.8-10s-12.7-4.3-17.6-0.5
			c8.9-5.6,11.6-17.4,6-26.3c-4-6.4-11.3-9.8-18.8-8.8c3.4-11.1-2.8-22.8-13.8-26.2c-2.8-0.9-5.7-1.1-8.6-0.8
			c1-9.8-8.8-17.7-18.5-19.5c-19.8-3.7-38.8,9.4-42.5,29.2c-0.7,3.6-0.8,7.2-0.4,10.8c-10.5-0.1-20.3,8.9-21.1,19.4
			c-0.3,3.9,0.4,8.3-1.9,11.4c-3,4.1-9.5,3.7-13.9,1.1s-7.6-6.8-11.8-9.6s-10.4-4.1-14.1-0.6c-7.8-10.2-23.1-13.9-34.7-8.4
			s-18.4,19.7-15.5,32.2c-6.2,2.6-10.8,8-12.2,14.6l-6.7,2.7c-7.6-4.8-15.3-5.8-17.7,2.9C16.8,145.3,12.2,156,12.8,154.6"></path><path class="st1" d="M12.8,155.5c-0.1,0-0.2,0-0.3-0.1c-0.4-0.2-0.5-0.2-0.3-1h-0.1v-0.1c0-0.1,0.1-0.1,0.1-0.2
			c0.2-0.7,0.7-1.8,1.5-3.7c0.6-1.5,1.4-3.3,1.6-3.8l0,0c0.9-3.4,2.7-5.6,5.2-6.5c4.3-1.7,9.6,0.7,13.4,3l6-2.4
			c1.5-6.4,5.9-11.8,12-14.5c-2.7-12.7,4.2-26.9,16-32.5s27-2,35.2,8c4.1-3.2,10.3-1.7,14.4,1.1c1.9,1.4,3.7,2.9,5.4,4.5
			c1.9,1.9,4.1,3.6,6.3,5.1c4.2,2.5,10.1,2.8,12.9-0.9c1.6-2.2,1.6-5,1.7-8c0-1,0-2,0.1-3c0.8-10.6,10.5-19.7,21-20
			C163,60.1,178,41.9,198.5,40c3.4-0.3,6.9-0.2,10.3,0.5c9.7,1.8,19.6,9.7,19.2,19.4c11.9-0.9,22.4,8,23.3,20c0.2,2.4,0,4.7-0.6,7
			c10.9-0.9,20.4,7.2,21.3,18.1c0.4,5.5-1.4,10.9-5.2,15c4.6-0.9,9.6,0.5,13.5,2.7c2.4,1.4,4.6,2.9,6.8,4.5c2.8,2.1,5.8,3.9,8.9,5.5
			c2.6,1,5.2,1.9,7.9,2.5c3.4,0.7,6.6,1.9,9.7,3.4c3.9,2.1,6.8,5.6,8.1,9.9c0.7,2.3,0.4,4.8-0.8,6.8c-0.1,0.2-0.4,0.4-0.6,0.4h-307
			C13,155.6,12.9,155.5,12.8,155.5z M14,153.9h305.7c0.8-1.6,1-3.5,0.4-5.3c-1.2-3.8-3.8-7-7.4-8.9c-3-1.4-6.1-2.5-9.4-3.2
			c-2.8-0.7-5.5-1.5-8.1-2.6c-3.2-1.6-6.3-3.4-9.1-5.6c-2.1-1.6-4.4-3-6.7-4.4c-4.6-2.5-11-4.1-15.7-1.3c-0.4,0.3-0.8,0.5-1.1,0.8
			c-0.4,0.2-0.8,0.1-1-0.3c-0.2-0.3-0.1-0.7,0.2-0.9c0.4-0.3,0.8-0.6,1.2-0.8c8.2-6,9.9-17.5,3.9-25.6c-4-5.4-10.6-8.2-17.3-7.3
			c-0.4,0.1-0.8-0.2-0.9-0.7c0-0.1,0-0.2,0-0.3c3.3-10.7-2.7-22-13.3-25.2c-2.7-0.8-5.5-1.1-8.3-0.8c-0.2,0-0.5,0-0.6-0.2
			c-0.2-0.2-0.2-0.4-0.2-0.6c1-9.3-8.5-17-17.9-18.7c-19.4-3.6-38,9.2-41.6,28.5c-0.7,3.5-0.8,7.1-0.4,10.7c0,0.2,0,0.4-0.2,0.6
			c-0.1,0.2-0.4,0.3-0.6,0.2h-0.2c-10,0-19.4,8.7-20.1,18.7c-0.1,1-0.1,2-0.1,2.9c0,3.1-0.1,6.3-2,8.9c-3.2,4.4-10.1,4.1-14.9,1.3
			c-2.4-1.5-4.6-3.3-6.6-5.3c-1.6-1.6-3.4-3.1-5.3-4.4c-4-2.7-9.8-3.8-13.2-0.7c-0.2,0.1-0.4,0.2-0.6,0.2c-0.2,0-0.4-0.1-0.5-0.3
			c-7.6-10-22.5-13.6-33.8-8.2s-17.9,19.2-15,31.4c0.1,0.4-0.1,0.7-0.5,0.9c-6,2.5-10.3,7.7-11.8,14c-0.1,0.2-0.2,0.5-0.5,0.5
			l-6.7,2.7c-0.2,0.1-0.5,0.1-0.7-0.1c-5-3.1-9.4-4.2-12.4-3.1c-2,0.8-3.5,2.6-4.2,5.5l0,0v0.1l-0.1,0.2c-0.2,0.7-0.7,1.8-1.5,3.7
			L14,153.9z"></path></g></g><g id="moon"><path class="st1" d="M88.7,353.6c0.3,4.4,1.4,8.6,3.1,12.6c1.7,3.6,3.8,6.9,6.4,9.8c8.4,9.7,20.3,16.6,33,17.9s26.2-3.4,34.6-13.1
		c-19.5-4-33.4-21.8-40.6-40.3c-4.6-11.7-6.8-26,0.8-36.1C102,303.3,86.9,332.6,88.7,353.6z"></path></g><g id="laptop"><path class="st1" d="M52.8,123.6c-1.6,5.1-0.9,10.5-0.2,15.8l9.4,72.8c0.9,6.8,2.2,14.4,7.8,18.5c4.3,3.1,10,3.2,15.3,3.2
		c37.5-0.3,75-3,112.4-5.7c4-0.3,8.2-0.7,11.4-3.2c5.7-4.5,4.9-13.2,3.6-20.3l-11.5-61.8c-1.2-6.3-2.6-13-7.1-17.4
		c-5.5-5.4-14-6.1-21.8-6.4c-34.4-1.5-69.6-0.9-103.9-4.5C61.1,113.7,55.2,116.1,52.8,123.6z"></path><path class="st2" d="M68.2,144.9l7.8,61.7c0.7,5.6,1.7,11.7,6.1,15.2c4,3.2,9.6,3.1,14.7,2.9l83.7-3.2c7.4-0.3,15.8-1,20.6-6.6
		c5.4-6.4,3.9-15.9,2-24.1c-3.4-15.3-6.9-30.5-10.4-45.8c-1.4-6.1-3.1-12.7-8.2-16.3c-4.1-2.9-9.5-3-14.5-3.1l-54.1-0.6
		c-8.3-0.1-17.1,0.7-25.3-0.7c-4.8-0.8-8.9-2.8-13.8-1C67.2,126.8,67.1,136.2,68.2,144.9z"></path><path class="st1" d="M74.6,244.4c0.7,5.9,5.5,10.6,10.9,13.4c5.3,2.7,11.3,3.9,17,5.7c16.4,5.4,30.4,16.8,47.1,21.2
		c13.1,3.5,27,2.3,40.5,0.6c19.7-2.5,39.3-6.1,58.8-9.7l38.1-7.1c4-0.7,8.6-1.9,10.2-5.6c1.4-3.1,0-7-2.5-9.4s-5.8-3.6-9.1-4.8
		l-29.5-10.9c-12.4-4.6-25-9.2-38.2-11c-17.2-2.3-34.6,0.4-51.9,2.1c-14.4,1.4-28.8,2-43.2,2.2c-7.2,0.1-14.4,0.2-21.6,0.2
		c-5.6,0-12.2-1-17.6,0.6S73.9,238.4,74.6,244.4z"></path><path class="st0" d="M203,260.5c-2.1,0.5-4.4,1.4-5.1,3.5c-0.4,1.6,0.2,3.2,1.5,4.3c1.3,1,2.7,1.6,4.3,1.9
		c10.7,2.6,22-0.2,32.7-2.9c3.8-1,6.7-4,2.9-7.2c-2.5-2-7.2-3.1-10.4-3.5C220.6,255.4,210.9,258.4,203,260.5z"></path><path class="st2" d="M145.9,264c-2.3,0-4.7-0.2-7-0.6c-5.8-1-11.1-3.4-16.3-5.8L97,246.2c-4.2-1.9-8.5-4.1-10.3-8.2
		c-0.1-0.2-0.1-0.4,0-0.5c0.1-0.2,0.3-0.3,0.5-0.3c24.7-1.9,49.8-3.4,74.2-4.7l0.1,0.6v-0.6l21.4-1.2c3.1-0.2,6.2-0.5,9.5-0.8
		c8.6-0.9,17.5-1.8,25.5-0.1c12.1,2.5,23.8,6.4,35,11.5c1.1,0.4,2,1.1,2.6,2.1c0.9,1.7-0.1,3.8-1.7,4.8c-1.5,0.8-3.1,1.2-4.8,1.1
		c-27.6,1.8-54.9,5.6-82,11.2l-1.3,0.3C159.2,262.6,152.6,264,145.9,264z M88.2,238.3c1.8,3.2,5.4,5.1,9.3,6.8l25.5,11.4
		c5.1,2.3,10.5,4.7,16.1,5.7c8.7,1.5,17.7-0.3,26.5-2.2l1.2-0.3c27.1-5.7,54.5-9.4,82.1-11.2c1.5,0,2.9-0.3,4.2-1
		c1.1-0.7,1.8-2.1,1.2-3.2c-0.5-0.7-1.3-1.3-2.1-1.5c-11.1-5.1-22.8-8.9-34.8-11.4c-7.8-1.7-16.6-0.8-25.1,0.1
		c-3.3,0.3-6.5,0.7-9.5,0.8l-21.4,1.2l0,0C137.4,235,112.6,236.4,88.2,238.3L88.2,238.3z"></path><path class="st2" d="M172.7,280.3c-13.9,0-26.1-2.5-36.3-7.3c-0.3-0.1-0.4-0.5-0.3-0.8c0,0,0,0,0,0c0.1-0.3,0.5-0.4,0.8-0.3
		c10.5,5,23.1,7.4,37.6,7.2c12.9-0.2,25.9-2.4,38.4-4.5l74.2-12.6c0.3-0.1,0.6,0.1,0.7,0.5c0,0,0,0,0,0c0.1,0.3-0.2,0.6-0.5,0.7
		l-74.2,12.6c-12.6,2.1-25.6,4.4-38.6,4.5L172.7,280.3z"></path><path class="st0" d="M106.8,139.9c-0.7,0.1-1.5,0.3-1.8,0.9c-0.2,0.5,0,1,0.3,1.4c0.7,0.6,1.5,0.9,2.3,1l-9.5,10
		c-0.9-1.5-2-2.8-3.4-3.9c-4.4,3.7-8.9,7.4-12.6,11.8c-0.9,1.1,0.7,2.5,1.7,1.5l0,0l10.8-10.5l4,5c4.1-3.9,7.8-8.2,11-12.8
		c0.2,1,0.7,2,1.6,2.6c0.4,0.3,0.9,0.3,1.3,0.2c1-0.3,1.2-1.3,1.2-2.1c0-1.4,0.1-4.2-1.3-5.2S108.3,139.7,106.8,139.9z"></path><path class="st1" d="M101.3,148.7c-0.9,7.8-1.3,15.7-1.3,23.5h8.4c0.4-5.9,0.9-11.7,1.3-17.6c0.1-1.5,0.6-3.7-0.7-4.8
		C107.4,148.5,103.3,148.9,101.3,148.7z"></path><path class="st1" d="M85.5,153.8c0.3,6.1,0.6,12.2,0.9,18.3h8.2c-0.2-4.5-0.4-9.1-0.5-13.6c-0.1-2.3,0.5-3.6-1.7-4.3
		C90.4,153.6,87.6,153.9,85.5,153.8z"></path><path class="st0" d="M121.7,172.8L121.7,172.8L80,172.1c-0.3,0-0.5-0.2-0.5-0.5s0.2-0.5,0.5-0.5l0,0l41.6,0.6
		c0.3,0,0.5,0.2,0.5,0.5S121.9,172.8,121.7,172.8L121.7,172.8z"></path><path class="st0" d="M119,175.6c-0.3,0-0.5-0.2-0.5-0.5c0,0,0,0,0,0l-0.8-36.9c0-0.3,0.2-0.5,0.5-0.5s0.5,0.2,0.5,0.5l0.8,36.9
		C119.5,175.4,119.3,175.6,119,175.6C119,175.6,119,175.6,119,175.6L119,175.6z"></path><path class="st0" d="M155.3,138.5c-8.2,0.1-16.7,0.3-23.9,4.2c-1.1,0.6-2.1,2.3-1,2.9c0.2,0.1,0.5,0.1,0.8,0.1l44.5,0.3
		c1.4,0.1,2.7-0.1,4-0.5c1.3-0.5,2.2-1.8,2.2-3.2C181.2,135.6,159.1,138.5,155.3,138.5z"></path><path class="st0" d="M134.7,154c-0.3,0-0.5-0.2-0.5-0.5s0.2-0.5,0.5-0.5c16.2-0.8,32.7-1.1,48.9-1c0.3,0,0.5,0.2,0.5,0.5
		c0,0,0,0,0,0c0,0.3-0.2,0.5-0.5,0.5l0,0C167.3,152.8,150.9,153.1,134.7,154L134.7,154z"></path><path class="st0" d="M133.6,160.9c-0.3,0-0.5-0.2-0.5-0.5s0.2-0.5,0.5-0.5l49.2-0.2l0,0c0.3,0,0.5,0.2,0.5,0.5
		c0,0.3-0.2,0.5-0.5,0.5L133.6,160.9z"></path><path class="st0" d="M132.6,167.9c-0.3,0-0.5-0.2-0.5-0.5s0.2-0.5,0.5-0.5c16.9-1.2,34-1.9,51-2l0,0c0.3,0,0.5,0.2,0.5,0.5
		c0,0,0,0,0,0c0,0.3-0.2,0.5-0.5,0.5c-16.9,0.1-34,0.8-50.9,2H132.6z"></path><path class="st0" d="M88.2,183.7c-0.3,0-0.5-0.2-0.5-0.5s0.2-0.5,0.5-0.5c18-1.5,36.1-1.8,54.1-0.9c0.3,0,0.5,0.2,0.5,0.5
		s-0.2,0.5-0.5,0.5c-18-1-36-0.7-53.9,0.9H88.2z"></path><path class="st0" d="M93,191.9c-0.3,0-0.5-0.2-0.5-0.5s0.2-0.5,0.5-0.5c14.6-1.9,29.4-2.7,44.1-2.5c3.4-0.1,6.7,0.3,10,1.3
		c0.3,0.1,0.4,0.4,0.3,0.7c-0.1,0.3-0.4,0.4-0.7,0.3c-3-1.1-6.1-1.2-9.6-1.2c-14.7-0.2-29.4,0.7-44,2.5L93,191.9z"></path><path class="st0" d="M147.4,200.1L147.4,200.1c-16.9-1.7-33.9-1.7-50.9-0.1c-0.3,0-0.5-0.2-0.6-0.4c0-0.3,0.2-0.5,0.4-0.6
		c17-1.6,34-1.6,51,0.1c0.3,0,0.5,0.3,0.4,0.6C147.9,199.9,147.7,200.1,147.4,200.1z"></path><path class="st0" d="M92.4,209.3c-0.3,0-0.5-0.2-0.5-0.5c0-0.3,0.2-0.5,0.5-0.5c18.5-1.7,37.2-2.2,55.8-1.5c0.3,0,0.5,0.2,0.5,0.5
		c0,0.3-0.2,0.5-0.5,0.5c0,0,0,0,0,0C129.5,207,110.9,207.5,92.4,209.3L92.4,209.3z"></path><path class="st0" d="M160.5,206.9h-6.9c-0.3,0-0.5-0.2-0.5-0.5s0.2-0.5,0.5-0.5h6.9c0.3,0,0.5,0.2,0.5,0.5S160.8,206.9,160.5,206.9
		z"></path></g><g id="laptop-2"><path class="st1" d="M486.4,221.5c1.5,5.4,0.6,11.1-0.4,16.6l-12.7,76.1c-1.2,7.1-2.9,15.1-8.9,19.1c-4.6,3.1-10.6,3-16.2,2.8
		c-39.4-1.7-78.7-6-117.9-10.3c-4.2-0.5-8.7-1-11.9-3.8c-5.8-5-4.6-14.1-3-21.5c4.8-21.5,9.6-43,14.5-64.5
		c1.5-6.6,3.2-13.5,8.1-18.1c6-5.5,15-5.9,23.1-5.9c36.2-0.2,73.2,1.8,109.4-0.8C478.1,210.8,484.2,213.5,486.4,221.5z"></path><path class="st2" d="M469.5,243.2l-10.6,64.6c-1,5.8-2.3,12.3-7,15.8c-4.4,3.2-10.2,2.9-15.6,2.5l-87.9-6.6
		c-7.8-0.6-16.5-1.7-21.4-7.8c-5.5-6.9-3.5-16.9-1.2-25.4c4.2-15.9,8.5-31.8,12.7-47.8c1.7-6.3,3.8-13.2,9.3-16.8
		c4.4-2.9,10.1-2.8,15.4-2.7l56.9,1.4c8.7,0.2,17.9,1.4,26.6,0.2c5.1-0.7,9.5-2.6,14.5-0.5C471.2,224.2,471,234.1,469.5,243.2z"></path><path class="st1" d="M441.4,327.1c-1.7,0-3.4-0.1-5.2-0.2l-87.9-6.6c-8.4-0.6-16.9-1.8-21.9-8.1c-5.5-6.9-3.9-16.6-1.4-26.1
		l12.7-47.8c1.8-6.7,4-13.6,9.6-17.2c4.8-3.1,10.9-2.9,15.8-2.8l57,1.4c2.5,0.1,5.1,0.2,7.6,0.3c6.3,0.3,12.8,0.7,18.9-0.1
		c1.3-0.2,2.5-0.4,3.8-0.7c3.7-0.7,7.2-1.4,11.1,0.2c10.4,4.3,10.3,14.5,8.7,23.9L459.7,308c-1,6.3-2.4,12.7-7.3,16.3
		C449.2,326.5,445.5,327.1,441.4,327.1z M360.1,219.7c-4,0-8.4,0.4-11.9,2.6c-5.2,3.3-7.2,9.6-8.9,16.3l-12.7,47.8
		c-2.4,9.1-4,18.4,1.1,24.7c4.6,5.8,12.8,6.9,20.9,7.5l87.9,6.6c5.7,0.4,11.1,0.6,15.1-2.4c4.4-3.2,5.8-9.3,6.7-15.3l10.5-64.6l0,0
		c2.6-15.8-2.5-20.1-7.8-22.3c-3.5-1.4-6.8-0.8-10.3-0.1c-1.2,0.2-2.5,0.5-3.9,0.7c-6.2,0.8-12.8,0.4-19.2,0.1
		c-2.5-0.1-5.1-0.3-7.5-0.3l-57-1.4C362.1,219.8,361.1,219.7,360.1,219.7z"></path><path class="st1" d="M454.3,270l-20.5-1.4c-0.8,0-1.6-0.2-2.3-0.7c-1-1-0.5-2.9,0.8-3.6c1.3-0.6,2.8-0.9,4.2-0.6
		c3.7,0.2,7.5,0.6,11.2,0.6c2.3,0,4.7-0.8,7-0.8c2,0.1,3.5,0.9,4,2.9C459.7,269.6,456.9,270,454.3,270z"></path><path class="st1" d="M457.6,280.6c-0.9,1.6-3.1,1.6-5,1.5l-18.2-1.4c-1.4,0-2.8-0.3-4-1c-1.1-0.8-1.8-2.5-0.9-3.6
		c0.7-0.7,1.6-1.1,2.6-1.1c5.7-0.8,11.5-0.6,17.1,0.6C451.2,276,460.4,275.9,457.6,280.6z"></path><path class="st1" d="M452.4,294.4c-1.1,0.3-2.3,0.4-3.4,0.2l-17.4-1.6c-1.3,0-2.6-0.4-3.7-1.1c-1-0.8-1.4-2.6-0.4-3.4
		c0.8-0.5,1.7-0.6,2.6-0.4c5.6,0.6,11.9,2.2,17.5,1.7c1.7-0.1,3-0.8,4.6-0.1C454.6,290.5,455.2,293.4,452.4,294.4z"></path><path class="st1" d="M451.3,307.5c-0.6,1.2-2.2,1.3-3.5,1.4L436,309c-3.1,0.1-6.4,0-8.9-1.7c-0.7-0.5-1.3-1.2-1.7-2
		c-0.3-0.8-0.2-1.8,0.4-2.4c1.1-1.2,3.1-0.5,4.7,0.2c4.1,1.7,9.2,2.7,13.5,1.5C445.8,304.1,453.7,303,451.3,307.5z"></path><path class="st1" d="M417.6,313.4h-0.1c-0.3-0.1-0.4-0.3-0.4-0.6c0,0,0,0,0,0c5.9-26.1,10.1-52.6,12.6-79.3c0-0.3,0.3-0.5,0.6-0.4
		c0.3,0,0.5,0.3,0.4,0.6c-2.6,26.7-6.8,53.2-12.6,79.4C418.1,313.2,417.9,313.4,417.6,313.4z"></path><path class="st1" d="M387,261.5c-0.3,0-0.5-0.2-0.5-0.5c0-0.3,0.2-0.5,0.5-0.5l30.8-0.3l0,0c0.3,0,0.5,0.2,0.5,0.5
		s-0.2,0.5-0.5,0.5L387,261.5z"></path><path class="st1" d="M428.6,253.7L428.6,253.7c-28.3-0.3-57-1.1-85.2-2.2c-0.3,0-0.5-0.2-0.5-0.5c0,0,0,0,0,0
		c0-0.3,0.2-0.5,0.5-0.5c0,0,0,0,0,0c28.2,1.2,56.9,1.9,85.2,2.2c0.3,0,0.5,0.2,0.5,0.5C429.1,253.5,428.9,253.8,428.6,253.7z"></path><path class="st1" d="M423.9,284.6L423.9,284.6c-26.2-1.2-52.8-1.6-79-1.3l0,0c-0.3,0-0.5-0.2-0.5-0.5c0-0.3,0.2-0.5,0.5-0.5
		c26.2-0.3,52.9,0.1,79.1,1.3c0.3,0,0.5,0.3,0.5,0.5C424.5,284.4,424.2,284.6,423.9,284.6C423.9,284.6,423.9,284.6,423.9,284.6z"></path><path class="st1" d="M417.5,267.9L417.5,267.9l-30.4-0.5c-0.3,0-0.5-0.2-0.5-0.5c0,0,0,0,0,0c0-0.3,0.2-0.5,0.5-0.5c0,0,0,0,0,0
		l30.4,0.5c0.3,0,0.5,0.2,0.5,0.5S417.8,267.9,417.5,267.9L417.5,267.9z"></path><path class="st1" d="M416.1,273.6L416.1,273.6l-30.4-0.9c-0.3,0-0.5-0.2-0.5-0.5c0-0.3,0.2-0.5,0.5-0.5c0,0,0,0,0,0l30.4,0.9
		c0.3,0,0.5,0.2,0.5,0.5S416.4,273.6,416.1,273.6L416.1,273.6z"></path><path class="st1" d="M411,292.6L411,292.6l-30.2-1.2c-0.3,0-0.5-0.2-0.5-0.5c0,0,0,0,0,0c0-0.3,0.2-0.5,0.5-0.5c0,0,0,0,0.1,0
		l30.1,1.2c0.3,0,0.5,0.2,0.5,0.5c0,0,0,0,0,0C411.5,292.4,411.3,292.6,411,292.6z"></path><path class="st1" d="M409.9,299.9L409.9,299.9l-27.8-1.2c-0.3,0-0.5-0.2-0.5-0.5c0,0,0,0,0,0c0-0.3,0.2-0.5,0.5-0.5c0,0,0,0,0,0
		l27.8,1.2c0.3,0,0.5,0.2,0.5,0.5c0,0,0,0,0,0C410.4,299.7,410.2,299.9,409.9,299.9C409.9,299.9,409.9,299.9,409.9,299.9z"></path><path class="st1" d="M378.7,306.7c-0.3,0-0.5-0.2-0.5-0.5s0.2-0.5,0.5-0.5c9.9-0.4,19.9-0.4,29.8-0.2c0.3,0,0.5,0.2,0.5,0.5
		c0,0,0,0,0,0c0,0.3-0.2,0.5-0.5,0.5c0,0,0,0,0,0C398.6,306.2,388.6,306.3,378.7,306.7L378.7,306.7z"></path><path class="st1" d="M458.9,347.6c-1,6.2-6.2,11-11.9,13.6s-12,3.6-18,5.4c-17.4,5-32.6,16.5-50.3,20.4
		c-13.9,3.1-28.5,1.4-42.6-0.9c-20.6-3.4-41.1-7.9-61.5-12.5l-39.7-8.9c-4.2-0.9-8.9-2.4-10.5-6.3c-1.4-3.4,0.3-7.3,3-9.7
		s6.3-3.6,9.7-4.7l31.4-10.3c13.3-4.3,26.7-8.7,40.6-10c18.2-1.7,36.4,1.8,54.5,4.2c15,2,30.1,3.2,45.3,4c7.6,0.4,15.1,0.7,22.7,1
		c5.9,0.2,12.9-0.6,18.5,1.4S459.9,341.3,458.9,347.6z"></path><path class="st0" d="M323.3,359.5c2.2,0.7,4.6,1.7,5.2,3.9c0.3,1.7-0.4,3.4-1.7,4.4c-1.4,1-3,1.6-4.6,1.9
		c-11.4,2.3-23.1-1-34.2-4.3c-3.9-1.2-6.9-4.5-2.7-7.7c2.7-2,7.7-3,11.1-3.3C305,353.5,315.1,357,323.3,359.5z"></path><path class="st2" d="M384.9,365.4c-7.6,0-15.1-1.9-22.5-3.7l-1.3-0.3c-28.2-7-56.8-12-85.7-14.9c-1.7,0-3.4-0.5-4.9-1.4
		c-1.5-1-2.5-3.2-1.5-4.9c0.7-1,1.7-1.7,2.8-2c12-4.9,24.5-8.5,37.2-10.7c8.5-1.5,17.7-0.2,26.7,1.1c3.5,0.5,6.7,0.9,10,1.2
		l22.4,2.1c25.5,2.4,51.9,4.9,77.8,7.8c0.2,0,0.3,0.1,0.4,0.3c0.1,0.1,0.1,0.3,0,0.5c-2,4.2-6.5,6.3-11,8.1l-27.3,11.1
		c-5.6,2.2-11.3,4.6-17.4,5.4C388.7,365.2,386.8,365.4,384.9,365.4z M317.1,327.7c-2.7,0-5.4,0.2-8.1,0.6
		c-12.7,2.2-25.1,5.8-37,10.7c-0.9,0.3-1.7,0.8-2.3,1.6c-0.7,1.2,0.1,2.8,1.2,3.6c1.4,0.8,2.9,1.2,4.5,1.2
		c28.9,3,57.6,7.9,85.9,14.9l1.3,0.3c9.1,2.3,18.5,4.6,27.8,3.3c6-0.8,11.6-3.1,17.1-5.4l27.3-11c4.2-1.7,8.2-3.6,10.2-7
		c-25.7-2.9-51.8-5.4-77.1-7.8l0,0l-22.5-2.1c-3.2-0.3-6.5-0.8-10-1.2C329.4,328.5,323.3,327.9,317.1,327.7L317.1,327.7z"></path><path class="st2" d="M358.8,381.5c-2.1,0-4.2-0.1-6.3-0.2c-13.7-0.7-27.3-3.5-40.4-6.3l-77.5-16.1c-0.3-0.1-0.4-0.3-0.4-0.6
		c0,0,0,0,0,0c0.1-0.3,0.3-0.4,0.6-0.4c0,0,0,0,0,0l77.5,16.1c13.1,2.7,26.7,5.5,40.3,6.2c15.2,0.8,28.6-1.3,39.8-6.1
		c0.3-0.1,0.5,0,0.7,0.3c0,0,0,0,0,0c0.1,0.2,0,0.5-0.3,0.6c0,0,0,0,0,0C383,379.4,371.5,381.5,358.8,381.5z"></path><g id="thumb_star"><path class="st1" d="M447.7,230.2c0.1-0.4,0.5-0.6,0.8-0.8c0.7-0.1,1.1,0.7,1.2,1.4c0.7,3,1.1,6.1,1.4,9.2l7.9,0.3
			c0.7,0,1.7,0.2,1.8,0.9s-0.4,1.1-0.9,1.5l-4.4,3.4c-0.4,0.2-0.7,0.6-0.9,1.1c0,0.4,0,0.7,0.2,1.1c1,2.6,2,5.3,2.9,7.9
			c-0.8,0.3-1.6,0.2-2.4-0.2c-0.7-0.4-1.4-0.8-2-1.4c-1.4-1.3-2.7-2.7-3.8-4.2c-2.3,2-4.8,3.6-7.4,5c-0.3,0.2-0.6,0.2-0.9,0.2
			c-0.5-0.2-0.5-1-0.3-1.5c0.7-2.3,1.9-4.5,3.4-6.4c-2.1-1.2-4.2-2.4-6.2-3.9c-0.6-0.4-1.2-1-1-1.7s1.2-0.9,1.9-0.9
			c1.7,0.1,3.3,0.1,5-0.1c1.1-0.2,1.3-1.1,1.3-2.1C445.5,235.9,446.3,232.9,447.7,230.2z"></path></g><path class="st0" d="M352.2,231.3c-1.7,0.4-3.5,0.9-4.4,2.4c-1.2,1.9-0.1,4.6,1.8,6s4.3,1.6,6.5,1.8c13.2,1.3,26.4,2.3,39.7,2.5
		c5.7,0.1,29.3,3,25.3-7.8c-3.2-8.8-23-8.1-30.2-8.4C377.9,227.1,364.9,228.3,352.2,231.3z"></path></g></svg>