<svg transform="scale(1)" version="1.1" id="Layer_1" xmlns="http://www.w3.org/2000/svg" xmlns:xlink="http://www.w3.org/1999/xlink" x="0px" y="0px" viewBox="0 0 500 500" xml:space="preserve" class="show_show__wrapper__graphic__5Waiy "><title>React</title><style type="text/css">
	.st0{fill:#FFFFFF;}
	.st1{fill:#111111;}
	.st2{fill:#128FFF;}
</style><g id="character"><path class="st0" d="M20.1,131l1.4,111.8c0.1,8,0.5,16.9,5.9,22.7c5.1,5.5,13.1,6.7,20.5,7.4c30.8,2.9,61.7,3.5,92.6,1.8
		c6-0.3,12.5-1,17.1-5c6-5.2,6.7-14.3,6.9-22.4c1.2-38.2,2.3-76.5,3.5-114.8c0.2-8.1,0.1-17.2-5.7-22.7c-5.1-4.8-12.8-5-19.8-4.9
		c-26.4,0.4-53.7,2.8-80-0.2C42.2,102.4,20.1,106.1,20.1,131z"></path><path class="st1" d="M106.2,276.3c-19.5,0-39.1-0.9-58.5-2.8c-7.7-0.7-15.7-1.9-20.9-7.6c-5.4-5.9-6-14.7-6.1-23.2l-1.4-111.7l0,0
		c0-8.7,2.6-15.4,7.9-20.1c9.1-8.1,24.2-8.3,35.3-7c19.1,2.2,39.1,1.5,58.3,0.8c7.1-0.3,14.4-0.5,21.6-0.6
		c7.4-0.1,15.1,0.2,20.3,5.1c6,5.6,6.2,15,6,23.3l-3.5,114.7c-0.2,8.3-1,17.5-7.2,22.9c-4.7,4.1-11.2,4.8-17.6,5.1
		C129.1,276,117.7,276.3,106.2,276.3z M20.8,131l1.4,111.7c0.1,8.6,0.6,16.7,5.7,22.2c4.9,5.3,12.5,6.4,20,7.1
		c30.7,2.9,61.7,3.5,92.5,1.8c6.1-0.3,12.3-1,16.6-4.8c5.7-5,6.4-13.5,6.7-21.8l3.5-114.8c0.2-8,0-16.9-5.5-22.1
		c-4.8-4.5-12.1-4.8-19.3-4.7s-14.5,0.4-21.6,0.6c-19.3,0.7-39.3,1.4-58.5-0.8c-10.8-1.2-25.5-1.1-34.2,6.6
		C23.3,116.4,20.8,122.8,20.8,131z"></path><path class="st1" d="M128.8,128.3c4.9,1.9,10.6,2.6,14,6.6c3.1,3.7,3,9.1,2,13.9c-1.8,8.5-7,17.2-15.4,19.4
		c-6.4,1.7-13.2-0.8-19.5-2.9s-13.5-3.8-19.4-0.8c-5.7,2.9-8.6,9.4-12.8,14.2c-8,8.9-20.5,12.2-31.8,8.4
		c-6.5-2.3-12.5-7.8-12.5-14.7c0-7.1,6.3-12.5,8.6-19.2c4.1-11.9-4.9-24.7-3.3-37.2c0.9-5.9,3.7-11.3,8-15.4
		C51,96.5,56,93.2,61.4,91C71,86.8,82,84.8,92,87.7c7.3,2.1,13.5,7.1,17.1,13.8c1.5,3,1.9,6.3,3.2,9.4c1.4,3.5,3.3,6.8,5.7,9.7
		C120.9,124,124.6,126.6,128.8,128.3z"></path><path class="st2" d="M127.7,110.6c4.8,7.6,5.1,17.2,0.6,24.9c-1.6,2.7-4.4,5.3-7.5,4.8c-1.9-0.5-3.4-1.8-4.2-3.5
		c-0.8-1.7-1.2-3.6-1.4-5.5c-0.8-6-1.3-12-1.5-18c-0.2-1.7,0-3.4,0.4-5C116.7,100.5,125,106.4,127.7,110.6z"></path><path class="st0" d="M134.9,199.8c4,4.5,11.2,5.4,14.4,10.5c2.9,4.8,0.9,11.1-2,15.9c-2.8,4.5-7.2,8.8-12.4,8.2
		c-4.5-0.5-7.8-4.4-10-8.4c-3.2-5.7-4.3-11.7-6.2-17.9c-1.1-3.7-4.4-8.8-3.7-12.8c0.9-4.6,5.3-7.7,9.9-7
		C130.5,189.5,131.6,196,134.9,199.8z"></path><path class="st1" d="M135.7,235.3c-0.3,0-0.7,0-1-0.1c-4-0.4-7.6-3.4-10.6-8.8c-2.4-4.4-3.7-8.8-4.9-13.4c-0.4-1.5-0.8-3.1-1.3-4.6
		c-0.4-1.2-0.9-2.5-1.4-3.6c-1.3-3.1-2.8-6.5-2.3-9.5c0.5-2.5,1.9-4.7,4-6.1c2-1.4,4.4-2,6.8-1.5c4.1,0.8,6,4.1,7.7,7.4
		c0.8,1.5,1.7,2.9,2.8,4.3l0,0c1.9,1.9,4.1,3.4,6.5,4.4c3,1.6,6.1,3.2,7.9,6.2c3.8,6.1-0.2,13.7-2,16.7
		C146.2,229.3,141.8,235.3,135.7,235.3z M123.3,189c-1.6,0-3.1,0.5-4.3,1.4c-1.8,1.2-3,3-3.4,5.1c-0.4,2.6,1,5.8,2.2,8.7
		c0.6,1.2,1.1,2.5,1.5,3.8c0.5,1.6,0.9,3.1,1.3,4.6c1.3,4.6,2.5,8.9,4.8,13.1c2.8,4.9,5.9,7.6,9.4,8c5.8,0.6,10.1-5.3,11.7-7.9
		c1.7-2.8,5.3-9.8,2-15.1c-1.6-2.6-4.4-4.1-7.3-5.6c-2.6-1.2-4.9-2.8-6.9-4.8l0,0c-1.2-1.4-2.2-2.9-3-4.5c-1.7-3.1-3.3-6-6.7-6.6
		C124.2,189,123.8,189,123.3,189z"></path><path class="st0" d="M119.2,104.6c5.5,19.7,3.8,40.9-2.3,60.5c-0.8,2.9-2,5.6-3.6,8.2c-1.6,2.5-4.2,4.3-7.2,5
		c-4.2,0.8-8.3-1.7-11.6-4.4c-9.9-8.1-16.6-19.4-23.7-30.1c-3.1-4.6-6.3-9.1-8.1-14.3s-2.1-11.2,0.7-16c2.1-3.7,5.7-6.2,9.4-8.3
		c5.5-3.2,11.4-5.8,17.5-7.8c5.5-1.7,11.2-2.6,16.9-2.8C113.9,94.3,117.5,98.6,119.2,104.6z"></path><path class="st1" d="M104.6,179.2c-3.2,0-6.7-1.5-10.5-4.7c-8.6-7-14.8-16.4-20.8-25.6c-1-1.6-2.1-3.1-3.1-4.7l-0.8-1.2
		c-2.8-4.2-5.7-8.5-7.4-13.3c-2.2-6.1-1.9-12.1,0.7-16.6c2.2-3.9,6.1-6.5,9.6-8.6c5.6-3.3,11.5-5.9,17.6-7.9
		c5.6-1.7,11.3-2.6,17.2-2.8h0.6c6.1,0,10.4,3.7,12.3,10.6l0,0c5.1,18.4,4.3,39.5-2.3,60.9c-0.8,3-2,5.8-3.7,8.4
		c-1.7,2.7-4.5,4.6-7.6,5.3C105.7,179.1,105.2,179.2,104.6,179.2z M107.6,95.3h-0.5c-5.7,0.2-11.3,1.1-16.8,2.8
		c-6,2-11.8,4.6-17.3,7.8c-3.3,2-7,4.4-9.1,8.1c-2.4,4.1-2.6,9.7-0.6,15.4c1.6,4.7,4.5,8.9,7.3,13l0.8,1.2c1,1.6,2.1,3.1,3.1,4.7
		c5.9,9,12.1,18.4,20.5,25.2c4.2,3.4,7.8,4.8,11,4.2c2.8-0.6,5.1-2.3,6.7-4.7c1.6-2.5,2.7-5.2,3.5-8c6.6-21.1,7.4-41.9,2.3-60
		C116.7,98.5,113.1,95.3,107.6,95.3z"></path><path class="st1" d="M72.8,89.8c-3.2,3.7-5.9,7.7-8,12.1c-2.1,4.4-2.9,9.3-2.3,14.2c0.9,6.2,4.7,11.8,4.6,18.1
		c0,1.6-0.4,3.4-1.8,4.3c-1.2,0.6-2.5,0.8-3.8,0.6c-5.2-0.5-10.1-2.4-14.2-5.6c-4.1-3.2-7.1-7.7-8.3-12.7
		c-1.4-5.8-0.3-11.9,1.9-17.4c1.2-3.2,3-6.1,5.3-8.6c2.6-2.5,5.6-4.5,8.8-5.9c4.7-2.3,9.5-3.1,14.5-4.7c1.4-0.4,3.2-1.3,4.5-0.2
		C75.6,85.8,74,88.3,72.8,89.8z"></path><path class="st0" d="M87.8,88.8c-0.7,0.9-1.4,1.7-2.3,2.3c-3.8,3.1-7.2,6.6-10.2,10.5c-3,3.9-5,8.4-5.8,13.3
		c-0.4,3.3-0.4,6.7,0.1,10c0.2,0.9,0.2,1.8,0.1,2.7c-0.1,0.9-0.8,1.7-1.6,2c-1.5,0.4-2.8-1-3.6-2.3c-8.1-13.2-5.2-30.3,6.9-40
		c3.2-2.5,7-4.1,11-4.6C85.8,82.3,90.3,85.2,87.8,88.8z"></path><path class="st1" d="M67.5,130.4c-1.3,0-2.6-0.9-3.7-2.7c-8.3-13.5-5.3-31.1,7.1-41c3.3-2.6,7.2-4.2,11.4-4.7
		c2.4-0.3,4.9,0.7,6.3,2.7c0.9,1.4,0.8,3.2-0.2,4.5c-0.7,0.9-1.5,1.7-2.4,2.4L86,91.8c-3.8,3-7.1,6.5-10.1,10.3
		c-2.9,3.8-4.9,8.3-5.7,13c-0.4,3.3-0.4,6.6,0.1,9.8v0.1c0.2,0.9,0.2,1.9,0,2.8c-0.2,1.2-1,2.2-2.1,2.6
		C68,130.4,67.8,130.4,67.5,130.4z M83.1,83.4c-0.2,0-0.4,0-0.6,0c-3.9,0.5-7.6,2-10.7,4.5c-11.8,9.4-14.7,26.2-6.8,39
		c0.3,0.5,1.5,2.3,2.7,1.9c0.6-0.3,1-0.8,1.1-1.4c0.1-0.8,0.1-1.6-0.1-2.3V125c-0.5-3.4-0.6-6.8-0.1-10.2c0.8-5,2.9-9.6,5.9-13.6
		c3-3.9,6.5-7.5,10.3-10.6l0.1-0.1c0.8-0.6,1.5-1.3,2.1-2.1l0,0c0.7-0.8,0.8-2,0.2-2.9C86.4,84.2,84.8,83.4,83.1,83.4L83.1,83.4z"></path><path class="st1" d="M84.9,132.9c6.2,1,12.6,0.5,18.5-1.4c11.9-4.1,20.5-15,24.7-26.9c2.2-6,3.3-12.7,1.4-18.9
		c-0.9-3.3-3-6.2-6-7.9c-3.3-1.7-7.2-1.4-10.9-0.8c-10.2,1.9-19.6,6.4-28.8,10.9c-4.1,2-8.3,4-11.6,7.2c-4.1,4.1-6.7,9.4-7.4,15.1
		c-0.6,5-0.3,10,1.1,14.9c1.2,4.3,5.5,4.8,9.4,5.9C78.6,131.8,81.7,132.5,84.9,132.9z"></path><path class="st1" d="M100.6,160.9c-1-0.9-2.1-1.9-3.4-1.6c-0.7,0.2-1.2,0.7-1.5,1.3c-0.3,0.6-0.3,1.3-0.3,2
		c0.3,3.6,3.5,6.2,7.1,5.9c1-0.1,1.9-0.4,2.7-0.9c0.9-0.4,1.5-1.2,1.8-2.2c0.4-1.9-1-1.9-2.2-2.2C103.2,162.8,101.8,162,100.6,160.9
		z"></path><path class="st1" d="M128.4,234c-5.1,9.2-16.1,14.1-22.3,22.7c-3.7,5.2-6,12-12.2,14.5c-8.1,3.2-18.1-4-20.5-12.2
		s0.2-16.8,2.9-24.7l9.5-28.3c1.7-5.2,3.6-10.5,7.4-14.5c7.2-7.5,25.7-8.8,31.4,1.9C130.6,204.5,134.5,222.9,128.4,234z"></path><path class="st2" d="M72.8,161c3.4,3.5,8,5.7,12.9,6.2c-0.8,2,0.1,4.2,2.1,5.1c0.1,0,0.2,0.1,0.3,0.1c2.2,0.5,4.4-0.7,5.2-2.8
		c0.7-2.1,0-4.4-1.8-5.8c-1.3-1-3.4-1.3-4.4,0c-6.8-0.1-12.7-4.7-14.4-11.3c-0.6-2.5-4.4-9.2-5.4-3.4
		C66.7,152.9,70.3,158.4,72.8,161z"></path><path class="st2" d="M55.5,94.7C58.3,87.4,63.8,81,71,78s16-2.5,22.2,2.3c0.6,0.4,1.1,0.9,1.4,1.5c0.6,1.5-0.7,3.1-2.2,3.6
		c-1.5,0.3-3.1,0.3-4.7,0c-12.3-1.2-23.2,7.9-24.3,20.2c0,0.1,0,0.2,0,0.3c-0.2,2.3,0,4.7-0.3,7c-0.2,2.4-1.3,4.5-3.1,6.1
		C49.9,126.2,54.1,98.4,55.5,94.7z"></path><path class="st2" d="M44.1,130.5c-1.7,10.9,5,22.7,15.4,26.7c5.8,2.2,13,2,17.7-2c4.6-3.9,6.2-10.4,5.5-16.4s-3.3-11.5-5.8-17
		c-3.6-7.6-9-13.7-17.7-10C51.6,114.9,45.5,122.1,44.1,130.5z"></path><path class="st1" d="M68.6,154.4c-0.2,0-0.4-0.1-0.5-0.3c-0.1-0.2,0-0.4,0.2-0.6l0.4-0.3c0.2-0.1,0.5-0.1,0.7,0.1
		c2.1-0.7,3.7-2.3,4.2-4.5c0.7-2.5,0.1-5.2-0.5-7.5c-1.3-4.8-3.3-9.3-5.8-13.5c-1.5-2.5-3.7-5.5-6.8-7c-2.8-1.3-6.7-1-8.7,1.6
		c-0.2,0.2-0.5,0.3-0.7,0.1c-0.2-0.2-0.3-0.5-0.1-0.7l0,0c2.3-3.1,6.8-3.3,9.9-1.9c3.4,1.6,5.7,4.8,7.3,7.4
		c2.6,4.3,4.6,8.9,5.9,13.8c0.9,2.6,1,5.4,0.5,8.1C73.9,151.6,71.6,154.3,68.6,154.4L68.6,154.4z"></path><path class="st1" d="M100.4,143.8c0.6-0.1,1.1-0.5,1.4-1.1c0.3-0.6,0.4-1.2,0.4-1.9c0.1-2.3-1-6.3-3.7-4
		C96.7,138.4,97.8,144,100.4,143.8z"></path><path class="st1" d="M111.4,141.8c0.5-0.1,0.9-0.4,1.1-0.8c0.2-0.5,0.3-1,0.3-1.5c0.1-1.8-0.8-4.9-2.8-3.1
		C108.6,137.6,109.4,141.9,111.4,141.8z"></path><path class="st0" d="M37.6,136.9c3.5-3.7,7.8-7.1,13.2-6.8c3.4,0.1,6.3,2.2,7.5,5.4c1.9,5.9-4.4,10.9-9.8,13.9
		c4.2,0.6,8.5,1.9,11,5.6c1,1.4,1.5,3,1.5,4.7c-0.1,4.2-3.3,5.7-6.2,7.4c-7,4-13,9.5-17.6,16.1c-9.5,13.8-12,31.3-14.6,47.7
		c-0.5,2.7,0.5,5.4,2.5,7.3c3.8,3.2,8,0.5,11.2-2l21.4-16.8c1.2-1,3-0.8,4,0.5c0.7,0.9,0.8,2.3,0.2,3.3c-7.5,11.8-19.6,21-30.4,29.8
		c-3.1,2.6-7.1,3.8-11.2,3.4c-10.3-1.4-11.3-13-10.2-22c1.2-9.5,3.2-18.9,5.9-28.1c2.3-7.9,6.3-15.6,6.6-23.9
		C23.1,165,25.1,150.1,37.6,136.9z"></path><path class="st1" d="M22.1,257.1c-0.6,0-1.2,0-1.9-0.1c-12.2-1.7-11.6-16.5-10.8-22.8c1.2-9.5,3.2-19,5.9-28.2
		c0.7-2.5,1.6-4.9,2.5-7.3c1.9-5.3,3.9-10.8,4.1-16.4c0.5-16.2,2.1-31.9,15.2-45.8l0,0c3-3.2,7.7-7.4,13.7-7.1
		c3.7,0.1,6.9,2.4,8.2,5.8c1.9,6-3.8,10.9-8.4,13.8c3.3,0.7,7.1,2.1,9.5,5.5c1.1,1.5,1.7,3.3,1.6,5.2c-0.1,4.4-3.3,6.1-6.1,7.7
		l-0.5,0.3c-6.9,3.9-12.8,9.4-17.3,15.9c-9,13.2-11.6,29.6-14.2,45.6l-0.3,1.9c-0.4,2.4,0.4,4.9,2.3,6.6c3.2,2.8,6.8,0.6,10.2-2
		l21.4-16.8c1.4-1.1,3.4-1,4.7,0.2c1.3,1.1,1.6,3.1,0.6,4.6c-6.8,10.7-17.1,19.1-27.1,27.1l-3.4,2.8
		C29.2,255.8,25.7,257.1,22.1,257.1z M38.1,137.4c-12.7,13.6-14.3,28.9-14.8,44.8c-0.2,5.9-2.2,11.5-4.2,16.9
		c-0.9,2.4-1.7,4.8-2.4,7.2c-2.7,9.2-4.6,18.5-5.8,28c-0.7,5.9-1.3,19.7,9.6,21.1c3.8,0.4,7.6-0.7,10.6-3.2l3.5-2.8
		c9.9-8,20.1-16.3,26.8-26.8c0.6-0.8,0.4-2-0.4-2.6c-0.7-0.7-1.9-0.8-2.7-0.1l-21.4,16.8c-2.4,1.9-7.5,5.9-12.1,2
		c-2.2-2-3.3-5-2.8-8l0.3-1.9c2.5-16.1,5.2-32.7,14.4-46.2c4.6-6.7,10.7-12.3,17.8-16.4l0.5-0.3c2.7-1.5,5.2-2.9,5.3-6.4
		c0-1.5-0.4-3-1.3-4.3c-2.5-3.6-7-4.7-10.5-5.2c-0.4-0.1-0.7-0.4-0.6-0.8c0-0.2,0.2-0.5,0.4-0.6c4.3-2.4,11.3-7.3,9.5-13
		c-1-2.9-3.8-4.8-6.8-4.8C45.3,130.6,40.9,134.5,38.1,137.4L38.1,137.4z"></path><path class="st0" d="M141.3,246c0.3,5.6-2.1,11.7-7.1,14s-11,0.5-16.3-1.1c-8.9-2.6-18.1-4.1-27.3-4.5c-6.1-0.3-12.7,0.1-17.6,3.8
		c-5.9,4.6-7.8,12.8-4.5,19.5c3.6,6.6,11.2,9.9,18.5,8c9-2.5,14.8-12.5,24-13.9c9.4-1.5,18.3,6.5,27.8,5.3
		c9.2-1.2,15.2-11.3,15.2-20.6s-4.4-18-8.7-26.3c-1.2-2.3-2.7-4.9-5.3-5.4C131.6,223.2,141.1,242.9,141.3,246z"></path><path class="st1" d="M82.8,287c-6.3,0-12.1-3.5-15.1-9c-3.4-7.1-1.4-15.6,4.8-20.5c5.3-3.9,12.4-4.1,18.1-3.9
		c9.3,0.4,18.6,1.9,27.5,4.5l0.8,0.2c5.2,1.5,10.5,3.1,15,0.9c5-2.4,7-8.4,6.7-13.3l0,0c-0.4-1.6-0.9-3.2-1.5-4.8
		c-2.6-7.4-4.6-13.8-2.5-16.3c0.9-0.9,2.2-1.2,3.4-0.9c2.9,0.6,4.5,3.3,5.8,5.8c4.1,7.9,8.8,16.9,8.8,26.6c0,12-8.1,20.3-15.9,21.3
		c-4.9,0.6-9.6-1.1-14.1-2.7s-9.1-3.3-13.7-2.6s-8.4,3.8-12.4,6.9c-3.5,2.8-7.1,5.8-11.5,7C85.6,286.8,84.2,287,82.8,287z
		 M87.7,255.1c-4.8,0-10.2,0.6-14.3,3.7c-5.6,4.4-7.4,12.1-4.3,18.6c3.4,6.3,10.7,9.5,17.6,7.7c4.1-1.1,7.6-4,11-6.7
		c3.9-3.2,8-6.5,13.1-7.3s9.8,1,14.4,2.6s8.9,3.2,13.4,2.6c9-1.2,14.6-11.2,14.6-19.8c0-9.4-4.6-18.1-8.6-25.9
		c-1.1-2.2-2.5-4.5-4.8-5c-1.4-0.3-1.8,0.2-1.9,0.4c-1.8,2,1.1,10,2.8,14.8c0.7,1.7,1.2,3.4,1.6,5.2l0,0c0.3,5.4-1.9,12.1-7.5,14.7
		c-5.1,2.4-10.9,0.7-16.1-0.9l-0.8-0.2c-8.8-2.6-18-4.1-27.2-4.5C89.6,255.1,88.6,255.1,87.7,255.1L87.7,255.1z"></path><path class="st0" d="M83.8,187.6c-2.3,1.5-4.4,3.2-6.4,5.2c-4.7,4.1-10.1,7.3-16,9.5c-4.5,1.7-9.7,3.2-11.6,7.5
		c-1.1,2.8-0.9,5.8,0.5,8.4c1.4,2.5,3.3,4.8,5.5,6.6c4.3,3.9,9.1,7.2,14.3,9.9c2.5,1.3,5.3,2.5,8.1,1.9c4.2-0.9,6.6-5.3,8.1-9.4
		c3.4-8.8,7.1-18.4,9.8-27.3C98.7,192.1,92.9,182.3,83.8,187.6z"></path><path class="st1" d="M76.9,237.6c-2.5-0.2-4.9-0.9-7-2.1c-5.2-2.7-10.1-6.1-14.4-10c-2.3-1.9-4.3-4.2-5.7-6.9
		c-1.5-2.8-1.7-6.1-0.6-9.1c1.9-4.2,6.6-5.9,10.7-7.5l1.3-0.5c5.8-2.2,11.1-5.3,15.7-9.4l1.4-1.2c1.6-1.5,3.3-2.9,5.2-4
		c3.7-2.2,7.3-2.1,10.1,0.1c3.5,2.7,4.9,8.3,3.4,13.2c-2.5,8.3-5.8,16.9-9,25.3l-0.8,2c-1.4,3.8-3.9,8.8-8.7,9.8
		C78,237.5,77.4,237.6,76.9,237.6z M88.8,186.9c-1.6,0-3.2,0.5-4.6,1.4l0,0c-1.8,1.1-3.4,2.4-4.9,3.8l-1.4,1.2
		c-4.8,4.2-10.3,7.4-16.2,9.7l-1.3,0.5c-4.1,1.5-8.3,3-9.9,6.7c-1,2.5-0.8,5.4,0.5,7.8c1.4,2.5,3.2,4.6,5.4,6.4
		c4.3,3.8,9,7.1,14.2,9.8c2.3,1.2,5.1,2.4,7.6,1.9c4-0.9,6.3-5.5,7.6-8.9l0.8-2c3.2-8.4,6.6-17,9-25.2c1.3-4.3,0-9.2-2.9-11.6
		C91.5,187.4,90.2,186.9,88.8,186.9z M83.8,187.6L83.8,187.6z"></path><path class="st1" d="M69.9,280c-0.1,0-0.2,0-0.3-0.1c-0.2-0.2-0.3-0.5-0.1-0.7c6.1-7.9,14.8-13.4,24.5-15.6
		c0.3-0.1,0.5,0.1,0.6,0.4c0,0,0,0,0,0c0.1,0.3-0.1,0.5-0.4,0.6c0,0,0,0,0,0c-9.5,2.2-18,7.6-24,15.2C70.2,279.9,70,280,69.9,280z"></path><path class="st1" d="M28.7,169.4h-0.1c-0.3-0.1-0.4-0.4-0.3-0.6c3-9.8,10.9-17.3,20.8-19.8c0.3-0.1,0.5,0.1,0.6,0.4c0,0,0,0,0,0
		c0.1,0.3-0.1,0.5-0.3,0.6c0,0,0,0,0,0c-9.6,2.4-17.2,9.6-20.1,19C29.2,169.2,29,169.4,28.7,169.4z"></path></g><g id="character-2"><path class="st0" d="M176.8,187.2l1.4,111.7c0.1,8,0.5,16.8,5.9,22.7c5.1,5.5,13.1,6.7,20.5,7.4c30.8,3,61.7,3.6,92.6,1.8
		c6-0.3,12.5-0.9,17.1-5c6-5.2,6.7-14.3,6.9-22.4c1.2-38.2,2.3-76.5,3.5-114.8c0.2-8.1,0.1-17.2-5.8-22.7c-5.1-4.8-12.8-5-19.8-4.9
		c-26.4,0.4-53.7,2.8-80-0.2C199,158.6,176.8,162.2,176.8,187.2z"></path><path class="st1" d="M263,332.5c-19.5,0-39.1-0.9-58.5-2.8c-7.7-0.7-15.7-1.9-20.9-7.6c-5.4-5.9-6-14.7-6.1-23.2l-1.4-111.7l0,0
		c0-8.7,2.6-15.4,7.9-20.1c9.1-8.1,24.2-8.3,35.3-7c19.1,2.2,39.1,1.5,58.3,0.8c7.1-0.2,14.4-0.5,21.6-0.6
		c7.4-0.1,15.1,0.2,20.3,5.1c6,5.6,6.2,15,6,23.3L322,303.5c-0.2,8.3-1,17.5-7.2,22.9c-4.7,4.1-11.2,4.8-17.5,5.1
		C285.9,332.1,274.4,332.5,263,332.5z M177.6,187.2l1.4,111.7c0.1,8.5,0.6,16.7,5.7,22.2c4.9,5.3,12.6,6.4,20,7.1
		c30.7,2.9,61.7,3.5,92.5,1.8c6-0.3,12.3-1,16.6-4.8c5.7-5,6.4-13.5,6.7-21.8l3.5-114.7c0.2-8,0-16.9-5.5-22.1
		c-4.8-4.5-12.1-4.8-19.3-4.7s-14.5,0.4-21.5,0.6c-19.3,0.7-39.3,1.4-58.6-0.8c-10.8-1.2-25.5-1.1-34.2,6.6
		C180.1,172.6,177.6,179,177.6,187.2z"></path><path class="st1" d="M240.5,130.6c5.9-3.5,13.3-3.3,18.9,0.7c4.6,3.4,7.1,8.8,8.9,14.2c6.4,19.2,5,40.2,10.4,59.7
		c4.5,16.3,13.7,32,12.1,48.8c-9.2,3.8-19.1,6-29.1,6.3c2.4-12.7-0.9-25.9-5.8-37.9s-11.5-23.2-16.4-35.2
		c-4.6-11.3-5.9-21.8-6.1-33.8c0-3.9-1.4-7.3-0.7-11.3C233.7,137.4,236.5,133.2,240.5,130.6z"></path><path class="st2" d="M283.2,242.2c3.4,1.5,6.3,4,9.1,6.4c14.8,12.6,30.2,26.2,36.6,44.6c1.1,2.6,1.5,5.4,1.2,8.2
		c-0.4,2.8-2.2,5.5-4.9,6.2c-4.1,1.1-7.9-2.3-10.6-5.5c-12.7-14.5-24.8-29.4-36.4-44.8c-2.3-3-7.2-9.1-6.2-13.3
		C273.1,239.2,279.6,240.6,283.2,242.2z"></path><path class="st2" d="M231.5,263.7c-3,4-6,8.2-6.4,13.1s1.9,9.3,4.2,13.6c4.2,8,8.5,16,12.9,24c1.8,3.4,3.7,6.8,6.4,9.4
		s6.4,4.6,10.2,4.3c4.5-0.4,8.2-3.7,11.4-7c6.8-7.3,12.5-15.6,16.9-24.5c3.9-8,6.8-16.9,5.2-25.6c-1.4-7.4-6-13.5-11.3-18.6
		c-4.8-4.5-10.2-10.7-15.9-14.1C250.8,229.9,238.1,254.9,231.5,263.7z"></path><path class="st0" d="M242,313.4c5.6-3.7,12.4-6.1,19-5c10,1.6,17.6,10.9,19.5,20.8c0.6,3.2,0.6,6.9-1.5,9.4c-2,2.3-5.3,3-8.3,2.7
		s-5.8-1.6-8.7-2.6c-7.6-2.8-15.6-4.1-23.6-3.9c-2.6,0.1-5.3,0.3-7.7-0.8C220.1,329.2,237.8,316.2,242,313.4z"></path><path class="st1" d="M272.1,342.1c-0.5,0-1.1,0-1.6-0.1c-2.5-0.4-4.9-1.1-7.2-2.1l-1.6-0.6c-7.5-2.7-15.4-4-23.3-3.8h-0.8
		c-2.4,0.1-5,0.2-7.3-0.9s-3.6-2.5-3.7-4.5c-0.6-6.6,12.4-15.6,15-17.4l0,0c6.4-4.3,13.4-6.1,19.5-5.2c9.8,1.5,18,10.4,20.1,21.4
		c0.8,4.4,0.2,7.7-1.7,10C277.6,341.1,274.9,342.2,272.1,342.1z M240,333.9c7.6,0,15.1,1.3,22.2,3.9c0.5,0.2,1.1,0.4,1.6,0.6
		c2.2,0.9,4.5,1.6,6.9,2c3.2,0.4,6-0.5,7.6-2.4s2.1-4.9,1.4-8.8c-2-10.5-9.7-18.8-18.8-20.2c-5.8-0.9-12.4,0.8-18.5,4.9
		c-5.5,3.7-14.7,11.2-14.3,16c0.1,1.4,1,2.4,2.9,3.2c2,0.9,4.3,0.8,6.6,0.7h0.8L240,333.9z"></path><path class="st0" d="M245.1,222.9c2.9,4.2,7.3,8.6,12.4,7.8c3.7-0.6,6.3-3.7,8.4-6.8c8.8-13.2,12.4-29.1,14.2-44.9
		c0.5-4.6,0.8-9.7-1.8-13.6c-2.8-4.2-8.1-5.8-13-6.7c-6.2-1.1-12.6-1.3-18.9-0.7c-4.3,0.4-8.7,1.2-12.2,3.7c-4,2.7-5.9,7.6-4.6,12.2
		c1.3,5.2,1.2,10.6,2.1,15.9C233.7,201.7,238.3,213,245.1,222.9z"></path><path class="st1" d="M256.3,231.5c-4,0-8.1-2.8-11.8-8.2l0,0c-6.9-10-11.5-21.3-13.5-33.3c-0.4-2.2-0.6-4.5-0.8-6.6
		c-0.2-3.1-0.6-6.2-1.3-9.2c-1.4-4.9,0.6-10.2,4.9-13c3.9-2.8,8.8-3.5,12.6-3.9c6.4-0.6,12.8-0.3,19.1,0.8c4.3,0.7,10.4,2.2,13.5,7
		c2.8,4.1,2.4,9.4,1.9,14.1c-2.2,19.5-6.8,33.8-14.3,45.2c-1.8,2.7-4.7,6.4-8.9,7.1C257.2,231.5,256.8,231.5,256.3,231.5z
		 M245.7,222.4c2.7,3.9,6.9,8.3,11.7,7.5c3.5-0.6,6.1-3.8,7.9-6.5c7.4-11.1,11.9-25.3,14.1-44.5c0.5-4.4,0.8-9.4-1.6-13.1
		c-2.1-3.2-6.1-5.3-12.5-6.4c-6.2-1.1-12.5-1.3-18.7-0.7c-3.6,0.3-8.3,1-11.9,3.6c-3.8,2.5-5.5,7.1-4.3,11.4
		c0.7,3.1,1.1,6.3,1.3,9.5c0.2,2.1,0.4,4.4,0.7,6.5C234.4,201.5,238.9,212.6,245.7,222.4L245.7,222.4z"></path><path class="st1" d="M242.8,188.5c0-0.5,0-1,0.2-1.5c0.1-0.5,0.5-0.8,0.9-1c0.5-0.1,1,0.1,1.4,0.4c1.3,1.1,1.6,3,1.7,4.7
		c0.1,0.6,0,1.3-0.2,1.9c-0.2,0.6-0.6,1-1.2,1.2C243.7,194.6,242.8,189.8,242.8,188.5z"></path><path class="st1" d="M261.2,189.6c-0.2,0.6-0.3,1.3-0.2,2c0,0.7,0.5,1.3,1.1,1.5c0.5,0.1,1,0,1.4-0.4c0.4-0.4,0.6-0.8,0.8-1.4
		c0.5-1.3,1.5-4.2-0.2-4.9S261.6,188.2,261.2,189.6z"></path><path class="st1" d="M251,218c0.9,1.4,2.4,2.3,4,2.6c1.8,0.1,3.5-0.8,4.5-2.2c1-1.4,1.7-3.1,2.1-4.8c0.2-0.6,0.2-1.2,0.2-1.8
		c-0.1-0.6-0.4-1.2-1-1.4c-0.4-0.1-0.8-0.2-1.3-0.1l-7.7,0.7C247.4,211.3,249.3,215.5,251,218z"></path><path class="st2" d="M228.6,175.2c-1.8-1.6-4.5-1.6-6.2,0.2c-0.6,0.6-1,1.4-1.1,2.3c-0.4,1.6-0.4,3.2-0.3,4.8
		c0.5,8.4,1.3,17.3,6.5,23.9c1.1,1.3,2.5,2.6,4.2,2.6c1.6-0.2,2.9-1.2,3.5-2.7c0.5-1.4,0.7-3,0.6-4.5c-0.2-5.1-1-10.2-2.4-15.1
		C232.4,182.6,232,177.8,228.6,175.2z"></path><path class="st2" d="M280.3,175.2c1.8-1.6,4.5-1.5,6.2,0.2c0.6,0.6,1,1.4,1.1,2.3c0.4,1.6,0.4,3.2,0.3,4.8
		c-0.5,8.4-1.3,17.3-6.5,23.9c-1,1.3-2.5,2.6-4.2,2.6c-1.6-0.2-2.9-1.2-3.5-2.7c-0.5-1.5-0.7-3-0.6-4.5c0.2-5.1,1-10.2,2.4-15.1
		C276.5,182.6,276.9,177.8,280.3,175.2z"></path><path class="st2" d="M232.6,213.2c1.9,2.7,5.1,4.8,8.4,4.2c0.1,1.2,0.4,2.7,1.6,3.1s2.6-0.7,2.8-2c0.1-1.3-0.3-2.7-1.1-3.7
		c-0.4-0.8-1-1.4-1.9-1.7c-0.9-0.2-1.8,0.8-1.4,1.5c-4.2,0-7.7-3-8.5-7.1c-0.2-1.4-1-5.8-2.5-2.3
		C229.1,207.6,231.3,211.4,232.6,213.2z"></path><path class="st2" d="M218.2,160.8c1.8-6.7,6.1-12.4,12.1-15.9c5.9-3.5,12.7-5.3,19.5-5.3c6.8,0,13.6,1,20.2,2.9
		c4.8,1.3,9.7,3,13.2,6.5c3.3,3.5,5.3,8.1,5.6,12.9c0.3,4.8-0.2,9.5-1.4,14.2c-0.2,1.1-0.6,2.2-1.2,3.1c-0.6,1-1.7,1.5-2.9,1.4
		c-1.3-0.4-2.1-1.5-2.2-2.8c0-1.3,0.2-2.6,0.6-3.8c0.9-2.6,1.3-5.3,1.1-8c-0.5-4.2-3.5-7.8-7-10c-3.7-2.1-7.7-3.4-11.9-3.9
		c-6.6-1.1-13.3-1.3-20-0.7c-6.3,0.6-13.2,2.4-16.6,7.7s-2.3,12.2-1.1,18.4c0.2,0.9,0.3,1.7,0.1,2.6c-0.2,0.9-0.8,1.6-1.7,1.8
		c-1.3,0.2-2.3-2.8-3-3.7c-1.2-1.6-2.2-3.4-2.8-5.4C217.5,168.8,217.3,164.7,218.2,160.8z"></path><path class="st1" d="M225.9,155.4c-2.9,2.9-5.5,6.5-5.7,10.6c0,3.3,1.1,6.5,3.2,9.1c1.6,1.9,3.3,3.7,5.3,5.3c0.4,0.3,1,0.3,1.3-0.1
		c0.2-0.2,0.2-0.4,0.2-0.7c-0.1-1.7-0.2-3.4-0.1-5.1c0-0.5,0.5-0.9,1-0.9c0.3,0,0.6,0.2,0.8,0.5c2.8,4.5,7.6,7.4,12.9,7.8
		c0.5,0,1-0.3,1-0.8l0.8-7.3c0-0.5,0.5-0.9,1-0.8c0.3,0,0.5,0.2,0.7,0.4c1.7,2.7,3.9,5.1,6.6,6.8c0.8,0.6,1.9,1,2.9,1
		c1.7-0.1,2.8-1.7,3.5-3.3s1.1-3.3,2.3-4.4l-0.1,7.3c0,0.5,0.4,0.9,0.9,1c0.2,0,0.3,0,0.5-0.1c2.5-1.4,4.8-2.9,7.1-4.7
		c0.4-0.3,1-0.3,1.3,0.1c0.2,0.3,0.3,0.7,0.1,1l-1.3,3c-0.2,0.5,0,1,0.4,1.3c0.2,0.1,0.4,0.1,0.6,0.1c8.9-1.3,15-9.6,13.7-18.5
		c-0.6-4.2-2.9-8-6.2-10.5c-3.7-2.8-7.4-3.7-11.9-4.7l-13.8-3.2c-3.2-0.7-9.6,0-12.9,0.9C235.1,148.2,230.7,150.6,225.9,155.4z"></path><path class="st1" d="M224.7,197.6c-1.5,7.9-2.9,16.1-0.8,23.8c0,0.1,0.1,0.2,0.2,0.2c0.1,0,0.2-0.1,0.1-0.2
		c-0.2-14,6.8-27.4,8.6-41.3c0.3-1.5,0.3-3.1,0-4.6c-0.5-2.2-2.7-4.5-5.1-3.5s-1.4,3.6-1.2,5.7C227.3,184.3,226,191.1,224.7,197.6z"></path><path class="st1" d="M286.9,197.2c2.6,7.6,5.2,15.5,4.2,23.4c0,0.1-0.1,0.2-0.2,0.2c-0.1,0-0.2-0.1-0.2-0.2
		c-1.8-13.9-10.6-26.1-14.5-39.7c-0.5-1.5-0.7-3-0.6-4.6c0.2-2.2,2-4.8,4.6-4.2s1.9,3.4,2,5.5C282.4,184.3,284.7,190.8,286.9,197.2z
		"></path><path class="st0" d="M241.5,138.7c0.7-1,1.6-1.8,2.7-2.3c4-2.1,8.8-2.1,12.7,0.1c0.9,0.5,1.7,1.2,2.3,2c0.6,0.8,0.7,1.9,0.3,2.9
		c-0.4,0.8-1.2,1.4-2.1,1.6c-0.9,0.2-1.8,0.2-2.7,0c-3.1-0.4-6.2-1.1-9.4-1.1C242.8,141.9,238.9,142.6,241.5,138.7z"></path><path class="st1" d="M256,143.8c-0.5,0-1,0-1.5-0.1c-1.1-0.1-2.1-0.3-3.2-0.4c-2-0.4-4.1-0.6-6.1-0.6h-0.9c-1.7,0.1-3.5,0.2-4.2-1
		s0.1-2.4,0.7-3.4l0,0c0.8-1.1,1.8-2,3-2.6c4.2-2.2,9.3-2.2,13.4,0.1c1,0.5,1.9,1.3,2.5,2.2c0.7,1.1,0.8,2.4,0.3,3.6
		c-0.5,1-1.5,1.8-2.6,2C257,143.8,256.5,143.8,256,143.8z M245.5,141.1c2,0.1,4.1,0.3,6.1,0.6c1,0.2,2.1,0.3,3.1,0.4
		c0.8,0.1,1.7,0.1,2.5,0c0.7-0.1,1.3-0.6,1.6-1.2c0.3-0.7,0.2-1.5-0.2-2.2c-0.5-0.7-1.2-1.3-2-1.7c-3.7-2.1-8.2-2.1-12-0.1
		c-1,0.5-1.8,1.2-2.4,2.1c-0.9,1.4-0.7,1.8-0.7,1.8c0.2,0.4,2,0.3,2.8,0.3h1L245.5,141.1z"></path><path class="st2" d="M194.2,270.2c12-12.1,25.8-22.6,41.5-29.2c2.5-1.1,5.2-2,7.9-1.8s5.5,2.1,5.9,4.7c0.8,4.3-4.1,7.2-8.1,9.1
		c-22.3,10.3-40.6,27.9-51.7,49.8c-2.5,5-4.4,11.4-0.8,15.6c2.9,3.4,8,3.5,12.5,3.2c10.7-0.6,21.3-1.9,31.8-3.7l3.2,21.1
		c-17.2,2-34.6,0.7-51.3-3.8c-6-1.7-12.2-3.9-16.7-8.2c-9.3-9-5.2-18.7,1.2-27.4C177.1,289.3,185.3,279.5,194.2,270.2z"></path><path class="st0" d="M238.9,249.2c-0.8,1.6-1.4,3.4-0.4,4.8c1.2,1.7,3.9,1.8,6.2,1.7s4.9-0.3,6.5,1.1c0.8,0.9,1.4,1.8,1.8,2.9
		c0.5,1.1,1.6,1.8,2.9,1.9c1.2-0.2,2.3-0.9,2.9-1.9c1-1.2,2.2-2.3,3.6-3.2c1.4-0.9,3.1-1.3,4.8-1.2c1.9,0.2,3.6,1.2,5.4,0.7
		c1.2-0.3,2.1-1.2,2.6-2.3c0.4-1,0.5-2.1,0.4-3.2c-0.1-3.5-1-6.9-2.8-9.9c-1.9-3.2-4.9-5.6-8.4-6.9c-9.3-3.3-16.5,3-21.4,9.3
		C241.4,244.9,240,247,238.9,249.2z"></path><path class="st1" d="M255.7,262.3c-1.5-0.1-2.7-0.9-3.4-2.2c-0.2-0.3-0.3-0.6-0.5-0.9c-0.3-0.7-0.7-1.3-1.2-1.8
		c-1.4-1.2-3.8-1-5.9-0.9c-3.5,0.2-5.8-0.4-6.8-2c-1.2-1.8-0.4-4.1,0.4-5.6l0,0c1.1-2.3,2.5-4.4,4.1-6.4c7.1-9.2,14.4-12.3,22.3-9.5
		c3.7,1.3,6.8,3.9,8.8,7.2c1.8,3.1,2.8,6.7,2.9,10.3c0.1,1.2,0,2.4-0.5,3.6c-0.5,1.3-1.7,2.4-3.1,2.7c-1.3,0.2-2.6,0.1-3.8-0.3
		c-0.6-0.2-1.3-0.3-1.9-0.4c-1.5-0.1-3,0.3-4.3,1.1c-1.3,0.8-2.4,1.8-3.4,3c-0.7,0.8-1.9,2.1-3.5,2.2H255.7z M247,254.9
		c1.7-0.1,3.3,0.3,4.7,1.4c0.7,0.6,1.2,1.4,1.5,2.2c0.1,0.3,0.3,0.6,0.4,0.8c0.4,0.8,1.2,1.4,2.2,1.5c0.9,0,1.6-0.8,2.4-1.7
		c1.1-1.3,2.3-2.4,3.7-3.3c1.6-1,3.4-1.5,5.2-1.3c0.7,0.1,1.4,0.2,2.1,0.4c1,0.4,2,0.5,3.1,0.3c0.9-0.3,1.7-1,2.1-1.9
		c0.3-0.9,0.4-1.9,0.4-2.9c-0.1-3.4-1-6.7-2.7-9.6c-1.8-3-4.7-5.4-8-6.6c-7.1-2.5-13.9,0.4-20.6,9.1c-1.5,1.9-2.8,4-3.9,6.2
		c-0.9,1.9-1.1,3.2-0.5,4.1c0.8,1.1,2.6,1.6,5.5,1.4C245.4,254.9,246.2,254.9,247,254.9z"></path><path class="st1" d="M255.4,258.1c-0.2,0-0.4-0.1-0.5-0.3c-1.8-4.9-3.6-11.5-2-17.9c0.2-1.2,0.8-2.3,1.5-3.3
		c0.9-1.1,2.3-1.7,3.7-1.7c1.5,0.1,2.9,1,3.6,2.4c0.6,1.2,0.8,2.5,0.6,3.9c-0.3,5-2,9.8-5,13.8c-0.2,0.2-0.5,0.3-0.7,0.1
		c-0.2-0.2-0.3-0.5-0.1-0.7c2.9-3.8,4.6-8.4,4.8-13.2c0.1-1.1-0.1-2.3-0.5-3.4c-0.5-1.1-1.6-1.7-2.8-1.8c-1.1,0-2.2,0.5-2.9,1.4
		c-0.7,0.9-1.1,1.8-1.3,2.9c-1.5,6.2,0.3,12.5,2,17.3c0.1,0.3,0,0.5-0.3,0.6C255.5,258.1,255.5,258.1,255.4,258.1L255.4,258.1z"></path><path class="st1" d="M279.8,336.4c-0.2,0-0.3-0.1-0.4-0.2c-7.6-9.8-19.6-15.2-32-14.4c-0.3,0-0.5-0.2-0.5-0.5c0,0,0,0,0,0
		c0-0.3,0.2-0.5,0.5-0.5c0,0,0,0,0,0c12.7-0.8,25,4.7,32.8,14.8c0.2,0.2,0.1,0.5-0.1,0.7C280,336.4,279.9,336.4,279.8,336.4z"></path><path class="st0" d="M320.1,247.5c-2-0.8-4.1-1.1-6.2-0.9c-2.2,0.3-4,1.8-4.7,3.8c-0.5,1.8,0.2,3.8,1.1,5.5
		c2.8,4.9,7.5,8.2,12.1,11.4c-3-1.5-6.6-0.2-8,2.7c-1.5,3-0.2,6.6,2.7,8c1,0.5,2.1,0.7,3.3,0.6c-4.2,3.5-7.7,8.4-7.6,13.8
		s5.3,10.8,10.5,9.5c3.3-0.8,5.5-3.7,7.2-6.6C340.8,278.1,342.5,255.6,320.1,247.5z"></path><path class="st1" d="M321.6,302.9c-1.9,0-3.7-0.7-5.2-1.9c-2.7-2-4.3-5.2-4.4-8.5c-0.1-5.8,3.6-10.4,6.5-13.2
		c-1.4-0.3-2.7-1.1-3.6-2.1c-2.5-2.4-2.6-6.5-0.2-9c0.6-0.6,1.3-1.1,2.1-1.4c0.8-0.4,1.7-0.6,2.5-0.7c-3.6-2.6-7.3-5.7-9.6-9.8
		c-1.3-2.3-1.7-4.3-1.2-6.1c0.8-2.3,2.8-4,5.3-4.4c2.3-0.3,4.5,0,6.6,0.9l0,0c8.4,3.1,14,8.3,16.6,15.5c3.4,9.4,1.2,21.6-5.8,33.4
		c-1.5,2.5-4,6-7.7,7C322.9,302.8,322.2,302.9,321.6,302.9z M320.3,277.9c0.4,0,0.8,0.3,0.8,0.7c0,0.2-0.1,0.4-0.3,0.6
		c-2.8,2.3-7.5,7.1-7.3,13.2c0.1,2.9,1.5,5.6,3.8,7.4c1.6,1.3,3.7,1.8,5.8,1.4c3.2-0.8,5.4-4,6.8-6.3c6.7-11.3,8.8-23.3,5.7-32.2
		c-2.4-6.8-7.7-11.7-15.7-14.6l0,0c-1.8-0.8-3.9-1.1-5.9-0.8c-1.9,0.3-3.4,1.5-4.1,3.3c-0.4,1.4,0,3,1,4.9
		c2.7,4.8,7.6,8.2,11.9,11.2c0.3,0.2,0.4,0.7,0.2,1c-0.2,0.3-0.6,0.5-1,0.3c-2.6-1.2-5.7-0.1-6.9,2.5s-0.1,5.7,2.5,6.9
		c0.8,0.4,1.7,0.5,2.6,0.5L320.3,277.9z"></path><path class="st1" d="M330,288.6h-0.1c-0.3-0.1-0.4-0.3-0.4-0.6c1.4-7.5-1.4-15.2-7.4-20c-0.2-0.2-0.3-0.5-0.1-0.7
		c0.2-0.2,0.5-0.3,0.7-0.1c6.2,5.1,9.2,13.1,7.7,21C330.4,288.5,330.2,288.6,330,288.6z"></path></g><g id="character-3"><path class="st0" d="M342.2,291.1l1.4,111.7c0.1,8,0.5,16.8,5.9,22.7c5.1,5.5,13.1,6.6,20.5,7.4c30.8,2.9,61.7,3.5,92.6,1.8
		c6-0.3,12.5-1,17.1-5c6-5.2,6.7-14.3,6.9-22.4c1.2-38.2,2.3-76.5,3.5-114.8c0.2-8.1,0.1-17.2-5.8-22.7c-5.1-4.8-12.8-5-19.8-4.9
		c-26.4,0.4-53.7,2.8-80-0.2C364.4,262.5,342.2,266.2,342.2,291.1z"></path><path class="st1" d="M428.4,436.4c-19.5,0-39.1-0.9-58.5-2.8c-7.7-0.7-15.7-1.9-20.9-7.6c-5.4-5.9-6-14.7-6.1-23.2l-1.4-111.7l0,0
		c0-8.7,2.6-15.4,7.9-20.1c9.1-8.1,24.2-8.2,35.3-7c19.1,2.2,39,1.5,58.3,0.8c7.1-0.2,14.4-0.5,21.6-0.6c7.4-0.1,15.1,0.2,20.3,5.1
		c6,5.6,6.2,15,6,23.3l-3.5,114.8c-0.3,8.3-1,17.5-7.2,22.9c-4.7,4.1-11.2,4.8-17.5,5.1C451.3,436.1,439.8,436.4,428.4,436.4z
		 M343,291.1l1.4,111.7c0.1,8.5,0.6,16.7,5.7,22.2c4.9,5.3,12.5,6.4,20,7.1c30.7,2.9,61.7,3.5,92.5,1.8c6-0.3,12.3-1,16.6-4.8
		c5.7-5,6.4-13.5,6.7-21.8l3.5-114.8c0.2-8,0-16.9-5.5-22.1c-4.8-4.5-12.2-4.8-19.3-4.7s-14.5,0.4-21.5,0.6
		c-19.3,0.7-39.3,1.4-58.5-0.8c-10.8-1.2-25.5-1.1-34.2,6.6C345.4,276.5,343,282.9,343,291.1z"></path><path class="st2" d="M348.9,394.2c-2.4,2-5.5,4.1-8.5,3.1s-4.1-4.6-4.9-7.7c-1.3-5.6-2.6-11.3-3.9-16.9c-1-4.3-2.4-9.1-6.3-11.2
		c-4.7-2.5-11,0.6-13.5,5.4s-2.2,10.5-1.6,15.8c1.5,12.3,4.6,24.3,9.2,35.8c2.6,6.4,6.8,13.4,13.6,14.2c5.2,0.6,10-2.8,14-6.2
		c14.7-12.8,26-28.9,33.1-47c1.3-3.3,3.3-9.6-0.8-11.9c-4.4-2.5-5.9,2.1-8.4,5.1C364.3,380.4,356.9,387.7,348.9,394.2z"></path><path class="st2" d="M458.4,255.1c-2.6-6.9-7.8-13-14.6-15.9s-15.2-2.3-21.1,2.1c-0.6,0.4-1,0.9-1.3,1.5c-0.5,1.4,0.7,3,2.1,3.4
		c1.5,0.3,3,0.3,4.5,0c11.7-1.1,22,7.5,23.1,19.2c0,0.1,0,0.2,0,0.3c0.2,2.2,0,4.4,0.3,6.6c0.2,2.2,1.2,4.3,3,5.8
		C463.8,285,459.8,258.6,458.4,255.1z"></path><path class="st2" d="M382.3,278.3c-4.6,7.2-4.8,16.3-0.6,23.7c1.5,2.6,4.2,5.1,7.1,4.5c1.8-0.4,3.2-1.7,4-3.4
		c0.7-1.7,1.2-3.4,1.3-5.2c0.8-5.7,1.2-11.4,1.5-17.1c0.1-1.6,0-3.2-0.4-4.8C392.8,268.7,384.9,274.3,382.3,278.3z"></path><path class="st1" d="M448.1,253.4c2.6-5.7,1.3-12.4-3.3-16.6c5.4-3.2,7.2-10.2,4-15.6c-1.9-3.3-5.4-5.4-9.2-5.6
		c-1.6-6.6-8.2-10.7-14.8-9.1c-3.1,0.7-5.8,2.6-7.5,5.3c-2-6.2-8.7-9.6-14.8-7.5c-5.6,1.8-9,7.5-7.9,13.4
		c-4.5-3.3-11.8-1.6-14.4,3.4s0.1,11.9,5.4,13.7c-5.7,1.6-9.1,7.5-7.5,13.2c1,3.5,3.7,6.3,7.2,7.4c-0.5,2.7,0.4,5.4,2.4,7.2
		c2,1.8,4.5,2.9,7.2,3.2c6.4,1.1,13-0.6,18.1-4.6c1.2,4.6,5.3,7.8,10.1,7.8c2.6-0.1,5-1.2,6.8-3c0.9-1,1.7-2.2,2.3-3.4
		c1.2-1.8,0.3-1.3,2.5-1.6C440.2,260.2,445.3,259.2,448.1,253.4z"></path><path class="st0" d="M421.3,253c9.5,1.2,19.2,6.4,23,15.2c2.6,6,2.2,13,0.9,19.4c-2.5,13.1-8,25.4-16.2,36
		c-4.1,5.4-10.1,10.6-16.8,9.6c-5.5-0.9-9.4-5.9-12.2-10.7c-9.3-15.8-14.3-35.3-12.6-53.7C389,252.5,407.9,251.3,421.3,253z"></path><path class="st1" d="M414,334.1c-0.6,0-1.3-0.1-1.9-0.1c-6.2-1-10.2-6.8-12.8-11c-9.7-16.5-14.3-36.3-12.7-54.2
		c0.3-4.5,2.5-8.8,6-11.6c7.8-6.3,21.3-5.7,28.7-4.8l0,0c8.6,1.1,19.3,5.8,23.6,15.7c2.2,5.2,2.6,11.5,1,19.9
		c-2.5,13.2-8.1,25.7-16.3,36.3C426,328.8,420.5,334.1,414,334.1z M412.6,253.2c-6.5,0-14,1.1-19,5.1c-3.2,2.6-5.2,6.5-5.4,10.6
		c-1.6,17.6,2.9,37,12.5,53.3c2.4,4,6.1,9.4,11.7,10.3c6.5,1,12.3-4.5,16-9.3c8.1-10.5,13.5-22.7,16-35.7c1.5-8,1.2-14-0.9-19
		c-4-9.3-14.2-13.8-22.4-14.8C418.3,253.4,415.5,253.2,412.6,253.2L412.6,253.2z"></path><path class="st1" d="M421,295.9c-0.2,0.4-0.5,0.7-0.8,1c-0.4,0.3-0.8,0.3-1.2,0.2c-0.5-0.3-0.8-0.7-0.9-1.2
		c-0.4-1.5-0.3-6.7,2.3-6.6S421.6,294.6,421,295.9z"></path><path class="st1" d="M405.2,294.2c0.1,0.8,0,1.9-0.8,2.2c-0.5,0.2-1,0.1-1.4-0.2c-0.4-0.3-0.7-0.6-1-1c-1-1.3-1.7-2.9-2.2-4.5
		c-0.5-2,1-3.8,2.8-2.3C404.1,290,405,292.1,405.2,294.2z"></path><path class="st0" d="M438.4,297c2.5-1.7,5.6-3.2,8.4-2.2c2.7,1.1,4.2,4,3.6,6.9c-0.7,2.8-2.8,5-5.6,5.7c-2.8,0.7-5.7,0.2-8.1-1.3"></path><path class="st1" d="M442.3,308.4c-2.1,0-4.3-0.6-6.1-1.7c-0.4-0.2-0.5-0.7-0.3-1s0.7-0.5,1-0.3l0,0c2.3,1.4,5,1.8,7.6,1.2
		c2.5-0.6,4.5-2.6,5.1-5.1c0.5-2.5-0.8-5-3.1-6c-2.1-0.7-4.6,0-7.7,2.1c-0.3,0.2-0.8,0.2-1-0.2c-0.2-0.3-0.2-0.8,0.2-1l0,0
		c3.5-2.4,6.5-3.2,9.1-2.3c3,1.3,4.7,4.5,4.1,7.7c-0.7,3.1-3.1,5.5-6.2,6.3C444.1,308.3,443.2,308.4,442.3,308.4z"></path><path class="st1" d="M411.9,315.6c-1-0.2-2,0-2.8,0.4c-0.8,0.6-1.1,1.6-0.9,2.6c0.3,0.9,0.8,1.8,1.6,2.3c2.2,1.7,5.1,2.1,7.6,0.9
		c2.1-1,5.6-5.4,3.6-7.9c-1-1.3-1.9-0.2-3,0.4C416.1,315.3,414,315.7,411.9,315.6z"></path><path class="st0" d="M438.7,254.8c-2.8,0-5.5-1.5-6.8-4c-0.5-1.2-0.9-2.4-1.1-3.7c-0.4-1.9-0.8-3.6-2.1-4.8c-2-1.7-4.9-0.9-7.8,0
		s-6,1.8-8.6,0.2c-1.3-1-2.3-2.3-3-3.8c-0.5-1-1.1-1.8-1.8-2.7c-2.3-2.5-6.2-2.7-8.7-0.4c-1,0.9-1.6,2.1-1.9,3.4
		c-0.1,0.5-0.1,1-0.2,1.5c0,1.3-0.4,2.6-1.2,3.7c-1.1,1-2.5,1.5-4,1.4h-0.2c-1.2,0-2.3,0.2-3.3,0.8c-0.5,0.4-0.8,1-0.8,1.6
		c0,0.4,0.1,0.7,0.4,0.9c0.2,0.1,0.3,0.4,0.2,0.7c-0.1,0.2-0.4,0.3-0.7,0.2c0,0-0.1,0-0.1-0.1c-0.6-0.4-0.9-1-0.9-1.7
		c0-1,0.4-1.9,1.2-2.4c1.2-0.7,2.5-1,3.8-1h0.2c1.2,0.1,2.4-0.3,3.3-1.1c0.6-0.9,0.9-2,0.9-3.1c0-0.5,0.1-1.1,0.2-1.6
		c0.7-3.9,4.5-6.5,8.4-5.7c1.5,0.3,2.9,1.1,3.9,2.2c0.7,0.9,1.4,1.8,1.9,2.9c0.6,1.3,1.5,2.5,2.7,3.4c2.2,1.4,4.9,0.6,7.8-0.3
		c3.1-0.9,6.3-1.9,8.8,0.2c1.6,1.3,2,3.4,2.5,5.3c0.2,1.2,0.5,2.3,1,3.4c1.7,3,5.4,4.3,8.5,2.9c0.2-0.1,0.5,0,0.7,0.2
		c0.1,0.2,0,0.5-0.2,0.7c0,0,0,0,0,0C440.8,254.6,439.7,254.8,438.7,254.8z"></path><path class="st2" d="M384.8,346.8c-5.7,3.6-10.6,8.9-11.9,15.2c-1.2,5.9,0.8,12,2.8,17.8l13.5,39.3c1.5,4.5,4.1,9.8,9.2,10.2
		c4.1,0.3,7.5-2.9,9.9-6c14.2-17.6,22.4-39.2,23.4-61.7c0.2-5.5-0.2-11.5-4-15.7C417.3,333.9,396.1,339.8,384.8,346.8z"></path><path class="st1" d="M376.3,379.4h3.4c-0.2-6.8-0.9-15.5,0.7-22.1c1.4-5.7,4.3-11.3,8.8-14.8c0.4-0.3,1-0.2,1.3,0.3
		c0.1,0.2,0.2,0.5,0.1,0.7c-3.3,11.9-8.2,32.8-4,35.2l15.6,3.2c4.2,1.6,4.9-15.7,7.7-24c1.6-4.8,5.3-12.6,8.9-16.2
		c3.9-3.9,5.9-2.4,4.7,3c-1.3,5.6-5.9,14.2-7.5,19.8c-1.8,6-3.1,12.2-4,18.4c1.8,2.7,5.1,3.5,8.1,4.5s6.2,2.9,6.6,6.1
		c0.2,1.9-0.6,3.8-1.5,5.5c-1.2,2.4-2.6,4.7-4,7c-0.4,0.7-0.7,1.3-0.9,1.8c-3.7,8.4-7.4,16.8-11.1,25.2c-0.9,2-1.8,4-3.5,5.3
		c-2.5,1.8-6.1,1.5-8.8,0s-4.6-4.1-6.2-6.7c-4.4-7-9.2-15.9-10.5-24.1l-6.3-24.7c-0.5-1.3,0.2-2.8,1.6-3.2
		C375.7,379.5,376,379.4,376.3,379.4z"></path><path class="st2" d="M442.1,318c-3.2,3.4-7.6,5.5-12.2,5.9c0.8,1.9-0.1,4-2,4.8c-0.1,0-0.2,0.1-0.3,0.1c-2.1,0.5-4.2-0.7-5-2.7
		c-0.6-2,0-4.2,1.7-5.5c1.2-1,3.3-1.3,4.2,0c6.5-0.1,12.1-4.5,13.7-10.7c0.5-2.4,4.1-8.7,5.1-3.2C447.9,310.3,444.4,315.5,442.1,318
		z"></path><path class="st2" d="M469.3,289c1.4,10.8-4.5,21.2-14.6,25.3c-5.5,2.1-12.3,1.9-16.8-1.9c-4.4-3.7-5.9-9.9-5.3-15.6
		s3.1-11,5.5-16.1c3.4-7.3,8.5-13,16.8-9.5C462.4,274.3,467.8,281,469.3,289z"></path><path class="st1" d="M446,311.8L446,311.8c-2.9-0.1-5-2.6-5.7-5.1c-0.5-2.6-0.4-5.2,0.5-7.7c1.2-4.6,3.1-9,5.6-13.1
		c1.5-2.5,3.7-5.5,6.9-7c2.9-1.4,7.2-1.2,9.4,1.8c0.2,0.2,0.1,0.5-0.1,0.7c-0.2,0.2-0.5,0.1-0.7-0.1c-1.8-2.5-5.6-2.7-8.2-1.5
		c-3,1.4-5,4.3-6.5,6.6c-2.4,4-4.3,8.3-5.5,12.8c-0.8,2.3-0.9,4.8-0.5,7.1c0.5,2,2,3.6,3.9,4.2c0.2-0.2,0.5-0.2,0.7-0.1l0.4,0.3
		c0.2,0.1,0.3,0.4,0.2,0.6C446.4,311.7,446.2,311.8,446,311.8z"></path><path class="st1" d="M423.6,247.7c2.6-0.1,5.4,0.8,6.9,2.9c1,1.5,1.3,3.4,2.7,4.5c2.1,1.6,5.1,0.2,7.8,0.4c2.5,0.4,4.6,1.9,5.7,4.1
		c1.1,2.2,1.5,4.7,1.4,7.1c-0.1,2.4-0.5,5,0.5,7.2c1,2.6,3.5,4.2,5.6,6s4,4.5,3.2,7.2s-3.9,4.1-4.5,6.8c-0.5,2.5,1.4,4.8,3,6.8
		s3.2,4.7,2,7c-0.8,1.5-2.5,2.1-3.9,3s-2.8,2.5-2.2,4c0.2,0.7,0.8,1.2,1.1,1.9c0.5,1.6-0.3,3.3-1.9,3.9c-0.1,0-0.3,0.1-0.4,0.1
		c-1.8,0.2-3.5-0.7-4.3-2.4c-0.7-1.6-0.7-3.5,0-5.1c0.9-2.1,2.6-4.2,2.2-6.5c-0.7-4.4-8.2-5-8.8-9.4c-0.4-3.4,3.7-5.8,3.9-9.1
		c0.1-2.3-1.7-4.4-3.9-5.4s-4.5-1.3-6.8-1.9s-4.6-1.8-5.6-3.9c-0.9-1.7-0.7-3.7-0.9-5.6s-0.8-4-2.6-4.9c-2.2-1-5,0.5-7.2-0.5
		c-1.6-0.8-2.3-2.6-3.1-4.2s-2.5-3.1-4.1-2.6c-2.4,0.8-1.9,4.5-3.7,6.3c-2.2,2.3-6.2,0-9.2,0.9s-4.3,4.2-4.9,7.2s-1.1,6.4-3.5,8.2
		c-2,1.5-4.9,1.9-6.1,4.1c-2.1,3.9,4.1,8.8,1.9,12.6c-1.3,2.4-5,2.6-6.3,5.1c-1.5,3.1,2.1,6.8,0.7,10c-0.8,1.6-2.5,2.6-4.3,2.5
		c-1.8-0.1-3.5-0.5-5.1-1.3c-1-0.4-1.9-1-2.6-1.7c-0.7-0.8-0.8-2-0.1-2.9c1-1,2.8-0.4,4-1.3s0.8-2.8,0-4.1s-1.9-2.5-1.8-4
		c0.1-2.8,3.9-3.7,5.5-6c1.8-2.6,0.4-6.2-1-9s-2.7-6.5-0.7-9c1.6-2,4.7-2.3,6.2-4.3s0.7-5.1,0.4-7.7c-0.4-3.7,0.8-8.1,4.3-9.6
		c3.6-1.6,8.3,0.7,11.6-1.4c2.7-1.8,3.4-5.8,6.3-7.2c2.4-1.1,5.2,0,7.5,1.3s4.6,2.6,7.2,2.2S420.7,247.8,423.6,247.7z"></path><path class="st2" d="M451.8,414.5c0.9,3.3-1.1,6.6-4.3,7.5c-0.7,0.2-1.5,0.2-2.2,0.2c-2.9-0.4-5.8-0.3-8.7,0.1
		c-7.4,1.2-14.7,5.9-16.2,13.8c-0.7,3.4,0.1,7,2.3,9.8c4.5,5.7,12.2,5.2,19,4.4l20.9-2.5c6.3-0.7,13.3-1.9,16.9-7.1
		c3.5-5,2.4-11.7,1.1-17.6c-3.8-16.4-8.6-32.7-17.3-47.1c-7.2-11.8-18.9-24.7-32.6-29.7c-2.9-1.1-6.1,0.4-7.2,3.3
		c-0.2,0.5-0.3,1-0.3,1.5c-0.9,9.5,9.4,18,13.8,26.1C443.4,388.9,448.4,401.5,451.8,414.5z"></path><path class="st0" d="M409.9,420.8c-5.8-2.6-12.5-2.9-18.5-0.8c-6,2.1-11.3,6-15.1,11c-1.9,2.1-3.1,4.7-3.6,7.5
		c-0.3,2.8,0.8,5.9,3.3,7.2s6.2-0.1,6.6-2.9c-3.9,3.1-6.9,7.3-8.7,11.9c-0.9,2.4-1.4,5.3,0.1,7.3c1.4,1.7,3.6,2.4,5.8,1.9
		c2.1-0.5,4-1.5,5.7-2.8c7.5-5.5,14.4-13.3,23.7-14.3c3-0.3,5.9,0.1,8.9-0.1C438.2,445,417.4,424.3,409.9,420.8z"></path><path class="st1" d="M378.5,464.8c-2,0.1-3.9-0.8-5.1-2.4c-1.4-1.9-1.4-4.7-0.2-8c1-2.7,2.5-5.3,4.3-7.5c-0.7-0.1-1.3-0.2-1.9-0.5
		c-2.6-1.3-4.1-4.6-3.7-8s2.4-6.1,3.8-7.9c4-5.2,9.3-9.1,15.5-11.2c6.2-2.2,13-1.9,19,0.8c5.8,2.7,18.4,14.4,17,21.8
		c-0.6,3.2-3.7,5.1-9.2,5.5c-1.4,0.1-2.9,0.1-4.2,0c-1.5-0.1-3.1,0-4.6,0.1c-6.8,0.7-12.4,5.4-17.8,9.8c-1.8,1.5-3.6,3-5.5,4.3
		c-1.7,1.4-3.8,2.5-6,3C379.4,464.7,379,464.8,378.5,464.8z M379.6,446.7c-2.1,2.4-3.8,5.2-5,8.3c-0.8,2-1.4,4.8,0,6.6
		c1.2,1.4,3.2,2,5,1.6c2-0.5,3.8-1.4,5.4-2.7c1.8-1.3,3.6-2.8,5.4-4.3c5.6-4.6,11.4-9.4,18.6-10.1c1.6-0.1,3.2-0.2,4.8-0.1
		c1.4,0.1,2.7,0.1,4.1,0c4.8-0.4,7.4-1.8,7.8-4.3c0.5-2.7-1.6-6.9-5.6-11.4c-3.8-4.2-8.2-7.6-10.6-8.7c-5.7-2.5-12.1-2.8-17.9-0.8
		c-5.9,2.1-11,5.8-14.8,10.7c-1.3,1.7-3.1,4.2-3.5,7.1c-0.3,2.2,0.5,5.2,2.9,6.4c0.8,0.4,1.7,0.5,2.5,0.3c1-1.1,2.1-2.2,3.3-3.1
		c0.3-0.3,0.8-0.2,1.1,0.1c0.1,0.2,0.2,0.4,0.2,0.6c-0.3,1.5-1.2,2.7-2.6,3.4C380.4,446.4,380,446.6,379.6,446.7L379.6,446.7z"></path><path class="st1" d="M375.1,379.9c-0.2,0-0.4-0.1-0.5-0.3c-1.1-3-1.8-6.2-2.1-9.4c0-0.3,0.2-0.5,0.4-0.5c0,0,0,0,0,0
		c0.3,0,0.5,0.2,0.5,0.5c0.3,3.1,1,6.2,2.1,9.1c0.1,0.3,0,0.5-0.3,0.6c0,0,0,0,0,0L375.1,379.9z"></path><path class="st0" d="M326.4,357.3c2.9-3.2,6.4-5.8,8.8-9.3c1.5-2.2,2.6-5.3,0.9-7.4s-4.9-1.9-7-0.3s-3.2,4-4.3,6.4
		c-0.3-2.9,0-5.9,0.8-8.7c0.8-2.8,1.3-5.7,1.6-8.6c0.3-2.9-0.4-5.9-2-8.4c-1.6-2.5-4.6-3.8-7.5-3.4c-2.9,0.6-5.1,3.8-4.1,6.5
		c-2.5-1.8-5.1-3.6-8.2-3.9s-6.5,1.5-7,4.5c-0.4,2.6,1.6,4.9,3.1,7.1c7,9.9,6.8,23.2,12.2,34.1c0.6,1.7,1.8,3,3.4,3.9
		c3.4,1.6,4.4-1.3,4.8-3.8C322.5,362.7,324,359.7,326.4,357.3z"></path><path class="st1" d="M318.8,371c-0.7,0-1.5-0.2-2.1-0.5c-1.7-1-3-2.5-3.7-4.3c-2.4-4.8-3.7-10.1-5-15.2c-1.6-6.5-3.3-13.2-7.1-18.7
		l-0.5-0.7c-1.4-2-3.1-4.3-2.7-6.9c0.5-3.5,4.4-5.5,7.8-5.2c2.6,0.4,5.1,1.5,7.1,3.1c0-0.9,0.3-1.8,0.8-2.6c0.9-1.6,2.4-2.7,4.2-3.1
		c3.3-0.5,6.5,0.9,8.3,3.7c1.6,2.6,2.4,5.8,2.1,8.9c-0.2,2.4-0.6,4.8-1.2,7.1c-0.1,0.5-0.2,1.1-0.4,1.6c-0.4,1.8-0.7,3.6-0.8,5.4
		c0.8-1.5,1.8-2.8,3.2-3.9c2.4-1.7,6.1-2,8,0.5s0.8,5.9-0.9,8.3c-1.6,2.2-3.5,4.2-5.5,6c-1.1,1.1-2.3,2.2-3.4,3.4l0,0
		c-2.3,2.3-3.8,5.2-4.4,8.4c-0.4,2.4-1.1,3.9-2.3,4.5C319.8,370.9,319.3,371,318.8,371z M304.6,320.9c-2.5,0-5.2,1.5-5.5,3.9
		c-0.3,2,1.1,4,2.4,5.8l0.5,0.8c4,5.7,5.7,12.6,7.4,19.2c1.2,5.1,2.5,10.3,4.9,14.9c0.6,1.5,1.6,2.8,3,3.6c0.7,0.4,1.5,0.5,2.2,0.2
		c0.8-0.4,1.3-1.6,1.6-3.4c0.6-3.5,2.3-6.6,4.7-9.2l0,0c1.1-1.2,2.3-2.4,3.4-3.5c1.9-1.7,3.7-3.7,5.3-5.8c1.3-1.9,2.3-4.7,0.9-6.5
		s-4.2-1.5-6-0.2c-2,1.5-3.1,3.9-4,6.1c-0.2,0.4-0.6,0.6-1,0.4c-0.2-0.1-0.4-0.3-0.4-0.6c-0.3-3,0-6,0.8-8.9
		c0.1-0.5,0.2-1.1,0.4-1.6c0.6-2.3,1-4.6,1.2-6.9c0.3-2.8-0.4-5.5-1.8-7.9c-1.5-2.3-4.1-3.5-6.8-3.1c-1.3,0.3-2.5,1.2-3.2,2.4
		c-0.6,1-0.7,2.1-0.4,3.2c0.1,0.4-0.1,0.8-0.5,1c-0.2,0.1-0.5,0-0.7-0.1c-2.3-1.6-4.9-3.5-7.8-3.8
		C305,320.9,304.8,320.9,304.6,320.9L304.6,320.9z M326.4,357.2L326.4,357.2z"></path><path class="st1" d="M309.1,345.4c-0.1,0-0.2,0-0.3-0.1c-0.2-0.2-0.2-0.5,0-0.7c3.7-4.1,8.6-6.7,14-7.6c0.3,0,0.5,0.1,0.6,0.4
		c0,0.3-0.1,0.5-0.4,0.6c-5.2,0.8-9.9,3.4-13.5,7.3C309.4,345.4,309.2,345.4,309.1,345.4z"></path><path class="st1" d="M317.4,340.4c-0.3,0-0.5-0.2-0.5-0.5c-0.1-5.2-1.4-10.4-3.7-15.1c-0.1-0.2,0-0.5,0.2-0.7
		c0.2-0.1,0.5,0,0.7,0.2c2.4,4.8,3.6,10.1,3.8,15.5C317.9,340.1,317.7,340.3,317.4,340.4L317.4,340.4z"></path></g><g id="chat"><path class="st0" d="M151.2,115.9c-1.2,3.3-2.3,7.7,0.1,9.9c2.4,2.2,5.8,0.1,8.2-2l15.9-13.8c13.4,3,27.5,0.5,39-7
		c7.1-4.5,13.7-11.4,15.7-20.5c2.6-11.4-2.6-23.6-10-31.7c-16.3-18-44-19.9-62-4.1c-7.1,6.2-12.9,15.4-13.3,25.8
		c-0.4,11.3,5.9,18.5,14,22.7C157.1,102.2,153.8,109.1,151.2,115.9z"></path><path class="st1" d="M153.6,127.5c-1.1,0-2.1-0.4-2.9-1.1c-2.1-2-2.3-5.7-0.3-10.7l0,0c0.8-2,1.6-4,2.4-5.9
		c2.1-4.6,3.8-9.4,5.2-14.2c-6.7-3.6-14.4-10.5-13.9-23.1c0.4-9.5,5.3-19.1,13.6-26.3c18.2-16,46.5-14.1,63.1,4.2
		c6.8,7.5,13,19.9,10.2,32.4c-2.4,10.3-10,17.1-16.1,21c-11.6,7.5-25.7,10.1-39.2,7.2L160,124.3
		C157.3,126.7,155.2,127.5,153.6,127.5z M151.9,116.2c-1,2.5-2.3,7.1-0.1,9.1c2,1.8,5-0.1,7.2-2.1l15.9-13.8
		c0.2-0.2,0.4-0.2,0.7-0.2c13.2,2.9,27,0.4,38.4-6.9c5.8-3.7,13.2-10.2,15.4-20c2.7-11.9-3.3-23.9-9.8-31.1c-16-17.7-43.3-19.5-61-4
		c-7.9,6.9-12.7,16.1-13,25.2c-0.5,12.2,7.1,18.7,13.6,22c0.3,0.2,0.5,0.5,0.4,0.8c-1.4,5.1-3.2,10.1-5.3,15
		C153.4,112.2,152.6,114.2,151.9,116.2L151.9,116.2z"></path><g id="X_and_"><path class="st0" d="M174.5,59c2.1-0.5,4-1.9,6-2.8s4.5-1.4,6.3-0.1c2.7,1.9,2.1,6.2,0,8.7c-2.1,2.5-5.2,4-7.5,6.3
			c-4.2,4.3-5,10.7-5.7,16.6c2.4,0.6,4.9,0.5,7.2-0.2c-0.3-5.6,1.9-11,5.9-14.8c3-2.8,6.9-4.5,10.2-7c4.2-3.1,7.7-8.1,6.6-13.2
			s-6.5-8.2-11.6-8.5c-4.9-0.2-9.7,0.9-14.1,3.2C174.3,49.3,175,55.2,174.5,59z"></path><path class="st1" d="M176.9,88.8c-1.2,0-2.3-0.1-3.5-0.4c-0.4-0.1-0.6-0.4-0.6-0.8c0.6-5.2,1.4-12.4,5.9-17.1
			c1.1-1.1,2.3-2,3.5-2.9c1.4-1,2.7-2.1,3.9-3.4c1.2-1.4,1.8-3.3,1.6-5.2c-0.1-1-0.6-1.9-1.4-2.5c-1.9-1.3-4.5-0.3-5.6,0.2
			c-0.6,0.3-1.3,0.7-1.9,1c-1.3,0.8-2.7,1.4-4.2,1.8c-0.4,0.1-0.8-0.1-0.9-0.5c0-0.1,0-0.2,0-0.3c0.1-0.8,0.1-1.7,0.2-2.6
			c0.2-3.5,0.4-7.9,3.6-9.8c4.5-2.3,9.5-3.5,14.5-3.3c5.2,0.3,11.1,3.5,12.3,9.1s-2.8,10.9-6.9,14c-1.4,1-2.8,1.9-4.2,2.7
			c-2.1,1.2-4.1,2.6-6,4.2c-3.9,3.7-6,8.9-5.7,14.2c0,0.3-0.2,0.7-0.5,0.8C179.7,88.6,178.3,88.8,176.9,88.8z M174.5,87.1
			c1.9,0.4,3.8,0.3,5.6-0.2c-0.1-5.6,2.1-11,6.2-14.8c1.9-1.7,4-3.1,6.2-4.4c1.4-0.8,2.8-1.7,4.1-2.6c3.8-2.8,7.4-7.5,6.3-12.5
			s-6.3-7.6-10.9-7.9c-4.8-0.2-9.5,0.9-13.7,3.1c-2.5,1.5-2.7,5.2-2.9,8.5c0,0.5-0.1,1.1-0.1,1.6c1-0.4,1.9-0.9,2.8-1.4
			c0.6-0.4,1.3-0.7,2-1.1c2.7-1.3,5.3-1.3,7.1-0.1c1.2,0.8,1.9,2.1,2.1,3.5c0.2,2.3-0.5,4.6-1.9,6.3c-1.2,1.4-2.6,2.6-4.1,3.6
			c-1.2,0.8-2.3,1.7-3.3,2.8C176.2,75.4,175.1,81.1,174.5,87.1L174.5,87.1z"></path><path class="st0" d="M173.6,92c-0.9,0.5-1.6,1.4-1.9,2.3c-0.2,0.9,0,1.9,0.4,2.7c0.7,1.5,2,2.6,3.6,3c2.8,0.7,6.6-1.8,5.6-5
			c-0.4-1.3-1.8-2.2-2.9-2.9C176.7,91,175.6,90.8,173.6,92z"></path><path class="st1" d="M176.8,100.9c-0.4,0-0.8,0-1.2-0.1c-1.8-0.5-3.3-1.7-4.1-3.4c-0.5-1-0.7-2.1-0.4-3.2c0.3-1.2,1.1-2.2,2.2-2.8
			c2.3-1.4,3.7-1,5.6,0.2l0.2,0.2c1.1,0.7,2.5,1.7,3,3.1c0.5,1.5,0.1,3.1-1,4.2C180,100.3,178.4,100.9,176.8,100.9z M176,92
			c-0.7,0-1.4,0.3-1.9,0.7l0,0c-1.4,0.7-2,2.4-1.3,3.8c0,0.1,0.1,0.2,0.1,0.2c0.6,1.3,1.7,2.2,3.1,2.6c1.5,0.3,3-0.2,4-1.3
			c0.7-0.7,1-1.8,0.7-2.7c-0.3-1-1.4-1.7-2.4-2.3l-0.2-0.1C177.5,92.4,176.8,92.1,176,92z M173.7,92.1L173.7,92.1z"></path></g><g id="X_and_2"><path class="st1" d="M195.2,74.8c1.3,0.1,2.6,0,3.9-0.2c1.3-0.2,2.6,0.3,3.5,1.3c1.1,1.6-0.2,3.8-1.9,4.7s-3.7,1-5.4,1.8
			c-3.2,1.4-5,4.7-6.7,7.8c1.2,0.8,2.6,1.3,4,1.5c1-3.1,3.4-5.6,6.4-6.8c2.3-0.9,4.7-1,7.1-1.6c3-0.8,6-2.8,6.5-5.8
			s-1.8-5.8-4.5-7.1c-2.6-1.2-5.5-1.6-8.4-1.3C197.2,69.4,196.3,72.8,195.2,74.8z"></path><path class="st1" d="M187.6,92.6c-0.6,0.1-1.1,0.4-1.5,0.9c-0.3,0.5-0.4,1-0.4,1.6c0.1,1,0.5,1.8,1.3,2.4c1.4,1,4,0.5,4.1-1.5
			c-0.1-0.8-0.4-1.6-1-2.2C189.7,92.7,188.7,92.3,187.6,92.6z"></path></g></g><g id="chat-2"><path class="st0" d="M199.5,324.6c1.6-4.3,3-10.1-0.2-13s-7.6-0.1-10.8,2.7l-20.8,18c-17.5-3.9-35.9-0.6-50.9,9.1
		c-9.3,5.9-17.9,14.9-20.6,26.8c-3.4,15,3.4,30.9,13.1,41.5c21.4,23.6,57.6,26,81.1,5.4c9.3-8.1,16.9-20.1,17.4-33.7
		c0.6-14.7-7.7-24.2-18.3-29.7C191.7,342.6,196.1,333.5,199.5,324.6z"></path><path class="st1" d="M152.9,429.9c-16.8,0-32.9-7.1-44.2-19.6c-8.8-9.7-16.9-25.9-13.2-42.2c3.1-13.5,13-22.3,20.9-27.3
		c15.1-9.8,33.5-13.1,51.2-9.3l20.5-17.7c6.2-5.4,9.9-4.4,11.8-2.7c2.7,2.5,2.9,7.3,0.4,13.8l0,0c-1,2.6-2.1,5.2-3.1,7.8
		c-2.7,6.1-4.9,12.4-6.7,18.8c8.8,4.7,18.9,13.6,18.2,30.1c-0.5,12.4-6.9,24.8-17.6,34.2C180.3,424.9,166.9,429.9,152.9,429.9z
		 M153.3,331.5c-12.8,0-25.3,3.7-36.1,10.6c-7.6,4.9-17.3,13.4-20.2,26.4c-3.6,15.7,4.3,31.4,12.9,40.8c21,23.2,56.9,25.6,80,5.3
		c10.4-9.1,16.6-21.2,17.1-33.1c0.6-16-9.4-24.6-17.9-29c-0.3-0.2-0.5-0.5-0.4-0.9c1.6-6.6,4.3-13.2,6.9-19.5c1-2.5,2.1-5.2,3.1-7.7
		l0,0c1.6-4.1,2.9-9.5,0-12.1c-2.7-2.5-6.8,0.1-9.8,2.7l-20.8,18c-0.2,0.2-0.4,0.2-0.7,0.2C162.9,332,158.1,331.5,153.3,331.5
		L153.3,331.5z"></path></g><g id="chat-3"><path class="st0" d="M378.8,191.1c1.2,3.3,2.3,7.7-0.1,9.9s-5.8,0-8.2-2.1l-15.9-13.8c-13.4,3-27.5,0.5-39-7
		c-7.1-4.5-13.7-11.4-15.7-20.5c-2.6-11.4,2.6-23.6,10-31.7c16.3-18,44-19.8,62-4.1c7.1,6.2,12.9,15.4,13.3,25.8
		c0.5,11.3-5.9,18.5-14,22.7C372.9,177.4,376.2,184.3,378.8,191.1z"></path><path class="st1" d="M376.4,202.7c-1.6,0-3.7-0.8-6.4-3.2L354.4,186c-13.5,2.9-27.6,0.3-39.2-7.2c-6-3.9-13.7-10.6-16-21
		c-2.8-12.5,3.4-24.9,10.2-32.4c16.5-18.2,44.8-20.1,63.1-4.2c8.2,7.2,13.2,16.8,13.5,26.3c0.5,12.6-7.1,19.5-13.9,23.1
		c1.4,4.8,3.1,9.6,5.1,14.2c0.8,2,1.6,4,2.4,5.9c1.9,5.1,1.8,8.8-0.3,10.7C378.4,202.2,377.4,202.7,376.4,202.7z M354.6,184.4
		c0.2,0,0.4,0.1,0.5,0.2l15.9,13.8c2.2,1.9,5.3,3.9,7.2,2.1c2.2-2,0.9-6.6-0.1-9.1l0,0c-0.8-2-1.6-4-2.4-5.9
		c-2.1-4.9-3.9-9.9-5.3-15c-0.1-0.3,0.1-0.7,0.4-0.9c6.5-3.3,14.1-9.9,13.6-22c-0.4-9.1-5.1-18.3-13-25.2c-17.6-15.4-45-13.6-61,4
		c-6.5,7.2-12.5,19.1-9.8,31.1c2.2,9.9,9.6,16.3,15.4,20c11.4,7.3,25.2,9.8,38.4,6.9L354.6,184.4z"></path><path class="st1" d="M335.8,163.6c0.1-0.2,0.3-0.4,0.5-0.3s0.2,0.2,0.3,0.4c0.4,1.3,0.8,2.7,1.1,4.1c1.4,0,2.8,0.1,4.2,0.4
		c0.3,0.1,0.6,0.2,0.6,0.5c0,0.2-0.1,0.4-0.2,0.5c-0.5,0.6-1.1,1.1-1.9,1.5c-0.5,0.2-1.1,0.5-1.2,1.1c0,0.3,0,0.6,0.1,0.8l0.6,1.7
		c0.1,0.3,0.2,0.7,0.2,1c0,0.3-0.1,0.6-0.4,0.8c-0.5,0.2-1.1,0.1-1.5-0.3c-0.8-0.6-1.5-1.3-2.1-2.1c-0.7,0.9-1.5,1.7-2.4,2.3
		c-0.2,0.2-0.5,0.3-0.9,0.3c-0.4-0.1-0.4-0.7-0.4-1.1c0.1-1.1,0.3-2.1,0.6-3.2c-1.3-0.6-2.4-1.4-3.5-2.3c-0.3-0.2-0.6-0.6-0.4-0.9
		s0.5-0.4,0.8-0.4l2.5-0.4c0.5-0.1,1.2,0,1.6-0.5s0.4-1.3,0.6-1.9C335,165,335.4,164.3,335.8,163.6z"></path><path class="st1" d="M318.6,152.9c0.1-0.2,0.3-0.4,0.5-0.3c0.1,0.1,0.2,0.2,0.3,0.4c0.4,1.3,0.8,2.7,1.1,4.1c1.4,0,2.8,0.1,4.2,0.4
		c0.3,0.1,0.6,0.2,0.6,0.5c0,0.2-0.1,0.4-0.2,0.5c-0.5,0.6-1.2,1.1-1.9,1.5c-0.5,0.2-1.1,0.5-1.2,1.1c0,0.3,0,0.6,0.1,0.8l0.6,1.8
		c0.1,0.3,0.2,0.6,0.2,0.9c0,0.3-0.1,0.7-0.4,0.9c-0.5,0.3-1,0-1.5-0.3c-0.8-0.6-1.5-1.3-2.1-2.1c-0.7,0.9-1.5,1.7-2.4,2.3
		c-0.2,0.2-0.6,0.3-0.9,0.3c-0.4-0.1-0.4-0.7-0.4-1.1c0.1-1.1,0.3-2.1,0.6-3.2c-1.3-0.6-2.4-1.4-3.5-2.3c-0.3-0.2-0.6-0.6-0.4-0.9
		s0.5-0.4,0.8-0.4l2.5-0.4c0.5-0.1,1.2,0,1.6-0.5s0.4-1.3,0.6-1.9C317.9,154.3,318.2,153.6,318.6,152.9z"></path><path class="st1" d="M325.2,133.6c0.1-0.2,0.3-0.4,0.5-0.3s0.2,0.2,0.3,0.4c0.4,1.3,0.8,2.7,1.1,4.1c1.4,0,2.8,0.1,4.2,0.4
		c0.3,0.1,0.6,0.2,0.6,0.5c0,0.2-0.1,0.4-0.2,0.5c-0.5,0.6-1.1,1.1-1.9,1.5c-0.5,0.2-1.1,0.5-1.2,1c0,0.3,0,0.6,0.1,0.8l0.6,1.8
		c0.1,0.3,0.2,0.6,0.2,0.9c0,0.3-0.1,0.7-0.4,0.9c-0.5,0.3-1,0-1.5-0.3c-0.8-0.6-1.5-1.3-2.1-2.1c-0.7,0.9-1.5,1.7-2.4,2.3
		c-0.2,0.2-0.6,0.4-0.9,0.3s-0.4-0.7-0.4-1.1c0.1-1.1,0.3-2.1,0.6-3.2c-1.3-0.6-2.4-1.4-3.5-2.3c-0.3-0.2-0.6-0.6-0.4-0.9
		s0.5-0.3,0.8-0.4l2.5-0.3c0.5-0.1,1.2,0,1.6-0.5s0.4-1.3,0.6-1.9C324.5,135,324.8,134.3,325.2,133.6z"></path><path class="st0" d="M351.3,121.4c0.3-0.4,0.8-0.9,1.3-0.7c0.3,0.1,0.5,0.5,0.6,0.9c0.9,3.2,1.6,6.5,2.2,9.8
		c3.3,0.1,6.6,0.6,9.8,1.5c0.6,0.2,1.4,0.5,1.5,1.2c0,0.5-0.2,0.9-0.6,1.2c-1.3,1.4-2.9,2.6-4.6,3.3c-1.2,0.5-2.7,1-3,2.3
		c-0.1,0.7-0.1,1.4,0.2,2c0.4,1.4,0.8,2.8,1.2,4.2c0.2,0.7,0.4,1.5,0.4,2.3c0,0.8-0.4,1.6-1.1,2c-1.1,0.6-2.5-0.1-3.5-0.8
		c-1.9-1.5-3.4-3.3-4.6-5.3c-1.8,2-3.7,3.7-5.9,5.2c-0.6,0.5-1.3,0.7-2.1,0.6c-0.9-0.4-0.9-1.7-0.8-2.6c0.4-2.5,1.1-5,1.9-7.4
		c-2.9-1.6-5.6-3.6-7.9-5.9c-0.6-0.6-1.2-1.5-0.9-2.2s1.1-0.8,1.9-0.8l6.1-0.5c1.2-0.1,3,0.1,3.8-0.9s1.1-3.1,1.6-4.3
		C349.4,124.6,350.3,123,351.3,121.4z"></path><path class="st1" d="M358.1,152.3c-1.1-0.1-2.2-0.5-3-1.2c-1.7-1.3-3.1-2.9-4.3-4.7c-1.6,1.7-3.4,3.3-5.4,4.6
		c-0.8,0.7-1.8,0.9-2.8,0.6c-1.1-0.5-1.5-1.7-1.2-3.4c0.4-2.4,1-4.7,1.8-6.9c-2.8-1.6-5.3-3.5-7.5-5.7c-1.4-1.4-1.3-2.5-1-3.1
		c0.5-0.8,1.5-1.3,2.4-1.2l6.1-0.5h0.8c1,0,2.1-0.1,2.5-0.6c0.5-0.7,0.9-1.6,1-2.5c0.1-0.6,0.3-1.1,0.5-1.7c0.6-1.4,1.3-2.7,2.1-4
		l0.5-0.8l0,0c0.9-1.3,1.8-1.1,2.1-1c0.5,0.3,0.9,0.8,1,1.4c0.8,3,1.5,6.1,2.1,9.2c3.2,0.1,6.3,0.7,9.4,1.6c1.2,0.4,1.9,1,2,1.8
		c0,0.7-0.3,1.3-0.8,1.8c-1.4,1.5-3,2.7-4.9,3.5l-0.3,0.1c-1,0.4-2.1,0.9-2.3,1.7c-0.1,0.5,0,1.1,0.2,1.6l1.2,4.2
		c0.3,0.8,0.4,1.7,0.4,2.5c0,1-0.6,2-1.4,2.5C359,152.2,358.6,152.3,358.1,152.3z M351,144.4L351,144.4c0.3,0,0.5,0.2,0.6,0.4
		c1.1,2,2.7,3.7,4.4,5.1c0.5,0.4,1.8,1.3,2.6,0.8c0.4-0.3,0.7-0.8,0.7-1.3c0-0.7-0.1-1.4-0.4-2l-1.2-4.2c-0.3-0.8-0.3-1.6-0.2-2.3
		c0.4-1.5,1.9-2.2,3.1-2.7l0.3-0.1c1.7-0.7,3.2-1.8,4.4-3.1c0.3-0.4,0.4-0.5,0.4-0.6s-0.3-0.3-0.9-0.5c-3.1-0.9-6.4-1.4-9.6-1.5
		c-0.4,0-0.7-0.3-0.7-0.6c-0.6-3.3-1.3-6.5-2.1-9.7c0-0.1-0.1-0.2-0.1-0.4c-0.1,0.1-0.3,0.2-0.4,0.4l-0.5,0.8
		c-0.8,1.2-1.5,2.5-2,3.8c-0.2,0.5-0.3,1-0.4,1.4c-0.2,1.1-0.6,2.2-1.3,3.1c-0.9,1-2.4,1.1-3.6,1.1h-0.7l-6.1,0.5
		c-0.5,0-1.1,0.1-1.2,0.4s0.1,0.8,0.7,1.4c2.3,2.3,4.9,4.2,7.8,5.8c0.3,0.2,0.5,0.6,0.4,0.9c-0.8,2.4-1.5,4.8-1.9,7.3
		c-0.1,0.8-0.1,1.6,0.3,1.8c0.3,0.1,0.7,0,1.4-0.5c2.1-1.5,4.1-3.2,5.8-5.1C350.5,144.5,350.8,144.4,351,144.4L351,144.4z"></path></g><g id="lamp"><path class="st0" d="M171,378.4c-2.7,2.6-6.3,4-9.1,6.5c-2.1,1.9-3.7,4.5-6.3,5.6c-2.1,0.8-4.3,0.8-6.4,0.1
		c-2.1-0.7-4.1-1.6-5.9-2.8c-2.9-1.7-6-3.5-7.6-6.4s-1.5-6.5-1.1-9.8c0.6-4.6,1.6-9.2,3.1-13.7c1.1-3.2,2.4-6.4,5-8.7
		c2.7-2.2,6.1-3.5,9.6-3.5c6.9-0.4,13.3,2.3,18.6,6.5c4.5,3.6,5.5,10.6,4.8,16.1C175.4,372.2,173.7,375.7,171,378.4z"></path><path class="st1" d="M152.3,391.9c-1.2,0-2.3-0.2-3.4-0.5c-2.1-0.7-4.2-1.7-6.1-2.9c-2.7-1.5-6.1-3.5-7.9-6.7s-1.6-7-1.2-10.3
		c0.6-4.7,1.6-9.3,3.2-13.8c1-3.1,2.5-6.5,5.2-9c3.1-2.8,7.2-3.6,10.1-3.7c6.6-0.4,13.2,1.9,19.1,6.7c4.8,3.8,5.8,11.1,5.1,16.7
		c-0.4,4-2.2,7.7-5,10.5c-1.5,1.3-3.1,2.5-4.8,3.5c-1.5,0.9-2.9,1.9-4.3,3c-0.6,0.6-1.3,1.3-1.9,1.9c-1.3,1.6-2.9,2.9-4.7,3.8
		C154.7,391.7,153.5,391.9,152.3,391.9z M153.7,346.5c-0.5,0-0.9,0-1.4,0c-2.6,0.2-6.4,0.9-9.2,3.4c-2.5,2.2-3.8,5.5-4.8,8.3
		c-1.5,4.4-2.5,8.9-3.1,13.5c-0.4,3.1-0.6,6.6,1,9.4s4.7,4.7,7.3,6.1c1.8,1.1,3.7,2,5.8,2.7c1.9,0.6,4,0.6,5.9-0.1
		c1.6-0.9,3-2,4.2-3.5c0.6-0.7,1.3-1.4,2-2c1.4-1.2,2.9-2.3,4.5-3.2c1.6-0.9,3.1-2,4.5-3.3l0,0c2.6-2.6,4.2-6,4.5-9.6
		c0.6-5.2-0.3-12-4.5-15.4C166.7,350,160.9,346.5,153.7,346.5z"></path><path class="st1" d="M144.7,407.8c-1.5,1.6-3.1,3.3-5.2,3.9c-2.6,0.7-5.3-0.3-7.7-1.4c-2.5-1-4.7-2.5-6.7-4.3
		c-2-1.8-3.3-4.2-3.6-6.9c-0.1-2.5,0.5-4.9,1.6-7.1c1.2-3,2.7-5.9,4.3-8.7c0.6-1.3,1.6-2.4,2.8-3.2c1.8-0.9,4-0.3,5.9,0.4
		c6.5,2.4,12.6,5.6,18.2,9.7c3.8,2.8,1.1,5.1-1.1,7.8C150.4,401.4,147.6,404.6,144.7,407.8z"></path><path class="st1" d="M151.3,395.7c-1.7-0.1-3.4-0.7-4.9-1.6l-6.6-3.5l-3.4-1.8c-1.8-0.8-3.3-2-4.4-3.5c-0.8-1.4-1.3-3-1.4-4.7
		c-0.6-4.9-1.3-10-0.6-15c1.5-9.9,7.9-18.4,17.1-22.6c3.9-1.8,8.2-2.5,12.5-2.2c6.8,0.7,13.1,4.3,17,9.9c3.9,5.6,5.3,12.6,3.9,19.3
		c-1.4,6.6-5.3,12.5-10.9,16.4h-0.1c-2.9,1.8-5.7,3.3-9.1,5c-0.9,0.5-1.8,1-2.8,1.6c-1.3,0.9-2.7,1.6-4.2,2.3
		C152.8,395.5,152.1,395.7,151.3,395.7z M157.6,342.6c-3.3,0-6.7,0.8-9.7,2.1c-8.5,3.9-14.5,11.8-15.9,21c-0.7,4.8,0,9.7,0.6,14.5
		c0.1,1.3,0.4,2.7,1,3.9c1,1.2,2.3,2.2,3.7,2.8l3.4,1.8l6.6,3.5c2.2,1.2,3.6,1.8,5.4,1.1c1.4-0.6,2.7-1.3,3.9-2.1
		c1-0.6,1.9-1.2,3-1.7c3.4-1.7,6.2-3.2,8.9-4.9c5.1-3.6,8.7-9,10-15.1c1.2-6.1,0-12.5-3.6-17.7c-3.6-5.2-9.3-8.5-15.6-9.1
		C158.9,342.6,158.2,342.6,157.6,342.6z M169.1,385.5L169.1,385.5z"></path><path class="st1" d="M145.9,391.4c-0.5,0-1-0.4-1-1c-0.1-4.2,1.6-8.2,4.7-11c-0.7-0.4-1.3-0.9-1.9-1.5c-2.4,4.2-5.4,7.9-9.8,9.4
		c-0.5,0.2-1.1,0-1.3-0.5c-0.2-0.5,0-1.1,0.5-1.3c0,0,0.1,0,0.1,0c4.1-1.4,6.8-5.2,9-9c-0.5-0.6-0.9-1.2-1.2-1.8
		c-0.6-1-0.9-2.1-0.9-3.2c0.1-1.4,1.1-2.6,2.4-2.9c0.8-0.1,1.6,0.1,2.2,0.6c0.8,0.6,1.3,1.5,1.4,2.5c0,1.4-0.4,2.8-1.2,4
		c-0.1,0.2-0.2,0.3-0.3,0.5c0.8,0.8,1.6,1.5,2.6,2c1.2-0.9,2.6-1.5,4-1.9c0.9-0.3,1.8-0.4,2.7-0.2c1.5,0.3,2.4,1.6,2.2,3.1
		c-0.2,0.9-0.8,1.7-1.7,2c-0.9,0.4-1.8,0.5-2.7,0.4c-1.5-0.1-3-0.5-4.4-1.1c-3,2.4-4.6,6.1-4.5,9.9
		C146.9,390.9,146.5,391.3,145.9,391.4C146,391.3,146,391.3,145.9,391.4L145.9,391.4z M153.5,379c0.8,0.3,1.6,0.4,2.5,0.5
		c0.6,0.1,1.2,0,1.7-0.2c0.4-0.1,0.6-0.4,0.6-0.8c-0.1-0.4-0.4-0.6-0.7-0.6c-0.6-0.1-1.2,0-1.7,0.1C155,378.3,154.2,378.6,153.5,379
		z M147,370.4h-0.1c-0.5,0.2-0.8,0.6-0.8,1.1c0,0.7,0.2,1.4,0.6,2c0.2,0.3,0.4,0.6,0.5,0.9c0.5-0.8,0.8-1.7,0.8-2.7
		c0-0.4-0.3-0.8-0.6-1.1C147.4,370.5,147.2,370.4,147,370.4z"></path><path class="st0" d="M152.1,393.3c-8.1,0-15.8-3.6-21.1-9.7c-0.2-0.2-0.1-0.5,0.1-0.7c0.2-0.2,0.5-0.2,0.7,0c0,0,0,0,0,0
		c5.2,6,12.8,9.4,20.7,9.4c0.4,0,0.9,0,1.1-0.3c0-0.1,0-0.1,0-0.2c0-0.1,0-0.1-0.1-0.2c-0.2,0.1-0.5-0.1-0.6-0.3c0,0,0,0,0,0
		c-0.1-0.3,0.1-0.5,0.4-0.6c0.4-0.1,0.9,0.1,1.1,0.4c0.3,0.4,0.3,1.1,0,1.5c-0.5,0.5-1.2,0.8-1.9,0.7L152.1,393.3z"></path><path class="st1" d="M152.1,394c-8.3,0-16.2-3.7-21.7-10c-0.2-0.2-0.3-0.6-0.3-0.9c0-0.3,0.2-0.6,0.4-0.9c0.3-0.2,0.6-0.3,0.9-0.3
		c0.3,0,0.6,0.2,0.9,0.4c5,5.8,12.2,9.1,19.9,9.1l0,0c-0.2-0.7,0.2-1.4,0.9-1.6c0,0,0,0,0,0c0.7-0.2,1.5,0.1,1.9,0.7
		c0.5,0.7,0.5,1.7-0.1,2.4c-0.6,0.7-1.5,1.1-2.5,1L152.1,394z"></path><path class="st0" d="M150.6,398.7c-5.1,0-10.1-1.5-14.3-4.4c-0.2-0.1-0.3-0.5-0.1-0.7c0,0,0,0,0,0c0.2-0.2,0.5-0.3,0.7-0.1
		c4.3,2.9,9.4,4.4,14.6,4.2c0.3,0,0.5,0.2,0.5,0.5c0,0.3-0.2,0.5-0.5,0.5c0,0,0,0,0,0L150.6,398.7z"></path><path class="st0" d="M145.1,403c0,0-0.1,0-0.1,0l-4.5-1.3c-0.3-0.1-0.4-0.4-0.4-0.6c0.1-0.3,0.4-0.4,0.6-0.4l4.5,1.3
		c0.3,0.1,0.4,0.4,0.3,0.6C145.5,402.8,145.3,403,145.1,403z"></path><path class="st0" d="M140.9,406.9c-4.9,0-9.5-2.1-12.8-5.8c-0.2-0.2-0.2-0.5,0-0.7c0,0,0,0,0,0c0.2-0.2,0.5-0.2,0.7,0c0,0,0,0,0,0
		c3.5,3.9,8.6,5.9,13.9,5.3c0.3,0,0.5,0.2,0.6,0.4s-0.2,0.5-0.4,0.6C142.2,406.9,141.6,406.9,140.9,406.9z"></path></g></svg>