<svg transform="scale(1)" version="1.1" id="Layer_1" xmlns="http://www.w3.org/2000/svg" xmlns:xlink="http://www.w3.org/1999/xlink" x="0px" y="0px" viewBox="0 0 500 500" xml:space="preserve" class="show_show__wrapper__graphic__5Waiy "><title>React</title><style type="text/css">
	.st0{fill:#FFFFFF;}
	.st1{fill:#111111;}
	.st2{fill:#128FFF;}
</style><g id="character"><path class="st0" d="M63,453.9c-1.1,7.3,1.4,15.3,8.2,19.2c4.1,2.4,9.1,2.7,13.6,0.9c4.5-2,7.2-6.4,9.2-10.5
		c3.7-7.4,6.5-15.2,8.4-23.3c0.6-2.7,1.1-5.6,0-8.2c-1.6-3.4-5.8-5.2-10-6c-4-0.8-8.1-0.7-11.9,0.4C70.3,429.7,64.3,445.3,63,453.9z
		"></path><path class="st1" d="M79.1,476c-2.9,0-5.7-0.8-8.3-2.2c-6.4-3.7-9.8-11.5-8.5-20l0,0c0.9-5.6,2.8-11,5.5-16
		c2.4-4.5,6.6-10.1,12.5-12c4-1.1,8.2-1.3,12.3-0.5c3.1,0.6,8.5,2.1,10.5,6.4c1.3,2.8,0.7,5.9,0.1,8.6c-1.9,8.1-4.7,16-8.5,23.5
		c-2.1,4.2-4.8,8.7-9.6,10.9C83.2,475.6,81.2,476,79.1,476z M63.8,454L63.8,454c-1.2,7.8,1.9,15.1,7.8,18.5
		c3.9,2.3,8.7,2.6,12.9,0.9c4.3-2,6.9-6.2,8.9-10.2c3.7-7.4,6.5-15.1,8.3-23.1c0.6-2.5,1.1-5.3,0-7.7c-1.7-3.6-6.6-5-9.4-5.6
		c-3.8-0.8-7.8-0.7-11.6,0.4C71.3,430.2,65.2,444.7,63.8,454z"></path><path class="st0" d="M405.6,313.1c16.3,3.2,35.6,0.2,44.9-13.5c7.8-11.7,5.7-28.1-2.5-39.6s-21.3-18.4-34.7-22.6
		c-5-1.5-10.2-2.7-15.4-2.3c-9.9,0.8-19.2,7.3-29.1,5.8c-11.1-1.7-18.3-13.7-18.5-25s5-21.8,10.4-31.8c4-7.4,9.1-15.4,17.3-17
		c10.3-2.1,19.2,6.8,26,14.8c2.7-13.4,11.2-24.9,23.2-31.4c5-2.7,11.3-4.4,16.4-1.8c4.2,2.2,6.6,6.9,6.8,11.6s-1.5,9.3-3.8,13.4
		c-3.5,6.1-8.4,11.3-12.1,17.3s-6.1,13.4-3.8,20.1c2.5,7.3,9.7,11.6,16.2,15.7c11.1,6.9,21.7,14.8,29.7,25
		c8,10.2,13.2,23.2,12.2,36.2c-1.6,20.2-18.2,37-37.2,44s-40.1,5.7-60.1,2.3c-10.1-1.7-20.5-4.1-29.1-9.8
		c-6.8-4.4-24.8-26.5-7.1-26.4C372.2,298.3,389.3,309.9,405.6,313.1z"></path><path class="st1" d="M420.4,337.7c-9.7-0.1-19.3-1-28.8-2.7c-10-1.7-20.5-4.1-29.4-9.9c-4.7-3.1-16.9-16.5-14.7-23.7
		c0.8-2.7,3.5-4.1,8.1-4.1c9.9,0.1,19.9,4.1,29.6,8.1c6.8,2.8,13.9,5.6,20.6,7l0,0c14.4,2.8,34.5,1.1,44.1-13.2
		c7.2-10.7,6.1-26.6-2.5-38.7c-7.2-10-18.7-17.5-34.3-22.3c-4.5-1.4-9.7-2.7-15.1-2.3c-4.1,0.3-8.1,1.7-12.1,3
		c-5.5,1.8-11.3,3.7-17.2,2.8c-11.8-1.8-19-14.5-19.1-25.7c-0.1-11.5,5.1-22.1,10.5-32.1c4.4-8.1,9.5-15.8,17.8-17.4
		c10.1-2,19,6.1,25.7,13.9c3.1-13,11.5-24.1,23.2-30.4c3.8-2,11-4.9,17.1-1.8c4.1,2.1,7,6.9,7.2,12.3c0.2,4.3-1.1,9-3.9,13.8
		c-2,3.3-4.1,6.4-6.5,9.4c-1.9,2.6-3.9,5.2-5.6,7.9c-2.5,4.1-6.3,12-3.8,19.4c2.4,6.8,9,11,15.5,15l0.5,0.3
		c13.8,8.6,23,16.4,29.9,25.2c8.9,11.4,13.3,24.5,12.3,36.7c-1.7,21.8-20.1,38.1-37.6,44.5C441.6,336.5,430.6,337.7,420.4,337.7z
		 M355.4,298.9c-3.7,0-5.8,1-6.4,3c-1.8,5.9,9.2,18.8,14.1,22c8.6,5.6,18.9,7.9,28.8,9.6c15.6,2.7,38.8,5.4,59.7-2.2
		c17.1-6.2,35-22,36.7-43.2c0.9-11.9-3.4-24.5-12-35.7c-6.8-8.7-15.9-16.4-29.5-24.9l-0.5-0.3c-6.4-4-13.6-8.4-16.1-15.8
		c-2.8-8,1.3-16.4,3.9-20.7c1.7-2.8,3.8-5.5,5.7-8.1c2.3-2.9,4.5-6,6.4-9.2c2.6-4.6,3.9-9,3.7-13c-0.2-4.8-2.8-9.1-6.4-11
		c-5.5-2.8-12.2-0.1-15.7,1.8c-11.8,6.4-20.2,17.7-22.8,30.9c-0.1,0.3-0.3,0.5-0.5,0.6c-0.3,0.1-0.6,0-0.8-0.2
		c-6.6-7.8-15.4-16.5-25.3-14.6c-7.7,1.6-12.6,8.9-16.8,16.7c-5.3,9.8-10.4,20.3-10.3,31.4c0.1,10.6,6.8,22.5,17.9,24.2
		c5.5,0.9,10.8-0.9,16.5-2.7c4-1.3,8.2-2.7,12.4-3c5.6-0.4,11.1,0.9,15.6,2.4c16,4.9,27.8,12.6,35.1,22.9c9,12.6,10.1,29.2,2.5,40.4
		c-10,14.9-30.8,16.8-45.6,13.9l0,0c-6.9-1.4-14-4.2-20.9-7c-9.6-3.9-19.5-7.9-29.1-8L355.4,298.9z"></path><path class="st0" d="M44,316.8c-10.9,6.9-21.4,15.2-27.7,26.4s-7.7,26-0.6,36.7c4.1,6.2,10.6,10.5,15.5,16.1
		c7.7,8.9,11.3,20.5,17,30.8c10.1,18.1,28.4,32.1,49,34.2s42.7-9.5,50.1-28.8c9.8,2.6,20.6-3.6,24.9-12.7s2.9-20.3-1.8-29.2
		s-12.5-15.9-20.9-21.6c-12.3-8.5-26.7-14.8-41.6-15.2c-6.9-0.2-13.7,0.9-20.6,0.6s-14.1-1.9-19-6.7s-6.8-13.2-2.6-18.6
		c3.3-4.4,9.2-5.7,14.6-6.7l83.2-16c19.5-3.8,52.6-4.1,66.2-21.2c5.9-7.4,3.1-15-6.2-17.4c-10.4-2.7-25.6,2.2-36,3.8
		c-23.6,3.6-47.2,7.8-70.3,14.1C91.4,292.6,66.4,302.4,44,316.8z"></path><path class="st1" d="M102.2,462.1c-1.7,0-3.3-0.1-5-0.3c-19.7-2-38.7-15.3-49.5-34.6c-2-3.5-3.7-7.3-5.4-10.9
		c-3.2-6.9-6.5-14-11.5-19.8c-2-2.2-4.1-4.3-6.4-6.3c-3.3-3-6.6-6.1-9.2-9.9c-6.8-10.2-6.5-24.9,0.5-37.5
		c6.9-12.3,18.5-20.7,27.9-26.7l0,0c20.6-13.2,44.6-23.4,73.3-31.3c24.6-6.8,49.4-10.9,70.4-14.1c2.7-0.4,5.7-1,8.9-1.7
		c9.1-1.9,19.5-4.1,27.4-2.1c4.9,1.3,8.2,3.9,9.4,7.5s0.2,7.4-2.8,11.1c-10.9,13.7-34.1,16.8-52.7,19.3c-5,0.7-9.8,1.3-14,2.1
		l-83.2,16c-5.7,1.1-11.1,2.4-14.1,6.4c-4.2,5.4-1.9,13.4,2.5,17.7c4.1,4,10.6,6.2,18.5,6.5c3.4,0.1,7-0.1,10.4-0.3
		s6.8-0.4,10.2-0.3c13.7,0.4,27.8,5.5,42,15.3c10,6.9,16.9,14,21.1,21.9c5.3,9.9,6,21.1,1.8,29.8c-4.6,9.7-15.5,15.4-25.1,13.2
		C140.9,450.3,121.9,462.1,102.2,462.1z M44,316.8l0.4,0.6c-9.3,5.9-20.7,14.2-27.4,26.2s-7,26.2-0.6,35.9c2.4,3.6,5.7,6.7,8.9,9.6
		c2.3,2,4.4,4.2,6.5,6.4c5.2,5.9,8.5,13.1,11.8,20.1c1.7,3.6,3.4,7.3,5.4,10.8c10.6,18.9,29.1,31.9,48.4,33.9
		c21.1,2.2,42.3-10,49.3-28.3c0.1-0.4,0.5-0.6,0.9-0.5c9,2.4,19.6-3,24-12.3c3.9-8.3,3.3-19-1.8-28.5c-4.1-7.6-10.8-14.6-20.6-21.4
		c-14-9.6-27.8-14.7-41.2-15c-3.4-0.1-6.8,0.1-10.1,0.3s-7,0.4-10.5,0.3c-8.5-0.3-15-2.6-19.5-6.9c-4.9-4.7-7.3-13.6-2.7-19.6
		c3.4-4.4,9.1-5.8,15-7l83.2-16c4.2-0.8,9-1.5,14.1-2.1c18.4-2.5,41.2-5.5,51.7-18.8c2.6-3.3,3.5-6.7,2.6-9.7s-4-5.4-8.4-6.5
		c-7.5-1.9-17.7,0.2-26.7,2.1c-3.2,0.7-6.3,1.3-9,1.7c-21,3.2-45.7,7.4-70.2,14.1c-28.6,7.9-52.4,18-72.9,31.1L44,316.8z"></path><path class="st1" d="M31.3,398.3c-5.9,1.3-12.2-2.1-15.2-7.4s-2.9-11.8-1-17.6s5.7-10.6,9.8-15.1c5-5.3,47.3-33.9,40.7-9.7
		c-2.1,7.9-15.3,13.4-20.7,19.7C37.7,376.8,33,387.2,31.3,398.3z"></path><path class="st1" d="M89.1,365.4c-9.3,4.5-20,5.1-29.7,1.7c-9.7-3.5-17.3-11.3-20.6-21.1c-1.7-5.3-1.6-11.8,2.5-15.5
		c7.5-6.6,32.3-9.2,39.6-1.7C88.7,336.8,103.1,358.7,89.1,365.4z"></path><path class="st2" d="M86.9,360.4c-7.4,3.6-15.9,4.1-23.7,1.4c-7.8-2.8-13.8-9-16.5-16.8c-1.3-4.2-1.3-9.4,2-12.4
		c6-5.3,25.8-7.3,31.6-1.3C86.6,337.6,98.1,355.1,86.9,360.4z"></path><path class="st1" d="M136.9,447.5L136.9,447.5c-28.2-1.4-54.3-21.5-63.6-49c-0.1-0.3,0.1-0.5,0.3-0.6c0.3-0.1,0.5,0,0.6,0.3
		c0,0,0,0,0,0c9.2,27,35,46.9,62.7,48.3c0.3,0,0.5,0.3,0.5,0.5C137.4,447.3,137.2,447.5,136.9,447.5
		C136.9,447.6,136.9,447.6,136.9,447.5z"></path><path class="st1" d="M146.8,432.6L146.8,432.6c-0.3,0-0.5-0.2-0.5-0.5c0.1-20.9-11.9-46.4-25.1-53.4c-0.2-0.1-0.3-0.4-0.2-0.7
		c0,0,0,0,0,0c0.1-0.2,0.4-0.3,0.7-0.2c0,0,0,0,0,0c13.5,7.1,25.7,33,25.6,54.3C147.2,432.4,147,432.6,146.8,432.6z"></path><path class="st1" d="M70.1,350.6c-0.1,0-0.2,0-0.3-0.1l-17.7-12.4c-0.2-0.2-0.3-0.5-0.1-0.7s0.5-0.3,0.7-0.1l16.9,11.8l-0.2-13.2
		c0-0.3,0.2-0.5,0.5-0.5c0.3,0,0.5,0.2,0.5,0.5l0.2,14.1c0,0.2-0.1,0.4-0.3,0.4C70.2,350.6,70.2,350.6,70.1,350.6z"></path><path class="st2" d="M256.8,280.8c2.3-4.1,4.4-8.6,3-14c-0.4-1.7-1.2-3.2-2.3-4.5c-4-4.8-9-4.3-13.5-3.8l-84.9,11.1
		c-2,0.3-4.1,0.6-5,2.3s0.1,4.1,1.1,6.2c9.1,18.6,19.5,36.5,31.4,53.5c1.6,2.4,4.9,3,6.7,1.3c8.4-8.2,32.3-25.3,35.6-26.9
		C241.8,299.3,249.4,293.9,256.8,280.8z"></path><path class="st0" d="M239.4,212.5c2.3,8.2,5.1,16.5,10.8,23.5s14.7,12.6,24.1,12.6c11.5,0,20.3-8,26.5-16.1
		c11.4-14.9,18.8-32.1,26.1-49.1l31.9-74.3c3.8-9,7.7-18.8,4.1-28.3c-2.7-7.3-9.5-13.2-17-17.1s-16-6.1-24.4-8.1
		c-12.5-3-25.1-5.8-37.8-6.1s-25.6,2.1-35.2,8.8c-7.8,5.3-13.9,14.4-13.3,23.7c0.2,3.8,1.6,6.8,1.2,10.6c-0.5,5.5-2.4,11-3.3,16.4
		c-3.5,21.9-3.9,44.1-1.2,66.1C233.4,187.7,236,200.2,239.4,212.5z"></path><path class="st1" d="M274.3,249.3c-8.8,0-18.3-4.9-24.7-12.8c-5.7-7.1-8.6-15.6-10.9-23.8l0,0c-3.5-12.3-6-24.9-7.6-37.6
		c-2.7-22.1-2.3-44.4,1.2-66.4c0.4-2.3,0.9-4.7,1.5-7c0.8-3.1,1.4-6.2,1.8-9.4c0.1-2-0.1-4.1-0.6-6.1c-0.3-1.5-0.5-2.9-0.6-4.4
		c-0.5-8.7,4.8-18.2,13.6-24.3c11.3-7.8,25.6-9.1,35.6-8.9c12.8,0.3,25.8,3.2,38,6.2c9,2.2,17.1,4.3,24.6,8.2
		c8.7,4.5,14.9,10.7,17.4,17.5c3.5,9.5,0,19.1-4.2,28.9l-31.9,74.3c-7.2,16.8-14.7,34.2-26.2,49.2
		C293,243.9,284.2,249.3,274.3,249.3L274.3,249.3z M240.1,212.3c2.6,9.2,5.4,16.7,10.7,23.2c6.1,7.6,15.1,12.3,23.5,12.3l0,0
		c9.3,0,17.8-5.2,25.9-15.8c11.4-14.9,18.8-32.2,26-48.9l31.9-74.3c4.1-9.5,7.5-18.8,4.1-27.8c-2.4-6.5-8.3-12.4-16.7-16.7
		c-7.3-3.8-15.3-5.9-24.2-8c-12.1-2.9-25-5.8-37.6-6.1c-9.8-0.2-23.8,1.1-34.7,8.6c-8.4,5.8-13.5,14.8-13,23
		c0.1,1.4,0.3,2.8,0.6,4.2c0.5,2.1,0.7,4.3,0.6,6.5c-0.4,3.2-1,6.4-1.8,9.6c-0.5,2.3-1.1,4.6-1.5,6.9c-3.5,21.8-3.9,44-1.2,65.9
		C234.2,187.6,236.7,200.1,240.1,212.3L240.1,212.3z"></path><path class="st1" d="M241.5,99.4c-1.7,6.4-3,13.1-2,19.6s4.4,13,10.1,16.3c-25,2.4-47.3-15.9-49.7-40.9c-0.1-1.3-0.2-2.6-0.2-4
		c-0.1-10.5,3.8-21.4,12.1-27.8s21-7.4,29-0.7c1.3-30.5,27.1-54.3,57.6-53c7.4,0.3,14.7,2.1,21.4,5.3c14,6.6,24.5,18.7,34.5,30.6
		c11.5,13.8,23.4,28.9,24.7,46.8c1.2,17.1-8.2,34.1-22.4,43.5s-32.7,11.6-49.3,7.3c11.5-4.4,18.7-17.6,16.7-29.7
		s-12.4-22.2-24.6-24.3c-12.8-2.1-24,4.2-32,13.7c-3.5-5.2-3.7-11.9-9.9-14.8C248.5,83.3,243.6,91.8,241.5,99.4z"></path><path class="st0" d="M245.6,148.8c-3.3-6.7-11.4-9.4-18-6.1c-4.4,2.2-7.3,6.7-7.5,11.6c-0.2,5.6,3.3,10.9,7.7,14.3
		s9.8,5.4,15.1,7.3"></path><path class="st1" d="M242.9,176.8c-0.1,0-0.2,0-0.3,0c-5.3-1.9-10.7-3.9-15.3-7.4c-5.2-4-8.1-9.6-8-14.9c0.2-7.8,6.8-14,14.6-13.8
		c5.3,0.1,10,3.2,12.3,7.9c0.2,0.4,0.1,0.8-0.2,1c-0.4,0.2-0.8,0.1-1-0.2c0,0,0-0.1-0.1-0.1c-3.1-6.3-10.7-8.9-17-5.7
		c-4.2,2.1-6.9,6.3-7.1,11c-0.1,4.9,2.6,10,7.4,13.7c4.4,3.4,9.7,5.3,14.9,7.2c0.4,0.1,0.6,0.6,0.4,1
		C243.5,176.6,243.2,176.8,242.9,176.8L242.9,176.8z"></path><path class="st1" d="M255.3,150.9c0.4,2,1.6,4.2,3.6,4.4c1.2,0.1,2.5-0.5,3.2-1.5c0.7-1,1.2-2.1,1.5-3.4c0.7-2.9,1.2-11-3.1-11.7
		C255.3,138.1,254.6,147.8,255.3,150.9z"></path><path class="st1" d="M289.8,154.8c-0.6,2.4-0.4,5.6,1.9,6.7c1.5,0.6,3.2,0.3,4.5-0.8c1.2-1.1,2.1-2.4,2.8-3.8
		c1.2-2,1.7-4.3,1.6-6.6C299.1,140.3,290.9,150.5,289.8,154.8z"></path><path class="st1" d="M271.3,208.2c-2.1,0-4.6,0.2-5.6,2s-0.1,3.8,1.1,5.3c4.1,5.4,11,7.9,17.7,6.4c3.8-1,7.1-3.2,9.5-6.3
		c1.8-2.4,5.2-8.6,2.8-11.5c-2.3-2.7-7,0.4-9.5,1.3C282.1,207.1,276.7,208.1,271.3,208.2z"></path><path class="st0" d="M329.9,147.4c5.7-4.8,14.2-4.1,19,1.6c3.2,3.8,4.1,9.1,2.2,13.7c-2.1,5.2-7.3,8.7-12.7,10.1
		s-11.2,1.1-16.8,0.7"></path><path class="st1" d="M329.1,174.5c-2.5,0-5-0.1-7.5-0.3c-0.4,0-0.7-0.4-0.7-0.8c0-0.4,0.4-0.7,0.8-0.7c0,0,0,0,0,0
		c5.5,0.3,11.2,0.7,16.5-0.7c5.9-1.5,10.4-5.1,12.2-9.6c2.6-6.5-0.6-13.9-7.1-16.5c-4.4-1.7-9.3-0.9-12.9,2.1
		c-0.3,0.3-0.8,0.2-1.1-0.1c-0.3-0.3-0.2-0.8,0.1-1.1c6-5.1,14.9-4.3,20,1.6c3.4,4,4.3,9.6,2.4,14.5c-2,5-6.9,8.9-13.2,10.5
		C335.5,174.2,332.3,174.6,329.1,174.5z"></path><path class="st2" d="M305.9,282.9c-5-7.6-10.1-15.3-17.3-21.2s-16.4-9.8-25.2-8.5c-13.6,2-20.5,15-25.4,26.5l-55.3,130.1
		c-5,11.8-9.8,26-2.5,39.4c6.7,12.2,20.5,18.4,33.2,23.5c18.3,7.3,37.5,14.9,57.1,17.5c20.3,2.7,41.2-0.8,53.4-14
		c14.8-16.2,13.3-42.3,10.3-66.4c-4.6-36.4-11.6-72.5-20.9-108"></path><path class="st0" d="M266.7,158c4.1,31.7-11.6,65.5-38.4,83.1c-25.7,16.8-60.3,17.2-84.3,1.2c-16-10.6-27.1-27.8-32.4-46.5
		c-5.7-20.1-4.7-43.6,6.7-62.1c9-14.7,23.8-25.2,39.6-31.9c13.9-5.7,28.5-9.6,43.4-11.5c11.1-1.5,21.5,4.6,30.4,10.7
		C250.8,114.2,263.6,134.9,266.7,158z"></path><path class="st0" d="M273.2,146.3c-13-34.8-44.4-61.5-80.9-64.2c-35-2.6-72,19.6-84.7,52.7c-8,21-6.4,44.7,1,65
		c4.7,12.8,11.5,24.5,19.3,35.4c3.7,5.2,9.6,10.3,12.5,15.9c3.4,6.5,1.4,8.9-1.2,16.2c-10.2,28.2-20.2,55.7-29.8,82.4
		c-2.1,5.8-4.2,12-3.1,18.3s6.8,12.8,13,12.3c6.8-0.5,9.9-8.2,11.7-14.8c9.2-34,18.8-69.1,28.6-105.2c21.7,6.5,46.4,5.9,68.3-3.6
		c22.6-9.9,41.6-29.7,48.6-53.7C282,184.1,279.9,164.1,273.2,146.3z M217.7,235.9c-26.3,14-60,9.6-80.4-9.6
		c-20.1-18.9-27-51.5-16.5-78.5c10.1-26,42.3-54,71.4-48.6c30.2,5.6,58.9,25.9,64.6,58.2C262.1,187.9,245.1,221.3,217.7,235.9
		L217.7,235.9z"></path><path class="st1" d="M118.8,381c-6.4,0-12-6.7-13.1-12.9c-1.2-6.7,1.2-13.4,3.2-18.7l9.7-26.8c6.6-18.2,13.3-36.8,20.2-55.7
		c0.4-1,0.7-2,1.1-2.9c2-5.1,2.9-7.5,0.1-12.7c-1.7-3.3-4.6-6.5-7.3-9.6c-1.8-2-3.6-4.1-5.2-6.2c-8.8-12.2-15.1-23.8-19.4-35.5
		c-8.2-22.5-8.6-45.8-1.1-65.5c12.6-33,49.3-55.9,85.4-53.2c17.8,1.3,34.9,8.3,49.6,20.3c14.4,11.7,25.4,27,31.9,44.4l0,0
		c5.1,13.7,9.9,34.7,3.4,57.1c-6.8,23.5-25.1,43.7-49,54.1c-20.7,9-45.4,10.4-68.1,3.9l-28.4,104.5c-1.7,6.4-4.9,14.8-12.4,15.4
		H118.8z M186.6,82.6c-33.6,0-66.5,21.8-78.2,52.4c-7.4,19.4-7,42.3,1.1,64.4c4.2,11.6,10.5,23.1,19.2,35.2c1.6,2.1,3.3,4.2,5.1,6.1
		c2.8,3.1,5.7,6.4,7.5,9.9c3,5.8,1.9,8.7-0.1,14c-0.3,0.9-0.7,1.8-1.1,2.8c-6.9,18.9-13.6,37.5-20.2,55.7l-9.7,26.8
		c-2,5.4-4.2,11.6-3.1,17.9c1,5.9,6.3,12.1,12.2,11.7c6.6-0.5,9.4-8.4,11-14.3L159,260c0-0.2,0.2-0.4,0.4-0.5
		c0.2-0.1,0.4-0.1,0.6-0.1c22.5,6.7,47.2,5.4,67.8-3.6c23.1-10.1,41.6-30.5,48.2-53.2c6.4-22,1.7-42.7-3.4-56.2
		c-6.4-17.1-17.2-32.3-31.4-43.8c-14.5-11.7-31.4-18.6-48.8-19.9C190.4,82.6,188.5,82.6,186.6,82.6z M184.3,244.8
		c-17.6,0-35-6.2-47.5-18c-20.5-19.2-27.3-51.8-16.6-79.3s43.8-54.3,72.2-49c26.2,4.8,58.9,23.2,65.2,58.8
		c5.3,30.4-11.6,64.4-39.4,79.2l0,0C207.7,242,196.1,244.9,184.3,244.8L184.3,244.8z M185,99.3c-25.9,0-53.8,24.1-63.4,48.8
		c-10.5,26.9-3.8,58.9,16.3,77.7c20.4,19.2,53.9,23.1,79.6,9.5c27.3-14.5,43.9-47.9,38.7-77.7c-6.1-34.9-38.3-52.8-64-57.6
		C189.8,99.5,187.4,99.3,185,99.3z"></path><path class="st1" d="M114.9,373.5c-0.1,0-0.3-0.1-0.3-0.1c-0.2-0.2-0.2-0.5,0-0.7c0,0,0,0,0,0c1.9-1.9,2.9-4.8,3.7-7.3L155,254.1
		c0-0.1,0.1-0.2,0.2-0.3c0.1,0,0.3,0,0.4,0c30.8,11.4,69.4,1,92-24.8c24.2-27.7,28.4-69.7,10-99.7c-0.1-0.2-0.1-0.5,0.2-0.7
		c0,0,0,0,0,0c0.2-0.1,0.5-0.1,0.7,0.2c0,0,0,0,0,0c9,14.7,12.9,33,11,51.5c-1.8,18.2-9.1,35.5-21.1,49.4
		c-16.6,19-41.8,29.8-66.3,29.8c-8.9,0-17.8-1.5-26.2-4.5l-36.6,110.7c-0.9,2.6-1.9,5.6-4,7.7C115.2,373.4,115,373.5,114.9,373.5z"></path><path class="st2" d="M295.4,260.8c-4.8,0-10.3,0.8-12.9,4.7c-2.5,3.7-1.4,8.7,0.2,12.8c5.9,15.6,16.8,29,29.7,39.5
		s27.8,18.4,43,25.1c1.4,0.6,18.4-33.8,20-37.3c1.5-3.2,8.4-13.4,6.9-17c-1.3-3-7.8-4.3-10.6-5.7
		C347.3,269.9,323.8,260.5,295.4,260.8z"></path><path class="st1" d="M392.2,200.3c-0.1,0-0.1,0-0.2,0c-12.1-5.4-25.8-6.1-38.4-1.8c-0.3,0.1-0.5,0-0.6-0.3c0,0,0,0,0,0
		c-0.1-0.3,0.1-0.5,0.3-0.6c12.8-4.3,26.8-3.7,39.2,1.9c0.3,0.1,0.4,0.4,0.2,0.7C392.6,200.2,392.4,200.3,392.2,200.3z"></path><path class="st1" d="M155.5,180c-4.1,16-2.6,36.7,12.3,43.9c9.3,4.5,20.9,1.5,29.1-4.9s13.4-15.7,18-25
		c6.6-13.4,12.2-28.1,10.2-42.9C216.1,85,162.8,151.6,155.5,180z"></path><path class="st0" d="M133.6,184.9c-0.3,0-0.5-0.2-0.5-0.5c-0.8-13.8-1.1-26.2,2.3-38c4-13.7,13.5-24.3,24.6-27.7
		c0.3-0.1,0.6,0.1,0.6,0.3c0.1,0.3-0.1,0.6-0.3,0.7c-10.8,3.3-20,13.6-23.9,27c-3.4,11.6-3.1,23.9-2.3,37.6
		C134.1,184.7,133.9,184.9,133.6,184.9C133.6,184.9,133.6,184.9,133.6,184.9L133.6,184.9z"></path><path class="st1" d="M133.6,185.6c-0.7,0-1.2-0.5-1.2-1.2c-0.8-13.9-1.1-26.3,2.4-38.2c4.1-13.9,13.7-24.7,25.1-28.2
		c0.3-0.1,0.7-0.1,0.9,0.1c0.6,0.3,0.8,1.1,0.5,1.7c-0.2,0.3-0.4,0.5-0.7,0.6c-10.6,3.2-19.6,13.4-23.4,26.5
		c-3.4,11.5-3,23.8-2.3,37.4C134.9,185,134.4,185.6,133.6,185.6L133.6,185.6z M133.9,184.4L133.9,184.4z"></path><path class="st0" d="M139.2,211.7c-0.1,0-0.3-0.1-0.4-0.2c-12.3-13.5-17.5-32.1-14-50c0.1-0.3,0.3-0.4,0.6-0.4c0,0,0,0,0,0
		c0.3,0.1,0.4,0.3,0.4,0.6c-3.4,17.6,1.7,35.8,13.8,49.1c0.2,0.2,0.2,0.5,0,0.7c0,0,0,0,0,0C139.4,211.7,139.3,211.7,139.2,211.7z"></path><path class="st1" d="M139.2,212.5c-0.3,0-0.7-0.1-0.9-0.4c-12.4-13.7-17.7-32.5-14.2-50.6c0.1-0.7,0.8-1.1,1.5-1c0,0,0,0,0,0
		c0.7,0.1,1.1,0.8,1,1.4c0,0,0,0,0,0c-3.4,17.4,1.7,35.3,13.6,48.4c0.2,0.2,0.3,0.6,0.3,0.9C140.4,211.9,139.9,212.5,139.2,212.5
		L139.2,212.5z M139.3,211.1L139.3,211.1z"></path><path class="st0" d="M185.4,144.7c-0.5,1.3-0.9,2.9,0,4c1,1.3,3.1,1.1,4.6,0.5c3.8-1.6,6.9-5.1,11-5.6c1.7-0.2,3.5,0.2,5.2-0.2
		c3.2-0.9,5-4.3,4.1-7.4c0-0.1-0.1-0.2-0.1-0.3c-2.1-5.2-9.4-3.5-13.4-2C191.7,135.6,187.5,139.6,185.4,144.7z"></path><path class="st1" d="M187.7,150.4c-1.1,0.1-2.2-0.4-2.9-1.3c-0.9-1.1-0.9-2.7-0.1-4.8l0,0c2.2-5.3,6.5-9.4,11.9-11.4
		c2.7-1,11.9-3.9,14.4,2.4c1.2,3.5-0.6,7.4-4.1,8.6c-0.1,0-0.2,0.1-0.3,0.1c-1.1,0.2-2.1,0.3-3.2,0.2c-0.7,0-1.4,0-2.1,0.1
		c-2.3,0.3-4.3,1.6-6.4,3c-1.4,1-2.8,1.8-4.4,2.5C189.5,150.3,188.6,150.4,187.7,150.4z M186.1,145L186.1,145
		c-0.4,1-0.8,2.4-0.1,3.3s2.4,0.8,3.8,0.2c1.4-0.7,2.8-1.5,4.1-2.4c2.2-1.4,4.4-2.9,7.1-3.2c0.8-0.1,1.5-0.1,2.3,0
		c0.9,0.1,1.9,0,2.8-0.2c2.8-0.8,4.3-3.8,3.5-6.5c0-0.1,0-0.1-0.1-0.2c-2-5-10-2.5-12.4-1.6C192.1,136.3,188.1,140.1,186.1,145
		L186.1,145z"></path><path class="st0" d="M168.4,169.4c-0.3,1.2-0.1,2.4,0.6,3.4c0.8,0.8,2,1.1,3.1,0.8c1.1-0.3,2-1,2.8-1.8c3.6-3.5,5.5-8.4,7-13.2
		c0.5-1.7,0.8-5-2-4.8c-1.5,0.1-3.9,2.7-5,3.7C171.3,160.6,169.1,164.8,168.4,169.4z"></path><path class="st1" d="M171.1,174.4c-1,0-2-0.4-2.7-1.1c-0.8-1.2-1.1-2.6-0.8-4l0,0c0.7-4.8,3.1-9.1,6.6-12.4l0.7-0.6
		c1.7-1.7,3.3-3.1,4.8-3.3c0.9-0.2,1.9,0.2,2.5,0.9c1,1.2,0.8,3.4,0.4,4.9c-1.5,4.9-3.4,9.9-7.2,13.5c-0.8,0.9-1.9,1.6-3.1,2
		C171.8,174.4,171.4,174.4,171.1,174.4z M169.1,169.5c-0.3,0.9-0.1,2,0.4,2.8c0.6,0.6,1.5,0.8,2.3,0.5c0.9-0.3,1.8-0.9,2.4-1.6
		c3.5-3.4,5.4-8.2,6.8-12.9c0.4-1.2,0.5-2.8-0.1-3.5c-0.3-0.3-0.7-0.5-1.2-0.4c-1,0.1-2.9,1.9-3.8,2.9c-0.3,0.3-0.5,0.5-0.7,0.7
		C172,161,169.8,165.1,169.1,169.5L169.1,169.5z"></path><path class="st1" d="M254.6,308.9c1.4-1.8,3.5-3.6,5.7-2.9c1.9,0.6,2.6,2.9,3,4.9c1.1,6.2,1.5,12.6,1.1,18.9
		c7-2.7,14.6-3.6,22.1-2.8c2,0.2,4.2,0.8,5,2.6c0.9,2.2-1.1,4.5-3,6.1c-5.4,4.3-11.1,8.1-17.2,11.4c4.3,4.5,7.3,10.1,8.6,16.2
		c0.4,1.7,0.6,3.6-0.4,5c-1.5,2.1-4.8,1.8-7.3,0.8c-3.9-1.6-7.3-4.1-9.9-7.4c-1.4-1.8-3-3.9-5.2-3.9c-1.6,0-3,1.1-4.2,2.1
		c-3,2.4-6.3,4.5-9.8,6.2c-2.6,1.3-5.8,2.3-8.3,0.9c-3.5-2.1-3-7.4-0.7-10.8s5.8-5.9,7.4-9.6c-3.9-1.1-7.5-3.4-10.1-6.5
		c-1.5-1.7-2.7-3.9-2.5-6.1c0.2-3.1,3.1-5.3,5.9-6.1c3-0.8,7,1.5,9.6-0.2c2.2-1.5,2.9-6.2,4-8.4C250,315.5,252.1,312,254.6,308.9z"></path></g><g id="clap"><path class="st1" d="M100.4,59.1c-1.4-2.5-3.3-4.7-5.6-6.6c-2.4-1.8-5.7-2.7-7.3-1.3c-2.2,1.9,0.3,6.1,2.7,9.3
		c3.4,4.6,20.5,30.7,24.6,28.7C119.4,86.9,103.4,63.7,100.4,59.1z"></path><path class="st1" d="M56.1,105.3c-2.9-0.7-5.7-1.8-8.4-3c-2.7-1.4-5.4-3.3-6.5-5.4c-1.9-3.4,1.5-5.5,6-5.1s9.4,2.7,14,4.9
		c9.4,4.6,20.7,10,28.8,16.2C86.9,116.9,63.3,107.5,56.1,105.3z"></path><path class="st1" d="M29.7,157.9c-4.3-3-4.3-6.4-1.5-7.7s7.6-1.2,12.3-1.1c6.8,0.2,40.9-1.2,33.9,7.6
		C70,162.1,42.1,159.4,29.7,157.9z"></path></g></svg>